<svg width="28" height="28" viewBox="0 0 28 28" fill="none" xmlns="http://www.w3.org/2000/svg">
<path d="M19.4368 2.33344C23.4035 2.33344 25.6668 4.57344 25.6668 8.55177V19.4484C25.6668 23.4034 23.4152 25.6668 19.4485 25.6668H8.55183C4.5735 25.6668 2.3335 23.4034 2.3335 19.4484V8.55177C2.3335 4.57344 4.5735 2.33344 8.55183 2.33344H19.4368ZM13.9885 8.76177C13.4518 8.76177 13.0202 9.19344 13.0202 9.7301V13.0201H9.7185C9.46183 13.0201 9.21683 13.1251 9.03016 13.3001C8.85516 13.4868 8.75016 13.7306 8.75016 13.9884C8.75016 14.5251 9.18183 14.9568 9.7185 14.9684H13.0202V18.2701C13.0202 18.8068 13.4518 19.2384 13.9885 19.2384C14.5252 19.2384 14.9568 18.8068 14.9568 18.2701V14.9684H18.2702C18.8068 14.9568 19.2385 14.5251 19.2385 13.9884C19.2385 13.4518 18.8068 13.0201 18.2702 13.0201H14.9568V9.7301C14.9568 9.19344 14.5252 8.76177 13.9885 8.76177Z" fill="white"/>
</svg>
