<svg width="88" height="88" viewBox="0 0 88 88" fill="none" xmlns="http://www.w3.org/2000/svg">
<circle cx="44" cy="44" r="43.5" fill="white" stroke="#EFEFEF"/>
<mask id="mask0_40:3028" style="mask-type:alpha" maskUnits="userSpaceOnUse" x="1" y="0" width="87" height="87">
<circle cx="44.5" cy="43.5" r="43" fill="#C4C4C4" stroke="#EFEFEF"/>
</mask>
<g mask="url(#mask0_40:3028)">
<path d="M25.1791 80.5715C25.1791 80.5715 10.4831 83.4708 9.87079 71.2697C9.62586 66.0147 8.89106 66.8 4.17611 62.3906C-0.477599 57.9813 -0.4776 56.1693 0.563363 52.0016C1.54309 47.8942 5.76817 46.505 3.68625 42.6997C0.930761 37.6864 1.78802 29.1093 7.72763 25.7872C13.4835 22.5859 14.1571 22.5859 14.1571 19.2639C14.1571 14.9149 18.6884 7.96875 28.1182 8.69357C36.1398 9.29758 34.9151 5.43188 40.671 3.68023C51.3256 0.478942 56.5304 9.59959 60.2044 9.9016C63.8784 10.2036 70.2466 10.264 73.4919 15.0961C77.4721 21.0759 73.9818 25.9684 78.9417 26.4517C83.9628 26.9349 88.9839 31.2234 88.8002 35.6931C88.6165 40.1628 85.9835 43.9077 87.8205 45.901C89.6575 47.8942 90.3923 59.6122 82.9831 61.847C72.8796 64.9275 82.9831 79.7259 64.3682 79.4239C47.4679 79.1823 25.1791 80.5715 25.1791 80.5715Z" fill="#3F2037"/>
<path d="M85.4318 91.9865H1.42004C1.42004 91.9865 2.27731 81.6578 7.35965 79.6645C8.40061 79.2417 10.1764 78.4565 12.2583 77.4297C12.5645 77.3089 12.8706 77.1277 13.1768 77.0069C13.7279 76.7653 14.279 76.4633 14.8301 76.1612C18.9327 74.168 23.7089 71.6915 27.4441 69.7587C27.8727 69.5171 28.3014 69.3359 28.73 69.0943C31.6692 67.5842 33.7511 66.497 33.7511 66.497L34.3634 66.6178C40.3643 67.9466 46.5488 67.8862 52.4884 66.497C52.4884 66.497 54.6316 67.5842 57.6932 69.0943C57.7545 69.0943 57.7545 69.1547 57.8157 69.1547C59.6527 70.0607 61.8571 71.2083 64.1227 72.2955C70.246 75.3156 76.9817 78.6377 79.5534 79.6041C84.6358 81.5974 85.4318 91.9865 85.4318 91.9865Z" fill="#BE00CF"/>
<path d="M44.2832 86.4296C42.2013 86.4296 40.3643 86.1276 38.9559 85.7652C35.3432 84.8591 33.2 83.2887 33.0775 83.2283C32.8938 83.1075 32.8326 82.8055 32.9551 82.6243C33.0775 82.4431 33.3837 82.3827 33.5674 82.5035C33.6286 82.5035 35.7106 84.0135 39.1396 84.9195C42.3237 85.7048 47.3448 86.188 53.162 83.6511C53.4069 83.5303 53.6519 83.6511 53.7743 83.8927C53.8968 84.1343 53.7743 84.3759 53.5294 84.4967C50.1616 85.9464 46.9774 86.4296 44.2832 86.4296Z" fill="#0056A8"/>
<path d="M57.6934 69.0943C56.7137 73.3224 53.5295 81.2954 43.4873 81.2954C32.7715 81.2954 29.6486 72.8392 28.7914 69.0943C31.7306 67.5842 33.8125 66.497 33.8125 66.497L34.4248 66.6178C40.4257 67.9466 46.6102 67.8862 52.5498 66.497C52.4886 66.4366 54.6317 67.5238 57.6934 69.0943Z" fill="#FFB8A1"/>
<path d="M18.3204 91.9865H1.42004C1.42004 91.9865 2.27731 81.6578 7.35965 79.6646C8.40061 79.2417 10.1764 78.4565 12.2583 77.4297C12.5645 77.3089 12.8706 77.1277 13.1768 77.0069C13.7279 76.7653 14.279 76.4633 14.8301 76.1613C16.116 79.6041 18.1979 86.1879 18.3204 91.9865Z" fill="#FFB8A1"/>
<path d="M68.5928 91.9865H85.4931C85.4931 91.9865 84.6358 81.6578 79.5535 79.6646C78.5125 79.2417 76.7368 78.4565 74.6549 77.4297C74.3487 77.3089 74.0425 77.1277 73.7364 77.0069C73.1853 76.7653 72.6342 76.4633 72.0831 76.1613C70.7972 79.6041 68.7152 86.1879 68.5928 91.9865Z" fill="#FFB8A1"/>
<path d="M52.9168 68.5506C52.9168 68.5506 51.2635 73.6848 43.6706 73.6848C34.853 73.6848 32.7711 69.0338 32.7711 69.0338C33.5671 67.0406 34.057 65.1681 34.4244 63.5373C35.098 60.5172 35.1592 58.1011 35.1592 56.6515L50.6512 56.0475C50.7736 57.3159 51.0186 58.8864 51.2635 60.3964C51.9983 64.4433 52.9168 68.5506 52.9168 68.5506Z" fill="#FFB8A1"/>
<path d="M51.3246 60.336C48.9365 61.9669 43.6704 64.4433 34.4855 63.4769C35.159 60.4568 35.2203 58.0407 35.2203 56.5911L50.7122 55.9871C50.8347 57.3159 51.0184 58.826 51.3246 60.336Z" fill="#3F2037"/>
<path d="M59.5912 37.5042C59.5912 37.5042 63.204 32.6116 66.0819 35.5109C68.8986 38.4102 63.4489 48.4369 58.489 46.2624L59.5912 37.5042Z" fill="#FFB8A1"/>
<path d="M58.1215 46.202C55.7947 47.2893 54.2026 49.6449 54.2026 52.363C54.2026 56.1683 57.3255 59.1884 61.1219 59.1884C64.9796 59.1884 68.0413 56.1079 68.0413 52.363C68.0413 48.9805 65.5307 46.1416 62.2241 45.598C61.918 45.5376 61.6118 45.5376 61.2444 45.4772C61.2444 45.2356 61.3056 44.9336 61.4281 44.692C61.9792 44.692 62.4691 44.8128 62.9589 44.9336C66.3268 45.7792 68.7761 48.7993 68.7761 52.3026C68.7761 56.5307 65.2858 59.9132 61.0607 59.9132C56.7744 59.9132 53.3453 56.4703 53.3453 52.3026C53.3453 49.1013 55.366 46.3832 58.1828 45.2356L58.1215 46.202Z" fill="#FFF7F1"/>
<path d="M61.0608 43.3027C60.8771 43.3027 60.8159 43.1819 60.8159 43.0007C61.3058 39.437 64.1225 37.2626 64.245 37.2022C64.3674 37.1417 64.4899 37.1417 64.6124 37.2626C64.6736 37.3834 64.6736 37.5042 64.5511 37.625C64.5511 37.625 61.7956 39.739 61.3058 43.1215C61.3058 43.1819 61.1833 43.3027 61.0608 43.3027Z" fill="#FF8A8A"/>
<path d="M61.7956 40.8263C61.7343 40.8263 61.6731 40.8263 61.6731 40.7659C61.5506 40.7055 61.5506 40.5243 61.6119 40.4034C62.2242 39.5578 63.8163 39.6182 63.8775 39.6182C64 39.6182 64.1224 39.739 64.1224 39.8598C64.1224 39.9806 64 40.1014 63.8775 40.1014C63.5101 40.1014 62.4079 40.1618 62.0405 40.6451C61.9793 40.8263 61.918 40.8263 61.7956 40.8263Z" fill="#FF8A8A"/>
<path d="M28.0565 37.5042C28.0565 37.5042 24.4437 32.6116 21.5658 35.5109C18.749 38.4102 24.1988 48.4369 29.1587 46.2624L28.0565 37.5042Z" fill="#FFB8A1"/>
<path d="M29.0361 45.296C31.8528 46.4436 33.8735 49.1617 33.8735 52.363C33.8735 56.5911 30.3832 59.9736 26.1581 59.9736C21.933 59.9736 18.4427 56.5307 18.4427 52.363C18.4427 48.7993 20.8921 45.8396 24.2599 44.994C24.7498 44.8732 25.3009 44.8128 25.7907 44.7524C25.852 44.994 25.9132 45.2356 25.9744 45.5376C25.6683 45.5376 25.3621 45.598 24.9947 45.6584C21.6881 46.202 19.1775 49.0409 19.1775 52.4234C19.1775 56.2287 22.3004 59.2488 26.0969 59.2488C29.8933 59.2488 33.0775 56.1079 33.0775 52.363C33.0775 49.6449 31.4854 47.2892 29.1585 46.202L29.0361 45.296Z" fill="#FFF7F1"/>
<path d="M29.0361 45.296C31.8528 46.4436 33.8735 49.1617 33.8735 52.363C33.8735 56.5911 30.3832 59.9736 26.1581 59.9736C21.933 59.9736 18.4427 56.5307 18.4427 52.363C18.4427 48.7993 20.8921 45.8396 24.2599 44.994C24.7498 44.8732 25.3009 44.8128 25.7907 44.7524C25.852 44.994 25.9132 45.2356 25.9744 45.5376C25.6683 45.5376 25.3621 45.598 24.9947 45.6584C21.6881 46.202 19.1775 49.0409 19.1775 52.4234C19.1775 56.2287 22.3004 59.2488 26.0969 59.2488C29.8933 59.2488 33.0775 56.1079 33.0775 52.363C33.0775 49.6449 31.4854 47.2892 29.1585 46.202L29.0361 45.296Z" fill="#FFF7F1"/>
<path d="M26.5866 43.3027C26.6479 43.3027 26.6479 43.3027 26.5866 43.3027C26.7703 43.3027 26.8316 43.1819 26.8316 43.0007C26.3417 39.437 23.525 37.2626 23.4025 37.2022C23.28 37.1417 23.1576 37.1417 23.0351 37.2626C22.9739 37.3834 22.9739 37.5042 23.0963 37.625C23.0963 37.625 25.8518 39.739 26.3417 43.1215C26.4029 43.1819 26.4642 43.3027 26.5866 43.3027Z" fill="#FF8A8A"/>
<path d="M25.8519 40.8263C25.9131 40.8263 25.9743 40.8263 25.9743 40.7659C26.0968 40.7055 26.0968 40.5243 26.0356 40.4034C25.4232 39.5578 23.8312 39.6182 23.77 39.6182C23.6475 39.6182 23.525 39.739 23.525 39.8598C23.525 39.9806 23.6475 40.1014 23.77 40.1014C24.1374 40.1014 25.2395 40.1618 25.6069 40.6451C25.6682 40.8263 25.7906 40.8263 25.8519 40.8263Z" fill="#FF8A8A"/>
<path d="M61.4281 38.2894C61.1831 48.1953 55.6722 61.6648 43.6705 61.3628C33.0159 61.1212 27.7499 51.1549 26.464 42.0947C26.3415 41.3095 26.2803 40.5847 26.2191 39.7994C25.1781 25.1822 31.1177 17.6924 43.793 17.2696C44.5277 17.2696 45.2625 17.2696 45.9973 17.2696C46.6709 17.2696 49.7938 17.8132 50.4061 17.9944C59.2237 20.8937 61.7342 27.8399 61.4281 38.2894Z" fill="#FFB8A1"/>
<g opacity="0.5">
<g opacity="0.5">
<path opacity="0.5" d="M37.7311 44.2692C37.7311 45.4168 35.5879 46.3228 32.9549 46.3228C30.3219 46.3228 28.1787 45.4168 28.1787 44.2692C28.1787 43.1215 30.3219 42.2155 32.9549 42.2155C35.5879 42.2155 37.7311 43.1215 37.7311 44.2692Z" fill="#FF8A8A"/>
</g>
</g>
<g opacity="0.5">
<g opacity="0.5">
<path opacity="0.5" d="M60.2036 44.2692C60.2036 45.4168 58.0604 46.3228 55.4274 46.3228C52.7944 46.3228 50.6512 45.4168 50.6512 44.2692C50.6512 43.1215 52.7944 42.2155 55.4274 42.2155C58.0604 42.2155 60.2036 43.1215 60.2036 44.2692Z" fill="#FF8A8A"/>
</g>
</g>
<path d="M36.8127 26.2695C33.6899 26.5111 34.6083 30.0748 31.5467 31.8264C28.1789 33.7593 28.6075 34.9069 29.4035 37.5646C30.6282 41.5511 26.6481 42.5175 26.6481 42.5175C26.5868 42.3967 26.5256 42.2759 26.5256 42.2155C26.4031 41.4303 26.3419 40.7055 26.2807 39.9202C25.2397 25.303 30.0159 16.7864 43.8545 17.3904C45.5078 23.7326 40.9766 25.9675 36.8127 26.2695Z" fill="#3F2037"/>
<path d="M50.5288 25.2427C54.6927 25.1823 53.2231 29.4104 55.6724 31.3432C58.6728 33.7593 59.7138 32.7325 58.3666 36.6586C57.0195 40.7055 60.9384 42.4571 60.9384 42.4571C60.9997 42.3363 61.0609 42.2155 61.0609 42.1551C61.1834 41.3699 61.2446 40.6451 61.3058 39.8599C62.3468 25.2427 57.3257 16.726 43.7319 17.33C42.0786 23.7326 46.365 25.3031 50.5288 25.2427Z" fill="#3F2037"/>
<path d="M39.6905 31.3432C38.0372 31.4036 34.5469 31.8264 32.9548 34.7257C32.9548 34.7257 36.6288 33.0344 39.6905 33.2157C40.3028 33.2761 40.7314 32.7324 40.6702 32.1888C40.5477 31.6452 40.1803 31.3432 39.6905 31.3432Z" fill="#3F2037"/>
<path d="M48.6917 31.3432C50.345 31.4036 53.8353 31.8264 55.4274 34.7257C55.4274 34.7257 51.7534 33.0344 48.6917 33.2157C48.0794 33.2761 47.6508 32.7324 47.712 32.1888C47.7732 31.6452 48.2019 31.3432 48.6917 31.3432Z" fill="#3F2037"/>
<path d="M44.6504 48.0141C44.0993 48.0141 43.487 47.8933 42.7522 47.5912C42.5685 47.5308 42.446 47.2892 42.5073 47.108L43.487 39.8598C43.5482 39.6182 43.7319 39.437 43.9769 39.4974C44.2218 39.5578 44.4055 39.739 44.3443 39.9806L43.487 46.8664C44.4667 47.2288 45.2015 47.1684 45.7526 46.806C45.9363 46.6852 46.2425 46.7456 46.3649 46.9268C46.4874 47.108 46.4262 47.41 46.2425 47.5308C45.8138 47.8328 45.2628 48.0141 44.6504 48.0141Z" fill="#FF8A8A"/>
<path d="M43.7319 52.7858C43.3033 52.7858 42.9359 52.7858 42.5685 52.7254C40.4866 52.4838 39.017 51.6986 38.9557 51.6382C38.7108 51.5174 38.6496 51.2154 38.772 51.0342C38.8945 50.7925 39.2007 50.7321 39.3844 50.8529C39.6293 50.9737 44.8341 53.7522 49.4266 49.6449C49.6103 49.4637 49.9165 49.4637 50.1002 49.6449C50.2839 49.8261 50.2839 50.1281 50.1002 50.3093C47.8958 52.3026 45.5689 52.7858 43.7319 52.7858Z" fill="#FF8A8A"/>
<path d="M44.5281 55.4435C43.4871 55.4435 42.6298 55.2019 42.5686 55.1415C42.3237 55.0811 42.2012 54.8394 42.2624 54.5978C42.3237 54.3562 42.5686 54.2354 42.8135 54.2958C42.8135 54.2958 44.9567 54.8998 46.4263 54.1146C46.6712 53.9938 46.9161 54.0542 47.0386 54.2958C47.1611 54.5374 47.0998 54.779 46.8549 54.8999C46.1201 55.3227 45.3241 55.4435 44.5281 55.4435Z" fill="#FF8A8A"/>
<path d="M38.3434 38.2894C38.3434 39.5578 37.9148 40.5847 37.3025 40.5847C36.6901 40.5847 36.2003 39.5578 36.139 38.2894C36.139 37.021 36.5677 35.9941 37.18 35.9941C37.8536 35.9941 38.3434 37.021 38.3434 38.2894Z" fill="#3F2037"/>
<path d="M49.7938 38.2894C49.7938 39.5578 50.2225 40.5847 50.8348 40.5847C51.4471 40.5847 51.937 39.5578 51.9982 38.2894C51.9982 37.021 51.5696 35.9941 50.9572 35.9941C50.3449 35.9941 49.8551 37.021 49.7938 38.2894Z" fill="#3F2037"/>
</g>
</svg>
