<svg width="88" height="88" viewBox="0 0 88 88" fill="none" xmlns="http://www.w3.org/2000/svg">
<circle cx="44" cy="44" r="43.5" fill="white" stroke="#EFEFEF"/>
<mask id="mask0_40:2398" style="mask-type:alpha" maskUnits="userSpaceOnUse" x="1" y="0" width="87" height="87">
<circle cx="44.5" cy="43.5" r="43" fill="#C4C4C4" stroke="#EFEFEF"/>
</mask>
<g mask="url(#mask0_40:2398)">
<path d="M30.185 6.04681C30.185 6.04681 20.868 14.1298 20.4977 27.4575C20.1275 40.7851 27.3467 46.5234 20.6211 52.2C13.8956 57.9383 -1.0363 64.1702 7.97221 79.5957H44.8701V8.82341L30.185 6.04681Z" fill="#3F2037"/>
<path d="M59.3085 6.04681C59.3085 6.04681 68.6255 14.1298 68.9957 27.4575C69.3659 40.7851 62.1468 46.5234 68.8723 52.2C75.5978 57.8766 90.5297 64.1085 81.4595 79.5341H44.5616V8.82341L59.3085 6.04681Z" fill="#3F2037"/>
<path d="M86.8892 86.1979H2.23389C2.23389 86.1979 3.09772 75.6468 8.21899 73.6106C9.26793 73.1787 11.0573 72.3766 13.1552 71.3277C13.4637 71.2043 13.7722 71.0192 14.0807 70.8957C18.5232 68.7362 24.1998 65.7745 28.519 63.4915C32.1594 61.5787 34.8126 60.1596 34.8126 60.1596L35.4296 60.283C41.4764 61.6404 47.7084 61.5787 53.6935 60.1596C53.6935 60.1596 55.853 61.2702 59.0615 62.8745C60.9126 63.8 63.1339 64.9723 65.4169 66.083C71.5871 69.1681 78.3743 72.5617 80.9658 73.5489C86.0254 75.6468 86.8892 86.1979 86.8892 86.1979Z" fill="#4E55FF"/>
<path d="M21.4232 86.1979H19.1402C17.4125 82.3723 14.4508 75.7085 13.0934 71.3277C13.4019 71.2043 13.7104 71.0192 14.0189 70.8958C15.0679 73.4872 18.3998 81.6936 21.4232 86.1979Z" fill="#2C4DC4"/>
<path d="M66.1572 86.1979H68.4402C70.1679 82.3723 73.3764 75.1532 74.7955 70.7106C74.487 70.5872 74.3019 70.4638 73.9934 70.3404C72.8828 72.9319 69.1806 81.6936 66.1572 86.1979Z" fill="#2C4DC4"/>
<path d="M40.1189 86.1979H21.6083C18.5231 81.5702 15.6231 74.8447 14.0189 70.834C13.2168 68.7979 12.7231 67.5021 12.7231 67.5021C17.4742 63.7383 28.3955 63.4298 28.3955 63.4298C32.3444 68.6745 37.3423 79.7808 40.1189 86.1979Z" fill="#4E55FF"/>
<path d="M47.6466 86.1979H66.1572C69.2424 81.5702 72.1424 74.8447 73.7466 70.8341C74.5487 68.7979 75.0424 67.5021 75.0424 67.5021C70.2913 63.7383 59.0615 62.8745 59.0615 62.8745C55.1126 68.1192 50.4232 79.7809 47.6466 86.1979Z" fill="#4E55FF"/>
<path d="M58.9997 62.8745C58.7529 64.8489 58.321 68.3043 57.3955 72.0064C55.9763 77.7447 53.5699 84.0383 49.5593 86.1979H42.8955C37.3423 83.8532 33.5167 77.2511 31.172 71.5745C29.7529 68.0574 28.8274 64.9723 28.4572 63.4915C32.0976 61.5787 34.7508 60.1596 34.7508 60.1596L35.3678 60.283C41.4146 61.6404 47.6465 61.5787 53.6316 60.1596C53.6933 60.1596 55.8529 61.2702 58.9997 62.8745Z" fill="#FFB8A1"/>
<path d="M57.3954 72.0064C55.9763 77.7447 53.5699 84.0383 49.5592 86.1979H42.8954C37.3422 83.8532 33.5167 77.2511 31.172 71.5745C34.072 72.8085 38.4528 73.8574 44.6231 73.8574C50.0528 73.9191 54.2486 73.0553 57.3954 72.0064Z" fill="#FFF7F1"/>
<path d="M54.1254 62.3192C54.1254 62.3192 52.4595 67.5638 44.8084 67.5638C35.9233 67.5638 33.8254 62.8128 33.8254 62.8128C34.6276 60.7766 35.1212 58.8638 35.4914 57.1979C36.1701 54.1128 36.2318 51.6447 36.2318 50.1638L51.8425 49.5468C51.9659 50.8426 52.2127 52.4468 52.4595 53.9894C53.1999 58.1234 54.1254 62.3192 54.1254 62.3192Z" fill="#FFB8A1"/>
<path d="M44.9318 69.9702C40.2425 69.9702 37.2191 67.5638 35.4914 65.5894C33.6403 63.4298 32.8382 61.2702 32.8382 61.2085C32.7765 61.0234 32.8382 60.9 33.0233 60.8383C33.2084 60.7766 33.3318 60.8383 33.3935 61.0234C33.3935 61.0234 34.1339 63.183 35.985 65.2191C38.3914 67.9957 41.4148 69.4149 44.9935 69.4149C48.5105 69.4149 51.4105 67.9957 53.4467 65.2808C54.9893 63.183 55.4829 61.0851 55.4829 61.0851C55.5446 60.9 55.668 60.8383 55.8531 60.8383C56.0382 60.9 56.0999 61.0234 56.0999 61.2085C56.0999 61.2702 55.5446 63.4298 53.9403 65.5894C52.3978 67.5638 49.6212 69.9702 44.9318 69.9702Z" fill="#FFF7F1"/>
<path d="M52.4594 53.9277C50.053 55.5936 44.7467 58.1234 35.4913 57.1362C36.1701 54.0511 36.2318 51.583 36.2318 50.1021L51.8424 49.4851C51.9658 50.7809 52.2126 52.3851 52.4594 53.9277Z" fill="#3F2037"/>
<path d="M30.2467 29.7404C30.2467 29.7404 25.4339 23.1383 21.6701 27.0255C17.9063 30.9128 25.1871 44.4872 31.7275 41.5255L30.2467 29.7404Z" fill="#FFB8A1"/>
<path d="M28.2106 37.5149C28.0255 37.5149 27.9021 37.3915 27.9021 37.2064C27.2851 32.6404 23.6446 29.8021 23.5829 29.8021C23.4595 29.6787 23.3978 29.4936 23.5212 29.3085C23.6446 29.1851 23.8298 29.1234 24.0149 29.2468C24.2 29.3702 27.9021 32.2702 28.5808 37.083C28.5808 37.2681 28.4574 37.4532 28.2106 37.5149C28.2106 37.5149 28.2723 37.5149 28.2106 37.5149Z" fill="#FF8A8A"/>
<path d="M27.2233 34.183C27.0999 34.183 27.0382 34.1213 26.9765 34.0596C26.4829 33.3191 25.0637 33.2574 24.5084 33.3191C24.3233 33.3191 24.1382 33.1957 24.1382 33.0106C24.1382 32.8255 24.2616 32.6404 24.4467 32.6404C24.5084 32.6404 26.7297 32.517 27.4701 33.6894C27.5935 33.8128 27.5318 34.0596 27.4084 34.183C27.3467 34.183 27.285 34.183 27.2233 34.183Z" fill="#FF8A8A"/>
<path d="M28.7042 41.8341C28.5808 41.8341 28.5191 41.7723 28.3957 41.7723C27.9638 41.9575 27.4084 41.8958 27.0999 41.6489C25.9893 40.8468 26.9765 38.9958 26.9765 38.9341C27.0382 38.7489 26.9765 38.5638 26.8531 38.4404C26.668 38.3787 26.4829 38.4404 26.3595 38.5638C26.2978 38.6872 25.0638 41.0319 26.7297 42.2043C27.0382 42.4511 27.4701 42.5745 27.9021 42.5745C28.334 42.5745 28.7042 42.4511 29.0744 42.266C29.1978 42.2043 29.3212 42.0809 29.4446 41.9575C29.1978 41.8958 28.951 41.8958 28.7042 41.8341Z" fill="#FFF7F1"/>
<path d="M59.6786 29.7404C59.6786 29.7404 64.4914 23.1383 68.2552 27.0255C72.019 30.9128 64.7382 44.4872 58.1978 41.5255L59.6786 29.7404Z" fill="#FFB8A1"/>
<path d="M61.6531 37.5149C61.6531 37.5149 61.5914 37.5149 61.6531 37.5149C61.4063 37.5149 61.2829 37.3298 61.3446 37.1447C62.0233 32.2702 65.7254 29.4319 65.9105 29.3085C66.0339 29.1851 66.2807 29.2468 66.4042 29.3702C66.5276 29.4936 66.4659 29.7404 66.3425 29.8638C66.2808 29.8638 62.6403 32.7021 62.0233 37.2681C61.9616 37.3915 61.8382 37.5149 61.6531 37.5149Z" fill="#FF8A8A"/>
<path d="M62.6404 34.183C62.5787 34.183 62.517 34.183 62.4553 34.1213C62.3319 33.9979 62.2702 33.8128 62.3936 33.6277C63.1957 32.4553 65.3553 32.5787 65.417 32.5787C65.6021 32.5787 65.7255 32.7639 65.7255 32.949C65.7255 33.1341 65.5404 33.2575 65.3553 33.2575C64.8616 33.1958 63.3808 33.3192 62.8872 33.9979C62.8872 34.183 62.7638 34.183 62.6404 34.183Z" fill="#FF8A8A"/>
<path d="M61.2213 41.8341C61.3447 41.8341 61.4064 41.7723 61.5298 41.7723C61.9618 41.9575 62.5171 41.8958 62.8256 41.6489C63.9362 40.8468 62.949 38.9958 62.949 38.9341C62.8873 38.7489 62.949 38.5638 63.0724 38.4404C63.2575 38.3787 63.4426 38.4404 63.566 38.5638C63.6277 38.6872 64.8618 41.0319 63.1958 42.2043C62.8873 42.4511 62.5171 42.5745 62.0852 42.5745C61.6532 42.5745 61.283 42.4511 60.9128 42.266C60.7894 42.2043 60.666 42.0809 60.5426 41.9575C60.7894 41.8958 60.9745 41.8958 61.2213 41.8341Z" fill="#FFF7F1"/>
<path d="M47.153 9.99576C32.8381 9.56385 26.1743 17.2149 27.2849 33.0107C27.9637 42.8213 33.2083 54.7298 44.87 55.0383C56.9637 55.3468 62.4551 41.5873 62.7637 31.4681C63.0105 20.7936 60.4807 13.6362 51.6573 10.7979C50.9786 10.4894 47.8317 9.99576 47.153 9.99576Z" fill="#FFB8A1"/>
<path d="M34.5659 36.0341C34.5659 36.2809 34.3808 36.466 34.1339 36.466C33.8871 36.466 33.702 36.2809 33.702 36.0341C33.702 35.7872 33.8871 35.6021 34.1339 35.6021C34.3808 35.6638 34.5659 35.849 34.5659 36.0341Z" fill="#FF8A8A"/>
<path d="M36.602 37.083C36.602 37.3298 36.4169 37.5149 36.1701 37.5149C35.9233 37.5149 35.7382 37.3298 35.7382 37.083C35.7382 36.8362 35.9233 36.6511 36.1701 36.6511C36.4169 36.6511 36.602 36.8362 36.602 37.083Z" fill="#FF8A8A"/>
<path d="M34.5659 38.5021C34.5659 38.7489 34.3808 38.934 34.1339 38.934C33.8871 38.934 33.702 38.7489 33.702 38.5021C33.702 38.2553 33.8871 38.0702 34.1339 38.0702C34.3808 38.0702 34.5659 38.2553 34.5659 38.5021Z" fill="#FF8A8A"/>
<path d="M37.7744 38.934C37.7744 39.1809 37.5892 39.366 37.3424 39.366C37.0956 39.366 36.9105 39.1809 36.9105 38.934C36.9105 38.6872 37.0956 38.5021 37.3424 38.5021C37.5892 38.5021 37.7744 38.6872 37.7744 38.934Z" fill="#FF8A8A"/>
<path d="M39.8723 38.5021C39.8723 38.7489 39.6871 38.934 39.4403 38.934C39.1935 38.934 39.0084 38.7489 39.0084 38.5021C39.0084 38.2553 39.1935 38.0702 39.4403 38.0702C39.6871 38.0702 39.8723 38.2553 39.8723 38.5021Z" fill="#FF8A8A"/>
<path d="M38.8849 36.466C38.8849 36.7128 38.6998 36.8979 38.453 36.8979C38.2062 36.8979 38.0211 36.7128 38.0211 36.466C38.0211 36.2192 38.2062 36.0341 38.453 36.0341C38.6998 36.0341 38.8849 36.2192 38.8849 36.466Z" fill="#FF8A8A"/>
<path d="M55.7296 36.0341C55.7296 36.2809 55.9147 36.466 56.1615 36.466C56.4083 36.466 56.5934 36.2809 56.5934 36.0341C56.5934 35.7872 56.4083 35.6021 56.1615 35.6021C55.9147 35.6638 55.7296 35.849 55.7296 36.0341Z" fill="#FF8A8A"/>
<path d="M53.6935 37.083C53.6935 37.3298 53.8786 37.5149 54.1254 37.5149C54.3722 37.5149 54.5573 37.3298 54.5573 37.083C54.5573 36.8362 54.3722 36.6511 54.1254 36.6511C53.8786 36.6511 53.6935 36.8362 53.6935 37.083Z" fill="#FF8A8A"/>
<path d="M55.7296 38.5021C55.7296 38.7489 55.9147 38.934 56.1615 38.934C56.4083 38.934 56.5934 38.7489 56.5934 38.5021C56.5934 38.2553 56.4083 38.0702 56.1615 38.0702C55.9147 38.0702 55.7296 38.2553 55.7296 38.5021Z" fill="#FF8A8A"/>
<path d="M52.521 38.934C52.521 39.1809 52.7061 39.366 52.9529 39.366C53.1997 39.366 53.3848 39.1809 53.3848 38.934C53.3848 38.6872 53.1997 38.5021 52.9529 38.5021C52.7061 38.5021 52.521 38.6872 52.521 38.934Z" fill="#FF8A8A"/>
<path d="M50.4232 38.5021C50.4232 38.7489 50.6083 38.934 50.8551 38.934C51.1019 38.934 51.287 38.7489 51.287 38.5021C51.287 38.2553 51.1019 38.0702 50.8551 38.0702C50.6083 38.0702 50.4232 38.2553 50.4232 38.5021Z" fill="#FF8A8A"/>
<path d="M51.4105 36.466C51.4105 36.7128 51.5956 36.8979 51.8424 36.8979C52.0892 36.8979 52.2744 36.7128 52.2744 36.466C52.2744 36.2192 52.0892 36.0341 51.8424 36.0341C51.5956 36.0341 51.4105 36.2192 51.4105 36.466Z" fill="#FF8A8A"/>
<path d="M27.8403 35.7872C27.8403 35.7872 30.6786 29.7404 29.7531 25.2979L26.6063 24.3723C26.6063 24.3723 26.1127 32.0234 27.8403 35.7872Z" fill="#3F2037"/>
<path d="M62.0849 35.7872C62.0849 35.7872 59.2466 29.7404 60.1721 25.2979L63.3189 24.3723C63.3189 24.3723 63.8125 32.0234 62.0849 35.7872Z" fill="#3F2037"/>
<path d="M30.185 6.04682C26.7297 9.50213 24.0148 15.117 23.8297 18.5106C23.6446 21.966 24.5084 25.4213 27.1616 26.7787C35.3063 30.9128 52.0893 15.3638 52.0893 15.3638C52.0893 15.3638 58.0127 27.3958 62.702 26.8404C67.3914 26.2851 69.3658 12.6489 58.2595 5.05958C47.0914 -2.52978 35.4914 0.802135 30.185 6.04682Z" fill="#3F2037"/>
<path d="M33.085 28.5681C33.085 28.5681 33.8871 26.6553 36.4786 24.9894C39.8105 22.9532 42.1552 26.4702 42.1552 26.4702C42.1552 26.4702 39.5637 25.5447 37.5275 26.2234C35.6147 26.9021 33.085 28.5681 33.085 28.5681Z" fill="#3F2037"/>
<path d="M57.5189 28.5681C57.5189 28.5681 56.7168 26.6553 54.1253 24.9894C50.7934 22.9532 48.4487 26.4702 48.4487 26.4702C48.4487 26.4702 51.0402 25.5447 53.0764 26.2234C54.9892 26.9021 57.5189 28.5681 57.5189 28.5681Z" fill="#3F2037"/>
<path d="M45.7956 41.2787C45.2403 41.2787 44.6233 41.1553 43.8829 40.8468C43.6977 40.7851 43.5743 40.5383 43.636 40.3532L44.6233 32.9489C44.685 32.7021 44.8701 32.517 45.1169 32.5787C45.3637 32.6404 45.5488 32.8255 45.4871 33.0723L44.5616 40.1064C45.5488 40.4766 46.2892 40.4149 46.8446 40.0447C47.0297 39.9213 47.3382 39.983 47.4616 40.1681C47.585 40.3532 47.5233 40.6617 47.3382 40.7851C46.9063 41.1553 46.3509 41.2787 45.7956 41.2787Z" fill="#FF8A8A"/>
<path d="M44.87 46.2149C44.4381 46.2149 44.0679 46.2149 43.6977 46.1532C41.5998 45.9064 40.1189 45.1043 40.0572 45.0426C39.8104 44.9192 39.7487 44.6106 39.8721 44.4255C39.9955 44.1787 40.304 44.117 40.4891 44.2404C40.736 44.3638 45.9806 47.2021 50.6083 43.0064C50.7934 42.8213 51.1019 42.8213 51.287 43.0064C51.4721 43.1915 51.4721 43.5 51.287 43.6851C49.0657 45.6596 46.7211 46.2149 44.87 46.2149Z" fill="#FF8A8A"/>
<path d="M45.6722 48.9298C44.6233 48.9298 43.7595 48.683 43.6978 48.6213C43.451 48.5596 43.3276 48.3128 43.3893 48.066C43.451 47.8192 43.6978 47.6958 43.9446 47.7575C44.0063 47.7575 46.1042 48.3745 47.585 47.5724C47.8318 47.4489 48.0786 47.5107 48.202 47.7575C48.3254 48.0043 48.2637 48.2511 48.0169 48.3745C47.2765 48.8064 46.4127 48.9298 45.6722 48.9298Z" fill="#FF8A8A"/>
<path d="M39.4403 31.4064C39.4403 32.7021 39.0084 33.7511 38.3913 33.7511C37.7743 33.7511 37.2807 32.7021 37.219 31.4064C37.219 30.1106 37.6509 29.0617 38.2679 29.0617C38.885 29.0617 39.3786 30.1106 39.4403 31.4064Z" fill="#3F2037"/>
<path d="M50.9785 31.4064C50.9785 32.7021 51.4104 33.7511 52.0274 33.7511C52.6445 33.7511 53.1381 32.7021 53.1998 31.4064C53.1998 30.1106 52.7679 29.0617 52.1509 29.0617C51.5338 29.0617 50.9785 30.1106 50.9785 31.4064Z" fill="#3F2037"/>
</g>
</svg>
