<svg width="88" height="88" viewBox="0 0 88 88" fill="none" xmlns="http://www.w3.org/2000/svg">
<circle cx="44" cy="44" r="43.5" fill="white" stroke="#EFEFEF"/>
<mask id="mask0_40:2801" style="mask-type:alpha" maskUnits="userSpaceOnUse" x="1" y="0" width="87" height="87">
<circle cx="44.5" cy="43.5" r="43" fill="#C4C4C4" stroke="#EFEFEF"/>
</mask>
<g mask="url(#mask0_40:2801)">
<path d="M80.8878 88.0091H6.11255C6.11255 88.0091 6.16705 87.2397 6.38505 86.0307C6.49406 85.4261 6.60306 84.7666 6.82106 84.0522C7.09357 83.008 7.42057 81.8539 7.91108 80.8097C8.18358 80.2052 8.45609 79.6556 8.78309 79.1061C9.49161 78.0619 10.3091 77.1826 11.3991 76.7429C12.3257 76.3582 13.9062 75.6438 15.7592 74.7095C16.0317 74.5996 16.3042 74.4347 16.5767 74.3248C17.0672 74.05 17.6122 73.7752 18.1573 73.5005C18.8113 73.1707 19.4108 72.841 20.0648 72.5112C23.1713 70.9175 26.5504 69.1589 29.2754 67.73C29.7114 67.5101 30.093 67.2903 30.529 67.0705C30.8015 66.9606 31.0195 66.7957 31.292 66.6858C33.472 65.5317 34.889 64.7623 34.889 64.7623L35.434 64.8722C40.7751 66.0813 46.2797 66.0263 51.5663 64.7623C51.5663 64.7623 53.0378 65.5317 55.2724 66.6858C55.5994 66.8507 55.9264 67.0155 56.2534 67.1804C56.4169 67.2354 56.5259 67.3453 56.6894 67.4002C58.2154 68.1696 60.014 69.1039 61.867 70.0382C63.502 70.8625 65.1915 71.7418 66.8266 72.5112C67.5351 72.841 68.1891 73.1707 68.8431 73.5005C71.7862 74.9843 74.3477 76.1384 75.6012 76.688C76.6367 77.1276 77.5088 77.952 78.2173 78.9962C78.5443 79.5457 78.8713 80.0953 79.1438 80.6998C79.6343 81.744 79.9613 82.8981 80.2338 83.9423C80.3973 84.6567 80.5608 85.3162 80.6153 85.9207C80.8333 87.1847 80.8878 88.0091 80.8878 88.0091Z" fill="#BC21BF"/>
<path d="M32.8181 68.0597C32.8181 68.8291 32.2186 69.4336 31.4555 69.4336C30.6925 69.4336 30.093 68.8291 30.093 68.0597C30.093 67.675 30.2565 67.3453 30.4745 67.1254C30.747 67.0155 30.965 66.8507 31.2375 66.7407C31.292 66.7407 31.401 66.7407 31.4555 66.7407C32.2186 66.6858 32.8181 67.2903 32.8181 68.0597Z" fill="#734669"/>
<path d="M38.8132 68.0597C38.8132 68.8291 38.2137 69.4336 37.4507 69.4336C36.6876 69.4336 36.0881 68.8291 36.0881 68.0597C36.0881 67.2903 36.6876 66.6858 37.4507 66.6858C38.2137 66.6858 38.8132 67.2903 38.8132 68.0597Z" fill="#734669"/>
<path d="M44.8629 68.0597C44.8629 68.8291 44.2634 69.4336 43.5003 69.4336C42.7373 69.4336 42.1378 68.8291 42.1378 68.0597C42.1378 67.2903 42.7373 66.6858 43.5003 66.6858C44.2634 66.6858 44.8629 67.2903 44.8629 68.0597Z" fill="#734669"/>
<path d="M50.858 68.0597C50.858 68.8291 50.2585 69.4336 49.4955 69.4336C48.7324 69.4336 48.1329 68.8291 48.1329 68.0597C48.1329 67.2903 48.7324 66.6858 49.4955 66.6858C50.2585 66.6858 50.858 67.2903 50.858 68.0597Z" fill="#734669"/>
<path d="M56.8531 68.0597C56.8531 68.8291 56.2536 69.4336 55.4906 69.4336C54.7276 69.4336 54.1281 68.8291 54.1281 68.0597C54.1281 67.4002 54.6186 66.8507 55.2181 66.7408C55.5451 66.9056 55.8721 67.0705 56.1991 67.2354C56.3626 67.2903 56.4716 67.4002 56.6351 67.4552C56.7986 67.6201 56.8531 67.8399 56.8531 68.0597Z" fill="#734669"/>
<path d="M20.8278 73.7752C20.8278 74.5446 20.2283 75.1491 19.4653 75.1491C18.7023 75.1491 18.1028 74.5446 18.1028 73.7752C18.1028 73.7203 18.1028 73.6103 18.1028 73.5554C18.7568 73.2256 19.3563 72.8959 20.0103 72.5662C20.5008 72.786 20.8278 73.2256 20.8278 73.7752Z" fill="#734669"/>
<path d="M26.8229 73.7752C26.8229 74.5446 26.2234 75.1492 25.4604 75.1492C24.6974 75.1492 24.0979 74.5446 24.0979 73.7752C24.0979 73.0058 24.6974 72.4013 25.4604 72.4013C26.2234 72.4013 26.8229 73.0058 26.8229 73.7752Z" fill="#734669"/>
<path d="M32.8181 73.7752C32.8181 74.5446 32.2186 75.1492 31.4555 75.1492C30.6925 75.1492 30.093 74.5446 30.093 73.7752C30.093 73.0058 30.6925 72.4013 31.4555 72.4013C32.2186 72.4013 32.8181 73.0058 32.8181 73.7752Z" fill="#734669"/>
<path d="M38.8132 73.7752C38.8132 74.5446 38.2137 75.1492 37.4507 75.1492C36.6876 75.1492 36.0881 74.5446 36.0881 73.7752C36.0881 73.0058 36.6876 72.4013 37.4507 72.4013C38.2137 72.4013 38.8132 73.0058 38.8132 73.7752Z" fill="#734669"/>
<path d="M44.8629 73.7752C44.8629 74.5446 44.2633 75.1492 43.5003 75.1492C42.7373 75.1492 42.1378 74.5446 42.1378 73.7752C42.1378 73.0058 42.7373 72.4013 43.5003 72.4013C44.2633 72.4013 44.8629 73.0058 44.8629 73.7752Z" fill="#734669"/>
<path d="M50.858 73.7752C50.858 74.5446 50.2585 75.1492 49.4955 75.1492C48.7324 75.1492 48.1329 74.5446 48.1329 73.7752C48.1329 73.0058 48.7324 72.4013 49.4955 72.4013C50.2585 72.4013 50.858 73.0058 50.858 73.7752Z" fill="#734669"/>
<path d="M56.8529 73.7752C56.8529 74.5446 56.2534 75.1492 55.4903 75.1492C54.7273 75.1492 54.1278 74.5446 54.1278 73.7752C54.1278 73.0058 54.7273 72.4013 55.4903 72.4013C56.2534 72.4013 56.8529 73.0058 56.8529 73.7752Z" fill="#734669"/>
<path d="M62.848 73.7752C62.848 74.5446 62.2485 75.1492 61.4855 75.1492C60.7224 75.1492 60.1229 74.5446 60.1229 73.7752C60.1229 73.0058 60.7224 72.4013 61.4855 72.4013C62.2485 72.4013 62.848 73.0058 62.848 73.7752Z" fill="#734669"/>
<path d="M68.8431 73.7752C68.8431 74.5446 68.2436 75.1491 67.4806 75.1491C66.7176 75.1491 66.118 74.5446 66.118 73.7752C66.118 73.2806 66.3905 72.8409 66.7721 72.5662C67.4806 72.8959 68.1346 73.2256 68.7886 73.5554C68.8431 73.6653 68.8431 73.7203 68.8431 73.7752Z" fill="#734669"/>
<path d="M8.83765 79.4908C8.83765 80.0953 8.45614 80.6449 7.91113 80.8097C8.18364 80.2052 8.45614 79.6556 8.78315 79.1061C8.78315 79.216 8.83765 79.3809 8.83765 79.4908Z" fill="#734669"/>
<path d="M14.8328 79.4908C14.8328 80.2602 14.2333 80.8647 13.4703 80.8647C12.7073 80.8647 12.1078 80.2602 12.1078 79.4908C12.1078 78.7214 12.7073 78.1169 13.4703 78.1169C14.2333 78.1169 14.8328 78.7214 14.8328 79.4908Z" fill="#734669"/>
<path d="M20.8278 79.4908C20.8278 80.2602 20.2283 80.8647 19.4653 80.8647C18.7023 80.8647 18.1028 80.2602 18.1028 79.4908C18.1028 78.7214 18.7023 78.1169 19.4653 78.1169C20.2283 78.1169 20.8278 78.7214 20.8278 79.4908Z" fill="#734669"/>
<path d="M26.8229 79.4908C26.8229 80.2602 26.2234 80.8647 25.4604 80.8647C24.6974 80.8647 24.0979 80.2602 24.0979 79.4908C24.0979 78.7214 24.6974 78.1169 25.4604 78.1169C26.2234 78.1169 26.8229 78.7214 26.8229 79.4908Z" fill="#734669"/>
<path d="M32.8181 79.4908C32.8181 80.2602 32.2186 80.8647 31.4555 80.8647C30.6925 80.8647 30.093 80.2602 30.093 79.4908C30.093 78.7214 30.6925 78.1169 31.4555 78.1169C32.2186 78.1169 32.8181 78.7214 32.8181 79.4908Z" fill="#734669"/>
<path d="M38.8132 79.4908C38.8132 80.2602 38.2137 80.8647 37.4507 80.8647C36.6876 80.8647 36.0881 80.2602 36.0881 79.4908C36.0881 78.7214 36.6876 78.1169 37.4507 78.1169C38.2137 78.1169 38.8132 78.7214 38.8132 79.4908Z" fill="#734669"/>
<path d="M44.8629 79.4908C44.8629 80.2602 44.2633 80.8647 43.5003 80.8647C42.7373 80.8647 42.1378 80.2602 42.1378 79.4908C42.1378 78.7214 42.7373 78.1169 43.5003 78.1169C44.2633 78.1169 44.8629 78.7214 44.8629 79.4908Z" fill="#734669"/>
<path d="M50.858 79.4908C50.858 80.2602 50.2585 80.8647 49.4955 80.8647C48.7324 80.8647 48.1329 80.2602 48.1329 79.4908C48.1329 78.7214 48.7324 78.1169 49.4955 78.1169C50.2585 78.1169 50.858 78.7214 50.858 79.4908Z" fill="#734669"/>
<path d="M56.8531 79.4908C56.8531 80.2602 56.2536 80.8647 55.4906 80.8647C54.7276 80.8647 54.1281 80.2602 54.1281 79.4908C54.1281 78.7214 54.7276 78.1169 55.4906 78.1169C56.2536 78.1169 56.8531 78.7214 56.8531 79.4908Z" fill="#734669"/>
<path d="M62.848 79.4908C62.848 80.2602 62.2485 80.8647 61.4855 80.8647C60.7224 80.8647 60.1229 80.2602 60.1229 79.4908C60.1229 78.7214 60.7224 78.1169 61.4855 78.1169C62.2485 78.1169 62.848 78.7214 62.848 79.4908Z" fill="#734669"/>
<path d="M68.8431 79.4908C68.8431 80.2602 68.2436 80.8647 67.4806 80.8647C66.7176 80.8647 66.118 80.2602 66.118 79.4908C66.118 78.7214 66.7176 78.1169 67.4806 78.1169C68.2436 78.1169 68.8431 78.7214 68.8431 79.4908Z" fill="#734669"/>
<path d="M74.8382 79.4908C74.8382 80.2602 74.2387 80.8647 73.4757 80.8647C72.7127 80.8647 72.1132 80.2602 72.1132 79.4908C72.1132 78.7214 72.7127 78.1169 73.4757 78.1169C74.2387 78.1169 74.8382 78.7214 74.8382 79.4908Z" fill="#734669"/>
<path d="M79.1441 80.8097C78.5991 80.6449 78.1631 80.0953 78.1631 79.4908C78.1631 79.3259 78.1631 79.216 78.2176 79.1061C78.5446 79.6556 78.8716 80.2052 79.1441 80.8097Z" fill="#734669"/>
<path d="M8.8378 85.2063C8.8378 85.9757 8.23829 86.5802 7.47527 86.5802C7.03926 86.5802 6.65776 86.3604 6.38525 86.0307C6.49426 85.4261 6.60326 84.7666 6.82126 84.0522C7.03926 83.9423 7.25727 83.8873 7.47527 83.8873C8.18378 83.8873 8.8378 84.4919 8.8378 85.2063Z" fill="#734669"/>
<path d="M14.8328 85.2063C14.8328 85.9757 14.2333 86.5802 13.4703 86.5802C12.7073 86.5802 12.1078 85.9757 12.1078 85.2063C12.1078 84.4369 12.7073 83.8324 13.4703 83.8324C14.2333 83.8873 14.8328 84.4919 14.8328 85.2063Z" fill="#734669"/>
<path d="M20.8278 85.2063C20.8278 85.9757 20.2283 86.5802 19.4653 86.5802C18.7023 86.5802 18.1028 85.9757 18.1028 85.2063C18.1028 84.4369 18.7023 83.8324 19.4653 83.8324C20.2283 83.8873 20.8278 84.4919 20.8278 85.2063Z" fill="#734669"/>
<path d="M26.8229 85.2063C26.8229 85.9757 26.2234 86.5802 25.4604 86.5802C24.6974 86.5802 24.0979 85.9757 24.0979 85.2063C24.0979 84.4369 24.6974 83.8324 25.4604 83.8324C26.2234 83.8324 26.8229 84.4919 26.8229 85.2063Z" fill="#734669"/>
<path d="M32.8181 85.2063C32.8181 85.9757 32.2186 86.5802 31.4555 86.5802C30.6925 86.5802 30.093 85.9757 30.093 85.2063C30.093 84.4369 30.6925 83.8324 31.4555 83.8324C32.2186 83.8873 32.8181 84.4919 32.8181 85.2063Z" fill="#734669"/>
<path d="M38.8132 85.2063C38.8132 85.9757 38.2137 86.5802 37.4507 86.5802C36.6876 86.5802 36.0881 85.9757 36.0881 85.2063C36.0881 84.4369 36.6876 83.8324 37.4507 83.8324C38.2137 83.8324 38.8132 84.4919 38.8132 85.2063Z" fill="#734669"/>
<path d="M44.8629 85.2063C44.8629 85.9757 44.2633 86.5802 43.5003 86.5802C42.7373 86.5802 42.1378 85.9757 42.1378 85.2063C42.1378 84.4369 42.7373 83.8324 43.5003 83.8324C44.2633 83.8324 44.8629 84.4919 44.8629 85.2063Z" fill="#734669"/>
<path d="M50.858 85.2063C50.858 85.9757 50.2585 86.5802 49.4955 86.5802C48.7324 86.5802 48.1329 85.9757 48.1329 85.2063C48.1329 84.4369 48.7324 83.8324 49.4955 83.8324C50.2585 83.8873 50.858 84.4919 50.858 85.2063Z" fill="#734669"/>
<path d="M56.8531 85.2063C56.8531 85.9757 56.2536 86.5802 55.4906 86.5802C54.7276 86.5802 54.1281 85.9757 54.1281 85.2063C54.1281 84.4369 54.7276 83.8324 55.4906 83.8324C56.2536 83.8873 56.8531 84.4919 56.8531 85.2063Z" fill="#734669"/>
<path d="M62.8482 85.2063C62.8482 85.9757 62.2487 86.5802 61.4857 86.5802C60.7227 86.5802 60.1232 85.9757 60.1232 85.2063C60.1232 84.4369 60.7227 83.8324 61.4857 83.8324C62.2487 83.8324 62.8482 84.4919 62.8482 85.2063Z" fill="#734669"/>
<path d="M68.8431 85.2063C68.8431 85.9757 68.2436 86.5802 67.4806 86.5802C66.7176 86.5802 66.118 85.9757 66.118 85.2063C66.118 84.4369 66.7176 83.8324 67.4806 83.8324C68.2436 83.8324 68.8431 84.4919 68.8431 85.2063Z" fill="#734669"/>
<path d="M74.8382 85.2063C74.8382 85.9757 74.2387 86.5802 73.4757 86.5802C72.7127 86.5802 72.1132 85.9757 72.1132 85.2063C72.1132 84.4369 72.7127 83.8324 73.4757 83.8324C74.2387 83.8873 74.8382 84.4919 74.8382 85.2063Z" fill="#734669"/>
<path d="M80.6156 86.0306C80.3976 86.3604 79.9616 86.5802 79.5256 86.5802C78.7626 86.5802 78.1631 85.9757 78.1631 85.2063C78.1631 84.4369 78.7626 83.8324 79.5256 83.8324C79.7981 83.8324 80.0161 83.8873 80.2341 84.0522C80.3976 84.7666 80.5066 85.4261 80.6156 86.0306Z" fill="#734669"/>
<path d="M55.0544 66.6308C53.6919 69.7634 52.3294 72.841 51.0214 75.9735C49.2773 79.9854 47.5333 83.9972 45.7893 88.0091H42.7917C40.5027 83.9972 38.1046 80.0403 35.8156 76.0285C34.8891 74.4347 33.9626 72.786 33.0361 71.1923C32.273 69.8183 31.51 68.3895 30.8015 67.0155C33.2541 65.6966 34.9436 64.8173 34.9436 64.8173L35.4886 64.9272C40.8297 66.1362 46.3343 66.0813 51.6209 64.8173C51.5664 64.8173 52.9289 65.5317 55.0544 66.6308Z" fill="#FFB8A1"/>
<path d="M51.0213 75.9735C49.2773 79.9854 47.5333 83.9972 45.7892 88.0091H42.7917C40.5026 83.9972 38.1046 80.0403 35.8156 76.0285C39.3036 77.0177 44.7537 77.7871 51.0213 75.9735Z" fill="#FFF7F1"/>
<path d="M51.9478 66.6858C51.9478 66.6858 50.4762 71.3571 43.7181 71.3571C35.87 71.3571 34.017 67.1254 34.017 67.1254C34.7255 65.3119 35.1615 63.6082 35.4885 62.1244C36.088 59.3765 36.1425 57.1782 36.1425 55.8593L49.9312 55.3097C50.0402 56.4638 50.2582 57.8927 50.4762 59.2666C51.1303 62.9487 51.9478 66.6858 51.9478 66.6858Z" fill="#FFB8A1"/>
<path d="M43.827 73.5004C39.6849 73.5004 37.0144 71.3571 35.4884 69.5985C33.8533 67.675 33.1448 65.7515 33.1448 65.6965C33.0903 65.5317 33.1448 65.4218 33.3083 65.3668C33.4718 65.3118 33.5808 65.3668 33.6353 65.5317C33.6353 65.5317 34.2893 67.4552 35.9244 69.2687C38.0499 71.7418 40.7205 73.0058 43.8815 73.0058C51.3481 73.0058 53.1467 65.6416 53.2012 65.5866C53.2557 65.4218 53.3647 65.3668 53.5282 65.3668C53.6917 65.4218 53.7462 65.5317 53.7462 65.6965C53.7462 65.7515 53.2557 67.675 51.8386 69.5985C50.4216 71.3571 47.9691 73.5004 43.827 73.5004Z" fill="#FFF7F1"/>
<path d="M50.4762 59.2666C48.3506 60.7504 43.6635 63.0037 35.4884 62.1244C36.0879 59.3765 36.1424 57.1782 36.1424 55.8593L49.9311 55.3097C50.0401 56.4638 50.2582 57.8377 50.4762 59.2666Z" fill="#2C203F"/>
<path d="M30.8557 37.6685C30.8557 37.6685 26.6047 31.7881 23.2801 35.2504C19.9555 38.7127 26.3867 50.8032 32.1637 48.1653L30.8557 37.6685Z" fill="#FFB8A1"/>
<path d="M27.2587 46.3517C27.9209 46.3517 28.4577 45.8104 28.4577 45.1427C28.4577 44.4749 27.9209 43.9336 27.2587 43.9336C26.5965 43.9336 26.0597 44.4749 26.0597 45.1427C26.0597 45.8104 26.5965 46.3517 27.2587 46.3517Z" fill="#FFF7F1"/>
<path d="M29.0573 44.5931C28.8938 44.5931 28.7848 44.4832 28.7848 44.3183C28.2398 40.2515 25.0243 37.7235 24.9698 37.7235C24.8607 37.6136 24.8062 37.4487 24.9153 37.2838C25.0243 37.1739 25.1878 37.1189 25.3513 37.2289C25.5148 37.3388 28.7848 39.9218 29.3843 44.2084C29.3843 44.4282 29.2753 44.5931 29.0573 44.5931C29.0573 44.5931 29.1118 44.5931 29.0573 44.5931Z" fill="#FF8A8A"/>
<path d="M28.1853 41.6804C28.0763 41.6804 28.0217 41.6254 27.9672 41.5705C27.5312 40.911 26.2777 40.856 25.7872 40.911C25.6237 40.911 25.4602 40.8011 25.4602 40.6362C25.4602 40.4713 25.5692 40.3065 25.7327 40.3065C25.7872 40.3065 27.7492 40.1965 28.4033 41.2407C28.5123 41.3506 28.4578 41.5705 28.3488 41.6804C28.2943 41.6804 28.2398 41.6804 28.1853 41.6804Z" fill="#FF8A8A"/>
<path d="M56.8529 37.6685C56.8529 37.6685 61.104 31.7881 64.4286 35.2504C67.7531 38.7127 61.322 50.8032 55.5449 48.1653L56.8529 37.6685Z" fill="#FFB8A1"/>
<path d="M60.1775 46.3517C60.8397 46.3517 61.3766 45.8104 61.3766 45.1427C61.3766 44.4749 60.8397 43.9336 60.1775 43.9336C59.5153 43.9336 58.9785 44.4749 58.9785 45.1427C58.9785 45.8104 59.5153 46.3517 60.1775 46.3517Z" fill="#FFF7F1"/>
<path d="M58.5969 44.5931C58.5969 44.5931 58.5424 44.5931 58.5969 44.5931C58.3789 44.5931 58.2699 44.4282 58.3244 44.2634C58.9239 39.9218 62.194 37.3937 62.3575 37.2838C62.4665 37.1739 62.6845 37.2289 62.7935 37.3388C62.9025 37.4487 62.848 37.6685 62.739 37.7784C62.6845 37.7784 59.469 40.3065 58.9239 44.3733C58.8694 44.4832 58.7604 44.5931 58.5969 44.5931Z" fill="#FF8A8A"/>
<path d="M59.4691 41.6804C59.4146 41.6804 59.3601 41.6804 59.3056 41.6254C59.1966 41.5155 59.1421 41.3506 59.2511 41.1858C59.9596 40.1416 61.8671 40.2515 61.9216 40.2515C62.0851 40.2515 62.1941 40.4164 62.1941 40.5812C62.1941 40.7461 62.0306 40.856 61.8671 40.856C61.4311 40.8011 60.1231 40.911 59.6871 41.5155C59.6871 41.6254 59.5781 41.6804 59.4691 41.6804Z" fill="#FF8A8A"/>
<path d="M45.7891 20.0823C33.1449 19.6976 27.2588 26.5122 28.2398 40.5812C28.8393 49.3194 33.4719 59.9261 43.7726 60.2009C54.4547 60.4757 59.3053 48.2203 59.5778 39.2073C59.7958 29.6998 57.5613 23.3247 49.7677 20.7967C49.1681 20.5769 46.3886 20.0823 45.7891 20.0823Z" fill="#FFB8A1"/>
<path d="M53.8008 15.5209C53.7463 15.6857 53.6373 15.9056 53.5828 16.0704C52.8198 17.7191 51.4573 19.4778 49.4408 21.2364H39.5761C39.5761 21.2364 36.0335 19.2579 34.1805 16.0704C34.0715 15.9056 33.9625 15.7407 33.908 15.5758C32.6 12.9928 32.5455 9.69542 36.1425 6.0133C43.2277 -1.29598 57.7249 5.79347 53.8008 15.5209Z" fill="#FF4F4E"/>
<path d="M53.5827 16.0704C52.8197 17.7191 51.4572 19.4778 49.4407 21.2364H39.576C39.576 21.2364 36.0335 19.2579 34.1804 16.0704C35.3249 15.356 39.467 13.9271 43.5546 14.9163C43.6091 14.9163 48.9502 13.5424 53.5827 16.0704Z" fill="#C42C31"/>
<path d="M30.4197 33.7666C30.4197 33.7666 43.8269 30.2493 43.8269 23.2148C43.8269 23.2148 46.9335 32.9972 57.2887 33.7666L59.5232 35.4703C59.5232 35.4703 60.7222 34.481 61.6487 34.2612C61.6487 34.2612 64.3193 12.773 43.7724 15.6857C43.7724 15.6857 37.3958 14.2569 32.1637 17.939C24.5336 23.2698 27.5857 34.9207 27.5857 34.9207L30.4197 33.7666Z" fill="#FF4F4E"/>
<path d="M34.6709 43.3291C34.6709 43.5489 34.5073 43.7138 34.2893 43.7138C34.0713 43.7138 33.9078 43.5489 33.9078 43.3291C33.9078 43.1093 34.0713 42.9444 34.2893 42.9444C34.5073 42.9444 34.6709 43.1093 34.6709 43.3291Z" fill="#FF8A8A"/>
<path d="M36.4694 44.2084C36.4694 44.4282 36.3059 44.5931 36.0879 44.5931C35.8699 44.5931 35.7064 44.4282 35.7064 44.2084C35.7064 43.9886 35.8699 43.8237 36.0879 43.8237C36.3059 43.8787 36.4694 44.0435 36.4694 44.2084Z" fill="#FF8A8A"/>
<path d="M34.6709 45.5274C34.6709 45.7472 34.5073 45.9121 34.2893 45.9121C34.0713 45.9121 33.9078 45.6922 33.9078 45.5274C33.9078 45.3075 34.0713 45.1427 34.2893 45.1427C34.5073 45.1427 34.6709 45.3075 34.6709 45.5274Z" fill="#FF8A8A"/>
<path d="M37.5051 45.8571C37.5051 46.0769 37.3416 46.2418 37.1236 46.2418C36.9056 46.2418 36.7421 46.0769 36.7421 45.8571C36.7421 45.6373 36.9056 45.4724 37.1236 45.4724C37.3416 45.4724 37.5051 45.6922 37.5051 45.8571Z" fill="#FF8A8A"/>
<path d="M39.3579 45.5274C39.3579 45.7472 39.1944 45.9121 38.9764 45.9121C38.7584 45.9121 38.5948 45.7472 38.5948 45.5274C38.5948 45.3075 38.7584 45.1427 38.9764 45.1427C39.1944 45.1427 39.3579 45.3075 39.3579 45.5274Z" fill="#FF8A8A"/>
<path d="M38.486 43.7138C38.486 43.9336 38.3225 44.0985 38.1045 44.0985C37.8865 44.0985 37.723 43.9336 37.723 43.7138C37.723 43.494 37.8865 43.3291 38.1045 43.3291C38.3225 43.3291 38.486 43.494 38.486 43.7138Z" fill="#FF8A8A"/>
<path d="M53.3646 43.3291C53.3646 43.5489 53.5281 43.7138 53.7461 43.7138C53.9641 43.7138 54.1276 43.5489 54.1276 43.3291C54.1276 43.1093 53.9641 42.9444 53.7461 42.9444C53.5281 42.9444 53.3646 43.1093 53.3646 43.3291Z" fill="#FF8A8A"/>
<path d="M51.5663 44.2084C51.5663 44.4282 51.7298 44.5931 51.9478 44.5931C52.1658 44.5931 52.3293 44.4282 52.3293 44.2084C52.3293 43.9886 52.1658 43.8237 51.9478 43.8237C51.7298 43.8237 51.5663 44.0435 51.5663 44.2084Z" fill="#FF8A8A"/>
<path d="M53.3646 45.5274C53.3646 45.7472 53.5281 45.9121 53.7461 45.9121C53.9641 45.9121 54.1276 45.7472 54.1276 45.5274C54.1276 45.3075 53.9641 45.1427 53.7461 45.1427C53.5281 45.1427 53.3646 45.3075 53.3646 45.5274Z" fill="#FF8A8A"/>
<path d="M50.5306 45.8571C50.5306 46.0769 50.6941 46.2418 50.9121 46.2418C51.1301 46.2418 51.2937 46.0769 51.2937 45.8571C51.2937 45.6373 51.1301 45.4724 50.9121 45.4724C50.6941 45.5274 50.5306 45.6922 50.5306 45.8571Z" fill="#FF8A8A"/>
<path d="M48.6776 45.5274C48.6776 45.7472 48.8411 45.9121 49.0591 45.9121C49.2771 45.9121 49.4406 45.7472 49.4406 45.5274C49.4406 45.3075 49.2771 45.1427 49.0591 45.1427C48.8411 45.1427 48.6776 45.3075 48.6776 45.5274Z" fill="#FF8A8A"/>
<path d="M49.5497 43.7138C49.5497 43.9336 49.7132 44.0985 49.9312 44.0985C50.1492 44.0985 50.3127 43.9336 50.3127 43.7138C50.3127 43.494 50.1492 43.3291 49.9312 43.3291C49.7132 43.3291 49.5497 43.494 49.5497 43.7138Z" fill="#FF8A8A"/>
<path d="M28.7302 43.1093C28.7302 43.1093 31.2373 37.7235 30.4198 33.7666L27.0952 31.6233C27.0952 31.6233 27.5857 39.7569 28.7302 43.1093Z" fill="#FF4F4E"/>
<path d="M58.9782 43.1093C58.9782 43.1093 56.4711 37.7235 57.2886 33.7666L60.0682 32.9422C60.0682 32.9422 60.5042 39.7569 58.9782 43.1093Z" fill="#FF4F4E"/>
<path d="M33.3629 36.6793C33.3629 36.6793 34.0714 34.9756 36.3605 33.4918C39.3035 31.6782 41.3745 34.8108 41.3745 34.8108C41.3745 34.8108 39.0855 33.9864 37.287 34.5909C35.5975 35.1405 33.3629 36.6793 33.3629 36.6793Z" fill="#FF4F4E"/>
<path d="M54.9453 36.6793C54.9453 36.6793 54.2368 34.9756 51.9478 33.4918C49.0047 31.6782 46.9337 34.8108 46.9337 34.8108C46.9337 34.8108 49.2228 33.9864 51.0213 34.5909C52.7108 35.1405 54.9453 36.6793 54.9453 36.6793Z" fill="#FF4F4E"/>
<path d="M44.59 48.0004C44.0995 48.0004 43.5545 47.8905 42.9005 47.6157C42.737 47.5608 42.628 47.3409 42.6825 47.1761L43.5545 40.5812C43.609 40.3614 43.7725 40.1965 43.9905 40.2515C44.2085 40.3065 44.372 40.4713 44.3175 40.6911L43.5 46.9562C44.372 47.286 45.0261 47.231 45.5166 46.9013C45.6801 46.7914 45.9526 46.8463 46.0616 47.0112C46.1706 47.1761 46.1161 47.4509 45.9526 47.5608C45.5711 47.8356 45.0805 48.0004 44.59 48.0004Z" fill="#FF8A8A"/>
<path d="M43.7727 52.397C43.3912 52.397 43.0641 52.397 42.7371 52.342C40.8841 52.1222 39.5761 51.4078 39.5216 51.3528C39.3036 51.2429 39.2491 50.9681 39.3581 50.8032C39.4671 50.5834 39.7396 50.5284 39.9031 50.6384C40.1211 50.7483 44.7537 53.2763 48.8412 49.5392C49.0047 49.3743 49.2772 49.3743 49.4408 49.5392C49.6043 49.7041 49.6043 49.9789 49.4408 50.1437C47.4787 51.9024 45.4077 52.397 43.7727 52.397Z" fill="#FF8A8A"/>
<path d="M44.481 54.8151C43.5545 54.8151 42.7915 54.5953 42.737 54.5403C42.519 54.4854 42.4099 54.2655 42.4645 54.0457C42.519 53.8259 42.737 53.716 42.955 53.7709C43.0095 53.7709 44.8625 54.3205 46.1705 53.606C46.3885 53.4961 46.6065 53.5511 46.7155 53.7709C46.8245 53.9907 46.77 54.2106 46.552 54.3205C45.898 54.6502 45.135 54.8151 44.481 54.8151Z" fill="#FF8A8A"/>
<path d="M38.9764 39.1524C38.9764 40.3065 38.5949 41.2407 38.0499 41.2407C37.5049 41.2407 37.0689 40.3065 37.0144 39.1524C37.0144 37.9983 37.3959 37.064 37.9409 37.064C38.4859 37.119 38.9219 37.9983 38.9764 39.1524Z" fill="#2C203F"/>
<path d="M49.1682 39.1524C49.1682 40.3065 49.5497 41.2407 50.0947 41.2407C50.6397 41.2407 51.0757 40.3065 51.1302 39.1524C51.1302 37.9983 50.7487 37.064 50.2037 37.064C49.6587 37.119 49.1682 37.9983 49.1682 39.1524Z" fill="#2C203F"/>
<path d="M36.9599 47.231C33.4719 47.231 30.6378 44.3733 30.6378 40.911C30.6378 37.3937 33.4719 34.5359 36.9599 34.5359C40.448 34.5359 43.282 37.3937 43.282 40.911C43.2275 44.3733 40.3935 47.231 36.9599 47.231ZM36.9599 35.0855C33.7444 35.0855 31.1828 37.6685 31.1828 40.911C31.1828 44.0985 33.7444 46.7364 36.9599 46.7364C40.121 46.7364 42.737 44.1534 42.737 40.911C42.6825 37.6685 40.121 35.0855 36.9599 35.0855Z" fill="white"/>
<path d="M51.1301 47.231C47.642 47.231 44.808 44.3733 44.808 40.911C44.808 37.3937 47.642 34.5359 51.1301 34.5359C54.6181 34.5359 57.3977 37.3937 57.3977 40.911C57.3977 44.3733 54.6181 47.231 51.1301 47.231ZM51.1301 35.0855C47.969 35.0855 45.353 37.6685 45.353 40.911C45.353 44.0985 47.9145 46.7364 51.1301 46.7364C54.2911 46.7364 56.9072 44.1534 56.9072 40.911C56.8527 37.6685 54.2911 35.0855 51.1301 35.0855Z" fill="white"/>
<path d="M31.6189 38.273C31.5099 38.273 31.4554 38.2181 31.4009 38.1631C31.4009 38.1082 29.6569 35.3054 26.9863 34.3161C26.8228 34.2612 26.7683 34.0963 26.8228 33.9864C26.8773 33.8215 27.0408 33.7666 27.1498 33.8215C29.9839 34.9207 31.7824 37.7784 31.8369 37.9433C31.8914 38.0532 31.8914 38.2181 31.7279 38.328C31.7279 38.273 31.6734 38.273 31.6189 38.273Z" fill="white"/>
<path d="M56.9074 38.273C56.8529 38.273 56.7984 38.273 56.7439 38.2181C56.6349 38.1082 56.5804 37.9433 56.6894 37.8334C56.7984 37.7235 58.7605 34.7008 61.5945 33.6017C61.758 33.5467 61.867 33.6017 61.9215 33.7666C61.976 33.9314 61.9215 34.0413 61.758 34.0963C59.0875 35.1405 57.1799 38.0532 57.1254 38.1082C57.0709 38.273 57.0164 38.273 56.9074 38.273Z" fill="white"/>
<path d="M45.0806 40.3064C44.9171 40.3064 44.8081 40.1965 44.8081 40.0866C44.8081 40.0317 44.6991 39.2623 43.9906 39.2623C43.2821 39.2623 43.1731 39.9767 43.1731 40.0866C43.1731 40.2515 43.0096 40.3614 42.9006 40.3614C42.7371 40.3614 42.6281 40.1965 42.6281 40.0866C42.6826 39.647 42.9551 38.7676 43.9906 38.7676C44.9716 38.7676 45.3531 39.647 45.3531 40.0866C45.3531 40.1416 45.2441 40.3064 45.0806 40.3064C45.0806 40.3064 45.1351 40.3064 45.0806 40.3064Z" fill="white"/>
</g>
</svg>
