<svg width="88" height="88" viewBox="0 0 88 88" fill="none" xmlns="http://www.w3.org/2000/svg">
<circle cx="44" cy="44" r="43.5" fill="white" stroke="#EFEFEF"/>
<mask id="mask0_40:2542" style="mask-type:alpha" maskUnits="userSpaceOnUse" x="1" y="0" width="87" height="87">
<circle cx="44.5" cy="43.5" r="43" fill="#C4C4C4" stroke="#EFEFEF"/>
</mask>
<g mask="url(#mask0_40:2542)">
<path d="M82 87.2951H3C3 87.2951 3.80612 77.5589 8.58528 75.68C10.4854 74.9398 14.9191 72.7193 19.5255 70.4419C21.2529 69.5878 22.9227 68.6768 24.5926 67.8797C24.7653 67.7658 24.938 67.7089 25.1108 67.595C26.4351 66.9118 27.7019 66.2855 28.7959 65.6592C31.2719 64.4066 32.9993 63.4387 33.3448 63.2678C33.4023 63.2678 33.4023 63.2109 33.4023 63.2109L33.9781 63.3248C34.7267 63.4956 35.4752 63.6095 36.2238 63.7803C36.9723 63.8941 37.7208 64.008 38.4694 64.065C42.6152 64.4635 46.8761 64.1788 50.9643 63.2109C50.9643 63.2109 52.8069 64.1788 55.5707 65.5453C56.7223 66.1147 57.9891 66.741 59.371 67.4242C59.5437 67.5381 59.7165 67.595 59.8892 67.7089C60.5802 68.0505 61.2136 68.3921 61.9045 68.7338C62.6531 69.0754 63.4016 69.4739 64.1501 69.8156C69.2172 72.3208 74.3418 74.826 76.4147 75.6231C81.1939 77.5589 82 87.2951 82 87.2951Z" fill="#43D28E"/>
<path d="M59.8894 67.7089C59.6015 68.506 59.3136 69.3031 58.9681 70.1002C57.5286 73.2318 55.686 75.737 53.4404 77.5589C50.619 79.8364 47.2217 80.9751 43.2487 80.9751C35.0147 80.9751 29.8901 76.1925 27.0687 72.15C26.0322 70.6696 25.1685 69.1323 24.5352 67.8228C24.7079 67.7089 24.8806 67.652 25.0534 67.5381C25.6868 68.8476 26.4929 70.328 27.5293 71.8083C31.5024 77.502 36.7997 80.3488 43.2487 80.3488C50.2159 80.3488 55.283 76.8188 58.4499 69.8156C58.7954 69.0184 59.1408 68.2213 59.3712 67.4242C59.5439 67.5381 59.7167 67.652 59.8894 67.7089Z" fill="#139F5D"/>
<path d="M55.5709 65.5453C54.592 69.7586 50.7917 76.1924 42.5002 76.1924C33.3449 76.1924 29.9477 68.9046 28.7385 65.6022C31.2145 64.3496 32.9419 63.3817 33.2874 63.2109C33.3449 63.2109 33.3449 63.154 33.3449 63.154L33.9207 63.2678C34.6693 63.4386 35.4178 63.5525 36.1664 63.7233C36.9149 63.8372 37.6635 63.9511 38.412 64.008C42.5578 64.4066 46.8187 64.1219 50.9069 63.154C51.0221 63.2678 52.8646 64.1788 55.5709 65.5453Z" fill="#FFF7F1"/>
<path d="M51.425 65.2606C51.425 65.2606 49.8703 70.1003 42.7304 70.1003C34.4388 70.1003 32.4811 65.7161 32.4811 65.7161C33.2296 63.8372 33.6903 62.0722 34.0357 60.5349C34.6691 57.6881 34.7267 55.4106 34.7267 54.0441L49.2945 53.4748C49.4097 54.6704 49.64 56.1508 49.8703 57.5742C50.5613 61.332 51.425 65.2606 51.425 65.2606Z" fill="#FFB8A1"/>
<path d="M49.8703 57.5172C47.6247 59.0545 42.6728 61.3889 34.0358 60.4779C34.6691 57.6311 34.7267 55.3537 34.7267 53.9872L49.2945 53.4178C49.4097 54.6135 49.64 56.0369 49.8703 57.5172Z" fill="#3F2037"/>
<path d="M29.1417 35.1412C29.1417 35.1412 24.6504 29.049 21.138 32.636C17.6256 36.223 24.4201 48.749 30.5236 46.0161L29.1417 35.1412Z" fill="#FFB8A1"/>
<path d="M26.9535 42.3152C26.7808 42.3152 26.6656 42.2013 26.6656 42.0305C26.0898 37.8172 22.6926 35.1981 22.635 35.1981C22.5198 35.0842 22.4623 34.9134 22.5774 34.7426C22.6926 34.6287 22.8653 34.5718 23.0381 34.6857C23.2108 34.7995 26.6656 37.4756 27.299 41.9166C27.299 42.1444 27.1838 42.3152 26.9535 42.3152C27.0111 42.3152 27.0111 42.3152 26.9535 42.3152Z" fill="#FF8A8A"/>
<path d="M26.0323 39.2975C25.9172 39.2975 25.8596 39.2406 25.802 39.1836C25.3414 38.5004 24.017 38.4435 23.4988 38.5004C23.3261 38.5004 23.1533 38.3865 23.1533 38.2157C23.1533 38.0449 23.2685 37.8741 23.4412 37.8741C23.4988 37.8741 25.5717 37.7602 26.2627 38.842C26.3778 38.9559 26.3202 39.1836 26.2051 39.2975C26.1475 39.2975 26.0899 39.2975 26.0323 39.2975Z" fill="#FF8A8A"/>
<path d="M56.6074 35.1412C56.6074 35.1412 61.0986 29.049 64.611 32.636C68.1234 36.223 61.329 48.749 55.2255 46.0161L56.6074 35.1412Z" fill="#FFB8A1"/>
<path d="M58.7955 42.3152C58.7955 42.3152 58.7379 42.3152 58.7955 42.3152C58.5652 42.3152 58.45 42.1444 58.5076 41.9736C59.141 37.4756 62.5958 34.8565 62.7685 34.7426C62.8837 34.6287 63.114 34.6857 63.2292 34.7995C63.3443 34.9134 63.2868 35.1412 63.1716 35.255C63.114 35.255 59.7168 37.8741 59.141 42.0874C59.0834 42.2013 58.9107 42.3152 58.7955 42.3152Z" fill="#FF8A8A"/>
<path d="M59.7169 39.2975C59.6593 39.2975 59.6018 39.2975 59.5442 39.2406C59.429 39.1267 59.3714 38.9559 59.4866 38.7851C60.2351 37.7033 62.2504 37.8172 62.308 37.8172C62.4808 37.8172 62.5959 37.988 62.5959 38.1588C62.5959 38.3296 62.4232 38.4435 62.2504 38.4435C61.7898 38.3866 60.4079 38.5004 59.9472 39.1267C59.9472 39.2406 59.8321 39.2975 59.7169 39.2975Z" fill="#FF8A8A"/>
<path d="M45.7824 16.2951C32.942 16.2951 24.9384 22.8998 26.3779 37.988C27.184 47.0409 31.9056 58.2574 42.7306 58.4852C54.0163 58.7698 58.5652 46.5854 60.1774 37.3617C61.6745 28.9351 57.2984 19.5405 49.0644 16.8645C48.4886 16.6937 46.4733 16.2951 45.7824 16.2951Z" fill="#FFB8A1"/>
<path d="M26.2051 35.255C26.2051 35.255 24.708 20.907 24.6504 17.7186C24.5353 10.0321 32.4237 5.70493 43.9974 5.70493C53.3253 5.70493 54.4769 9.74742 55.2255 13.0497C55.2255 13.0497 62.1351 13.2206 63.1715 18.0032C64.208 22.7859 59.8319 37.1339 59.8319 37.1339C59.8319 37.1339 58.3348 33.8316 57.2984 29.0489C56.2619 24.2663 54.88 21.3625 51.8858 21.3056C48.8917 21.2486 45.0914 21.4194 41.0608 23.7538C36.9726 26.1452 32.942 26.4299 30.063 24.3232C30.1205 24.3801 29.372 31.5541 26.2051 35.255Z" fill="#3F2037"/>
<g opacity="0.5">
<g opacity="0.5">
<path opacity="0.5" d="M37.3756 41.2334C37.3756 42.3152 35.3603 43.1692 32.8843 43.1692C30.4084 43.1692 28.3931 42.3152 28.3931 41.2334C28.3931 40.1516 30.4084 39.2975 32.8843 39.2975C35.3603 39.2975 37.3756 40.2085 37.3756 41.2334Z" fill="#FF8A8A"/>
</g>
</g>
<g opacity="0.5">
<g opacity="0.5">
<path opacity="0.5" d="M58.5652 41.2334C58.5652 42.3152 56.5498 43.1692 54.0739 43.1692C51.5979 43.1692 49.5826 42.3152 49.5826 41.2334C49.5826 40.1516 51.5979 39.2975 54.0739 39.2975C56.5498 39.2975 58.5652 40.2085 58.5652 41.2334Z" fill="#FF8A8A"/>
</g>
</g>
<path d="M60.2925 35.255C60.2925 35.255 60.1774 42.2582 58.1045 51.0265C54.7073 65.0898 43.1337 63.2109 43.1337 63.2109C43.1337 63.2109 31.7904 65.1467 28.3931 51.0265C26.2627 42.2582 26.2051 35.255 26.2051 35.255L28.0476 32.1805C28.0476 32.1805 29.3144 44.3079 34.036 46.4146C34.036 46.4146 36.1089 43.2831 43.1337 46.1869C50.1584 43.2262 52.4616 46.4146 52.4616 46.4146C57.1832 44.3079 58.45 32.1805 58.45 32.1805L60.2925 35.255Z" fill="#3F2037"/>
<path d="M43.652 45.0481C43.1338 45.0481 42.5004 44.9343 41.867 44.6496C41.6943 44.5926 41.5791 44.3649 41.5791 44.1941L42.5004 37.3617C42.558 37.1339 42.7307 36.9631 43.0186 36.9631C43.2489 37.0201 43.4217 37.1909 43.4217 37.4756L42.558 44.0233C43.4217 44.3649 44.1126 44.308 44.6884 43.9663C44.9188 43.8525 45.1491 43.9094 45.3218 44.0802C45.437 44.308 45.3794 44.5357 45.2067 44.7065C44.6884 44.8773 44.2278 45.0481 43.652 45.0481Z" fill="#FF8A8A"/>
<path d="M42.7882 50.4002C40.2547 50.4002 38.297 49.3753 38.297 49.3184C38.0667 49.2045 38.0091 48.9198 38.1242 48.6921C38.2394 48.4643 38.5273 48.4074 38.7576 48.5213C38.9879 48.6351 43.8822 51.2542 48.1432 47.3825C48.3159 47.2117 48.6038 47.2117 48.7766 47.3825C48.9493 47.5533 48.9493 47.838 48.7766 48.0088C46.7613 49.8308 44.6308 50.4002 42.7882 50.4002Z" fill="#734669"/>
<path d="M43.5367 52.9054C42.5579 52.9054 41.6942 52.6776 41.6942 52.6207C41.4639 52.5637 41.3487 52.2791 41.4063 52.0513C41.4639 51.8236 41.7518 51.7097 41.9821 51.7666C41.9821 51.7666 43.9974 52.336 45.3793 51.5958C45.6096 51.4819 45.8399 51.5389 46.0127 51.7666C46.1278 51.9944 46.0703 52.2221 45.8399 52.3929C45.0338 52.7915 44.2277 52.9054 43.5367 52.9054Z" fill="#734669"/>
<path d="M34.1512 33.3192C35.1301 32.8067 36.512 32.1804 37.8939 32.0096C38.6425 31.8958 39.1031 31.1556 38.8152 30.4723L38.7576 30.3585C38.5849 29.846 38.0667 29.5614 37.5484 29.6183C36.3393 29.7322 34.2088 30.1877 32.7693 31.5541C32.4814 31.8388 32.3662 32.2943 32.4814 32.6929C32.7117 33.3761 33.5178 33.6608 34.1512 33.3192Z" fill="#3F2037"/>
<path d="M52.5766 33.3192C51.5977 32.8067 50.2158 32.1804 48.8339 32.0096C48.0853 31.8958 47.6247 31.1556 47.9126 30.4723L47.9702 30.3585C48.1429 29.846 48.6611 29.5614 49.1793 29.6183C50.3885 29.7322 52.519 30.1877 53.9585 31.5541C54.2464 31.8388 54.3616 32.2943 54.2464 32.6929C54.0161 33.3761 53.21 33.6608 52.5766 33.3192Z" fill="#3F2037"/>
<path d="M37.7211 36.7354C37.7211 37.931 37.318 38.899 36.7422 38.899C36.1664 38.899 35.7058 37.931 35.6482 36.7354C35.6482 35.5397 36.0513 34.5718 36.6271 34.5718C37.2029 34.5718 37.6635 35.5397 37.7211 36.7354Z" fill="#3F2037"/>
<path d="M48.4888 36.7354C48.4888 37.931 48.8918 38.899 49.4676 38.899C50.0434 38.899 50.5041 37.931 50.5617 36.7354C50.5617 35.5397 50.1586 34.5718 49.5828 34.5718C49.007 34.5718 48.4888 35.5397 48.4888 36.7354Z" fill="#3F2037"/>
</g>
</svg>
