<svg width="88" height="88" viewBox="0 0 88 88" fill="none" xmlns="http://www.w3.org/2000/svg">
<circle cx="44.0001" cy="44" r="44" fill="white"/>
<mask id="mask0_40:3140" style="mask-type:alpha" maskUnits="userSpaceOnUse" x="0" y="0" width="88" height="88">
<circle cx="44" cy="44" r="44" fill="#C4C4C4"/>
</mask>
<g mask="url(#mask0_40:3140)">
<path d="M22.1154 72.6C22.1154 72.6 16.2102 67.621 19.6839 59.5737C23.1575 51.4684 33.347 50.3105 43.1891 50.2526C58.126 50.2526 76.0154 55.4053 64.0891 72.6C64.0891 72.6 49.2681 82.3842 22.1154 72.6Z" fill="#FF4040"/>
<path d="M47.7655 65.6761C47.5918 65.6761 47.4182 65.5603 47.3603 65.3866C46.2603 62.0287 43.2497 59.8866 43.1918 59.8287C42.9603 59.7129 42.9603 59.4234 43.0761 59.1918C43.1918 58.9603 43.4813 58.9603 43.7129 59.0761C43.8287 59.1918 47.0129 61.3918 48.1708 65.0971C48.2287 65.3287 48.1129 65.5603 47.8813 65.6761C47.8813 65.6761 47.8234 65.6761 47.7655 65.6761Z" fill="#E96D17"/>
<path d="M43.247 67.0316C43.0734 67.0316 42.9576 66.9737 42.8418 66.8C38.9628 60.7211 27.326 58.9842 27.2102 58.9263C26.9786 58.8684 26.8049 58.6368 26.8049 58.4053C26.8628 58.1737 27.0944 58 27.326 58C27.847 58.0579 39.4839 59.8526 43.5944 66.2789C43.7102 66.5105 43.6523 66.7421 43.4786 66.9158C43.4207 67.0316 43.3049 67.0316 43.247 67.0316Z" fill="#DB1717"/>
<path d="M83.4841 88.0579H4.05249C4.05249 88.0579 4.86302 78.1579 9.66828 76.2474C11.5788 75.4947 16.0367 73.2368 20.6683 70.921C27.0946 67.621 33.8683 64.0316 34.563 63.6842C34.6209 63.6842 34.6209 63.6263 34.6209 63.6263L35.1999 63.7421C35.9525 63.9158 36.7051 64.0316 37.4578 64.2053C38.2104 64.321 38.963 64.4368 39.7156 64.4947C43.8841 64.9 48.1683 64.6105 52.2788 63.6263C52.2788 63.6263 57.4893 66.2895 63.2788 69.2421C64.0314 69.5895 64.7841 69.9947 65.5367 70.3421C70.6314 72.8895 75.7841 75.4368 77.8683 76.2474C82.6735 78.1579 83.4841 88.0579 83.4841 88.0579Z" fill="#FF4040"/>
<path d="M44.2091 75.4368C39.867 75.4368 36.2196 74.2789 33.6144 73.121C29.5617 71.2684 27.2459 68.9526 27.1301 68.8368C26.9565 68.6632 26.9565 68.4316 27.1301 68.2579C27.3038 68.0842 27.5354 68.0842 27.7091 68.2579C27.7091 68.2579 30.0249 70.5737 33.9617 72.3684C37.6091 74.0474 43.3986 75.6105 50.4038 73.8158C50.6354 73.7579 50.867 73.8737 50.9249 74.1053C50.9828 74.3368 50.867 74.5684 50.6354 74.6263C48.3775 75.2053 46.1775 75.4368 44.2091 75.4368Z" fill="#DB1717"/>
<path d="M42.1246 79.4895C40.7351 79.4895 39.1719 79.3737 37.493 79.0263C37.2614 78.9684 37.1456 78.7368 37.1456 78.5053C37.2035 78.2737 37.4351 78.1579 37.6667 78.1579C45.9456 79.8947 51.0983 76.2474 51.1562 76.2474C51.3298 76.1316 51.6193 76.1316 51.7351 76.3631C51.8509 76.5368 51.8509 76.8263 51.6193 76.9421C51.4456 77 47.9719 79.4895 42.1246 79.4895Z" fill="#DB1717"/>
<path d="M52.7418 65.5947C52.7418 65.5947 51.1787 70.5158 43.9997 70.5158C35.6629 70.5158 33.6945 66.0579 33.6945 66.0579C34.4471 64.1474 34.9102 62.3526 35.2576 60.7895C35.8945 57.8947 35.9524 55.579 35.9524 54.1895L50.5997 53.6105C50.7155 54.8263 50.9471 56.3316 51.1787 57.779C51.8734 61.6579 52.7418 65.5947 52.7418 65.5947Z" fill="#FFB8A1"/>
<path d="M51.1787 57.779C48.9208 59.3421 43.9419 61.7158 35.2577 60.7895C35.8945 57.8947 35.9524 55.579 35.9524 54.1895L50.5998 53.6105C50.7156 54.8263 50.9472 56.2737 51.1787 57.779Z" fill="#3F2037"/>
<path d="M30.3364 35.0263C30.3364 35.0263 25.8206 28.8316 22.289 32.479C18.7575 36.1263 25.589 48.8632 31.7259 46.0842L30.3364 35.0263Z" fill="#FFB8A1"/>
<path d="M28.1368 42.3211C27.9631 42.3211 27.8473 42.2053 27.8473 42.0316C27.2684 37.7474 23.8526 35.0842 23.7947 35.0842C23.6789 34.9684 23.621 34.7948 23.7368 34.6211C23.8526 34.5053 24.0263 34.4474 24.2 34.5632C24.3737 34.679 27.8473 37.4 28.4842 41.9158C28.4842 42.1474 28.3684 42.3211 28.1368 42.3211C28.1947 42.3211 28.1947 42.3211 28.1368 42.3211Z" fill="#FF8A8A"/>
<path d="M27.2102 39.2527C27.0944 39.2527 27.0365 39.1948 26.9786 39.1369C26.5154 38.4421 25.1838 38.3842 24.6628 38.4421C24.4891 38.4421 24.3154 38.3263 24.3154 38.1527C24.3154 37.979 24.4312 37.8053 24.6049 37.8053C24.6628 37.8053 26.747 37.6895 27.4417 38.7895C27.5575 38.9053 27.4996 39.1369 27.3839 39.2527C27.326 39.2527 27.2681 39.2527 27.2102 39.2527Z" fill="#FF8A8A"/>
<path d="M57.9525 35.0263C57.9525 35.0263 62.4683 28.8316 65.9998 32.479C69.5314 36.1263 62.6998 48.8632 56.563 46.0842L57.9525 35.0263Z" fill="#FFB8A1"/>
<path d="M60.1522 42.3211C60.1522 42.3211 60.0944 42.3211 60.1522 42.3211C59.9207 42.3211 59.8049 42.1474 59.8628 41.9737C60.4996 37.4 63.9733 34.7369 64.147 34.6211C64.2628 34.5053 64.4944 34.5632 64.6101 34.679C64.7259 34.7948 64.668 35.0263 64.5522 35.1421C64.4944 35.1421 61.0786 37.8053 60.4996 42.0895C60.4417 42.2053 60.268 42.3211 60.1522 42.3211Z" fill="#FF8A8A"/>
<path d="M61.0786 39.2527C61.0207 39.2527 60.9628 39.2527 60.9049 39.1948C60.7892 39.079 60.7313 38.9053 60.8471 38.7316C61.5997 37.6316 63.626 37.7474 63.6839 37.7474C63.8576 37.7474 63.9734 37.9211 63.9734 38.0948C63.9734 38.2685 63.7997 38.3842 63.626 38.3842C63.1628 38.3263 61.7734 38.4421 61.3102 39.079C61.3102 39.1948 61.1944 39.2527 61.0786 39.2527Z" fill="#FF8A8A"/>
<path d="M47.9945 17.021C35.2576 13.8947 23.7945 25.4158 26.6313 38.1526C28.6576 47.1263 33.1155 58.5316 43.9997 58.7632C55.3471 59.0526 59.9208 46.6631 61.5418 37.2842C63.0471 28.7158 58.0102 20.2631 49.7313 17.5421C49.1524 17.3105 48.5734 17.1368 47.9945 17.021Z" fill="#FFB8A1"/>
<path d="M44.926 45.9105C44.405 45.9105 43.7681 45.7947 43.1313 45.5053C42.9576 45.4474 42.8418 45.2158 42.8418 45.0421L43.7681 38.0947C43.826 37.8632 43.9997 37.6895 44.2892 37.6895C44.5207 37.7474 44.6944 37.9211 44.6944 38.2105L43.826 44.8684C44.6944 45.2158 45.3892 45.1579 45.9681 44.8105C46.1997 44.6947 46.4313 44.7526 46.605 44.9263C46.7207 45.1579 46.6629 45.3895 46.4892 45.5632C45.9681 45.7369 45.505 45.9105 44.926 45.9105Z" fill="#FF8A8A"/>
<path d="M44.0574 50.4842C41.5101 50.4842 39.5416 49.4421 39.5416 49.3842C39.3101 49.2684 39.2522 48.9789 39.368 48.7474C39.4837 48.5158 39.7732 48.4579 40.0048 48.5737C40.2364 48.6895 45.1574 51.3526 49.4416 47.4158C49.6153 47.2421 49.9048 47.2421 50.0785 47.4158C50.2522 47.5895 50.2522 47.8789 50.0785 48.0526C48.0522 49.9632 45.9101 50.4842 44.0574 50.4842Z" fill="#FF8A8A"/>
<path d="M44.8099 53.0895C43.8257 53.0895 42.9573 52.8579 42.9573 52.8C42.7257 52.7421 42.6099 52.4526 42.6678 52.2211C42.7257 51.9895 43.0152 51.8737 43.2468 51.9316C43.2468 51.9316 45.2731 52.5105 46.6626 51.7579C46.8941 51.6421 47.1257 51.7 47.2994 51.9316C47.4152 52.1632 47.3573 52.3948 47.1257 52.5684C46.3152 52.9737 45.5047 53.0895 44.8099 53.0895Z" fill="#FF8A8A"/>
<path d="M35.3733 33.1737C36.3576 32.6526 37.747 32.0158 39.1365 31.8421C39.8891 31.7263 40.3523 30.9737 40.0628 30.279L40.0049 30.1632C39.8312 29.6421 39.3102 29.3526 38.7891 29.4105C37.5733 29.5263 35.4312 29.9895 33.9839 31.379C33.6944 31.6684 33.5786 32.1316 33.6944 32.5369C33.926 33.2316 34.7365 33.5211 35.3733 33.1737Z" fill="#3F2037"/>
<path d="M53.8996 33.1737C52.9154 32.6526 51.526 32.0158 50.1365 31.8421C49.3839 31.7263 48.9207 30.9737 49.2102 30.279L49.2681 30.1632C49.4418 29.6421 49.9628 29.3526 50.4839 29.4105C51.6996 29.5263 53.8418 29.9895 55.2891 31.379C55.5786 31.6684 55.6944 32.1316 55.5786 32.5369C55.2891 33.2316 54.5365 33.5211 53.8996 33.1737Z" fill="#3F2037"/>
<g opacity="0.5">
<g opacity="0.5">
<path opacity="0.5" d="M38.6153 41.221C38.6153 42.321 36.589 43.1895 34.0995 43.1895C31.6101 43.1895 29.5837 42.321 29.5837 41.221C29.5837 40.121 31.6101 39.2526 34.0995 39.2526C36.589 39.2526 38.6153 40.121 38.6153 41.221Z" fill="#FF8A8A"/>
</g>
</g>
<g opacity="0.5">
<g opacity="0.5">
<path opacity="0.5" d="M59.9207 41.221C59.9207 42.321 57.8944 43.1895 55.4049 43.1895C52.9155 43.1895 50.8892 42.321 50.8892 41.221C50.8892 40.121 52.9155 39.2526 55.4049 39.2526C57.8944 39.2526 59.9207 40.121 59.9207 41.221Z" fill="#FF8A8A"/>
</g>
</g>
<path d="M27.0942 40.1211C27.0942 40.1211 24.7205 26.979 25.4732 23.9684C26.2258 20.9579 27.7311 21.5369 27.7311 21.5369C27.7311 21.5369 14.8784 10.9421 21.3047 4.97896C25.9363 0.636851 31.2626 9.90001 31.2626 9.90001C31.2626 9.90001 28.5995 0.810535 32.3626 -0.405255C37.0521 -1.96841 39.1363 8.9158 39.1363 8.9158C39.1363 8.9158 38.7311 0.810535 42.5521 0.926324C47.8205 1.1579 44.8679 7.23685 50.5416 9.61054C56.2732 11.9842 64.8995 13.2 61.7732 22.7526C61.7732 22.7526 65.9416 22.579 60.7311 39.6579C59.3995 37.8053 58.7047 35.4895 58.8205 33.2316C58.8784 31.4369 58.8784 29.4105 58.5311 28.1368C58.5311 28.1368 55.2889 25.879 55.4047 22.5211C55.4047 22.5211 43.8837 29.3526 33.289 23.2737C33.289 23.2737 33.9837 27.2105 30.6258 27.7895C30.6258 27.7895 29.5258 30.3368 29.1784 33.9842C29.0047 36.1263 28.3679 38.1526 27.21 39.9474L27.0942 40.1211Z" fill="#3F2037"/>
<path d="M60.7314 16.7895C60.7314 16.7895 62.5261 10.5947 65.4788 12.1579C67.563 13.3158 62.6998 18.0053 62.6998 18.0053C62.6998 18.0053 66.8103 15.8053 68.8367 17.3684C70.863 18.9316 65.4788 20.7842 62.4103 20.2632C59.284 19.6842 60.7314 16.7895 60.7314 16.7895Z" fill="#3F2037"/>
<path d="M38.9629 36.5895C38.9629 37.8053 38.5576 38.7895 37.9787 38.7895C37.3997 38.7895 36.9366 37.8053 36.8787 36.5895C36.8787 35.3737 37.2839 34.3895 37.8629 34.3895C38.4418 34.3895 38.905 35.3737 38.9629 36.5895Z" fill="#3F2037"/>
<path d="M49.7893 36.5895C49.7893 37.8053 50.1946 38.7895 50.7735 38.7895C51.3525 38.7895 51.8156 37.8053 51.8735 36.5895C51.8735 35.3737 51.4683 34.3895 50.8893 34.3895C50.3104 34.3895 49.7893 35.3737 49.7893 36.5895Z" fill="#3F2037"/>
<path d="M32.1315 75.6105V88.0579H31.2631V75.6105C31.2631 75.4947 31.321 75.4368 31.3789 75.3211C31.4367 75.2053 31.6104 75.1474 31.7262 75.1474C31.9578 75.1474 32.1315 75.321 32.1894 75.4947C32.1315 75.5526 32.1315 75.5526 32.1315 75.6105Z" fill="white"/>
<path d="M57.0261 75.6105V88.0579H56.1577V75.6105C56.1577 75.379 56.3314 75.1474 56.6209 75.1474C56.7946 75.1474 56.9682 75.2632 57.0261 75.4368C57.0261 75.4947 57.0261 75.5526 57.0261 75.6105Z" fill="white"/>
</g>
</svg>
