<svg width="88" height="88" viewBox="0 0 88 88" fill="none" xmlns="http://www.w3.org/2000/svg">
<circle cx="44" cy="44" r="43.5" fill="white" stroke="#EFEFEF"/>
<mask id="mask0_40:2654" style="mask-type:alpha" maskUnits="userSpaceOnUse" x="1" y="0" width="87" height="87">
<circle cx="44.5" cy="43.5" r="43" fill="#C4C4C4" stroke="#EFEFEF"/>
</mask>
<g mask="url(#mask0_40:2654)">
<path d="M27.2266 42.6841C27.2266 42.6841 24.6858 49.0767 26.1377 51.2685C27.5291 53.4602 30.3119 49.1376 30.3119 49.1376C30.3119 49.1376 28.134 56.9914 31.1588 57.7828C34.1836 58.5743 37.4504 51.8164 37.4504 51.8164C37.4504 51.8164 31.5823 39.8835 27.2266 42.6841Z" fill="#3F2037"/>
<path d="M59.955 42.6841C59.955 42.6841 62.4958 49.0767 61.0439 51.2685C59.6525 53.4602 56.8697 49.1376 56.8697 49.1376C56.8697 49.1376 59.0475 56.9914 56.0227 57.7828C52.998 58.5743 49.7312 51.8164 49.7312 51.8164C49.7312 51.8164 55.5993 39.8835 59.955 42.6841Z" fill="#3F2037"/>
<path d="M85 88.0412H2C2 88.0412 2.0605 87.1279 2.30248 85.7277C2.36297 85.2406 2.48397 84.7535 2.60496 84.2056C2.84694 83.1706 3.14942 82.0747 3.57289 80.9789C3.75437 80.4309 3.99636 79.9439 4.23834 79.4568C4.90379 78.1783 5.69023 76.9607 6.77915 76.2301C7.14213 75.9865 7.5051 75.743 7.86808 75.6213C8.41254 75.4386 9.07799 75.0733 9.92493 74.708C11.6793 73.9166 13.9781 72.7598 16.4585 71.4813C17.4264 70.9942 18.3943 70.5072 19.3622 70.0201C19.3622 70.0201 19.4227 70.0201 19.4227 69.9592C21.5401 68.8634 23.6574 67.7675 25.6538 66.7325C26.3192 66.3672 26.9242 66.0628 27.5292 65.7584C27.8921 65.5757 28.1946 65.3931 28.5576 65.2104C28.6181 65.2104 28.6786 65.1496 28.7391 65.1496C31.4009 63.7493 33.3972 62.6534 33.8812 62.4099C33.8812 62.4099 33.8812 62.4099 33.9417 62.4099C34.0022 62.4099 34.0022 62.349 34.0022 62.349L34.6071 62.4708C35.3936 62.6534 36.18 62.7752 36.9665 62.9578C37.7529 63.0796 38.5394 63.2013 39.3258 63.2622C43.6815 63.6884 48.1582 63.384 52.4534 62.349C52.4534 62.349 54.4497 63.384 57.293 64.8452C57.535 64.9669 57.7165 65.0887 57.9585 65.2104C58.8659 65.6975 59.8943 66.1846 60.9227 66.7325C61.8907 67.2196 62.8586 67.7066 63.887 68.2545C64.6735 68.6198 65.4599 69.046 66.2464 69.4113C66.6093 69.5939 66.9723 69.7766 67.3353 69.9592C68.3637 70.5072 69.3921 70.9942 70.3601 71.4813C72.9009 72.7598 75.3207 73.9166 77.0751 74.708C77.922 75.0733 78.648 75.3777 79.1319 75.6213C79.4949 75.8039 79.8579 75.9865 80.2208 76.2301C81.2493 77.0215 82.0962 78.1783 82.7617 79.4568C83.0036 79.9439 83.2456 80.4309 83.4271 80.9789C83.8506 82.0747 84.1531 83.1706 84.395 84.2056C84.516 84.7535 84.637 85.2406 84.6975 85.7277C84.9395 87.1279 85 88.0412 85 88.0412Z" fill="#FFCC01"/>
<path d="M60.9831 66.7325H25.5931C26.6216 66.1845 27.5895 65.6975 28.4969 65.2104H57.9583C58.9262 65.6366 59.8942 66.1845 60.9831 66.7325Z" fill="#F49321"/>
<path d="M70.4205 71.4812H16.4584C17.4263 70.9942 18.3942 70.5071 19.3622 70.0201C19.3622 70.0201 19.4227 70.0201 19.4227 69.9592H67.3352C68.3636 70.4463 69.3921 70.9942 70.4205 71.4812Z" fill="#F49321"/>
<path d="M80.2206 76.2301H6.77893C7.1419 75.9865 7.50488 75.743 7.86785 75.6212C8.41231 75.4386 9.07776 75.0733 9.9247 74.708H77.1353C77.9823 75.0733 78.7082 75.3777 79.1922 75.6212C79.5552 75.743 79.9181 75.9865 80.2206 76.2301Z" fill="#F49321"/>
<path d="M83.4267 80.9788H3.57251C3.754 80.4309 3.99598 79.9438 4.23796 79.4568H82.7613C83.0033 79.9438 83.2453 80.4918 83.4267 80.9788Z" fill="#F49321"/>
<path d="M84.6973 85.7276H2.30225C2.36274 85.2406 2.48373 84.7535 2.60472 84.2056H84.3343C84.5158 84.7535 84.5763 85.3015 84.6973 85.7276Z" fill="#F49321"/>
<path d="M57.2929 64.8451C56.3249 68.1936 52.2112 73.4904 43.4998 73.4904C34.486 73.4904 29.4649 68.5589 27.4685 65.6975C27.8315 65.5148 28.134 65.3322 28.4969 65.1495C28.5574 65.1495 28.6179 65.0887 28.6784 65.0887C31.3402 63.6884 33.3366 62.5925 33.8205 62.349C33.8205 62.349 33.8205 62.349 33.881 62.349C33.9415 62.349 33.9415 62.2881 33.9415 62.2881L34.5465 62.4098C35.3329 62.5925 36.1194 62.7143 36.9058 62.8969C37.6923 63.0187 38.4787 63.1404 39.2652 63.2013C43.6208 63.6275 48.0975 63.3231 52.3927 62.2881C52.4532 62.349 54.3891 63.384 57.2929 64.8451Z" fill="#F49321"/>
<path d="M52.8773 64.4798C52.8773 64.4798 51.2439 69.6548 43.7425 69.6548C35.0311 69.6548 32.9742 64.9669 32.9742 64.9669C33.7607 62.9578 34.2447 61.0705 34.6076 59.4266C35.2731 56.3826 35.3336 53.9473 35.3336 52.4861L50.639 51.8773C50.76 53.1558 51.0019 54.7387 51.2439 56.2608C51.9699 60.279 52.8773 64.4798 52.8773 64.4798Z" fill="#FFB8A1"/>
<path d="M51.244 56.1999C48.8846 57.8437 43.682 60.3399 34.6077 59.3658C35.2731 56.3217 35.3336 53.8864 35.3336 52.4252L50.639 51.8164C50.76 53.0949 51.002 54.617 51.244 56.1999Z" fill="#3F2037"/>
<path d="M29.4652 32.2733C29.4652 32.2733 24.7466 25.759 21.0563 29.5945C17.3661 33.4301 24.5046 46.8241 30.9171 43.9018L29.4652 32.2733Z" fill="#FFB8A1"/>
<path d="M27.1665 39.9444C26.9851 39.9444 26.8641 39.8227 26.8641 39.64C26.2591 35.1348 22.6899 32.3342 22.6294 32.3342C22.5084 32.2124 22.4479 32.0298 22.5689 31.8471C22.6899 31.7254 22.8714 31.6645 23.0528 31.7863C23.2343 31.908 26.8641 34.7695 27.5295 39.5183C27.5295 39.7618 27.4085 39.9444 27.1665 39.9444C27.227 39.9444 27.227 39.9444 27.1665 39.9444Z" fill="#FF8A8A"/>
<path d="M26.1985 36.7177C26.0775 36.7177 26.017 36.6568 25.9565 36.5959C25.4725 35.8653 24.0811 35.8045 23.5367 35.8653C23.3552 35.8653 23.1737 35.7436 23.1737 35.5609C23.1737 35.3783 23.2947 35.1956 23.4762 35.1956C23.5367 35.1956 25.7145 35.0739 26.4405 36.2306C26.5615 36.3524 26.501 36.5959 26.38 36.7177C26.3195 36.7177 26.259 36.7177 26.1985 36.7177Z" fill="#FF8A8A"/>
<path d="M58.8055 32.2733C58.8055 32.2733 63.5242 25.759 67.2144 29.5945C70.9047 33.4301 63.7662 46.8241 57.3536 43.9018L58.8055 32.2733Z" fill="#FFB8A1"/>
<path d="M61.044 39.9444C60.802 39.9444 60.681 39.7618 60.7415 39.5791C61.4069 34.7695 65.0367 31.9689 65.2182 31.8471C65.3392 31.7254 65.5811 31.7863 65.7021 31.908C65.8231 32.0298 65.7626 32.2733 65.6416 32.3951C65.5811 32.3951 62.0119 35.1956 61.4069 39.7009C61.3464 39.8835 61.2255 39.9444 61.044 39.9444Z" fill="#FF8A8A"/>
<path d="M62.0722 36.7177C62.0117 36.7177 61.9512 36.7177 61.8907 36.6568C61.7697 36.535 61.7092 36.3524 61.8302 36.1697C62.6167 35.013 64.734 35.1348 64.7945 35.1348C64.976 35.1348 65.097 35.3174 65.097 35.5C65.097 35.6827 64.9155 35.8045 64.734 35.8045C64.25 35.7436 62.7982 35.8653 62.3142 36.535C62.2537 36.6568 62.1327 36.7177 62.0722 36.7177Z" fill="#FF8A8A"/>
<path d="M47.9162 13.339C34.6677 10.0514 25.4723 19.9143 26.6822 35.1348C27.4687 44.815 32.3688 56.9305 43.742 57.2349C55.5991 57.5393 61.8302 46.0935 61.8302 32.6995C61.8302 22.4713 58.3819 16.7484 49.7311 13.887C49.1261 13.7043 48.5212 13.5217 47.9162 13.339Z" fill="#FFB8A1"/>
<path d="M24.8675 21.2537C24.8675 21.2537 22.2662 27.3419 23.1736 28.4378C23.96 29.351 25.2304 28.7422 25.2304 28.7422C25.2304 28.7422 24.7465 35.4392 27.5293 35.6827C30.3121 35.9262 30.0096 23.4455 30.0096 23.4455C30.0096 23.4455 34.6678 23.5672 33.7603 19.6708C33.7603 19.6708 45.799 21.9843 55.1153 19.4881C55.1153 19.4881 54.7523 23.2019 57.8981 23.7499C57.8981 23.7499 56.0832 35.0739 59.4105 35.9262C62.7377 36.7786 62.5562 28.9248 62.5562 28.9248C62.5562 28.9248 64.0081 28.9248 64.6131 28.3769C65.944 27.0984 63.7057 19.7317 60.0759 14.922C56.0227 9.68614 36.0592 -0.359377 24.8675 21.2537Z" fill="#3F2037"/>
<path d="M64.3712 19.8534C64.3712 19.8534 63.4638 19.6708 61.8909 19.3663C61.7094 19.3663 61.5884 19.3055 61.4069 19.3055C59.7736 19.0619 57.5352 18.7575 54.8129 18.514C54.6314 18.514 54.5104 18.514 54.329 18.4531C52.3931 18.2705 50.2153 18.1487 47.9164 18.0878C47.7349 18.0878 47.6139 18.0878 47.4325 18.0878C45.4361 18.0269 43.2583 18.0878 41.0199 18.1487C40.8384 18.1487 40.7174 18.1487 40.536 18.1487C38.4791 18.2705 36.3013 18.3922 34.0629 18.6966C33.8814 18.6966 33.7604 18.7575 33.579 18.7575C31.4011 19.0011 29.1628 19.3663 26.9244 19.7925C26.743 19.8534 26.622 19.8534 26.4405 19.9143C25.5935 20.0969 24.7466 20.2796 23.8997 20.4622C23.8997 20.4622 24.9281 13.2782 30.6147 8.4076C30.9172 8.16408 31.2801 7.85967 31.5826 7.61614C33.1555 6.45938 35.0309 5.48527 37.2087 4.81557C37.3902 4.75469 37.5717 4.69381 37.7532 4.63293C38.9631 4.32852 40.294 4.08499 41.7459 3.96323C41.9274 3.96323 42.0483 3.96323 42.2298 3.90234C42.8953 3.96323 43.4397 3.96323 43.9842 3.96323C44.7102 3.96323 45.4361 3.96323 46.162 4.02411C46.3435 4.02411 46.4645 4.02411 46.646 4.08499C48.0979 4.20675 49.4288 4.45028 50.6992 4.81557C50.8807 4.87645 51.0622 4.93734 51.2437 4.99822C53.482 5.66792 55.3574 6.70291 56.9303 7.85967C57.2932 8.10319 57.5957 8.34672 57.8982 8.65113C63.4033 13.2782 64.3712 19.8534 64.3712 19.8534Z" fill="#FFCC01"/>
<path d="M31.7036 7.67703C29.8282 10.9038 27.7109 15.2873 27.0454 19.8534C26.9244 20.7058 26.8034 21.5581 26.8034 22.4105H26.3195C26.3195 21.619 26.4404 20.7666 26.5614 19.9752C27.1664 15.7743 28.9813 11.6952 30.7356 8.4685C31.0381 8.16409 31.3406 7.92056 31.7036 7.67703Z" fill="#F49321"/>
<path d="M37.8741 4.69382C36.6642 7.61615 34.7888 12.9738 34.0629 18.6967C33.9419 19.9143 33.8209 21.1319 33.8209 22.3496H33.3369C33.3369 21.1319 33.4579 19.9752 33.5789 18.7575C34.2443 13.1564 36.0592 7.85968 37.2691 4.81558C37.5111 4.81558 37.6926 4.7547 37.8741 4.69382Z" fill="#F49321"/>
<path d="M42.3507 4.02411C41.9877 6.70291 41.2617 12.1823 41.0198 18.2096C40.9593 19.6099 40.8988 21.0102 40.8988 22.4104H40.4148C40.4148 21.0102 40.4753 19.6099 40.5358 18.2705C40.7778 12.304 41.5037 6.82468 41.8667 4.08499C42.0482 4.02411 42.2297 4.02411 42.3507 4.02411Z" fill="#F49321"/>
<path d="M48.0374 22.3496H47.5535C47.5535 20.9493 47.493 19.4881 47.4325 18.0878C47.1905 12.1214 46.4645 6.70291 46.1016 4.02411C46.283 4.02411 46.404 4.02411 46.5855 4.08499C46.9485 6.82468 47.614 12.2432 47.9164 18.0878C47.9769 19.4881 48.0374 20.9493 48.0374 22.3496Z" fill="#F49321"/>
<path d="M55.1153 22.3496H54.6314C54.6314 21.0711 54.5104 19.7317 54.3289 18.4531C53.603 12.9129 51.7881 7.67703 50.6387 4.81558C50.8202 4.87646 51.0016 4.93735 51.1831 4.99823C52.393 7.98144 54.1474 13.0955 54.8129 18.514C54.9944 19.7925 55.1153 21.0711 55.1153 22.3496Z" fill="#F49321"/>
<path d="M62.1933 22.3496H61.7093C61.6488 21.3146 61.5883 20.2796 61.4068 19.3055C60.6204 15.0437 58.6845 10.9038 56.9302 7.7988C57.2931 8.04233 57.5956 8.28585 57.8981 8.59026C59.5315 11.6344 61.2254 15.409 61.8908 19.3664C62.0723 20.3405 62.1933 21.3755 62.1933 22.3496Z" fill="#F49321"/>
<path d="M22.9921 20.4622C22.9921 20.4622 21.9032 22.8366 23.1736 26.3069C23.1736 26.3069 36.4221 18.3313 65.0366 25.8198C65.0366 25.8198 66.8514 23.8107 65.0366 20.0969C65.0366 20.0969 42.9557 10.3558 22.9921 20.4622Z" fill="#F49321"/>
<path d="M44.7101 43.7191C44.1656 43.7191 43.5002 43.5974 42.8347 43.2929C42.6532 43.2321 42.5322 42.9885 42.5322 42.8059L43.5002 35.5001C43.5607 35.2565 43.7421 35.0739 44.0446 35.0739C44.2866 35.1348 44.4681 35.3174 44.4681 35.6218L43.5607 42.6232C44.4681 42.9885 45.194 42.9277 45.799 42.5624C46.041 42.4406 46.283 42.5015 46.4644 42.6841C46.5854 42.9277 46.5249 43.1712 46.3435 43.3538C45.799 43.5974 45.315 43.7191 44.7101 43.7191Z" fill="#FF8A8A"/>
<path d="M43.8028 48.5897C41.141 48.5897 39.0841 47.4938 39.0841 47.4329C38.8422 47.3112 38.7817 47.0067 38.9027 46.7632C39.0236 46.5197 39.3261 46.4588 39.5681 46.5806C39.8101 46.7023 44.9522 49.5029 49.4289 45.3629C49.6104 45.1803 49.9129 45.1803 50.0943 45.3629C50.2758 45.5456 50.2758 45.85 50.0943 46.0326C47.977 47.9809 45.7387 48.5897 43.8028 48.5897Z" fill="#FF8A8A"/>
<path d="M44.5891 51.2685C43.5607 51.2685 42.6532 51.0249 42.6532 50.9641C42.4112 50.9032 42.2902 50.5988 42.3507 50.3552C42.4112 50.1117 42.7137 49.99 42.9557 50.0508C42.9557 50.0508 45.073 50.6597 46.5249 49.8682C46.7669 49.7464 47.0089 49.8073 47.1904 50.0508C47.3114 50.2944 47.2509 50.5379 47.0089 50.7205C46.162 51.1467 45.315 51.2685 44.5891 51.2685Z" fill="#FF8A8A"/>
<path d="M34.7285 30.386C35.7569 29.838 37.2088 29.1683 38.6607 28.9857C39.4471 28.8639 39.9311 28.0725 39.6286 27.3419L39.5681 27.2201C39.3866 26.6722 38.8422 26.3678 38.2977 26.4286C37.0273 26.5504 34.789 27.0375 33.2766 28.4986C32.9741 28.803 32.8531 29.2901 32.9741 29.7163C33.2161 30.386 34.063 30.7513 34.7285 30.386Z" fill="#3F2037"/>
<path d="M54.087 30.386C53.0586 29.838 51.6067 29.1683 50.1548 28.9857C49.3684 28.8639 48.8844 28.0725 49.1869 27.3419L49.2474 27.2201C49.4288 26.6722 49.9733 26.3678 50.5178 26.4286C51.7882 26.5504 54.0265 27.0375 55.5389 28.4986C55.8414 28.803 55.9624 29.2901 55.8414 29.7163C55.5389 30.386 54.7525 30.7513 54.087 30.386Z" fill="#3F2037"/>
<g opacity="0.5">
<g opacity="0.5">
<path opacity="0.5" d="M38.116 38.8486C38.116 40.0053 35.9987 40.9186 33.3974 40.9186C30.7961 40.9186 28.6787 40.0053 28.6787 38.8486C28.6787 37.6918 30.7961 36.7786 33.3974 36.7786C35.9987 36.7177 38.116 37.6918 38.116 38.8486Z" fill="#FF8A8A"/>
</g>
</g>
<g opacity="0.5">
<g opacity="0.5">
<path opacity="0.5" d="M60.3785 38.8486C60.3785 40.0053 58.2611 40.9186 55.6598 40.9186C53.0585 40.9186 50.9412 40.0053 50.9412 38.8486C50.9412 37.6918 53.0585 36.7786 55.6598 36.7786C58.2611 36.7177 60.3785 37.6918 60.3785 38.8486Z" fill="#FF8A8A"/>
</g>
</g>
<path d="M38.4791 33.978C38.4791 35.2565 38.0556 36.2915 37.4507 36.2915C36.8457 36.2915 36.3618 35.2565 36.3013 33.978C36.3013 32.6995 36.7247 31.6645 37.3297 31.6645C37.9347 31.6645 38.4186 32.6995 38.4791 33.978Z" fill="#3F2037"/>
<path d="M49.792 33.978C49.792 35.2565 50.2155 36.2915 50.8204 36.2915C51.4254 36.2915 51.9093 35.2565 51.9698 33.978C51.9698 32.6995 51.5464 31.6645 50.9414 31.6645C50.3365 31.6645 49.792 32.6995 49.792 33.978Z" fill="#3F2037"/>
</g>
</svg>
