<svg width="375" height="812" viewBox="0 0 375 812" fill="none" xmlns="http://www.w3.org/2000/svg">
<g clip-path="url(#clip0_40:661)">
<rect width="375" height="812" fill="white"/>
<path d="M304.026 124.677C316.049 124.677 325.797 114.9 325.797 102.838C325.797 90.7774 316.049 81 304.026 81C292.002 81 282.255 90.7774 282.255 102.838C282.255 114.9 292.002 124.677 304.026 124.677Z" fill="#FF9802"/>
<path d="M12.0961 548.323C23.7472 548.323 33.1922 538.849 33.1922 527.162C33.1922 515.474 23.7472 506 12.0961 506C0.445058 506 -9 515.474 -9 527.162C-9 538.849 0.445058 548.323 12.0961 548.323Z" fill="#FF9802"/>
<path d="M377.098 576.225C384.664 568.636 384.664 556.331 377.098 548.742C369.532 541.152 357.265 541.152 349.699 548.742C342.133 556.331 342.133 568.636 349.699 576.225C357.265 583.815 369.532 583.815 377.098 576.225Z" fill="#FFCC01"/>
<path d="M21.0912 227.262C29.2056 219.122 29.2056 205.926 21.0912 197.786C12.9767 189.646 -0.179359 189.646 -8.29379 197.786C-16.4082 205.925 -16.4082 219.122 -8.29379 227.262C-0.179359 235.402 12.9767 235.402 21.0912 227.262Z" fill="#FFCC01"/>
</g>
<defs>
<clipPath id="clip0_40:661">
<rect width="375" height="812" fill="white"/>
</clipPath>
</defs>
</svg>
