<svg width="161" height="113" viewBox="0 0 161 113" fill="none" xmlns="http://www.w3.org/2000/svg">
<path fill-rule="evenodd" clip-rule="evenodd" d="M34.224 94.5825H101.928C102.311 94.5825 102.684 94.5413 103.044 94.4633C103.404 94.5413 103.777 94.5825 104.16 94.5825H142.848C145.724 94.5825 148.056 92.2633 148.056 89.4025C148.056 86.5416 145.724 84.2225 142.848 84.2225H138.384C135.508 84.2225 133.176 81.9033 133.176 79.0425C133.176 76.1816 135.508 73.8625 138.384 73.8625H152.52C155.396 73.8625 157.728 71.5433 157.728 68.6825C157.728 65.8216 155.396 63.5025 152.52 63.5025H136.152C139.028 63.5025 141.36 61.1833 141.36 58.3225C141.36 55.4616 139.028 53.1425 136.152 53.1425H88.536C91.4123 53.1425 93.744 50.8233 93.744 47.9625C93.744 45.1016 91.4123 42.7825 88.536 42.7825H46.128C43.2517 42.7825 40.92 45.1016 40.92 47.9625C40.92 50.8233 43.2517 53.1425 46.128 53.1425H16.368C13.4917 53.1425 11.16 55.4616 11.16 58.3225C11.16 61.1833 13.4917 63.5025 16.368 63.5025H34.968C37.8443 63.5025 40.176 65.8216 40.176 68.6825C40.176 71.5433 37.8443 73.8625 34.968 73.8625H5.208C2.3317 73.8625 0 76.1816 0 79.0425C0 81.9033 2.3317 84.2225 5.208 84.2225H34.224C31.3477 84.2225 29.016 86.5416 29.016 89.4025C29.016 92.2633 31.3477 94.5825 34.224 94.5825ZM155.496 94.5825C158.372 94.5825 160.704 92.2633 160.704 89.4025C160.704 86.5416 158.372 84.2225 155.496 84.2225C152.62 84.2225 150.288 86.5416 150.288 89.4025C150.288 92.2633 152.62 94.5825 155.496 94.5825Z" fill="#FDF9D6"/>
<path d="M32.3521 63.78V63.7799C32.3521 37.2714 53.8408 15.7825 80.3546 15.7825C106.858 15.7825 128.352 37.2714 128.352 63.7799C128.352 90.2936 106.858 111.782 80.3546 111.782C74.0505 111.783 67.8082 110.542 61.984 108.13C56.1598 105.718 50.8678 102.182 46.4102 97.7243C41.9526 93.2668 38.4168 87.9748 36.0047 82.1505C33.5926 76.3263 32.3514 70.084 32.3521 63.78ZM105.642 34.4914L106.423 33.7106L41.5599 63.7799L40.5599 63.7786C40.5599 63.7789 40.5599 63.7791 40.5599 63.7793C40.5483 72.9788 43.7379 81.8956 49.5815 89.0006L50.2817 89.8519L51.061 89.0725L105.642 34.4914ZM55.0671 93.0684L54.2879 93.8476L55.1389 94.5478C62.2404 100.391 71.1548 103.579 80.351 103.564C87.8836 103.563 95.2611 101.424 101.626 97.3947C107.991 93.3655 113.081 87.6123 116.305 80.804C119.529 73.9957 120.754 66.412 119.838 58.9349C118.922 51.4577 115.902 44.3943 111.129 38.566L110.429 37.7114L109.648 38.4924L55.0671 93.0684Z" fill="#FDF9D6" stroke="#F7981E" stroke-width="2"/>
<circle cx="48.5655" cy="4.09039" r="4.09039" fill="#F7981E"/>
<circle cx="141.442" cy="55.0628" r="3.59039" fill="#F7981E" stroke="#F7981E"/>
<circle cx="21.5059" cy="44.9942" r="3.59039" stroke="#F7981E"/>
</svg>
