<svg width="77" height="77" viewBox="0 0 77 77" fill="none" xmlns="http://www.w3.org/2000/svg">
<circle cx="38.3333" cy="38.3333" r="38.3333" fill="white"/>
<circle cx="38.3333" cy="38.3333" r="37.8333" stroke="black" stroke-opacity="0.1"/>
<path d="M53.9316 30.9087C54.3798 30.9087 54.7864 31.1042 55.1078 31.4347C55.4073 31.7876 55.5581 32.226 55.5144 32.689C55.5144 32.8419 54.3164 47.9928 53.6321 54.3702C53.2036 58.2838 50.6806 60.6598 46.8963 60.725C43.9864 60.7902 41.1421 60.8127 38.3415 60.8127C35.3682 60.8127 32.4606 60.7902 29.6381 60.725C25.9805 60.6374 23.4554 58.2186 23.0488 54.3702C22.3448 47.9704 21.1686 32.8419 21.1468 32.689C21.1249 32.226 21.2736 31.7876 21.5753 31.4347C21.8726 31.1042 22.3011 30.9087 22.7515 30.9087H53.9316ZM42.9744 15.8539C44.9617 15.8539 46.7369 17.2409 47.2507 19.2191L47.618 20.8601C47.9153 22.1976 49.074 23.1439 50.4076 23.1439H56.9619C57.8364 23.1439 58.5644 23.87 58.5644 24.7939V25.6481C58.5644 26.5495 57.8364 27.2981 56.9619 27.2981H19.7063C18.8296 27.2981 18.1016 26.5495 18.1016 25.6481V24.7939C18.1016 23.87 18.8296 23.1439 19.7063 23.1439H26.2606C27.592 23.1439 28.7507 22.1976 29.0502 20.8623L29.3935 19.3292C29.9269 17.2409 31.6825 15.8539 33.6916 15.8539H42.9744Z" fill="#FF6F03"/>
</svg>
