<svg width="87" height="87" viewBox="0 0 87 87" fill="none" xmlns="http://www.w3.org/2000/svg">
<g filter="url(#filter0_d_40:4389)">
<path d="M43.377 68.754C57.3923 68.754 68.754 57.3923 68.754 43.377C68.754 29.3617 57.3923 18 43.377 18C29.3617 18 18 29.3617 18 43.377C18 57.3923 29.3617 68.754 43.377 68.754Z" fill="#FF2C2C"/>
</g>
<path d="M35.9211 37.9549L35.9212 37.955L41.4683 43.5003L35.9212 49.0456L35.921 49.0458C35.7875 49.1794 35.6817 49.3379 35.6095 49.5124C35.5373 49.6868 35.5002 49.8738 35.5003 50.0626C35.5003 50.2514 35.5375 50.4383 35.6098 50.6127C35.6821 50.7871 35.788 50.9456 35.9215 51.0791C36.055 51.2126 36.2136 51.3185 36.388 51.3907C36.5624 51.4629 36.7494 51.5001 36.9382 51.5C37.127 51.4999 37.3139 51.4627 37.4883 51.3904C37.6627 51.3181 37.821 51.2122 37.9544 51.0788C37.9545 51.0787 37.9546 51.0786 37.9546 51.0785L43.5017 45.5333L49.0455 51.0786C49.3151 51.3484 49.6808 51.4999 50.0622 51.4999C50.4436 51.4999 50.8093 51.3484 51.0789 51.0786C51.3485 50.8089 51.5 50.4432 51.5 50.0618C51.5 49.6805 51.3486 49.3147 51.0789 49.045L51.0788 49.0449L45.5316 43.5002L51.0753 37.9549C51.345 37.6852 51.4964 37.3194 51.4964 36.9381C51.4964 36.5567 51.345 36.191 51.0753 35.9213C50.8057 35.6515 50.44 35.5 50.0586 35.5C49.6772 35.5 49.3115 35.6515 49.0419 35.9213L43.4982 41.4665L37.9545 35.9213C37.6849 35.6515 37.3192 35.5 36.9378 35.5C36.5564 35.5 36.1907 35.6515 35.9211 35.9213C35.6514 36.191 35.5 36.5567 35.5 36.9381C35.5 37.3194 35.6514 37.6852 35.9211 37.9549Z" fill="white" stroke="white"/>
<defs>
<filter id="filter0_d_40:4389" x="0" y="0" width="86.7539" height="86.754" filterUnits="userSpaceOnUse" color-interpolation-filters="sRGB">
<feFlood flood-opacity="0" result="BackgroundImageFix"/>
<feColorMatrix in="SourceAlpha" type="matrix" values="0 0 0 0 0 0 0 0 0 0 0 0 0 0 0 0 0 0 127 0" result="hardAlpha"/>
<feOffset/>
<feGaussianBlur stdDeviation="9"/>
<feColorMatrix type="matrix" values="0 0 0 0 1 0 0 0 0 1 0 0 0 0 1 0 0 0 0.08 0"/>
<feBlend mode="normal" in2="BackgroundImageFix" result="effect1_dropShadow_40:4389"/>
<feBlend mode="normal" in="SourceGraphic" in2="effect1_dropShadow_40:4389" result="shape"/>
</filter>
</defs>
</svg>
