<svg width="181" height="99" viewBox="0 0 181 99" fill="none" xmlns="http://www.w3.org/2000/svg">
<g clip-path="url(#clip0_40:3500)">
<path d="M59.9 61.7C59.9 61.7 52.3 63.3 47.4 57C42.5 50.7 48.4 45.4 40.9 41.8C33.4 38.1 25.3 42.2 16.3 42C7.29995 41.8 2.09995 34.3 0.399953 35.4C-1.20005 36.5 1.09995 53 27.4 51.4C27.4 51.4 15.9 53 10.5 52.4C5.09995 51.8 6.99995 58.6 15.5 60.4C24 62.2 31.8 58.5 31.8 58.5C31.8 58.5 25.7 62.4 20.8 63.3C15.9 64.1 27.4 73.6 37.9 63.9C37.9 63.9 36.3 66.3 34.5 68.6C32.7 70.9 42.1 72.7 46.3 66.3C46.3 66.3 44.6 69.6 45.1 71.2C45.5 72.8 51.8 73.9 54.5 68.3C54.5 68.3 54.3 71.7 56.2 72.1C58.2 72.5 60.8 72.8 61.9 68.5C63 64.2 59.9 61.7 59.9 61.7Z" fill="#FFAB03"/>
<path d="M134.4 47C134.4 47 142 45.6 144.2 37.9C146.4 30.2 138.8 27.6 144.4 21.3C149.9 15 159 15.7 167.2 12.1C175.5 8.49999 177.4 -0.400009 179.4 -9.28249e-06C181.3 0.399991 185.4 16.6 160.6 25.1C160.6 25.1 171.9 22.2 176.7 19.6C181.5 17 182.3 24 175.1 28.9C167.9 33.8 159.4 33.4 159.4 33.4C159.4 33.4 166.5 34.7 171.4 33.6C176.2 32.5 169.2 45.6 155.8 40.6C155.8 40.6 158.2 42.2 160.7 43.7C163.2 45.2 155.2 50.4 148.9 46C148.9 46 151.7 48.4 151.9 50.1C152.1 51.8 146.7 55.2 142.1 51C142.1 51 143.6 54.1 141.9 55.2C140.2 56.3 137.9 57.6 135.3 54C132.5 50.5 134.4 47 134.4 47Z" fill="#FFAB03"/>
<path d="M133.9 32.2552L54.6355 47.9304L64.7235 98.9424L143.988 83.2672L133.9 32.2552Z" fill="#FF6F03"/>
<path d="M100.8 72.9L57.3999 49.9L101.9 78.6L132.2 35.1L100.8 72.9Z" fill="white"/>
<path d="M82.9 65.3L66.7 96.4L84.8 67.4L82.9 65.3Z" fill="white"/>
<path d="M114.5 59L141.3 81.7L113.5 61.8L114.5 59Z" fill="white"/>
</g>
<defs>
<clipPath id="clip0_40:3500">
<rect width="180.8" height="98.9" fill="white"/>
</clipPath>
</defs>
</svg>
