<svg width="18" height="18" viewBox="0 0 18 18" fill="none" xmlns="http://www.w3.org/2000/svg">
<mask id="mask0_40:4386" style="mask-type:alpha" maskUnits="userSpaceOnUse" x="0" y="0" width="18" height="18">
<rect width="18" height="18" fill="#C4C4C4"/>
</mask>
<g mask="url(#mask0_40:4386)">
<g clip-path="url(#clip0_40:4386)">
<path d="M9.13497 17.9988C9.55393 17.8537 9.71711 17.5548 9.70388 17.1197C9.68624 16.5878 9.69947 16.0515 9.69947 15.5197C9.69947 15.4581 9.69947 15.3922 9.69947 15.3175C10.1228 15.3175 10.5286 15.3175 10.9299 15.3175C11.0313 15.3175 11.1284 15.3131 11.2298 15.2999C11.5826 15.2428 11.834 14.9307 11.8163 14.5746C11.7987 14.2186 11.5209 13.9285 11.1592 13.9197C10.7403 13.9065 10.3257 13.9153 9.90674 13.9109C9.845 13.9109 9.77885 13.9109 9.70829 13.9109C9.70829 13.234 9.70829 12.5834 9.70829 11.9153C11.7546 11.612 13.3158 10.5702 14.2992 8.74605C14.974 7.50649 15.1548 6.16583 14.8726 4.79001C14.2596 1.81858 11.6355 -0.115484 8.78216 0.00319693C5.7568 0.130669 3.3665 2.34605 3.04015 5.30869C2.85933 6.93067 3.28271 8.4032 4.30145 9.68232C5.31578 10.957 6.65647 11.6823 8.2794 11.9021C8.2794 12.5702 8.2794 13.2296 8.2794 13.9065C7.97069 13.9065 7.66639 13.9065 7.36209 13.9065C7.19009 13.9065 7.02251 13.9021 6.85051 13.9109C6.47565 13.9285 6.1934 14.2098 6.17576 14.5702C6.15812 14.9395 6.41391 15.2647 6.79318 15.2955C7.1504 15.3263 7.50762 15.3087 7.86926 15.3131C8.00156 15.3131 8.13828 15.3131 8.28822 15.3131C8.28822 15.4757 8.28822 15.6208 8.28822 15.7614C8.28822 16.2142 8.30145 16.6625 8.28381 17.1153C8.26617 17.5504 8.42934 17.8493 8.85272 17.9944C8.94974 17.9988 9.04235 17.9988 9.13497 17.9988ZM9.0203 10.5395C6.51093 10.5658 4.44698 8.53506 4.4117 6.00759C4.37642 3.5021 6.41832 1.43177 8.96297 1.401C11.4812 1.37023 13.5539 3.40539 13.5804 5.94166C13.6069 8.45155 11.565 10.5087 9.0203 10.5395Z" fill="white"/>
</g>
</g>
<defs>
<clipPath id="clip0_40:4386">
<rect width="12" height="18" fill="white" transform="matrix(-1 0 0 1 15 0)"/>
</clipPath>
</defs>
</svg>
