<svg width="161" height="107" viewBox="0 0 161 107" fill="none" xmlns="http://www.w3.org/2000/svg">
<path fill-rule="evenodd" clip-rule="evenodd" d="M34.224 94.5825H101.928C102.311 94.5825 102.684 94.5413 103.044 94.4633C103.404 94.5413 103.777 94.5825 104.16 94.5825H142.848C145.724 94.5825 148.056 92.2633 148.056 89.4025C148.056 86.5416 145.724 84.2225 142.848 84.2225H138.384C135.508 84.2225 133.176 81.9033 133.176 79.0425C133.176 76.1816 135.508 73.8625 138.384 73.8625H152.52C155.396 73.8625 157.728 71.5433 157.728 68.6825C157.728 65.8216 155.396 63.5025 152.52 63.5025H136.152C139.028 63.5025 141.36 61.1833 141.36 58.3225C141.36 55.4616 139.028 53.1425 136.152 53.1425H88.536C91.4123 53.1425 93.744 50.8233 93.744 47.9625C93.744 45.1016 91.4123 42.7825 88.536 42.7825H46.128C43.2517 42.7825 40.92 45.1016 40.92 47.9625C40.92 50.8233 43.2517 53.1425 46.128 53.1425H16.368C13.4917 53.1425 11.16 55.4616 11.16 58.3225C11.16 61.1833 13.4917 63.5025 16.368 63.5025H34.968C37.8443 63.5025 40.176 65.8216 40.176 68.6825C40.176 71.5433 37.8443 73.8625 34.968 73.8625H5.208C2.3317 73.8625 0 76.1816 0 79.0425C0 81.9033 2.3317 84.2225 5.208 84.2225H34.224C31.3477 84.2225 29.016 86.5416 29.016 89.4025C29.016 92.2633 31.3477 94.5825 34.224 94.5825ZM155.496 94.5825C158.372 94.5825 160.704 92.2633 160.704 89.4025C160.704 86.5416 158.372 84.2225 155.496 84.2225C152.62 84.2225 150.288 86.5416 150.288 89.4025C150.288 92.2633 152.62 94.5825 155.496 94.5825Z" fill="#FDF9D6"/>
<circle cx="48.5655" cy="4.09039" r="4.09039" fill="#F7981E"/>
<circle cx="141.442" cy="55.0628" r="3.59039" fill="#F7981E" stroke="#F7981E"/>
<circle cx="21.5059" cy="44.9942" r="3.59039" stroke="#F7981E"/>
<path d="M117.127 45.7143C117.127 54.4351 110.296 61.4286 101.818 61.4286C93.3358 61.4286 86.4545 54.4307 86.4545 45.7143C86.4545 36.9979 93.3358 30 101.818 30C110.296 30 117.127 36.9935 117.127 45.7143ZM73.4909 45.7143C73.4909 54.4351 66.6599 61.4286 58.1818 61.4286C49.6994 61.4286 42.8182 54.4307 42.8182 45.7143C42.8182 36.9979 49.6994 30 58.1818 30C66.6599 30 73.4909 36.9935 73.4909 45.7143ZM21 93.0714C21 90.1854 22.4079 87.59 24.8644 85.2759C27.3285 82.9547 30.7872 80.9798 34.7034 79.3791C42.5382 76.1766 51.955 74.5714 58.1818 74.5714C64.4086 74.5714 73.8254 76.1766 81.6603 79.3791C85.5764 80.9798 89.0351 82.9547 91.4993 85.2759C93.9558 87.59 95.3636 90.1854 95.3636 93.0714V106H21V93.0714ZM108.273 93.0714C108.273 85.3441 104.564 79.2856 99.1506 74.6578C100.096 74.6029 100.99 74.5714 101.818 74.5714C108.045 74.5714 117.462 76.1766 125.297 79.3791C129.213 80.9798 132.672 82.9547 135.136 85.2759C137.592 87.59 139 90.1854 139 93.0714V106H108.273V93.0714Z" fill="#FDF9D6" stroke="#FF6F03" stroke-width="2"/>
</svg>
