<svg width="22" height="22" viewBox="0 0 22 22" fill="none" xmlns="http://www.w3.org/2000/svg">
<g opacity="0.3">
<path d="M10.914 13.4063C11.5522 13.4063 12.1642 13.1527 12.6155 12.7015C13.0667 12.2502 13.3203 11.6382 13.3203 11C13.3203 10.9295 13.317 10.8597 13.311 10.7907L10.7047 13.397C10.7737 13.403 10.8433 13.4063 10.914 13.4063ZM18.8787 3.55696L17.9609 2.64001C17.9286 2.6078 17.8849 2.5897 17.8394 2.5897C17.7938 2.5897 17.7501 2.6078 17.7179 2.64001L15.3692 4.98932C14.0736 4.32717 12.6171 3.9961 10.9999 3.9961C6.87064 3.9961 3.78978 6.14669 1.75736 10.4479C1.67567 10.6208 1.6333 10.8098 1.6333 11.0011C1.6333 11.1924 1.67567 11.3813 1.75736 11.5543C2.56947 13.2649 3.54737 14.6359 4.69105 15.6675L2.41822 17.9395C2.38601 17.9717 2.36792 18.0154 2.36792 18.061C2.36792 18.1065 2.38601 18.1502 2.41822 18.1824L3.33539 19.0996C3.36762 19.1318 3.41132 19.1499 3.45688 19.1499C3.50245 19.1499 3.54615 19.1318 3.57838 19.0996L18.8787 3.80016C18.8947 3.7842 18.9073 3.76524 18.916 3.74438C18.9246 3.72351 18.9291 3.70115 18.9291 3.67856C18.9291 3.65597 18.9246 3.63361 18.916 3.61274C18.9073 3.59188 18.8947 3.57292 18.8787 3.55696ZM7.13275 11C7.13269 10.3469 7.3018 9.7049 7.6236 9.13657C7.9454 8.56824 8.40892 8.09295 8.96901 7.757C9.52909 7.42105 10.1666 7.23591 10.8196 7.21959C11.4725 7.20328 12.1185 7.35636 12.6946 7.66391L11.6501 8.70848C11.2288 8.57359 10.7785 8.55735 10.3486 8.66153C9.91873 8.76571 9.52584 8.98629 9.21306 9.29907C8.90029 9.61184 8.67971 10.0047 8.57553 10.4346C8.47135 10.8645 8.48759 11.3148 8.62248 11.7361L7.57791 12.7806C7.28478 12.2329 7.13184 11.6212 7.13275 11V11Z" fill="black"/>
<path d="M20.2425 10.4457C19.4863 8.85299 18.5862 7.55426 17.5422 6.54951L14.4454 9.64648C14.7065 10.3289 14.7643 11.0722 14.612 11.7868C14.4597 12.5013 14.1037 13.1565 13.5871 13.6731C13.0705 14.1897 12.4154 14.5457 11.7008 14.698C10.9863 14.8503 10.2429 14.7924 9.56052 14.5314L6.93384 17.1581C8.15243 17.722 9.50781 18.0039 11 18.0039C15.1293 18.0039 18.2101 15.8533 20.2425 11.5521C20.3243 11.3792 20.3666 11.1902 20.3666 10.9989C20.3666 10.8076 20.3243 10.6187 20.2425 10.4457V10.4457Z" fill="black"/>
</g>
</svg>
