<svg width="18" height="18" viewBox="0 0 18 18" fill="none" xmlns="http://www.w3.org/2000/svg">
<path d="M2.24247 5.535C2.15516 5.62208 2.08589 5.72554 2.03863 5.83943C1.99137 5.95333 1.96704 6.07543 1.96704 6.19875C1.96704 6.32206 1.99137 6.44416 2.03863 6.55806C2.08589 6.67196 2.15516 6.77541 2.24247 6.8625L8.47497 13.095C8.54435 13.1645 8.62677 13.2197 8.7175 13.2573C8.80823 13.295 8.90549 13.3143 9.00372 13.3143C9.10194 13.3143 9.19921 13.295 9.28994 13.2573C9.38067 13.2197 9.46308 13.1645 9.53247 13.095L15.765 6.8625C16.1325 6.495 16.1325 5.9025 15.765 5.535C15.3975 5.1675 14.805 5.1675 14.4375 5.535L8.99997 10.965L3.56247 5.5275C3.20247 5.1675 2.60247 5.1675 2.24247 5.535Z" fill="#B3B3B3"/>
</svg>
