<svg width="352" height="236" viewBox="0 0 352 236" fill="none" xmlns="http://www.w3.org/2000/svg">
<path d="M186.94 189.272C186.815 188.122 186.339 187.039 185.579 186.171C184.87 185.293 183.905 184.661 182.819 184.363C181.893 184.132 180.916 184.215 180.041 184.598C179.165 184.981 178.44 185.643 177.976 186.482C177.534 185.669 176.847 185.018 176.014 184.623C175.18 184.228 174.244 184.109 173.339 184.283C172.238 184.525 171.24 185.108 170.485 185.949C169.686 186.777 169.157 187.831 168.969 188.97C168.756 190.429 169.014 191.918 169.706 193.218C170.52 194.535 171.633 195.638 172.954 196.437C175.089 197.81 177.905 199.533 177.905 199.533C177.905 199.533 180.369 197.777 182.575 196.517C183.936 195.79 185.104 194.746 185.983 193.473C186.744 192.213 187.08 190.739 186.94 189.272V189.272Z" fill="#F5F5F5"/>
<path d="M139.378 70.8519H14.9717V199.226H139.378V70.8519Z" fill="#F5F5F5"/>
<path d="M23.1005 77.2711C23.1259 77.6744 23.0302 78.076 22.8258 78.4239C22.6214 78.7718 22.3177 79.0498 21.9542 79.222C21.5907 79.3941 21.1841 79.4524 20.7873 79.3892C20.3904 79.3261 20.0216 79.1444 19.7287 78.8678C19.4358 78.5912 19.2323 78.2324 19.1447 77.8381C19.057 77.4437 19.0893 77.032 19.2373 76.6563C19.3852 76.2807 19.6421 75.9584 19.9744 75.7313C20.3068 75.5043 20.6994 75.383 21.1012 75.3831C21.615 75.3678 22.1139 75.5579 22.4886 75.9118C22.8633 76.2657 23.0834 76.7544 23.1005 77.2711Z" fill="#E0E0E0"/>
<path d="M29.23 77.2711C29.2554 77.6744 29.1597 78.076 28.9553 78.4239C28.7509 78.7718 28.4472 79.0498 28.0837 79.222C27.7202 79.3941 27.3136 79.4524 26.9167 79.3892C26.5199 79.3261 26.1511 79.1444 25.8582 78.8678C25.5652 78.5912 25.3618 78.2324 25.2741 77.8381C25.1865 77.4437 25.2188 77.032 25.3667 76.6563C25.5147 76.2807 25.7715 75.9584 26.1039 75.7313C26.4363 75.5043 26.8288 75.383 27.2306 75.3831C27.7444 75.3678 28.2433 75.5579 28.6181 75.9118C28.9928 76.2657 29.2128 76.7544 29.23 77.2711Z" fill="#E0E0E0"/>
<path d="M35.3595 77.2711C35.3849 77.6744 35.2892 78.076 35.0848 78.4239C34.8804 78.7718 34.5767 79.0498 34.2132 79.222C33.8497 79.3941 33.4431 79.4524 33.0462 79.3892C32.6494 79.3261 32.2806 79.1444 31.9877 78.8678C31.6948 78.5912 31.4913 78.2324 31.4037 77.8381C31.316 77.4437 31.3483 77.032 31.4962 76.6563C31.6442 76.2807 31.901 75.9584 32.2334 75.7313C32.5658 75.5043 32.9583 75.383 33.3601 75.3831C33.874 75.3678 34.3728 75.5579 34.7476 75.9118C35.1223 76.2657 35.3423 76.7544 35.3595 77.2711Z" fill="#E0E0E0"/>
<path d="M324.952 93.2955H200.546V221.67H324.952V93.2955Z" fill="#F5F5F5"/>
<path d="M208.675 99.7147C208.7 100.118 208.605 100.52 208.4 100.867C208.196 101.215 207.892 101.493 207.529 101.666C207.165 101.838 206.759 101.896 206.362 101.833C205.965 101.77 205.596 101.588 205.303 101.311C205.01 101.035 204.807 100.676 204.719 100.282C204.631 99.8873 204.664 99.4756 204.812 99.0999C204.96 98.7242 205.216 98.402 205.549 98.1749C205.881 97.9479 206.274 97.8266 206.676 97.8267C207.189 97.8114 207.688 98.0015 208.063 98.3554C208.438 98.7092 208.658 99.198 208.675 99.7147V99.7147Z" fill="#E0E0E0"/>
<path d="M212.805 101.607C213.909 101.607 214.804 100.76 214.804 99.7147C214.804 98.6694 213.909 97.822 212.805 97.822C211.701 97.822 210.806 98.6694 210.806 99.7147C210.806 100.76 211.701 101.607 212.805 101.607Z" fill="#E0E0E0"/>
<path d="M218.935 101.607C220.039 101.607 220.934 100.76 220.934 99.7147C220.934 98.6694 220.039 97.822 218.935 97.822C217.83 97.822 216.935 98.6694 216.935 99.7147C216.935 100.76 217.83 101.607 218.935 101.607Z" fill="#E0E0E0"/>
<path d="M324.952 104.959C324.952 105.029 297.102 105.081 262.752 105.081C228.401 105.081 200.546 105.029 200.546 104.959C200.546 104.888 228.392 104.836 262.752 104.836C297.111 104.836 324.952 104.893 324.952 104.959Z" fill="#E0E0E0"/>
<path d="M157.283 93.2766H32.8767V221.651H157.283V93.2766Z" fill="#F5F5F5"/>
<path d="M39.0063 101.589C40.1105 101.589 41.0056 100.741 41.0056 99.6958C41.0056 98.6505 40.1105 97.8031 39.0063 97.8031C37.902 97.8031 37.0069 98.6505 37.0069 99.6958C37.0069 100.741 37.902 101.589 39.0063 101.589Z" fill="#E0E0E0"/>
<path d="M47.1351 99.6958C47.1605 100.099 47.0648 100.501 46.8604 100.849C46.6559 101.196 46.3523 101.475 45.9888 101.647C45.6253 101.819 45.2187 101.877 44.8218 101.814C44.425 101.751 44.0562 101.569 43.7632 101.293C43.4703 101.016 43.2669 100.657 43.1792 100.263C43.0916 99.8685 43.1239 99.4567 43.2718 99.0811C43.4198 98.7054 43.6766 98.3831 44.009 98.1561C44.3414 97.929 44.7339 97.8077 45.1357 97.8078C45.6492 97.7938 46.1474 97.9843 46.5218 98.3379C46.8963 98.6915 47.1167 99.1796 47.1351 99.6958V99.6958Z" fill="#E0E0E0"/>
<path d="M51.2652 101.589C52.3694 101.589 53.2646 100.741 53.2646 99.6958C53.2646 98.6505 52.3694 97.8031 51.2652 97.8031C50.161 97.8031 49.2659 98.6505 49.2659 99.6958C49.2659 100.741 50.161 101.589 51.2652 101.589Z" fill="#E0E0E0"/>
<path d="M183.857 18.7195C183.685 17.1593 183.041 15.6898 182.012 14.5093C181.046 13.3156 179.734 12.4557 178.257 12.0502C176.999 11.7376 175.674 11.8508 174.486 12.3721C173.298 12.8934 172.314 13.7938 171.687 14.9341C171.088 13.8285 170.155 12.943 169.023 12.4052C167.891 11.8673 166.618 11.705 165.388 11.9416C163.895 12.2701 162.541 13.0607 161.516 14.2025C160.425 15.3254 159.704 16.7592 159.451 18.3089C159.162 20.288 159.512 22.3084 160.451 24.072C161.552 25.862 163.063 27.3608 164.858 28.4427C167.758 30.3071 171.588 32.6482 171.588 32.6482C171.588 32.6482 174.935 30.2882 177.929 28.556C179.783 27.5694 181.375 26.1499 182.571 24.4165C183.595 22.7052 184.046 20.708 183.857 18.7195V18.7195Z" fill="#F5F5F5"/>
<path d="M102.399 33.2524C102.275 32.1036 101.799 31.0218 101.038 30.1561C100.329 29.2768 99.3639 28.643 98.2784 28.3436C97.3511 28.1124 96.374 28.1952 95.4983 28.5792C94.6226 28.9632 93.8973 29.6269 93.4348 30.4676C93.1241 29.9084 92.6946 29.425 92.177 29.0516C91.6942 28.7015 91.1458 28.4537 90.5649 28.3231C89.9841 28.1925 89.3829 28.1818 88.7978 28.2917C87.6975 28.5323 86.6996 29.1133 85.9443 29.9531C85.1439 30.7825 84.6149 31.8382 84.4283 32.9786C84.2137 34.4375 84.4721 35.927 85.1652 37.2266C85.9771 38.546 87.0906 39.6512 88.413 40.4504C90.5484 41.8192 93.3644 43.542 93.3644 43.542C93.3644 43.542 95.8285 41.7909 98.0343 40.5306C99.3951 39.8034 100.563 38.7596 101.442 37.4862C102.209 36.2169 102.545 34.7308 102.399 33.2524V33.2524Z" fill="#FAFAFA"/>
<path d="M45.9946 38.9966C45.862 37.8371 45.3788 36.7465 44.6101 35.872C43.8862 34.979 42.9009 34.3382 41.7941 34.0406C41.2088 33.8994 40.6012 33.8785 40.0076 33.979C39.4141 34.0796 38.8468 34.2996 38.3398 34.6259C37.7388 35.0206 37.2426 35.5569 36.8943 36.1882C36.4481 35.3642 35.7529 34.7043 34.9092 34.3038C34.0655 33.9033 33.1171 33.783 32.2009 33.9604C31.0867 34.2031 30.0767 34.7927 29.3145 35.6454C28.5153 36.4875 27.9899 37.5543 27.808 38.704C27.5937 40.1776 27.8553 41.6815 28.5542 42.9945C29.3759 44.3276 30.5022 45.4442 31.8396 46.2513C34.0032 47.6389 36.852 49.3806 36.852 49.3806C36.852 49.3806 39.3442 47.6059 41.5735 46.3362C42.9501 45.6002 44.1313 44.5433 45.0184 43.2541C45.7922 41.9781 46.1346 40.4845 45.9946 38.9966Z" fill="#F5F5F5"/>
<path d="M328.36 48.616C328.214 47.3003 327.67 46.0612 326.801 45.0666C325.989 44.0585 324.883 43.3322 323.638 42.9898C322.576 42.7251 321.458 42.8204 320.455 43.2608C319.453 43.7012 318.623 44.4621 318.095 45.4253C317.59 44.4924 316.803 43.7454 315.848 43.2922C314.893 42.8391 313.819 42.7034 312.782 42.9048C311.518 43.173 310.369 43.8333 309.497 44.7928C308.58 45.7424 307.974 46.9513 307.761 48.2573C307.519 49.9254 307.815 51.6274 308.605 53.1142C309.535 54.6225 310.81 55.8862 312.322 56.8005C314.768 58.3722 317.997 60.3452 317.997 60.3452C317.997 60.3452 320.813 58.3345 323.342 56.8949C324.9 56.0603 326.237 54.8646 327.243 53.4068C328.116 51.9715 328.507 50.2921 328.36 48.616Z" fill="#F5F5F5"/>
<path d="M285.613 25.5965C285.485 24.4474 285.01 23.3652 284.252 22.4955C283.543 21.6163 282.578 20.9824 281.492 20.683C280.913 20.5444 280.311 20.5247 279.724 20.6253C279.137 20.7259 278.576 20.9446 278.075 21.2683C277.49 21.6598 277.007 22.1877 276.667 22.807C276.226 21.9938 275.539 21.3427 274.705 20.9474C273.872 20.5521 272.935 20.4331 272.03 20.6075C270.93 20.849 269.933 21.4298 269.177 22.2689C268.376 23.0983 267.847 24.154 267.661 25.2945C267.448 26.7533 267.706 28.2424 268.398 29.5425C269.209 30.8591 270.321 31.9625 271.641 32.7615C273.762 34.1303 276.578 35.872 276.578 35.872C276.578 35.872 279.042 34.1161 281.271 32.8559C282.632 32.1287 283.801 31.0849 284.679 29.8115C285.433 28.5441 285.76 27.066 285.613 25.5965V25.5965Z" fill="#FAFAFA"/>
<path d="M225.942 33.2524C225.812 32.1049 225.338 31.0245 224.581 30.1561C223.871 29.2755 222.904 28.6415 221.816 28.3436C221.238 28.2055 220.638 28.1857 220.052 28.2854C219.465 28.3851 218.905 28.6024 218.404 28.9242C217.818 29.3174 217.335 29.8468 216.996 30.4676C216.554 29.6544 215.867 29.0033 215.034 28.608C214.201 28.2127 213.264 28.0937 212.359 28.2681C211.258 28.5075 210.26 29.0887 209.506 29.9295C208.703 30.7572 208.174 31.8137 207.99 32.955C207.773 34.4139 208.031 35.9042 208.727 37.203C209.535 38.5232 210.648 39.6288 211.97 40.4268C214.11 41.7956 216.926 43.5184 216.926 43.5184C216.926 43.5184 219.39 41.7673 221.596 40.507C222.956 39.7798 224.125 38.736 225.003 37.4626C225.755 36.196 226.084 34.7206 225.942 33.2524V33.2524Z" fill="#F5F5F5"/>
<path d="M226.092 64.5507C226.02 63.8926 225.748 63.2728 225.313 62.776C224.907 62.2718 224.353 61.9085 223.731 61.7376C223.399 61.6587 223.055 61.6477 222.719 61.7052C222.382 61.7628 222.061 61.8878 221.774 62.0727C221.434 62.2954 221.154 62.5985 220.957 62.9554C220.705 62.4884 220.312 62.1145 219.834 61.8878C219.357 61.6612 218.819 61.5937 218.301 61.6951C217.672 61.8304 217.101 62.1606 216.668 62.6391C216.21 63.1143 215.907 63.7186 215.799 64.3714C215.678 65.2062 215.826 66.0583 216.222 66.8022C216.692 67.5592 217.336 68.192 218.099 68.6477C219.324 69.4312 220.915 70.4177 220.915 70.4177C220.915 70.4177 222.323 69.4123 223.59 68.6949C224.368 68.2766 225.036 67.678 225.538 66.9485C225.973 66.2296 226.168 65.389 226.092 64.5507V64.5507Z" fill="#FAFAFA"/>
<path d="M74.2485 54.5018C74.1767 53.8437 73.9046 53.2239 73.4694 52.7271C73.063 52.2234 72.5099 51.8602 71.8877 51.6887C71.5566 51.6099 71.2131 51.5989 70.8776 51.6565C70.5422 51.7141 70.2217 51.839 69.9353 52.0238C69.594 52.2462 69.3121 52.5493 69.114 52.9065C68.8621 52.4395 68.4687 52.0656 67.991 51.8389C67.5132 51.6123 66.9761 51.5448 66.4576 51.6462C65.8279 51.78 65.2563 52.1104 64.8243 52.5902C64.3664 53.0654 64.0635 53.6697 63.956 54.3225C63.8345 55.1558 63.9826 56.0063 64.3784 56.7486C64.8488 57.5056 65.4925 58.1384 66.2557 58.5941C67.4807 59.3823 69.0952 60.3688 69.0952 60.3688C69.0952 60.3688 70.5032 59.3634 71.7704 58.6413C72.5494 58.2245 73.2175 57.6256 73.7181 56.8949C74.1447 56.1747 74.3305 55.336 74.2485 54.5018Z" fill="#FAFAFA"/>
<path d="M135.069 46.0955C134.957 45.0807 134.538 44.125 133.868 43.3579C133.241 42.5804 132.388 42.0206 131.427 41.7578C130.607 41.5565 129.743 41.6323 128.97 41.9735C128.196 42.3147 127.556 42.9024 127.147 43.6458C126.757 42.9265 126.151 42.3504 125.414 42.0009C124.677 41.6513 123.849 41.5463 123.05 41.7012C122.078 41.9161 121.196 42.4309 120.529 43.1738C119.831 43.9041 119.371 44.8311 119.211 45.8312C119.023 47.1184 119.251 48.4323 119.863 49.5789C120.581 50.7391 121.564 51.7101 122.731 52.4109C124.608 53.6239 127.109 55.1437 127.109 55.1437C127.109 55.1437 129.287 53.5956 131.235 52.4817C132.439 51.8398 133.472 50.9172 134.248 49.7913C134.905 48.6781 135.192 47.3838 135.069 46.0955Z" fill="#F5F5F5"/>
<path d="M336.625 81.9486H208.975V210.323H336.625V81.9486Z" fill="#FAFAFA"/>
<path d="M336.625 210.323C336.625 209.417 336.582 158.927 336.521 81.9392L336.625 82.0478H208.989L209.111 81.9251C209.111 128.936 209.111 172.993 209.111 210.309L209.004 210.205L336.662 210.309L209.004 210.418H208.853V210.309C208.853 173.021 208.853 128.946 208.853 81.9251V81.8023H208.989H336.648H336.756V81.9062C336.667 158.927 336.625 209.417 336.625 210.323Z" fill="#263238"/>
<path d="M217.597 88.3678C217.622 88.7711 217.527 89.1727 217.322 89.5206C217.118 89.8685 216.814 90.1466 216.451 90.3187C216.087 90.4908 215.681 90.5491 215.284 90.486C214.887 90.4228 214.518 90.2411 214.225 89.9645C213.932 89.6879 213.729 89.3292 213.641 88.9348C213.554 88.5405 213.586 88.1288 213.734 87.7531C213.882 87.3774 214.139 87.0551 214.471 86.8281C214.803 86.601 215.196 86.4797 215.598 86.4798C216.111 86.4658 216.609 86.6564 216.984 87.01C217.358 87.3636 217.579 87.8516 217.597 88.3678Z" fill="#E0E0E0"/>
<path d="M221.727 90.2606C222.831 90.2606 223.726 89.4132 223.726 88.3678C223.726 87.3225 222.831 86.4751 221.727 86.4751C220.623 86.4751 219.728 87.3225 219.728 88.3678C219.728 89.4132 220.623 90.2606 221.727 90.2606Z" fill="#E0E0E0"/>
<path d="M227.852 90.2606C228.956 90.2606 229.851 89.4132 229.851 88.3678C229.851 87.3225 228.956 86.4751 227.852 86.4751C226.748 86.4751 225.853 87.3225 225.853 88.3678C225.853 89.4132 226.748 90.2606 227.852 90.2606Z" fill="#E0E0E0"/>
<path d="M336.625 93.6118C336.625 93.6826 308.047 93.7392 272.795 93.7392C237.544 93.7392 208.966 93.6826 208.966 93.6118C208.966 93.541 237.539 93.489 272.795 93.489C308.052 93.489 336.625 93.5457 336.625 93.6118Z" fill="#E0E0E0"/>
<path d="M254.665 141.6L257.584 120.242L256.857 114.049C256.857 114.049 245.654 113.794 244.067 102.778C243.302 97.4586 242.608 86.3713 242.096 76.346C241.836 71.1367 243.534 66.0196 246.853 62.0117C250.172 58.0039 254.869 55.3988 260.011 54.7142L261.071 54.5726C272.575 53.723 279.723 63.0686 280.244 74.6657L285.458 116.112L254.665 141.6Z" fill="#FFBE9D"/>
<path d="M256.843 114.054C256.843 114.054 263.855 113.7 270.613 108.064C270.613 108.064 268.266 116.457 257.195 116.919L256.843 114.054Z" fill="#EB996E"/>
<path d="M245.78 84.3228C245.83 84.7338 246.037 85.1091 246.358 85.3684C246.679 85.6277 247.088 85.7504 247.498 85.7105C247.698 85.6973 247.893 85.6445 248.072 85.5551C248.251 85.4657 248.41 85.3414 248.541 85.1895C248.672 85.0376 248.772 84.8611 248.835 84.6702C248.897 84.4793 248.922 84.2778 248.906 84.0774C248.857 83.666 248.649 83.2903 248.329 83.0302C248.008 82.7702 247.599 82.6463 247.188 82.685C246.989 82.6987 246.794 82.7521 246.615 82.842C246.436 82.9319 246.276 83.0566 246.145 83.2089C246.014 83.3611 245.915 83.538 245.852 83.7292C245.789 83.9203 245.765 84.1221 245.78 84.3228Z" fill="#263238"/>
<path d="M244.926 80.863C245.147 81.0424 246.217 80.004 247.907 79.7822C249.596 79.5603 250.938 80.2542 251.098 80.0134C251.173 79.9096 250.929 79.5414 250.338 79.2441C249.541 78.8301 248.635 78.6766 247.747 78.8051C246.867 78.9158 246.045 79.3061 245.4 79.9191C244.945 80.391 244.818 80.7828 244.926 80.863Z" fill="#263238"/>
<path d="M260.574 82.8077C260.624 83.2182 260.832 83.5928 261.153 83.8518C261.474 84.1109 261.882 84.2341 262.292 84.1954C262.491 84.1816 262.686 84.1283 262.865 84.0383C263.044 83.9484 263.204 83.8237 263.335 83.6715C263.466 83.5192 263.565 83.3424 263.628 83.1512C263.691 82.96 263.715 82.7582 263.7 82.5575C263.649 82.1461 263.44 81.7708 263.119 81.5116C262.797 81.2524 262.387 81.1298 261.977 81.1699C261.778 81.1836 261.583 81.237 261.404 81.327C261.225 81.4169 261.066 81.5417 260.935 81.6941C260.805 81.8464 260.706 82.0233 260.644 82.2144C260.582 82.4056 260.558 82.6072 260.574 82.8077V82.8077Z" fill="#263238"/>
<path d="M261.095 78.2434C261.292 78.4464 262.47 77.526 264.174 77.493C265.877 77.4599 267.14 78.2812 267.318 78.0688C267.407 77.9744 267.201 77.5968 266.647 77.2192C265.9 76.7224 265.017 76.4717 264.122 76.5018C263.237 76.5183 262.381 76.8175 261.677 77.3561C261.165 77.7714 260.996 78.149 261.095 78.2434Z" fill="#263238"/>
<path d="M257.321 92.9226C257.321 92.8282 256.242 92.7858 254.505 92.7905C254.069 92.7905 253.651 92.7905 253.538 92.4884C253.444 92.046 253.485 91.5854 253.656 91.1668C253.922 90.0623 254.202 88.9059 254.496 87.6976C255.646 82.7652 256.42 78.7296 256.223 78.6919C256.026 78.6541 254.932 82.6047 253.783 87.5371C253.506 88.7502 253.247 89.8971 252.999 91.0158C252.9 91.5302 252.694 92.125 252.999 92.748C253.08 92.8924 253.194 93.016 253.331 93.1093C253.467 93.2026 253.624 93.263 253.787 93.2861C254.035 93.3167 254.286 93.3167 254.533 93.2861C256.256 93.1539 257.326 93.0218 257.321 92.9226Z" fill="#263238"/>
<path d="M260.583 72.216C260.813 72.655 262.461 72.216 264.474 72.1877C266.487 72.1594 268.158 72.4945 268.365 72.0461C268.459 71.8337 268.121 71.4372 267.426 71.0738C266.493 70.6409 265.474 70.4278 264.447 70.4507C263.42 70.4736 262.411 70.7319 261.498 71.2059C260.804 71.5741 260.48 71.9847 260.583 72.216Z" fill="#263238"/>
<path d="M244.743 76.0959C245.09 76.4451 246.198 75.8882 247.592 75.6852C248.986 75.4823 250.206 75.6003 250.408 75.1613C250.502 74.9489 250.263 74.5902 249.699 74.2928C248.947 73.949 248.11 73.8372 247.295 73.9716C246.48 74.106 245.722 74.4806 245.119 75.048C244.696 75.52 244.584 75.9259 244.743 76.0959Z" fill="#263238"/>
<path d="M280.408 82.9587C280.581 82.8501 287.65 79.7113 288.387 87.2869C289.123 94.8625 281.422 94.0649 281.384 93.8477C281.346 93.6306 280.408 82.9587 280.408 82.9587Z" fill="#FFBE9D"/>
<path d="M283.421 90.7467C283.449 90.7184 283.562 90.8223 283.792 90.9025C284.118 91.0058 284.471 90.9787 284.777 90.827C285.542 90.4541 286.087 89.1136 285.988 87.7448C285.943 87.0922 285.752 86.4583 285.43 85.8899C285.336 85.6609 285.189 85.4583 285 85.2996C284.811 85.1409 284.586 85.0308 284.346 84.9789C284.191 84.954 284.032 84.9843 283.896 85.0644C283.761 85.1445 283.658 85.2695 283.604 85.4179C283.524 85.6397 283.604 85.786 283.548 85.8049C283.491 85.8238 283.374 85.6916 283.402 85.3754C283.427 85.1829 283.516 85.0046 283.656 84.8703C283.75 84.7811 283.86 84.7113 283.981 84.6652C284.102 84.619 284.23 84.5973 284.36 84.6013C284.676 84.6311 284.978 84.7423 285.239 84.9242C285.5 85.1061 285.709 85.3526 285.847 85.6397C286.235 86.2634 286.464 86.9734 286.514 87.7071C286.617 89.2363 285.984 90.7467 284.923 91.1715C284.727 91.2513 284.515 91.2855 284.304 91.2716C284.092 91.2577 283.887 91.1961 283.703 91.0913C283.449 90.9261 283.393 90.7609 283.421 90.7467Z" fill="#EB996E"/>
<path d="M262.437 93.456C262.16 93.456 262.399 95.3157 261.029 96.8308C259.659 98.3459 257.659 98.4073 257.678 98.6622C257.678 98.7849 258.147 98.9643 258.987 98.8793C260.062 98.754 261.059 98.2528 261.803 97.4633C262.517 96.6969 262.904 95.6807 262.883 94.6313C262.827 93.8383 262.559 93.4088 262.437 93.456Z" fill="#263238"/>
<path d="M232.958 63.4651C232.965 62.7332 233.153 62.0145 233.504 61.3735C233.856 60.7325 234.36 60.1894 234.972 59.793C234.923 59.3731 234.913 58.9496 234.944 58.528C235.145 55.965 237.253 53.5909 239.801 53.3926C239.88 52.3987 240.226 51.4451 240.804 50.6346C241.381 49.8241 242.168 49.1874 243.078 48.7931C243.989 48.3988 244.989 48.2618 245.972 48.397C246.954 48.5321 247.881 48.9342 248.653 49.56C249.487 48.6219 250.573 47.945 251.78 47.6103C252.986 47.2755 254.263 47.2969 255.458 47.672C255.763 47.7499 256.04 47.9136 256.256 48.144C256.319 48.2255 256.365 48.3189 256.39 48.4187C256.416 48.5186 256.422 48.6226 256.406 48.7246C256.678 48.1168 257.093 47.5845 257.614 47.1734C258.136 46.7623 258.749 46.4848 259.4 46.3646C259.843 46.2867 260.296 46.2867 260.738 46.3646C261.942 46.3074 263.121 46.7258 264.023 47.5304C265.477 46.8398 267.132 46.7092 268.675 47.1632C270.218 47.6173 271.542 48.6245 272.396 49.9942C273.636 49.9179 274.87 50.2148 275.941 50.8471C277.011 51.4793 277.871 52.4181 278.408 53.5437C279.209 53.5041 280.005 53.6769 280.717 54.0446C281.43 54.4124 282.034 54.9622 282.469 55.6388C282.903 56.3155 283.153 57.0952 283.194 57.8998C283.234 58.7043 283.063 59.5053 282.698 60.2225C282.698 60.2225 288.11 60.7228 287.368 65.6174C286.988 68.119 283.712 68.1285 283.712 68.1285L281.694 83.9074C281.769 83.9782 280.994 85.8946 280.037 85.6302C279.08 85.3659 278.446 84.4974 277.812 83.7422C277.09 82.8643 276.264 82.0289 275.846 80.9716C275.428 79.9143 275.56 78.5219 276.489 77.8658C275.133 77.6062 274.142 76.3885 273.701 75.0716C273.26 73.7547 273.335 72.3387 273.396 70.9558C273.487 68.9136 273.577 66.8682 273.668 64.8198C272.297 64.9503 270.916 64.7013 269.675 64.0999C268.435 63.4984 267.381 62.5673 266.628 61.4072C264.882 63.1725 261.522 62.8232 260.198 60.7039C259.902 62.1161 259.081 63.3611 257.902 64.1848C256.724 65.0085 255.277 65.3487 253.858 65.136C254.36 66.6606 251.764 68.4825 250.291 69.0961C248.817 69.7097 246.761 68.8837 246.761 68.8837C245.897 69.5572 244.917 70.0659 243.87 70.3846V70.3846L243.711 70.4177C241.617 70.8897 239.294 69.2518 238.018 67.5149C237.479 67.6398 236.92 67.6543 236.375 67.5574C235.437 67.3477 234.595 66.8333 233.977 66.0935C233.359 65.3538 233.001 64.4301 232.958 63.4651V63.4651Z" fill="#263238"/>
<path d="M268.876 85.163C269.026 85.1898 269.166 85.2581 269.28 85.3603C269.393 85.4624 269.477 85.5943 269.52 85.7413C269.563 85.8882 269.565 86.0444 269.525 86.1924C269.485 86.3403 269.405 86.4742 269.294 86.579V86.579C268.89 86.8555 268.42 87.0184 267.933 87.051C267.294 87.1265 266.648 87.1265 266.009 87.051C265.539 86.999 264.92 86.7536 264.948 86.2627C264.975 86.1192 265.035 85.9839 265.123 85.8676C265.211 85.7513 265.325 85.6571 265.455 85.5925C266.314 85.0261 266.966 84.9931 267.994 84.96L268.876 85.163Z" fill="#EF9E89"/>
<path d="M259.274 124.145L264.31 120.445L284.698 105.015L286.908 113.36L268.266 131.07L263.019 151.111L250.413 159.281L254.482 142.199L256.843 122.965L257.34 118.175L259.274 124.145Z" fill="#F5F5F5"/>
<path d="M285.458 107.304L286.523 111.335C286.523 111.335 295.347 114.96 300.303 121.365C305.259 127.77 313.247 140.51 317.255 158.299C321.263 176.089 322.831 210.04 322.831 210.04H257.34L260.269 146.49L263.765 132.16L273.152 119.369L285.458 107.304Z" fill="#FF6F03"/>
<path d="M286.523 111.335C286.501 111.365 286.476 111.392 286.448 111.416L286.204 111.633L285.265 112.449C284.848 112.799 284.355 113.247 283.782 113.766L282.844 114.592L281.839 115.536C280.431 116.867 278.812 118.533 277.061 120.412C275.311 122.29 273.49 124.462 271.65 126.789C269.81 129.116 268.186 131.438 266.778 133.59C265.37 135.742 264.202 137.748 263.324 139.485C263.099 139.915 262.883 140.326 262.681 140.717L262.16 141.841C261.832 142.539 261.545 143.143 261.353 143.653L260.884 144.814L260.757 145.112L260.705 145.211C261.375 143.213 262.202 141.271 263.179 139.405C264.042 137.654 265.225 135.629 266.595 133.467C267.966 131.306 269.641 128.988 271.467 126.638C273.293 124.287 275.165 122.158 276.907 120.261C278.648 118.363 280.295 116.726 281.731 115.409L282.745 114.465L283.684 113.648C284.266 113.138 284.768 112.704 285.195 112.364L286.171 111.581L286.429 111.383C286.49 111.35 286.523 111.331 286.523 111.335Z" fill="#263238"/>
<path d="M284.885 151.111C284.885 151.182 278.7 151.04 271.068 150.795C263.437 150.549 257.256 150.299 257.26 150.233C257.265 150.167 263.446 150.304 271.078 150.549C278.709 150.795 284.885 151.04 284.885 151.111Z" fill="#FF6F03"/>
<path d="M212.702 154.637L234.582 168.513L235.826 168.589L250.568 150.233L253.679 131.056L256.871 123.404L252.844 156.638L253.717 191.25L231.409 195.649L201.039 174.999L212.702 154.637Z" fill="#FF6F03"/>
<path d="M253.266 153.136C253.201 153.136 253.952 146.466 254.947 138.258C255.942 130.05 256.8 123.395 256.871 123.404C256.941 123.414 256.186 130.074 255.191 138.287C254.196 146.499 253.337 153.145 253.266 153.136Z" fill="#263238"/>
<path d="M253.576 162.75C253.492 162.585 253.426 162.411 253.379 162.231C253.266 161.896 253.121 161.4 252.952 160.787C252.609 159.555 252.192 157.842 251.84 155.93C251.488 154.018 251.272 152.262 251.154 150.993C251.093 150.36 251.056 149.846 251.042 149.487C251.017 149.304 251.017 149.118 251.042 148.935C251.091 149.112 251.122 149.294 251.136 149.478C251.187 149.884 251.248 150.384 251.323 150.974C251.483 152.234 251.732 153.976 252.084 155.883C252.436 157.79 252.82 159.503 253.116 160.74C253.257 161.32 253.374 161.811 253.473 162.208C253.525 162.384 253.56 162.566 253.576 162.75Z" fill="#FF6F03"/>
<path d="M240.928 177.104C240.639 176.695 240.381 176.266 240.153 175.82C239.684 175.018 239.05 173.932 238.276 172.733C237.501 171.534 236.788 170.505 236.248 169.75C235.94 169.358 235.658 168.947 235.404 168.518C235.771 168.858 236.101 169.236 236.389 169.646C236.962 170.373 237.717 171.412 238.482 172.601C239.247 173.79 239.89 174.909 240.294 175.735C240.549 176.17 240.761 176.628 240.928 177.104Z" fill="#263238"/>
<path d="M234.582 181.72C234.516 181.744 233.592 179.308 232.512 176.283C231.433 173.257 230.612 170.784 230.677 170.76C230.743 170.737 231.663 173.172 232.742 176.202C233.822 179.233 234.667 181.72 234.582 181.72Z" fill="#263238"/>
<path d="M271.167 127.988C269.283 129.979 267.522 132.083 265.891 134.289C261.419 140.618 235.277 183.084 232.63 189.272C229.983 195.46 226.491 203.795 236.793 208.973C245.405 213.306 250.6 207.897 255.472 203.092C260.344 198.287 291.611 164.912 291.611 164.912C291.611 164.912 301.753 151.503 297.98 138.848" fill="#FF6F03"/>
<path d="M297.975 138.844C297.975 138.844 298.027 139.004 298.111 139.316C298.246 139.772 298.358 140.235 298.444 140.703C298.801 142.505 298.927 144.345 298.82 146.178C298.631 149.092 298.025 151.963 297.022 154.703C295.711 158.352 293.911 161.804 291.672 164.964L269.998 188.054C265.873 192.42 261.55 197.022 256.974 201.742C255.824 202.918 254.656 204.102 253.44 205.24C252.231 206.422 250.923 207.498 249.53 208.454C248.114 209.431 246.519 210.117 244.837 210.47C243.119 210.782 241.353 210.693 239.674 210.21L238.454 209.813C238.055 209.658 237.675 209.474 237.285 209.304C236.513 208.958 235.766 208.556 235.051 208.1C233.613 207.216 232.366 206.049 231.386 204.669C230.454 203.276 229.908 201.658 229.804 199.982C229.725 198.344 229.917 196.704 230.372 195.13C230.803 193.589 231.338 192.08 231.973 190.612C232.562 189.155 233.242 187.736 234.01 186.364C235.479 183.641 237.009 181.031 238.496 178.477C244.485 168.301 250.051 159.243 254.759 151.654C259.466 144.064 263.31 137.966 266.178 133.854C267.67 131.853 268.994 130.414 269.848 129.432L270.857 128.332C271.087 128.087 271.209 127.969 271.209 127.969C271.209 127.969 271.101 128.101 270.876 128.351L269.881 129.465C269.022 130.456 267.731 131.905 266.253 133.911C263.413 138.013 259.612 144.163 254.904 151.743C250.197 159.324 244.663 168.41 238.689 178.595C237.206 181.144 235.68 183.759 234.211 186.478C233.845 187.153 233.47 187.837 233.146 188.54C232.822 189.244 232.494 189.956 232.207 190.683C231.582 192.143 231.052 193.643 230.621 195.172C230.175 196.721 229.986 198.333 230.062 199.944C230.163 201.578 230.696 203.155 231.607 204.513C232.57 205.864 233.792 207.006 235.202 207.874C235.885 208.331 236.601 208.74 237.342 209.096C237.727 209.261 238.107 209.445 238.496 209.596L239.698 209.988C241.346 210.463 243.08 210.55 244.767 210.243C246.425 209.899 247.998 209.227 249.394 208.265C250.773 207.315 252.07 206.249 253.271 205.079C254.477 203.928 255.651 202.757 256.796 201.586C261.362 196.866 265.713 192.274 269.829 187.898L291.545 164.846C293.779 161.703 295.58 158.27 296.9 154.641C297.911 151.912 298.528 149.051 298.731 146.145C298.846 144.318 298.736 142.484 298.402 140.684C298.299 140.066 298.172 139.603 298.092 139.292C298.013 138.98 297.975 138.844 297.975 138.844Z" fill="#263238"/>
<path d="M248.859 160.73C248.794 160.73 249.798 154.066 251.15 145.872C252.501 137.678 253.614 131.041 253.679 131.051C253.745 131.06 252.741 137.715 251.394 145.909C250.047 154.103 248.925 160.74 248.859 160.73Z" fill="#263238"/>
<path d="M289.381 210.111C289.316 210.111 288.757 201.228 288.133 190.287C287.509 179.346 287.058 170.392 287.129 170.392C287.199 170.392 287.753 179.275 288.377 190.244C289.001 201.214 289.452 210.106 289.381 210.111Z" fill="#263238"/>
<g opacity="0.3">
<path opacity="0.3" d="M257.819 200.963C270.261 195.257 280.22 185.213 288.795 174.498C292.69 169.632 295.229 164.143 295.398 157.893C283.712 172.832 270.843 186.983 257.819 200.963Z" fill="black"/>
</g>
<path d="M293.009 130.074C292.817 129.884 292.637 129.682 292.47 129.47C291.99 128.918 291.476 128.398 290.93 127.912C289.135 126.298 286.996 125.118 284.678 124.463C282.359 123.809 279.923 123.697 277.554 124.136C276.837 124.264 276.128 124.439 275.433 124.66C275.181 124.754 274.924 124.833 274.663 124.896C274.72 124.853 274.784 124.82 274.851 124.797C274.978 124.745 275.161 124.655 275.405 124.57C276.093 124.312 276.801 124.11 277.521 123.966C279.915 123.473 282.391 123.562 284.744 124.226C287.096 124.889 289.258 126.108 291.048 127.78C291.589 128.28 292.09 128.823 292.545 129.404C292.709 129.606 292.822 129.776 292.902 129.876C292.946 129.936 292.982 130.003 293.009 130.074Z" fill="#263238"/>
<path d="M263.765 132.16C263.717 132.284 263.659 132.404 263.592 132.519L263.057 133.519C262.587 134.402 261.883 135.629 261.057 137.121L260.921 137.361L260.879 137.088C260.485 134.657 259.987 131.579 259.443 128.228L258.861 124.556H259.091L256.599 131.957C256.284 132.854 256.035 133.576 255.848 134.105L255.636 134.676C255.59 134.808 255.561 134.874 255.552 134.869C255.56 134.8 255.576 134.732 255.599 134.666L255.773 134.081L256.453 131.91C257.063 130.022 257.903 127.454 258.865 124.481L259.02 124.009L259.095 124.481C259.283 125.637 259.48 126.878 259.687 128.153C260.208 131.504 260.691 134.586 261.095 137.017L260.912 136.984L262.986 133.425L263.568 132.453C263.625 132.349 263.691 132.251 263.765 132.16V132.16Z" fill="#263238"/>
<path d="M213.256 159.89L205.779 154.92C205.779 154.92 198.927 145.692 197.486 144.946C196.045 144.201 189.878 139.754 189.878 139.754L178.347 140.401C177.998 140.815 177.778 141.324 177.716 141.863C177.653 142.402 177.75 142.948 177.995 143.431C177.995 143.431 175.615 146.018 176.986 148.104C176.986 148.104 174.536 149.412 176.488 151.488C177.591 152.659 177.971 152.975 178.098 153.027C177.873 153.499 176.629 156.213 177.746 157.134C179.537 158.438 181.509 159.472 183.598 160.202C183.983 160.315 184.389 160.332 184.781 160.249C185.174 160.167 185.54 159.988 185.847 159.73V159.73L189.46 161.495C189.46 161.495 194.984 164.898 198.242 165.63L200.311 165.87L207.398 171.02C210.299 167.838 212.462 164.256 213.256 159.89Z" fill="#FFBE9D"/>
<path d="M177.877 143.12C178.502 145.118 179.526 146.966 180.886 148.553C181.049 148.756 181.258 148.918 181.496 149.025C182.12 149.251 182.772 148.699 183.04 148.081C183.241 147.528 183.315 146.936 183.255 146.35C183.195 145.765 183.002 145.201 182.693 144.701C182.12 143.682 181.834 142.846 181.149 141.954" fill="#FFBE9D"/>
<path d="M181.163 141.963C181.315 142.102 181.448 142.261 181.557 142.435C181.862 142.907 182.138 143.397 182.383 143.903C182.557 144.22 182.74 144.564 182.937 144.928C183.142 145.335 183.284 145.771 183.359 146.221C183.45 146.722 183.431 147.238 183.303 147.731C183.243 148.004 183.129 148.261 182.967 148.488C182.806 148.715 182.601 148.907 182.364 149.053C182.232 149.127 182.087 149.173 181.937 149.188C181.786 149.202 181.635 149.185 181.491 149.138C181.235 149.027 181.011 148.854 180.839 148.633C180.498 148.269 180.184 147.881 179.9 147.472C179.427 146.781 179.019 146.048 178.68 145.282C178.447 144.769 178.24 144.244 178.06 143.71C177.983 143.519 177.928 143.319 177.896 143.115C177.994 143.296 178.079 143.484 178.15 143.677C178.304 144.04 178.525 144.574 178.835 145.206C179.194 145.949 179.611 146.663 180.083 147.34C180.364 147.736 180.67 148.115 180.998 148.472C181.149 148.661 181.342 148.81 181.562 148.907C181.672 148.943 181.79 148.955 181.905 148.942C182.021 148.929 182.133 148.891 182.233 148.831C182.445 148.704 182.629 148.536 182.774 148.335C182.919 148.135 183.023 147.907 183.077 147.665C183.2 147.203 183.223 146.72 183.143 146.249C183.074 145.821 182.944 145.404 182.758 145.013C182.58 144.649 182.383 144.3 182.237 143.979C181.932 143.332 181.684 142.822 181.477 142.483C181.271 142.143 181.163 141.973 181.163 141.963Z" fill="#EB996E"/>
<path d="M182.374 148.888C182.428 148.909 182.479 148.939 182.524 148.977C182.662 149.07 182.794 149.173 182.918 149.284C183.374 149.701 183.744 150.205 184.007 150.766C184.396 151.605 184.575 152.527 184.528 153.452C184.516 153.736 184.446 154.015 184.322 154.27C184.199 154.526 184.024 154.754 183.81 154.939C183.569 155.143 183.264 155.255 182.948 155.255C182.633 155.255 182.328 155.143 182.087 154.939C181.651 154.554 181.259 154.122 180.919 153.65C180.576 153.211 180.257 152.777 179.98 152.357C179.407 151.526 178.891 150.776 178.45 150.124C178.009 149.473 177.647 148.987 177.389 148.642C177.244 148.472 177.113 148.288 177 148.095C177.173 148.234 177.33 148.392 177.469 148.567C177.751 148.892 178.14 149.383 178.595 150.006L180.168 152.206C180.465 152.621 180.778 153.046 181.106 153.48C181.439 153.933 181.816 154.35 182.233 154.726C182.439 154.893 182.695 154.985 182.96 154.986C183.218 154.975 183.465 154.881 183.664 154.717C183.855 154.554 184.01 154.354 184.12 154.128C184.23 153.902 184.292 153.656 184.302 153.405C184.35 152.514 184.189 151.625 183.833 150.809C183.592 150.258 183.253 149.756 182.833 149.327C182.571 149.053 182.359 148.907 182.374 148.888Z" fill="#EB996E"/>
<path d="M184.471 152.928C184.54 152.941 184.606 152.963 184.669 152.994C184.851 153.07 185.03 153.155 185.204 153.249C185.842 153.606 186.421 154.064 186.917 154.604C187.692 155.391 188.175 156.423 188.287 157.525C188.362 158.199 188.176 158.875 187.766 159.413C187.651 159.556 187.509 159.673 187.347 159.759C187.186 159.845 187.009 159.898 186.827 159.914C186.457 159.921 186.093 159.817 185.781 159.616C184.699 158.859 183.674 158.021 182.716 157.11L180.369 154.925C179.698 154.306 179.145 153.815 178.755 153.485C178.542 153.323 178.342 153.147 178.154 152.956C178.219 152.983 178.279 153.02 178.333 153.065C178.445 153.14 178.609 153.254 178.802 153.409C179.21 153.721 179.788 154.188 180.477 154.792L182.871 156.945C183.829 157.831 184.845 158.653 185.912 159.404C186.181 159.582 186.497 159.674 186.818 159.668C186.969 159.657 187.116 159.615 187.25 159.544C187.384 159.474 187.502 159.376 187.597 159.258C187.96 158.769 188.128 158.161 188.066 157.554C187.966 156.492 187.515 155.495 186.785 154.722C186.122 153.995 185.339 153.388 184.471 152.928V152.928Z" fill="#EB996E"/>
<path d="M213.762 155.043C213.775 155.127 213.775 155.213 213.762 155.297V156.034C213.762 156.199 213.762 156.374 213.762 156.567L213.711 157.2C213.679 157.714 213.622 158.226 213.537 158.734C213.495 159.022 213.448 159.314 213.401 159.626C213.354 159.937 213.265 160.249 213.195 160.57C213.068 161.23 212.833 161.915 212.627 162.646C212.103 164.207 211.419 165.708 210.585 167.126C209.737 168.538 208.717 169.838 207.549 170.996L206.741 171.751C206.469 171.987 206.187 172.19 205.925 172.403C205.432 172.786 204.916 173.139 204.381 173.46C204.263 173.536 204.146 173.616 204.029 173.682L203.677 173.861L203.029 174.196C202.685 174.379 202.329 174.536 201.963 174.668L201.278 174.928C201.201 174.964 201.119 174.988 201.034 174.999C201.105 174.952 201.181 174.912 201.259 174.881L201.926 174.579C202.284 174.435 202.632 174.268 202.968 174.078L203.601 173.738L203.944 173.55C204.061 173.479 204.174 173.399 204.291 173.323C204.815 172.995 205.318 172.636 205.798 172.247C206.056 172.039 206.333 171.832 206.596 171.6L207.389 170.845C208.535 169.692 209.539 168.403 210.379 167.008C211.202 165.604 211.884 164.121 212.416 162.58C212.622 161.863 212.861 161.188 212.997 160.532C213.073 160.206 213.143 159.89 213.218 159.588C213.293 159.286 213.321 158.988 213.368 158.71C213.476 158.148 213.523 157.634 213.575 157.185C213.598 156.964 213.626 156.756 213.645 156.558C213.664 156.359 213.645 156.194 213.673 156.029C213.697 155.736 213.711 155.491 213.725 155.297C213.726 155.211 213.739 155.125 213.762 155.043V155.043Z" fill="#263238"/>
<path d="M190.207 143.922C194.764 142.818 198.101 139.839 198.932 134.01C199.833 127.638 195.275 117.018 195.275 117.018L187.001 117.16L179.961 117.33C179.961 117.33 175.737 128.054 176.826 134.397C177.915 140.741 181.89 143.62 187.109 144.342H187.189L187.658 145.159L188.128 163.944L183.5 165.832C183.454 165.86 183.419 165.901 183.398 165.95C183.377 165.999 183.371 166.054 183.383 166.106C183.394 166.158 183.422 166.205 183.461 166.241C183.501 166.277 183.55 166.299 183.603 166.304L195.416 166.092C195.476 166.091 195.533 166.069 195.578 166.03C195.624 165.991 195.653 165.937 195.663 165.878C195.673 165.819 195.661 165.758 195.63 165.707C195.6 165.655 195.552 165.616 195.496 165.596L190.23 163.784L189.761 145.013L190.207 143.922Z" fill="white"/>
<path d="M190.207 143.922C190.207 143.922 190.174 144.021 190.099 144.205C190.024 144.39 189.911 144.677 189.761 145.046C189.827 147.604 190.01 154.264 190.268 163.812L190.211 163.737L195.163 165.431L195.491 165.545C195.566 165.574 195.628 165.628 195.668 165.697C195.708 165.767 195.722 165.849 195.709 165.928C195.696 166.008 195.656 166.08 195.595 166.133C195.535 166.186 195.459 166.217 195.379 166.22H195.027L193.619 166.248L190.685 166.305L184.485 166.427H183.678C183.599 166.44 183.518 166.44 183.439 166.427C183.392 166.412 183.35 166.387 183.314 166.354C183.279 166.32 183.251 166.279 183.232 166.234C183.213 166.19 183.203 166.144 183.202 166.096C183.201 166.049 183.209 166.002 183.227 165.958C183.244 165.914 183.271 165.874 183.304 165.84C183.337 165.806 183.376 165.78 183.42 165.762L184.941 165.129L188.043 163.85L187.977 163.959C187.832 158.158 187.682 151.809 187.508 145.173V145.23L187.039 144.413L187.147 144.475H187.048C185.704 144.302 184.391 143.94 183.148 143.398C181.87 142.826 180.717 142.007 179.755 140.986C178.291 139.361 177.295 137.365 176.873 135.214C176.455 133.133 176.414 130.994 176.751 128.899C177.041 126.873 177.464 124.869 178.018 122.899C178.558 120.964 179.163 119.086 179.858 117.278L179.886 117.207H179.961L187.898 117.028L195.285 116.91H195.351L195.379 116.971C196.251 119.088 197.006 121.251 197.641 123.452C198.228 125.429 198.664 127.449 198.946 129.493C199.213 131.292 199.181 133.123 198.852 134.912C198.572 136.427 198.019 137.878 197.218 139.193C196.568 140.249 195.723 141.171 194.731 141.912C194.008 142.454 193.22 142.901 192.384 143.243L191.915 143.441L191.483 143.582C191.262 143.663 191.036 143.731 190.807 143.785L190.249 143.922C190.249 143.922 190.432 143.861 190.798 143.757C190.981 143.71 191.206 143.634 191.469 143.54L191.896 143.389L192.366 143.186C193.201 142.838 193.989 142.386 194.712 141.841C195.687 141.099 196.515 140.18 197.153 139.131C197.936 137.824 198.477 136.385 198.749 134.883C199.066 133.111 199.088 131.297 198.814 129.517C198.293 125.689 197.026 121.465 195.224 117.051L195.318 117.113L187.93 117.245L179.999 117.434L180.102 117.363C179.417 119.156 178.811 121.035 178.281 122.961C177.729 124.92 177.309 126.915 177.023 128.932C176.691 130.999 176.731 133.109 177.14 135.162C177.551 137.272 178.525 139.229 179.956 140.826C180.913 141.825 182.055 142.627 183.317 143.186C184.54 143.716 185.83 144.072 187.151 144.243H187.264L187.301 144.305L187.771 145.126V145.149V145.183C187.926 151.814 188.076 158.167 188.207 163.963V164.044L188.137 164.072L185.025 165.351L183.509 165.941C183.491 165.948 183.474 165.959 183.46 165.973C183.445 165.987 183.434 166.004 183.427 166.023C183.42 166.042 183.417 166.062 183.418 166.082C183.42 166.102 183.425 166.122 183.434 166.139C183.476 166.22 183.519 166.229 183.678 166.22H184.485L190.685 166.116L193.619 166.064L195.027 166.04H195.379C195.415 166.04 195.45 166.026 195.478 166.002C195.505 165.978 195.523 165.944 195.529 165.908C195.535 165.871 195.529 165.834 195.511 165.801C195.493 165.769 195.464 165.743 195.43 165.729L195.106 165.62L190.164 163.907H190.108V163.845C189.916 154.292 189.775 147.632 189.723 145.074C189.883 144.706 190.005 144.432 190.085 144.239L190.207 143.922Z" fill="#263238"/>
<path d="M198.101 133.6C197.28 139.377 193.76 142.072 189.047 142.837H188.977V142.936L187.372 142.974C182.636 142.317 179.032 139.707 178.037 133.954C178.037 133.954 179.802 131.405 182.697 131.037C185.842 130.635 186.987 133.836 190.709 134.402C193.487 134.827 198.101 133.6 198.101 133.6Z" fill="#FF6F03"/>
<path d="M195.67 117.089C195.497 117.219 195.314 117.333 195.121 117.429C194.905 117.561 194.681 117.678 194.449 117.778C194.144 117.931 193.831 118.068 193.511 118.189C192.702 118.507 191.868 118.76 191.019 118.944C189.973 119.172 188.91 119.307 187.841 119.345C186.772 119.368 185.703 119.299 184.645 119.138C183.783 118.998 182.934 118.788 182.106 118.51C181.749 118.406 181.439 118.269 181.167 118.16C180.931 118.071 180.701 117.967 180.477 117.849C180.279 117.765 180.089 117.662 179.909 117.542C179.909 117.495 180.754 117.915 182.162 118.345C182.988 118.594 183.83 118.784 184.683 118.911C186.775 119.226 188.906 119.162 190.976 118.722C191.82 118.545 192.65 118.305 193.459 118.005C194.853 117.528 195.646 117.056 195.67 117.089Z" fill="#263238"/>
<path d="M190.629 141.567C189.745 141.972 188.776 142.157 187.805 142.105C186.834 142.053 185.89 141.767 185.053 141.27C185.949 141.573 186.877 141.771 187.818 141.86C188.763 141.869 189.706 141.771 190.629 141.567V141.567Z" fill="white"/>
<path d="M182.707 140.302C182.52 140.16 182.345 140.002 182.186 139.83C181.983 139.639 181.794 139.432 181.623 139.212C181.381 138.933 181.157 138.64 180.951 138.334L180.595 137.796C180.477 137.607 180.374 137.399 180.257 137.187C180.012 136.728 179.794 136.255 179.604 135.771C179.195 134.665 178.909 133.518 178.75 132.349C178.5 130.222 178.571 128.068 178.961 125.963C179.112 125.16 179.257 124.514 179.379 124.075C179.428 123.842 179.499 123.614 179.59 123.395C179.57 123.631 179.531 123.864 179.473 124.094C179.374 124.542 179.257 125.189 179.135 125.982C178.797 128.073 178.75 130.202 178.994 132.306C179.149 133.457 179.425 134.588 179.816 135.681C179.998 136.153 180.205 136.614 180.435 137.064C180.548 137.272 180.646 137.484 180.759 137.673L181.097 138.206C181.989 139.58 182.749 140.26 182.707 140.302Z" fill="white"/>
<path d="M196.181 146.16L183.092 146.82C183.171 148.803 184.847 150.436 186.715 151.068C188.583 151.701 190.615 151.602 192.591 151.474C192.082 153.463 192.278 155.568 193.145 157.428C194.012 159.287 195.495 160.785 197.341 161.665" fill="#FFBE9D"/>
<path d="M197.326 161.684C197.251 161.665 197.178 161.637 197.111 161.599C196.974 161.528 196.763 161.452 196.51 161.301C195.777 160.879 195.115 160.344 194.548 159.715C193.672 158.752 193.013 157.611 192.614 156.369C192.088 154.783 192.035 153.076 192.464 151.46L192.582 151.606C191.55 151.694 190.514 151.724 189.479 151.696C188.352 151.678 187.239 151.451 186.194 151.026C185.313 150.647 184.536 150.061 183.927 149.317C183.341 148.614 182.994 147.741 182.937 146.825V146.707H183.049L192.436 146.278L195.153 146.174H195.881C195.965 146.164 196.05 146.164 196.134 146.174C196.051 146.192 195.966 146.203 195.881 146.207L195.158 146.263L192.441 146.433L183.054 146.948L183.162 146.83C183.216 147.697 183.545 148.524 184.101 149.19C184.686 149.902 185.433 150.462 186.278 150.823C187.287 151.234 188.363 151.456 189.451 151.479C190.478 151.507 191.506 151.481 192.53 151.403H192.689L192.647 151.559C192.221 153.132 192.262 154.796 192.765 156.345C193.143 157.565 193.773 158.691 194.614 159.649C195.159 160.276 195.791 160.82 196.491 161.264C197.05 161.533 197.336 161.669 197.326 161.684Z" fill="#EB996E"/>
<path d="M174.54 108.211C174.484 108.248 173.132 106.28 171.523 103.812C169.913 101.343 168.65 99.3135 168.707 99.2805C168.763 99.2474 170.115 101.211 171.724 103.68C173.334 106.148 174.592 108.173 174.54 108.211Z" fill="#263238"/>
<path d="M179.238 107.72C179.181 107.484 179.141 107.244 179.121 107.002C179.065 106.53 178.985 105.87 178.9 105.034C178.732 103.373 178.525 101.074 178.351 98.53C178.178 95.9859 178.07 93.6778 178.013 92.007C177.985 91.1715 177.971 90.4966 177.967 90.0293C177.943 89.7875 177.943 89.5441 177.967 89.3024C178.011 89.5407 178.036 89.7822 178.042 90.0246C178.074 90.5343 178.117 91.1998 178.168 91.9975C178.276 93.7062 178.417 95.9906 178.577 98.5111C178.736 101.032 178.929 103.311 179.046 105.02C179.102 105.818 179.154 106.483 179.191 106.993C179.23 107.233 179.246 107.477 179.238 107.72V107.72Z" fill="#263238"/>
<path d="M189.052 97.553C188.84 98.1291 188.559 98.6774 188.217 99.1861C187.644 100.168 186.837 101.508 185.922 102.962C185.007 104.416 184.166 105.752 183.547 106.696C183.232 107.168 182.979 107.55 182.801 107.814C182.717 107.956 182.614 108.087 182.496 108.201C182.55 108.046 182.624 107.899 182.716 107.762C182.909 107.441 183.134 107.054 183.397 106.606C183.983 105.634 184.805 104.303 185.715 102.83L188.062 99.0822C188.343 98.6386 188.583 98.2657 188.78 97.9494C188.863 97.8123 188.954 97.6799 189.052 97.553V97.553Z" fill="#263238"/>
<path d="M145.615 83.0248H21.2092V211.399H145.615V83.0248Z" fill="#FAFAFA"/>
<path d="M145.615 211.399C145.615 210.488 145.573 159.951 145.512 83.0154L145.615 83.1239H21.242L21.364 83.0012C21.364 130.078 21.364 174.154 21.364 211.385L21.2608 211.281L145.667 211.385L21.2608 211.494H21.12V211.385C21.12 174.163 21.12 130.088 21.12 83.0012V82.8785H21.2561H145.629H145.737V82.9823C145.658 159.932 145.62 210.512 145.615 211.399Z" fill="#263238"/>
<path d="M29.338 89.444C29.3634 89.8473 29.2677 90.2489 29.0633 90.5968C28.8589 90.9447 28.5552 91.2227 28.1917 91.3949C27.8282 91.567 27.4216 91.6253 27.0248 91.5621C26.6279 91.499 26.2591 91.3173 25.9662 91.0407C25.6733 90.7641 25.4698 90.4054 25.3822 90.011C25.2945 89.6167 25.3268 89.2049 25.4748 88.8293C25.6227 88.4536 25.8796 88.1313 26.2119 87.9043C26.5443 87.6772 26.9369 87.5559 27.3387 87.556C27.8521 87.542 28.3503 87.7325 28.7248 88.0861C29.0992 88.4397 29.3196 88.9278 29.338 89.444V89.444Z" fill="#E0E0E0"/>
<path d="M35.4675 89.444C35.4929 89.8473 35.3972 90.2489 35.1928 90.5968C34.9883 90.9447 34.6847 91.2227 34.3212 91.3949C33.9576 91.567 33.5511 91.6253 33.1542 91.5621C32.7574 91.499 32.3885 91.3173 32.0956 91.0407C31.8027 90.7641 31.5993 90.4054 31.5116 90.011C31.424 89.6167 31.4563 89.2049 31.6042 88.8293C31.7522 88.4536 32.009 88.1313 32.3414 87.9043C32.6738 87.6772 33.0663 87.5559 33.4681 87.556C33.9816 87.542 34.4798 87.7325 34.8542 88.0861C35.2287 88.4397 35.4491 88.9278 35.4675 89.444Z" fill="#E0E0E0"/>
<path d="M41.597 89.444C41.6224 89.8473 41.5267 90.2489 41.3223 90.5968C41.1179 90.9447 40.8142 91.2227 40.4507 91.3949C40.0872 91.567 39.6806 91.6253 39.2837 91.5621C38.8869 91.499 38.5181 91.3173 38.2252 91.0407C37.9322 90.7641 37.7288 90.4054 37.6411 90.011C37.5535 89.6167 37.5858 89.2049 37.7337 88.8293C37.8817 88.4536 38.1385 88.1313 38.4709 87.9043C38.8033 87.6772 39.1958 87.5559 39.5976 87.556C40.1111 87.542 40.6093 87.7325 40.9837 88.0861C41.3582 88.4397 41.5786 88.9278 41.597 89.444Z" fill="#E0E0E0"/>
<path d="M145.615 94.6926C145.615 94.7587 117.765 94.8154 83.4146 94.8154C49.0641 94.8154 21.2092 94.7587 21.2092 94.6926C21.2092 94.6266 49.0547 94.5699 83.4146 94.5699C117.774 94.5699 145.615 94.6218 145.615 94.6926Z" fill="#E0E0E0"/>
<path d="M108.58 136.181C108.393 133.288 109.458 130.484 110.406 127.747C113.504 118.779 116.859 102.495 117.718 93.0548L100.592 105.662C96.1345 115.92 93.5892 126.914 93.0829 138.098C92.8858 142.558 93.0266 147.108 94.3924 151.356C95.7581 155.604 98.4803 159.56 102.418 161.618C104.976 162.958 108.172 163.402 110.725 162.056C113.278 160.711 114.668 157.922 114.888 155.109C115.109 152.296 114.236 149.497 113.011 146.957C111.312 143.436 108.834 140.09 108.58 136.181Z" fill="#263238"/>
<path d="M78.8057 80.8158C78.9444 79.7484 79.4758 78.7719 80.2951 78.0791C81.1144 77.3862 82.162 77.0272 83.2315 77.0729L104.413 70.4649C111.711 70.7906 117.254 84.7193 116.615 92.0353C115.916 100.168 113.626 109.754 111.776 115.635C108.064 127.435 99.9304 126.614 99.9304 126.614L95.0212 145.829L71.6484 142.761L78.8057 80.8158Z" fill="#AD7460"/>
<path d="M112.828 100.536C112.772 100.94 112.56 101.306 112.239 101.556C111.918 101.805 111.513 101.919 111.11 101.872C110.911 101.858 110.718 101.805 110.54 101.714C110.362 101.624 110.204 101.499 110.076 101.346C109.947 101.193 109.85 101.016 109.791 100.825C109.732 100.634 109.711 100.433 109.73 100.234C109.786 99.8298 109.997 99.4637 110.318 99.2141C110.639 98.9645 111.045 98.8511 111.448 98.8982C111.646 98.9117 111.84 98.9653 112.018 99.0555C112.196 99.1458 112.353 99.271 112.482 99.4237C112.611 99.5764 112.708 99.7536 112.767 99.9446C112.826 100.136 112.847 100.337 112.828 100.536V100.536Z" fill="#263238"/>
<path d="M113.658 97.232C113.471 97.3595 112.283 97.0055 110.612 97.1565C108.942 97.3075 107.731 97.8551 107.548 97.7654C107.459 97.7276 107.651 97.5152 108.177 97.2651C108.953 96.9213 109.781 96.7123 110.627 96.6467C111.44 96.5615 112.263 96.6271 113.053 96.8403C113.579 97.0102 113.752 97.1895 113.658 97.232Z" fill="#263238"/>
<path d="M97.3538 98.2893C97.2965 98.6938 97.0844 99.0599 96.7627 99.3094C96.4409 99.5589 96.035 99.6722 95.6313 99.6251C95.4328 99.6115 95.2389 99.558 95.0613 99.4677C94.8836 99.3774 94.7258 99.2522 94.5972 99.0995C94.4685 98.9468 94.3716 98.7696 94.3122 98.5786C94.2529 98.3875 94.2322 98.1864 94.2515 97.9872C94.3076 97.5831 94.5188 97.217 94.8398 96.9674C95.1608 96.7178 95.5662 96.6044 95.9693 96.6515C96.1683 96.6644 96.3626 96.7175 96.5408 96.8075C96.719 96.8975 96.8774 97.0226 97.0065 97.1754C97.1357 97.3282 97.233 97.5055 97.2926 97.6969C97.3523 97.8882 97.3731 98.0897 97.3538 98.2893V98.2893Z" fill="#263238"/>
<path d="M97.321 95.6744C97.0769 95.731 96.0256 94.8626 94.2797 94.3386C92.5337 93.8147 91.0882 93.895 90.938 93.7203C90.8676 93.6401 91.1445 93.4985 91.7828 93.4466C92.7055 93.3993 93.6291 93.5192 94.5096 93.8006C95.3618 94.0479 96.1586 94.4582 96.8563 95.0089C97.3303 95.3912 97.4383 95.6555 97.321 95.6744Z" fill="#263238"/>
<path d="M101.554 107.956C101.554 107.857 102.62 107.833 104.319 107.871C104.75 107.895 105.163 107.871 105.257 107.588C105.356 107.154 105.324 106.7 105.163 106.285C104.915 105.195 104.661 104.052 104.394 102.854C103.347 97.9731 102.653 93.9847 102.85 93.9422C103.047 93.8997 104.056 97.8267 105.102 102.707C105.353 103.906 105.591 105.053 105.816 106.148C105.905 106.658 106.097 107.248 105.783 107.852C105.7 107.993 105.585 108.114 105.449 108.204C105.312 108.294 105.157 108.351 104.995 108.371C104.751 108.403 104.505 108.403 104.262 108.371C102.592 108.201 101.545 108.05 101.554 107.956Z" fill="#263238"/>
<path d="M99.9211 126.708C94.2515 125.938 88.9059 123.6 84.48 119.954C84.48 119.954 86.8736 129.333 99.0669 130.022L99.9211 126.708Z" fill="#814F40"/>
<path d="M100.672 111.968C100.038 110.604 98.9214 109.584 97.8091 109.358C97.4343 109.265 97.0406 109.288 96.6791 109.424C96.3175 109.559 96.0048 109.801 95.7816 110.118C95.5299 110.542 95.3843 111.021 95.3574 111.514C95.3304 112.008 95.4228 112.5 95.6267 112.95C95.8169 113.42 96.1411 113.824 96.5585 114.11C96.9759 114.397 97.4681 114.553 97.9734 114.559C98.8229 114.526 99.555 114.026 100.254 113.516C100.467 113.385 100.643 113.201 100.766 112.983C100.832 112.843 100.867 112.691 100.867 112.537C100.867 112.382 100.832 112.23 100.766 112.091" fill="#814F40"/>
<path d="M96.4997 108.371C96.7719 108.395 96.4997 110.203 97.856 111.722C99.2124 113.242 101.141 113.332 101.141 113.61C101.141 113.728 100.672 113.898 99.8507 113.799C98.7948 113.652 97.8235 113.137 97.1051 112.345C96.4174 111.581 96.0522 110.577 96.0866 109.546C96.1101 108.758 96.3776 108.338 96.4997 108.371Z" fill="#263238"/>
<path d="M99.5926 88.9531C99.3157 89.3543 97.7481 88.7266 95.7816 88.4811C93.8151 88.2357 92.1443 88.349 91.9941 87.8864C91.9284 87.6646 92.3038 87.3153 93.0313 87.0463C93.9951 86.7302 95.0179 86.6399 96.0217 86.7822C97.0254 86.9246 97.9836 87.2958 98.8229 87.8675C99.4471 88.3207 99.7146 88.7596 99.5926 88.9531Z" fill="#263238"/>
<path d="M113.856 91.7096C113.551 92.1155 112.236 91.7993 110.678 91.8795C109.12 91.9598 107.829 92.3185 107.501 91.9362C107.355 91.7521 107.538 91.3556 108.092 90.9544C108.848 90.4578 109.728 90.1847 110.631 90.1662C111.532 90.1173 112.428 90.3285 113.213 90.775C113.785 91.1338 113.992 91.5161 113.856 91.7096Z" fill="#263238"/>
<path d="M62.6419 109.15C64.3691 103.911 69.8227 87.1076 75.7551 78.7485C81.6875 70.3894 87.6057 67.5479 93.0876 66.9485C98.5694 66.349 102.831 68.591 104.887 71.0926C106.942 73.5942 107.2 80.443 107.2 80.443C107.2 80.443 93.0641 81.1179 87.6808 87.7401C81.4997 95.344 79.6693 99.356 79.6693 99.356L77.3837 103.689C77.3837 103.689 75.037 124.391 74.9197 128.851L61.187 157.903C50.7349 149.043 60.9148 114.389 62.6419 109.15Z" fill="#263238"/>
<path d="M106.539 80.3391C106.539 80.3391 113.921 80.6648 115.353 89.3071C116 93.2247 114.733 104.208 114.733 104.208C114.733 104.208 117.648 95.7546 118.019 90.8081C118.389 85.8615 116.883 79.3196 113.682 75.3265C110.566 71.4466 107.754 69.4171 101.221 68.8176C101.221 68.8176 104.075 70.328 105.356 73.0656C105.98 74.425 106.182 75.52 106.539 80.3391Z" fill="#263238"/>
<path d="M79.6599 100.007C79.9321 97.3123 77.3132 95.0844 74.8023 96.0709C73.4225 96.609 72.2304 97.9589 71.9159 100.791C71.0758 108.409 78.8573 107.687 78.8949 107.47C78.9137 107.338 79.3407 103.16 79.6599 100.007Z" fill="#AD7460"/>
<path d="M76.8955 104.312C76.8674 104.284 76.7547 104.392 76.5201 104.468C76.1909 104.568 75.8359 104.536 75.5298 104.378C74.7648 103.996 74.2297 102.641 74.3471 101.263C74.3989 100.607 74.5961 99.9719 74.9243 99.4032C75.022 99.174 75.1733 98.9719 75.3653 98.8141C75.5574 98.6563 75.7844 98.5475 76.0273 98.497C76.1864 98.475 76.3481 98.5103 76.4838 98.5967C76.6195 98.6831 76.7205 98.8149 76.7688 98.969C76.8439 99.1908 76.7688 99.3371 76.8204 99.356C76.8721 99.3749 76.9941 99.2475 76.9706 98.9265C76.9488 98.7324 76.8629 98.5512 76.7266 98.412C76.5337 98.2332 76.2802 98.1352 76.0179 98.1383C75.6998 98.1663 75.394 98.2756 75.1296 98.4556C74.8651 98.6357 74.6507 98.8806 74.5066 99.1672C74.1124 99.7911 73.8755 100.502 73.8167 101.239C73.6947 102.778 74.3189 104.303 75.3796 104.742C75.5761 104.825 75.789 104.862 76.002 104.851C76.215 104.839 76.4226 104.779 76.6092 104.675C76.8627 104.515 76.9237 104.35 76.8955 104.312Z" fill="#814F40"/>
<path d="M97.3631 134.992C97.3631 134.992 119.229 159.479 119.295 169.826C119.365 181.626 112.964 191.613 112.964 191.613L108.618 211.3L60.497 211.154C61.2855 202.479 67.4431 203.323 66.5983 191.108C66.4012 188.276 60.6237 165.271 60.5721 154.014C60.5064 140.774 75.0933 125.741 75.0933 125.741L97.3631 134.992Z" fill="#FF6F03"/>
<g opacity="0.3">
<path opacity="0.3" d="M95.6032 179.261C94.3876 178.034 92.9843 176.726 91.2619 176.712C89.9947 176.712 88.826 177.415 87.5682 177.595C85.3436 177.916 83.2504 176.547 81.4669 175.188C76.217 171.261 71.316 166.883 66.819 162.104H66.6078C69.9447 173.361 76.6093 183.971 84.5645 192.576C85.6111 191.632 85.8505 190.074 86.2071 188.691C86.5638 187.308 87.2725 185.784 88.6524 185.439C90.0322 185.095 91.351 186.077 92.4493 186.973C95.9405 189.823 99.6243 192.425 103.474 194.761C104.647 195.469 105.891 196.177 107.257 196.229C108.623 196.281 110.12 195.469 110.373 194.119L95.6032 179.261Z" fill="black"/>
</g>
<path d="M99.9211 148.425C101.057 148.387 110.903 155.93 110.903 155.93L98.0907 133.845L81.8752 128.559L91.121 142.837L99.9211 148.425Z" fill="#AD7460"/>
<path d="M100.109 143.96C98.9026 140.184 96.5794 136.644 93.1063 134.803C90.1495 133.236 86.3057 132.807 84.4518 130.008C82.9781 127.775 83.3442 124.853 82.9406 122.206C82.0629 116.466 81.8705 107.621 73.8026 106.927L68.5227 118.132C67.769 119.931 67.5146 121.901 67.7866 123.834C68.0585 125.766 68.8465 127.588 70.0668 129.106C72.1084 131.575 75.1215 132.958 77.8061 134.695C86.7234 140.462 94.2327 149.964 101.742 157.011C101.536 153.07 101.31 147.694 100.109 143.96Z" fill="#263238"/>
<path d="M72.7467 106.087C72.6521 106.149 72.5533 106.204 72.451 106.252L72.085 106.436L71.6156 106.757C71.2076 107.064 70.847 107.43 70.5455 107.843C70.1568 108.398 69.8574 109.011 69.6585 109.66C69.4158 110.448 69.2832 111.266 69.2643 112.091C69.2487 112.546 69.2817 113.002 69.3628 113.45C69.4562 113.921 69.6141 114.377 69.8322 114.805C70.2985 115.732 70.9974 116.521 71.8597 117.094C72.8043 117.68 73.9353 117.882 75.023 117.66C76.1213 117.484 77.1594 117.038 78.0455 116.362C78.8541 115.715 79.4455 114.833 79.7398 113.837C80.0219 112.938 80.0847 111.985 79.9228 111.057C79.7855 110.247 79.4749 109.477 79.0123 108.801C78.3339 107.815 77.4031 107.032 76.3183 106.535C75.9166 106.353 75.5044 106.196 75.084 106.063C75.5235 106.118 75.9523 106.238 76.3559 106.422C77.4863 106.894 78.4621 107.675 79.1719 108.678C79.6596 109.37 79.9911 110.161 80.1434 110.996C80.3194 111.956 80.2615 112.946 79.9744 113.879C79.6734 114.925 79.0567 115.85 78.2098 116.527C77.2951 117.234 76.2187 117.698 75.0793 117.877C74.5011 117.972 73.9116 117.972 73.3334 117.877C72.7673 117.785 72.2268 117.575 71.747 117.259C70.8528 116.658 70.1297 115.833 69.6491 114.866C69.4195 114.419 69.2521 113.943 69.1516 113.45C69.0687 112.983 69.0388 112.508 69.0624 112.034C69.0882 111.193 69.2337 110.36 69.4942 109.561C69.7061 108.897 70.0231 108.272 70.4329 107.71C70.75 107.295 71.1283 106.93 71.5546 106.63L72.0239 106.327L72.4041 106.162C72.5152 106.125 72.6301 106.099 72.7467 106.087V106.087Z" fill="white"/>
<path d="M167.144 145.277C171.757 144.474 175.273 141.765 176.451 136.092C177.737 129.913 173.827 119.241 173.827 119.241L165.557 118.873L158.517 118.609C158.517 118.609 153.646 128.847 154.359 135.129C155.072 141.411 158.86 144.465 164.027 145.513H164.107L164.511 146.358L163.797 165.11L158.827 166.81C158.783 166.826 158.746 166.857 158.723 166.898C158.699 166.939 158.689 166.986 158.696 167.033C158.702 167.079 158.724 167.122 158.759 167.155C158.793 167.187 158.837 167.207 158.883 167.211L171.208 167.749C171.256 167.75 171.302 167.734 171.339 167.704C171.376 167.675 171.402 167.633 171.413 167.587C171.423 167.54 171.417 167.492 171.396 167.449C171.375 167.406 171.34 167.372 171.297 167.352L165.905 165.115L166.613 146.353L167.144 145.277Z" fill="white"/>
<path d="M167.144 145.277C167.144 145.277 167.106 145.371 167.022 145.551L166.637 146.362C166.552 148.911 166.327 155.576 166.003 165.124L165.952 165.044L170.941 167.088L171.269 167.22L171.354 167.258C171.393 167.276 171.428 167.302 171.457 167.333C171.488 167.367 171.511 167.407 171.525 167.45C171.538 167.494 171.542 167.54 171.536 167.585C171.53 167.63 171.513 167.674 171.488 167.712C171.463 167.75 171.43 167.782 171.391 167.805C171.32 167.842 171.24 167.857 171.161 167.848H170.8L169.335 167.787L166.313 167.659L159.911 167.39L159.081 167.352C159.005 167.352 158.949 167.352 158.86 167.352C158.807 167.345 158.756 167.323 158.713 167.29C158.671 167.257 158.637 167.213 158.616 167.163C158.596 167.114 158.588 167.059 158.594 167.006C158.6 166.952 158.618 166.901 158.649 166.857C158.708 166.783 158.791 166.731 158.883 166.71L160.512 166.144L163.797 165.016L163.718 165.12C163.933 159.314 164.187 152.97 164.407 146.344V146.4L164.004 145.56L164.107 145.626H164.009C161.709 145.154 159.273 144.21 157.438 142.388C155.894 140.784 154.858 138.756 154.462 136.559C154.063 134.437 154.091 132.256 154.542 130.145C154.934 128.102 155.482 126.094 156.18 124.136C156.846 122.21 157.588 120.36 158.409 118.571L158.442 118.505H158.517L166.458 118.817L173.832 119.152H173.897L173.921 119.218C174.667 121.351 175.293 123.524 175.798 125.727C176.266 127.707 176.58 129.72 176.737 131.749C176.893 133.535 176.744 135.334 176.296 137.069C175.911 138.539 175.258 139.925 174.371 141.156C173.651 142.141 172.751 142.979 171.72 143.625C170.966 144.107 170.153 144.489 169.303 144.762C168.995 144.871 168.682 144.961 168.364 145.031C168.096 145.107 167.871 145.154 167.688 145.187L167.13 145.286L167.679 145.159C167.86 145.121 168.085 145.064 168.355 144.989C168.617 144.923 168.922 144.828 169.265 144.706C170.106 144.422 170.909 144.033 171.654 143.549C172.669 142.901 173.553 142.065 174.259 141.086C175.127 139.862 175.764 138.487 176.136 137.031C176.572 135.312 176.712 133.53 176.549 131.764C176.392 129.744 176.078 127.74 175.61 125.769C175.103 123.574 174.476 121.409 173.733 119.284L173.822 119.35L166.449 119.029L158.508 118.732L158.616 118.666C157.804 120.436 157.062 122.29 156.401 124.207C155.711 126.153 155.168 128.149 154.777 130.178C154.332 132.258 154.305 134.407 154.697 136.498C155.085 138.648 156.1 140.634 157.611 142.204C159.39 143.974 161.779 144.928 164.046 145.376H164.182L164.21 145.442L164.614 146.287V146.315V146.32C164.365 152.928 164.145 159.291 163.91 165.096V165.2L163.835 165.224L160.55 166.342L158.94 166.89C158.865 166.918 158.832 166.927 158.818 166.951C158.809 166.966 158.805 166.983 158.805 167.001C158.805 167.018 158.809 167.035 158.818 167.05C158.824 167.066 158.834 167.079 158.847 167.089C158.86 167.099 158.876 167.105 158.893 167.107H159.09L159.921 167.145L166.322 167.428L169.345 167.565L170.809 167.631H171.171C171.293 167.631 171.321 167.631 171.344 167.541C171.348 167.525 171.347 167.508 171.342 167.492C171.337 167.477 171.328 167.463 171.316 167.451C171.316 167.428 171.26 167.414 171.199 167.385L170.87 167.248L165.886 165.2H165.834V165.139C166.219 155.59 166.491 148.93 166.595 146.381L167.003 145.574C167.083 145.376 167.144 145.277 167.144 145.277Z" fill="#263238"/>
<path d="M175.385 134.992C174.217 140.708 170.537 143.181 165.787 143.653H165.717V143.757L164.107 143.696C159.414 142.752 155.988 139.92 155.345 134.114C155.345 134.114 159.484 134.709 162.385 134.817C166.721 134.978 168.707 132.066 171.508 132.169C174.31 132.273 175.385 134.992 175.385 134.992Z" fill="#FF6F03"/>
<path d="M173.944 119.265C173.782 119.409 173.604 119.534 173.414 119.638C172.912 119.943 172.388 120.212 171.846 120.44C170.048 121.2 168.104 121.547 166.156 121.457C164.208 121.368 162.304 120.843 160.582 119.921C160.062 119.644 159.564 119.328 159.09 118.977C158.908 118.859 158.743 118.718 158.597 118.557C158.625 118.519 159.343 119.104 160.662 119.765C162.376 120.629 164.25 121.121 166.165 121.209C168.08 121.297 169.992 120.979 171.776 120.275C173.156 119.737 173.921 119.222 173.944 119.265Z" fill="#263238"/>
<path d="M174.198 135.799C174.161 135.995 174.102 136.185 174.019 136.366C173.819 136.859 173.574 137.333 173.287 137.782C172.334 139.3 170.974 140.518 169.363 141.293C167.752 142.069 165.956 142.372 164.182 142.166C163.649 142.108 163.123 141.999 162.61 141.841C162.42 141.795 162.237 141.724 162.065 141.628C162.769 141.793 163.482 141.914 164.201 141.992C165.939 142.148 167.686 141.83 169.26 141.072C170.833 140.313 172.174 139.143 173.142 137.682C173.529 137.075 173.882 136.447 174.198 135.799V135.799Z" fill="white"/>
<path d="M82.6027 143.342C78.2895 139.141 70.1091 137.527 66.223 143.738C65.4533 144.961 65.1529 151.064 65.2186 152.801C65.5237 161.122 68.1379 159.819 71.7142 163.85C74.2908 166.748 108.2 195.158 115.151 198.589C122.102 202.021 126.387 198.32 126.387 198.32L150.36 166.961L143.752 156.076L120.253 176.882L82.6027 143.342Z" fill="#AD7460"/>
<path d="M142.424 157.407C142.424 157.407 155.65 145.975 156.297 145.909C156.945 145.843 167.641 146.259 167.641 146.259C167.641 146.259 170.875 147.122 170.758 148.444C170.683 149.236 170.313 149.97 169.72 150.497C170.246 151.171 170.71 151.891 171.105 152.65C171.363 153.32 170.49 154.651 170.49 154.651C170.49 154.651 171.565 155.703 171.429 156.813C171.364 157.444 171.105 158.04 170.687 158.516C170.687 158.516 172.062 159.196 171.729 160.579C171.396 161.962 169.772 164.714 169.772 164.714C169.772 164.714 168.34 164.501 168.251 163.416C168.187 162.866 168.216 162.309 168.336 161.769L162.652 162.774C162.652 162.774 159.428 164.785 157.612 165.134C155.795 165.483 149.581 167.966 149.581 167.966L142.424 157.407Z" fill="#AD7460"/>
<path d="M169.73 150.771C169.421 150.471 169.081 150.205 168.716 149.978C167.787 149.509 166.749 149.3 165.712 149.374C164.497 149.43 163.394 149.648 162.577 149.7C162.14 149.761 161.697 149.752 161.263 149.671C161.263 149.633 161.765 149.633 162.563 149.525C163.361 149.416 164.44 149.19 165.703 149.124C166.782 149.047 167.859 149.292 168.8 149.827C169.081 149.997 169.33 150.214 169.537 150.469C169.683 150.648 169.744 150.762 169.73 150.771Z" fill="#814F40"/>
<path d="M170.837 154.575C170.436 154.533 170.037 154.462 169.645 154.363C167.738 154.004 165.785 153.96 163.863 154.231C163.466 154.309 163.065 154.361 162.662 154.386C163.036 154.224 163.431 154.112 163.835 154.056C164.8 153.871 165.782 153.791 166.764 153.815C167.746 153.838 168.722 153.965 169.678 154.193C170.079 154.269 170.469 154.398 170.837 154.575Z" fill="#814F40"/>
<path d="M171.128 158.837C170.78 158.666 170.413 158.536 170.035 158.45C169.097 158.355 168.152 158.372 167.219 158.502C166.106 158.587 165.097 158.653 164.365 158.686C163.97 158.726 163.573 158.726 163.178 158.686C163.562 158.587 163.955 158.527 164.351 158.507C165.079 158.432 166.088 158.342 167.2 158.252C168.154 158.11 169.123 158.11 170.077 158.252C170.481 158.328 170.85 158.533 171.128 158.837V158.837Z" fill="#814F40"/>
<path d="M121.764 185.76C121.694 185.329 121.657 184.894 121.651 184.458C121.6 183.65 121.506 182.541 121.337 181.324C121.168 180.106 120.947 179.011 120.774 178.222C120.66 177.801 120.575 177.372 120.52 176.939C120.709 177.334 120.851 177.751 120.942 178.18C121.492 180.225 121.789 182.33 121.825 184.448C121.855 184.886 121.835 185.327 121.764 185.76V185.76Z" fill="#814F40"/>
<path d="M76.0601 135.304C73.7681 134.757 71.3567 135.071 69.2778 136.185C67.199 137.298 65.5955 139.137 64.768 141.355C63.8971 143.566 63.4205 145.915 63.36 148.293C63.4069 154.231 65.3359 160.168 69.4191 166.432C72.9203 171.803 83.3958 186.313 83.3958 186.313L84.7757 182.735C85.1525 182.069 85.6562 181.485 86.2577 181.015C86.8593 180.545 87.547 180.199 88.2816 179.997L89.2202 179.752C91.1304 179.242 93.3738 178.746 94.5425 177.151L96.4198 173.62L105.745 160.976C105.745 160.976 85.2403 140.444 80.608 137.017C79.5426 136.257 77.2616 135.587 76.0601 135.304Z" fill="#FF6F03"/>
<path d="M105.708 160.976C105.656 161.023 100.827 156.256 94.9133 150.341C88.9997 144.427 84.2453 139.58 84.2923 139.533C84.3392 139.485 89.1733 144.253 95.0869 150.167C101.001 156.081 105.755 160.952 105.708 160.976Z" fill="#263238"/>
<path d="M105.708 160.976L105.609 161.122L105.309 161.533L104.122 163.1C103.08 164.464 101.522 166.404 99.6536 168.934C98.7149 170.194 97.7058 171.591 96.7484 173.182C96.5044 173.578 96.2791 173.993 96.0632 174.423L95.453 175.768C95.0387 176.738 94.3764 177.58 93.5335 178.208C92.5933 178.786 91.5662 179.207 90.4922 179.454L88.8589 179.926C88.3002 180.052 87.7512 180.217 87.2162 180.422C86.1651 180.959 85.3178 181.828 84.8039 182.895C84.2425 183.999 83.8019 185.161 83.4897 186.36L83.4193 186.596L83.2785 186.398L76.6046 177C72.9156 171.723 69.1375 166.833 66.5796 161.825C65.3394 159.47 64.3936 156.97 63.7636 154.382C63.2399 152.119 63.0814 149.785 63.2943 147.472C63.4689 145.563 63.9277 143.692 64.6554 141.921C65.216 140.589 65.9585 139.342 66.8612 138.216C67.4424 137.521 68.0935 136.888 68.8043 136.328L69.3722 135.903L69.5693 135.766L69.3863 135.927L68.8324 136.366C68.1383 136.944 67.5017 137.589 66.9316 138.291C66.0508 139.419 65.3275 140.662 64.7821 141.987C64.0731 143.749 63.6286 145.607 63.4633 147.5C63.2557 149.793 63.4142 152.106 63.9326 154.349C64.5641 156.919 65.51 159.4 66.7486 161.736C69.3018 166.706 73.0799 171.591 76.7736 176.873C79.0874 180.134 81.3308 183.301 83.4381 186.265L83.2269 186.303C83.5467 185.089 83.9968 183.913 84.5692 182.796C85.106 181.683 85.9938 180.781 87.0942 180.228C87.6391 180.016 88.1992 179.846 88.7697 179.719L90.3983 179.27C91.4578 179.026 92.4707 178.61 93.3974 178.038C94.2203 177.433 94.8682 176.619 95.2747 175.678C95.4859 175.206 95.6877 174.772 95.8942 174.333C96.1007 173.894 96.3636 173.484 96.5888 173.082C97.5604 171.482 98.5929 170.095 99.5269 168.834C101.404 166.333 102.991 164.388 104.051 163.043C104.577 162.373 104.99 161.858 105.272 161.495L105.591 161.098C105.626 161.054 105.665 161.013 105.708 160.976V160.976Z" fill="#263238"/>
<path d="M188.963 76.3696L196.852 77.7856L192.938 71.272C194.61 68.2132 195.456 64.768 195.395 61.2784C195.333 57.7888 194.365 54.3761 192.586 51.379C190.808 48.3819 188.281 45.9046 185.257 44.193C182.232 42.4815 178.815 41.5952 175.345 41.6221C171.874 41.649 168.471 42.5881 165.473 44.3463C162.475 46.1045 159.987 48.6206 158.255 51.6449C156.522 54.6692 155.607 58.0965 155.598 61.5867C155.59 65.0768 156.49 68.5085 158.208 71.5411L153.735 78.8759L162.807 77.054C166.511 80.1506 171.207 81.7895 176.022 81.6662C180.837 81.5429 185.444 79.6659 188.986 76.3838L188.963 76.3696Z" fill="#FAFAFA"/>
<path d="M189.052 76.2894C189.052 76.2894 188.925 76.4168 188.677 76.6434C188.428 76.8699 188.043 77.205 187.527 77.6157C183.961 80.3534 179.582 81.8013 175.097 81.725C170.612 81.6488 166.283 80.0529 162.812 77.1956L162.953 77.0634C162.96 77.0737 162.965 77.0852 162.967 77.0974C162.97 77.1096 162.97 77.1222 162.968 77.1345C162.966 77.1467 162.961 77.1585 162.955 77.169C162.948 77.1795 162.939 77.1885 162.929 77.1956H162.892L153.833 79.0836C153.805 79.0892 153.776 79.0834 153.753 79.0674C153.729 79.0515 153.712 79.0268 153.707 78.9986C153.697 78.9745 153.697 78.9473 153.707 78.9231L158.165 71.5835V71.7015C156.029 68.0071 155.13 63.7194 155.603 59.472C155.846 57.248 156.447 55.0784 157.382 53.0481C159.628 48.314 163.609 44.6382 168.491 42.7915C172.232 41.3874 176.306 41.1424 180.188 42.0879C184.069 43.0335 187.58 45.1264 190.268 48.0968C191.868 49.8388 193.14 51.8587 194.022 54.0582C194.822 56.0901 195.3 58.2353 195.44 60.416C195.673 64.1657 194.85 67.9055 193.065 71.2059V71.1304L197.003 77.6534C197.011 77.6642 197.016 77.6775 197.016 77.6912C197.016 77.7049 197.011 77.7182 197.003 77.729C196.991 77.7333 196.977 77.7333 196.965 77.729L191.098 76.6764L189.592 76.3979L189.076 76.2941C189.076 76.2941 189.245 76.2941 189.582 76.3696L191.089 76.6198L196.984 77.6204L196.928 77.7054L192.957 71.2059C192.95 71.1946 192.946 71.1815 192.946 71.1682C192.946 71.1548 192.95 71.1417 192.957 71.1304C194.703 67.8453 195.495 64.1324 195.243 60.416C195.1 58.2612 194.625 56.1418 193.835 54.1337C192.959 51.9618 191.702 49.9663 190.122 48.2431C188.441 46.3971 186.43 44.8842 184.195 43.7827C181.834 42.6226 179.266 41.9501 176.643 41.8051C173.901 41.6446 171.155 42.0576 168.58 43.0181C163.759 44.8523 159.831 48.4903 157.616 53.1708C156.693 55.1758 156.098 57.3182 155.856 59.5145C155.387 63.705 156.265 67.9366 158.362 71.5882C158.373 71.6062 158.378 71.6265 158.378 71.6472C158.378 71.668 158.373 71.6883 158.362 71.7062L153.927 79.06L153.815 78.8995L162.877 77.0115L162.816 77.1673C162.799 77.1489 162.789 77.1243 162.789 77.0988C162.789 77.0734 162.799 77.0488 162.816 77.0304C162.834 77.0166 162.855 77.0091 162.877 77.0091C162.9 77.0091 162.921 77.0166 162.938 77.0304C165.624 79.2527 168.842 80.7275 172.271 81.3073C175.701 81.887 179.221 81.5516 182.481 80.3344C184.274 79.6593 185.962 78.7311 187.494 77.5779C188.015 77.1767 188.409 76.8605 188.663 76.6339C188.916 76.4074 189.052 76.2894 189.052 76.2894Z" fill="#263238"/>
<path d="M180.862 60.8219C180.862 61.2093 180.977 61.5881 181.191 61.9102C181.405 62.2323 181.709 62.4834 182.065 62.6316C182.421 62.7799 182.812 62.8187 183.19 62.7431C183.568 62.6675 183.915 62.481 184.187 62.207C184.46 61.9331 184.645 61.5841 184.72 61.2041C184.796 60.8241 184.757 60.4303 184.61 60.0723C184.462 59.7144 184.212 59.4085 183.892 59.1932C183.572 58.978 183.195 58.8631 182.81 58.8631C182.293 58.8631 181.798 59.0695 181.433 59.4368C181.068 59.8042 180.862 60.3024 180.862 60.8219V60.8219Z" fill="#263238"/>
<path d="M173.081 60.8219C173.081 61.2096 173.195 61.5885 173.409 61.9107C173.624 62.2329 173.928 62.484 174.284 62.6321C174.64 62.7802 175.032 62.8187 175.41 62.7428C175.788 62.6668 176.135 62.4798 176.407 62.2053C176.68 61.9309 176.865 61.5815 176.939 61.2012C177.014 60.8209 176.975 60.4269 176.827 60.0691C176.678 59.7112 176.428 59.4056 176.107 59.191C175.786 58.9763 175.409 58.8622 175.024 58.8631C174.508 58.8644 174.014 59.0713 173.65 59.4385C173.285 59.8057 173.081 60.3032 173.081 60.8219V60.8219Z" fill="#263238"/>
<path d="M165.318 59.8402C165.124 60.1754 165.034 60.5609 165.058 60.9478C165.082 61.3348 165.22 61.7058 165.454 62.0139C165.688 62.322 166.008 62.5533 166.373 62.6785C166.738 62.8037 167.131 62.8172 167.504 62.7172C167.876 62.6173 168.211 62.4084 168.465 62.117C168.72 61.8257 168.883 61.465 168.933 61.0806C168.983 60.6962 168.919 60.3054 168.748 59.9577C168.578 59.61 168.308 59.3211 167.974 59.1275C167.754 58.9981 167.51 58.9139 167.256 58.8797C167.003 58.8455 166.746 58.862 166.499 58.9282C166.252 58.9944 166.021 59.1091 165.818 59.2656C165.615 59.4221 165.445 59.6174 165.318 59.8402V59.8402Z" fill="#263238"/>
</svg>
