<svg width="26" height="26" viewBox="0 0 26 26" fill="none" xmlns="http://www.w3.org/2000/svg">
<path d="M17.6951 2.16666C21.3668 2.16666 23.8334 4.74295 23.8334 8.57644V17.4235C23.8334 21.257 21.3668 23.8333 17.694 23.8333H8.30511C4.63338 23.8333 2.16675 21.257 2.16675 17.4235V8.57644C2.16675 4.74295 4.63338 2.16666 8.30511 2.16666H17.6951ZM18.8897 13.5959C17.7284 12.8714 16.8319 13.8888 16.5901 14.2141C16.3569 14.5283 16.1565 14.8749 15.9451 15.2214C15.4288 16.0767 14.8372 17.0628 13.8132 17.6363C12.3252 18.4603 11.1955 17.7011 10.3828 17.1489C10.0778 16.9431 9.78146 16.7486 9.48624 16.6189C8.75854 16.3048 8.10382 16.6625 7.1321 17.8968C6.62227 18.5419 6.1168 19.1814 5.6048 19.8186C5.29868 20.1999 5.37167 20.7879 5.78454 21.0428C6.44362 21.4486 7.24757 21.6667 8.15611 21.6667H17.2862C17.8014 21.6667 18.3178 21.5962 18.8102 21.4352C19.9192 21.073 20.7994 20.2435 21.2591 19.1478C21.6469 18.2266 21.8354 17.1086 21.4726 16.1784C21.3517 15.8699 21.1709 15.5825 20.917 15.3299C20.2514 14.6692 19.6294 14.052 18.8897 13.5959ZM9.20718 6.49999C7.71364 6.49999 6.50008 7.7152 6.50008 9.20832C6.50008 10.7014 7.71364 11.9167 9.20718 11.9167C10.6996 11.9167 11.9143 10.7014 11.9143 9.20832C11.9143 7.7152 10.6996 6.49999 9.20718 6.49999Z" fill="#FF6F03"/>
</svg>
