<svg width="87" height="87" viewBox="0 0 87 87" fill="none" xmlns="http://www.w3.org/2000/svg">
<g filter="url(#filter0_d_40:3534)">
<path d="M43.377 68.754C57.3923 68.754 68.754 57.3923 68.754 43.377C68.754 29.3617 57.3923 18 43.377 18C29.3617 18 18 29.3617 18 43.377C18 57.3923 29.3617 68.754 43.377 68.754Z" fill="#17D04B"/>
</g>
<path d="M33.9233 45.0105L33.9237 45.0109L38.9701 50.074L38.9703 50.0742C39.2421 50.3467 39.611 50.5 39.9959 50.5C40.3808 50.5 40.7497 50.3467 41.0215 50.0742L41.0217 50.074L53.0747 37.9818C53.0748 37.9817 53.0748 37.9817 53.0748 37.9817C53.2097 37.8467 53.3166 37.6864 53.3895 37.51C53.4625 37.3337 53.5 37.1446 53.5 36.9538C53.5 36.7629 53.4625 36.5739 53.3895 36.3975C53.3166 36.2212 53.2096 36.0608 53.0747 35.9258L52.721 36.2792L53.0752 35.9263C52.9407 35.7913 52.7808 35.6841 52.6048 35.6109C52.4288 35.5377 52.24 35.5 52.0494 35.5C51.8587 35.5 51.67 35.5377 51.4939 35.6109C51.3179 35.684 51.158 35.7913 51.0235 35.9263C51.0235 35.9263 51.0235 35.9263 51.0235 35.9263L39.9986 46.9911L35.9784 42.9576C35.9783 42.9574 35.9782 42.9573 35.978 42.9572C35.7064 42.6843 35.3375 42.5304 34.9523 42.5301C34.567 42.5297 34.1976 42.6829 33.9254 42.9554C33.6532 43.228 33.5004 43.5975 33.5 43.9826C33.4996 44.3677 33.6517 44.7375 33.9233 45.0105Z" fill="white" stroke="white"/>
<defs>
<filter id="filter0_d_40:3534" x="0" y="0" width="86.7539" height="86.754" filterUnits="userSpaceOnUse" color-interpolation-filters="sRGB">
<feFlood flood-opacity="0" result="BackgroundImageFix"/>
<feColorMatrix in="SourceAlpha" type="matrix" values="0 0 0 0 0 0 0 0 0 0 0 0 0 0 0 0 0 0 127 0" result="hardAlpha"/>
<feOffset/>
<feGaussianBlur stdDeviation="9"/>
<feColorMatrix type="matrix" values="0 0 0 0 1 0 0 0 0 1 0 0 0 0 1 0 0 0 0.08 0"/>
<feBlend mode="normal" in2="BackgroundImageFix" result="effect1_dropShadow_40:3534"/>
<feBlend mode="normal" in="SourceGraphic" in2="effect1_dropShadow_40:3534" result="shape"/>
</filter>
</defs>
</svg>
