<svg width="322" height="322" viewBox="0 0 322 322" fill="none" xmlns="http://www.w3.org/2000/svg">
<path d="M112.932 53.3554H81.801V152.023H112.932V53.3554Z" fill="#F5F5F5"/>
<path d="M112.932 53.3554H97.3665V151.752H112.932V53.3554Z" fill="#EBEBEB"/>
<path d="M96.3488 43.6632H85.3557V53.349H96.3488V43.6632Z" fill="#F5F5F5"/>
<path d="M96.3489 43.6632H93.7278V53.349H96.3489V43.6632Z" fill="#EBEBEB"/>
<path d="M79.2056 53.3554V52.7887H113.846V53.3554" fill="#E0E0E0"/>
<path d="M90.5785 57.58H87.9446V63.1378H90.5785V57.58Z" fill="#FAFAFA"/>
<path d="M97.3665 65.3145C97.3665 65.3724 93.8825 65.424 89.5806 65.424C85.2786 65.424 81.801 65.3724 81.801 65.3145C81.801 65.2565 85.2851 65.2114 89.5806 65.2114C93.876 65.2114 97.3665 65.2565 97.3665 65.3145Z" fill="#E0E0E0"/>
<path d="M106.279 57.58H103.646V63.1378H106.279V57.58Z" fill="#E0E0E0"/>
<path d="M113.067 65.3145C113.067 65.3724 109.583 65.424 105.288 65.424C100.992 65.424 97.5017 65.3724 97.5017 65.3145C97.5017 65.2565 100.986 65.2114 105.288 65.2114C109.59 65.2114 113.067 65.2565 113.067 65.3145Z" fill="#E0E0E0"/>
<path d="M106.279 68.6118H103.646V74.1695H106.279V68.6118Z" fill="#E0E0E0"/>
<path d="M113.067 76.3462C113.067 76.4042 109.583 76.4557 105.288 76.4557C100.992 76.4557 97.5017 76.4042 97.5017 76.3462C97.5017 76.2882 100.986 76.2432 105.288 76.2432C109.59 76.2432 113.067 76.2882 113.067 76.3462Z" fill="#E0E0E0"/>
<path d="M106.279 79.9719H103.646V85.5296H106.279V79.9719Z" fill="#E0E0E0"/>
<path d="M113.067 87.7128C113.067 87.7708 109.583 87.8158 105.288 87.8158C100.992 87.8158 97.5017 87.7708 97.5017 87.7128C97.5017 87.6548 100.986 87.6097 105.288 87.6097C109.59 87.6097 113.067 87.6548 113.067 87.7128Z" fill="#E0E0E0"/>
<path d="M106.279 91.3385H103.646V96.8962H106.279V91.3385Z" fill="#E0E0E0"/>
<path d="M113.067 99.0794C113.067 99.1374 109.583 99.1824 105.288 99.1824C100.992 99.1824 97.5017 99.1374 97.5017 99.0794C97.5017 99.0214 100.986 98.9699 105.288 98.9699C109.59 98.9699 113.067 99.0214 113.067 99.0794Z" fill="#E0E0E0"/>
<path d="M106.279 102.383H103.646V107.941H106.279V102.383Z" fill="#E0E0E0"/>
<path d="M113.067 110.124C113.067 110.182 109.583 110.233 105.288 110.233C100.992 110.233 97.5017 110.182 97.5017 110.124C97.5017 110.066 100.986 110.021 105.288 110.021C109.59 110.021 113.067 110.06 113.067 110.124Z" fill="#E0E0E0"/>
<path d="M106.279 113.466H103.646V119.024H106.279V113.466Z" fill="#E0E0E0"/>
<path d="M106.279 124.698H103.646V130.255H106.279V124.698Z" fill="#E0E0E0"/>
<path d="M113.067 121.201C113.067 121.259 109.583 121.31 105.288 121.31C100.992 121.31 97.5017 121.259 97.5017 121.201C97.5017 121.143 100.986 121.098 105.288 121.098C109.59 121.098 113.067 121.143 113.067 121.201Z" fill="#E0E0E0"/>
<path d="M90.5785 68.7792H87.9446V74.3369H90.5785V68.7792Z" fill="#FAFAFA"/>
<path d="M97.3664 76.5136C97.3664 76.5716 93.8824 76.6231 89.5805 76.6231C85.2786 76.6231 81.7881 76.5716 81.7881 76.5136C81.7881 76.4557 85.2721 76.4106 89.5676 76.4106C93.8631 76.4106 97.3664 76.4557 97.3664 76.5136Z" fill="#E0E0E0"/>
<path d="M90.5785 79.9784H87.9446V85.5361H90.5785V79.9784Z" fill="#FAFAFA"/>
<path d="M97.3664 87.7192C97.3664 87.7772 93.8824 87.8223 89.5805 87.8223C85.2786 87.8223 81.7881 87.7772 81.7881 87.7192C81.7881 87.6613 85.2721 87.6097 89.5676 87.6097C93.8631 87.6097 97.3664 87.6613 97.3664 87.7192Z" fill="#E0E0E0"/>
<path d="M90.5785 91.1775H87.9446V96.7352H90.5785V91.1775Z" fill="#FAFAFA"/>
<path d="M97.3664 98.9184C97.3664 98.9764 93.8824 99.0214 89.5805 99.0214C85.2786 99.0214 81.7881 98.9764 81.7881 98.9184C81.7881 98.8604 85.2721 98.8089 89.5676 98.8089C93.8631 98.8089 97.3664 98.8604 97.3664 98.9184Z" fill="#E0E0E0"/>
<path d="M90.5785 102.383H87.9446V107.941H90.5785V102.383Z" fill="#FAFAFA"/>
<path d="M97.3664 110.124C97.3664 110.182 93.8824 110.233 89.5805 110.233C85.2786 110.233 81.7881 110.176 81.7881 110.124C81.7881 110.072 85.2721 110.021 89.5676 110.021C93.8631 110.021 97.3664 110.06 97.3664 110.124Z" fill="#E0E0E0"/>
<path d="M90.5785 113.582H87.9446V119.14H90.5785V113.582Z" fill="#FAFAFA"/>
<path d="M97.3665 121.317C97.3665 121.375 93.8825 121.426 89.5806 121.426C85.2786 121.426 81.801 121.375 81.801 121.317C81.801 121.259 85.2851 121.214 89.5806 121.214C93.876 121.214 97.3665 121.259 97.3665 121.317Z" fill="#E0E0E0"/>
<path d="M90.5785 124.781H87.9446V130.339H90.5785V124.781Z" fill="#FAFAFA"/>
<path d="M226.946 74.2725H195.815V172.94H226.946V74.2725Z" fill="#F5F5F5"/>
<path d="M226.952 74.2725H211.387V172.669H226.952V74.2725Z" fill="#EBEBEB"/>
<path d="M210.369 64.5868H199.376V74.2725H210.369V64.5868Z" fill="#F5F5F5"/>
<path d="M210.369 64.5868H207.748V74.2725H210.369V64.5868Z" fill="#EBEBEB"/>
<path d="M193.226 74.2725V73.7058H227.86V74.2725" fill="#E0E0E0"/>
<path d="M204.599 78.4972H201.965V84.0549H204.599V78.4972Z" fill="#FAFAFA"/>
<path d="M211.387 86.238C211.387 86.296 207.903 86.3411 203.601 86.3411C199.299 86.3411 195.815 86.296 195.815 86.238C195.815 86.1801 199.305 86.1286 203.601 86.1286C207.896 86.1286 211.387 86.1801 211.387 86.238Z" fill="#E0E0E0"/>
<path d="M220.299 78.4972H217.666V84.0549H220.299V78.4972Z" fill="#E0E0E0"/>
<path d="M227.087 86.238C227.087 86.296 223.603 86.3411 219.301 86.3411C215 86.3411 211.522 86.296 211.522 86.238C211.522 86.1801 215.006 86.1286 219.301 86.1286C223.597 86.1286 227.087 86.1801 227.087 86.238Z" fill="#E0E0E0"/>
<path d="M220.299 89.5289H217.666V95.0866H220.299V89.5289Z" fill="#E0E0E0"/>
<path d="M227.087 97.244C227.087 97.302 223.603 97.347 219.301 97.347C215 97.347 211.522 97.302 211.522 97.244C211.522 97.186 215.006 97.1345 219.301 97.1345C223.597 97.1345 227.087 97.244 227.087 97.244Z" fill="#E0E0E0"/>
<path d="M220.299 100.895H217.666V106.453H220.299V100.895Z" fill="#E0E0E0"/>
<path d="M227.087 108.636C227.087 108.694 223.603 108.739 219.301 108.739C215 108.739 211.522 108.694 211.522 108.636C211.522 108.578 215.006 108.527 219.301 108.527C223.597 108.527 227.087 108.578 227.087 108.636Z" fill="#E0E0E0"/>
<path d="M220.299 112.262H217.666V117.82H220.299V112.262Z" fill="#E0E0E0"/>
<path d="M227.087 119.997C227.087 120.061 223.603 120.106 219.301 120.106C215 120.106 211.522 120.061 211.522 119.997C211.522 119.932 215.006 119.893 219.301 119.893C223.597 119.893 227.087 119.939 227.087 119.997Z" fill="#E0E0E0"/>
<path d="M220.299 123.3H217.666V128.858H220.299V123.3Z" fill="#E0E0E0"/>
<path d="M227.087 131.041C227.087 131.099 223.603 131.144 219.301 131.144C215 131.144 211.522 131.099 211.522 131.041C211.522 130.983 215.006 130.932 219.301 130.932C223.597 130.932 227.087 130.983 227.087 131.041Z" fill="#E0E0E0"/>
<path d="M220.299 134.383H217.666V139.941H220.299V134.383Z" fill="#E0E0E0"/>
<path d="M220.299 145.615H217.666V151.173H220.299V145.615Z" fill="#E0E0E0"/>
<path d="M227.087 142.124C227.087 142.182 223.603 142.227 219.301 142.227C215 142.227 211.522 142.182 211.522 142.124C211.522 142.066 215.006 142.021 219.301 142.021C223.597 142.021 227.087 142.066 227.087 142.124Z" fill="#E0E0E0"/>
<path d="M204.599 89.6963H201.965V95.254H204.599V89.6963Z" fill="#FAFAFA"/>
<path d="M211.387 97.4372C211.387 97.4952 207.903 97.5402 203.601 97.5402C199.299 97.5402 195.815 97.4952 195.815 97.4372C195.815 97.3792 199.305 97.3342 203.601 97.3342C207.896 97.3342 211.387 97.3792 211.387 97.4372Z" fill="#E0E0E0"/>
<path d="M204.599 100.902H201.965V106.46H204.599V100.902Z" fill="#FAFAFA"/>
<path d="M211.387 108.636C211.387 108.694 207.903 108.746 203.601 108.746C199.299 108.746 195.815 108.694 195.815 108.636C195.815 108.578 199.305 108.533 203.601 108.533C207.896 108.533 211.387 108.578 211.387 108.636Z" fill="#E0E0E0"/>
<path d="M204.599 112.101H201.965V117.659H204.599V112.101Z" fill="#FAFAFA"/>
<path d="M211.387 119.836C211.387 119.9 207.903 119.945 203.601 119.945C199.299 119.945 195.815 119.9 195.815 119.836C195.815 119.771 199.305 119.732 203.601 119.732C207.896 119.732 211.387 119.784 211.387 119.836Z" fill="#E0E0E0"/>
<path d="M204.599 123.3H201.965V128.858H204.599V123.3Z" fill="#FAFAFA"/>
<path d="M211.387 131.041C211.387 131.099 207.903 131.144 203.601 131.144C199.299 131.144 195.815 131.099 195.815 131.041C195.815 130.983 199.305 130.932 203.601 130.932C207.896 130.932 211.387 130.983 211.387 131.041Z" fill="#E0E0E0"/>
<path d="M204.599 134.506H201.965V140.064H204.599V134.506Z" fill="#FAFAFA"/>
<path d="M211.387 142.24C211.387 142.298 207.903 142.343 203.601 142.343C199.299 142.343 195.815 142.298 195.815 142.24C195.815 142.182 199.305 142.137 203.601 142.137C207.896 142.137 211.387 142.182 211.387 142.24Z" fill="#E0E0E0"/>
<path d="M204.599 145.705H201.965V151.263H204.599V145.705Z" fill="#FAFAFA"/>
<path d="M265.824 112.558H215.412V179.045H265.824V112.558Z" fill="#EBEBEB"/>
<path d="M265.817 112.558H242.183V179.045H265.817V112.558Z" fill="#E0E0E0"/>
<path d="M230.513 121.561H225.98V132.574H230.513V121.561Z" fill="#F5F5F5"/>
<path d="M230.513 164.658H225.98V175.67H230.513V164.658Z" fill="#F5F5F5"/>
<path d="M242.183 136.895C242.183 137.017 236.194 137.114 228.8 137.114C221.407 137.114 215.412 137.017 215.412 136.895C215.412 136.773 221.401 136.67 228.8 136.67C236.2 136.67 242.183 136.766 242.183 136.895Z" fill="#F5F5F5"/>
<path d="M230.513 143.271H225.98V154.283H230.513V143.271Z" fill="#F5F5F5"/>
<path d="M242.183 158.604C242.183 158.727 236.194 158.83 228.8 158.83C221.407 158.83 215.412 158.727 215.412 158.604C215.412 158.482 221.401 158.379 228.8 158.379C236.2 158.379 242.183 158.482 242.183 158.604Z" fill="#F5F5F5"/>
<path d="M251.74 121.561H247.206V132.574H251.74V121.561Z" fill="#F5F5F5"/>
<path d="M261.574 121.561H257.04V132.574H261.574V121.561Z" fill="#F5F5F5"/>
<path d="M251.74 142.453H247.206V153.465H251.74V142.453Z" fill="#F5F5F5"/>
<path d="M261.574 142.453H257.04V153.465H261.574V142.453Z" fill="#F5F5F5"/>
<path d="M251.74 163.351H247.206V174.363H251.74V163.351Z" fill="#F5F5F5"/>
<path d="M261.574 163.351H257.04V174.363H261.574V163.351Z" fill="#F5F5F5"/>
<path d="M269.611 110.24H211.618V112.636H269.611V110.24Z" fill="#E0E0E0"/>
<path d="M266.172 112.867C266.172 112.99 254.908 113.086 241.011 113.086C227.113 113.086 215.843 112.99 215.843 112.867C215.843 112.745 227.113 112.642 241.011 112.642C254.908 112.642 266.172 112.739 266.172 112.867Z" fill="#EBEBEB"/>
<path d="M101.385 180.372H55.5707L55.3711 107.967H101.185L101.385 180.372Z" fill="#EBEBEB"/>
<path d="M101.185 107.967H78.2783V180.372H101.185V107.967Z" fill="#E0E0E0"/>
<path d="M76.7776 93.7149H60.6003V107.967H76.7776V93.7149Z" fill="#EBEBEB"/>
<path d="M76.7777 93.7149H72.9202V107.967H76.7777V93.7149Z" fill="#E0E0E0"/>
<path d="M102.525 107.136H51.5522V107.967H102.525V107.136Z" fill="#E0E0E0"/>
<path d="M68.2897 114.188H64.4128V122.366H68.2897V114.188Z" fill="white"/>
<path d="M78.2782 125.58C78.2782 125.664 73.1262 125.735 66.8215 125.735C60.5167 125.735 55.384 125.657 55.384 125.58C55.384 125.503 60.536 125.425 66.8343 125.425C73.1327 125.425 78.2782 125.483 78.2782 125.58Z" fill="#E0E0E0"/>
<path d="M91.3967 114.188H87.5198V122.366H91.3967V114.188Z" fill="#F5F5F5"/>
<path d="M101.385 125.58C101.385 125.664 96.2329 125.735 89.9281 125.735C83.6233 125.735 78.4778 125.664 78.4778 125.58C78.4778 125.496 83.6298 125.425 89.9281 125.425C96.2264 125.425 101.385 125.483 101.385 125.58Z" fill="#EBEBEB"/>
<path d="M91.3967 130.423H87.5198V138.602H91.3967V130.423Z" fill="#F5F5F5"/>
<path d="M101.385 141.809C101.385 141.893 96.2329 141.963 89.9281 141.963C83.6233 141.963 78.4778 141.893 78.4778 141.809C78.4778 141.725 83.6298 141.648 89.9281 141.648C96.2264 141.648 101.385 141.719 101.385 141.809Z" fill="#EBEBEB"/>
<path d="M91.3967 147.148H87.5198V155.326H91.3967V147.148Z" fill="#F5F5F5"/>
<path d="M101.385 158.533C101.385 158.617 96.2329 158.688 89.9281 158.688C83.6233 158.688 78.4778 158.617 78.4778 158.533C78.4778 158.45 83.6298 158.372 89.9281 158.372C96.2264 158.372 101.385 158.424 101.385 158.533Z" fill="#EBEBEB"/>
<path d="M91.3967 163.866H87.5198V172.045H91.3967V163.866Z" fill="#F5F5F5"/>
<path d="M101.385 175.258C101.385 175.342 96.2329 175.413 89.9281 175.413C83.6233 175.413 78.4778 175.342 78.4778 175.258C78.4778 175.174 83.6298 175.097 89.9281 175.097C96.2264 175.097 101.385 175.168 101.385 175.258Z" fill="#EBEBEB"/>
<path d="M68.2897 130.668H64.4128V138.846H68.2897V130.668Z" fill="white"/>
<path d="M78.2782 142.054C78.2782 142.144 73.1262 142.208 66.8215 142.208C60.5167 142.208 55.384 142.144 55.384 142.054C55.384 141.963 60.536 141.899 66.8343 141.899C73.1327 141.899 78.2782 141.97 78.2782 142.054Z" fill="#E0E0E0"/>
<path d="M68.2897 147.148H64.4128V155.326H68.2897V147.148Z" fill="white"/>
<path d="M78.2782 158.533C78.2782 158.624 73.1262 158.694 66.8215 158.694C60.5167 158.694 55.384 158.624 55.384 158.533C55.384 158.443 60.536 158.379 66.8343 158.379C73.1327 158.379 78.2782 158.424 78.2782 158.533Z" fill="#E0E0E0"/>
<path d="M68.2897 163.634H64.4128V171.813H68.2897V163.634Z" fill="white"/>
<path d="M78.2782 175.02C78.2782 175.104 73.1262 175.174 66.8215 175.174C60.5167 175.174 55.384 175.104 55.384 175.02C55.384 174.936 60.536 174.865 66.8343 174.865C73.1327 174.865 78.2782 174.93 78.2782 175.02Z" fill="#E0E0E0"/>
<path d="M282.819 93.3349C283.064 91.5703 280.578 90.1149 278.71 89.9732C277.818 90.009 276.924 89.9333 276.051 89.7478C274.228 89.1038 273.475 86.7468 271.717 85.9998C270.383 85.433 268.851 85.9354 267.556 86.5858C266.262 87.2362 264.98 88.0541 263.544 88.1443C262.256 88.228 260.923 87.7579 259.828 88.3761C259.01 88.8334 258.579 89.7736 257.825 90.3081C257.04 90.7895 256.132 91.0353 255.211 91.0165C254.292 90.9909 253.376 91.1395 252.512 91.4544C252.083 91.6201 251.719 91.9206 251.475 92.3108C251.232 92.701 251.121 93.1598 251.16 93.6183L282.819 93.3349Z" fill="#F5F5F5"/>
<path d="M205.314 43.148C205.694 40.3981 201.804 38.1312 198.874 37.893C197.483 37.7835 196.033 37.996 194.72 37.5388C191.86 36.5406 190.714 32.844 187.926 31.6655C185.839 30.7896 183.418 31.5689 181.415 32.5864C179.412 33.6039 177.396 34.8855 175.136 35.0336C173.204 35.156 171.033 34.4282 169.34 35.3878C168.052 36.1026 167.408 37.5838 166.21 38.4532C165.012 39.3226 163.544 39.4836 162.114 39.5609C160.684 39.6382 159.197 39.6575 157.889 40.25C156.582 40.8425 155.507 42.2335 155.777 43.6374L205.314 43.148Z" fill="#EBEBEB"/>
<path d="M72.9009 81.2728C73.2035 79.0768 70.1059 77.2671 67.7489 77.0804C66.6412 76.9902 65.4884 77.1641 64.4323 76.797C62.1525 75.9984 61.2123 73.0554 59.0227 72.1151C57.3547 71.4132 55.442 72.0378 53.832 72.8493C52.222 73.6607 50.612 74.6847 48.8217 74.7813C47.2568 74.8779 45.5566 74.2983 44.1849 75.0646C43.1609 75.6314 42.6264 76.8099 41.6862 77.5054C40.7076 78.1126 39.5723 78.4193 38.4211 78.3877C37.2738 78.3623 36.1317 78.5501 35.053 78.9415C34.0161 79.4181 33.1532 80.5193 33.3721 81.6399L72.9009 81.2728Z" fill="#F5F5F5"/>
<path d="M50.1225 129.708C47.6205 129.768 45.1824 130.51 43.0707 131.853C40.959 133.197 39.2539 135.091 38.1389 137.331C37.0238 139.572 36.5412 142.074 36.743 144.569C36.9448 147.064 37.8234 149.456 39.284 151.488V151.488L39.4128 151.675L49.1565 164.922C49.3554 165.192 49.6162 165.41 49.9169 165.558C50.2177 165.706 50.5496 165.78 50.8847 165.773C51.2198 165.766 51.5484 165.678 51.8428 165.518C52.1371 165.358 52.3886 165.129 52.5762 164.851L61.3797 151.759C63.0412 149.221 64.1875 146.562 64.1875 143.432C64.1837 141.602 63.8147 139.791 63.1023 138.105C62.3898 136.419 61.3482 134.893 60.0383 133.615C58.7285 132.337 57.1768 131.333 55.4742 130.662C53.7715 129.991 51.9521 129.667 50.1225 129.708V129.708ZM50.451 153.465C48.4054 153.465 46.4057 152.859 44.7049 151.722C43.0041 150.586 41.6784 148.97 40.8956 147.081C40.1128 145.191 39.908 143.111 40.3071 141.105C40.7061 139.099 41.6912 137.256 43.1376 135.809C44.5841 134.363 46.4269 133.378 48.4332 132.979C50.4395 132.58 52.5191 132.784 54.4089 133.567C56.2988 134.35 57.9141 135.676 59.0506 137.376C60.187 139.077 60.7936 141.077 60.7936 143.123C60.7936 145.866 59.7039 148.496 57.7643 150.436C55.8247 152.376 53.194 153.465 50.451 153.465V153.465Z" fill="#FF6F03"/>
<g opacity="0.3">
<path opacity="0.3" d="M50.1225 129.708C47.6205 129.768 45.1824 130.51 43.0707 131.853C40.959 133.197 39.2539 135.091 38.1389 137.331C37.0238 139.572 36.5412 142.074 36.743 144.569C36.9448 147.064 37.8234 149.456 39.284 151.488V151.488L39.4128 151.675L49.1565 164.922C49.3554 165.192 49.6162 165.41 49.9169 165.558C50.2177 165.706 50.5496 165.78 50.8847 165.773C51.2198 165.766 51.5484 165.678 51.8428 165.518C52.1371 165.358 52.3886 165.129 52.5762 164.851L61.3797 151.759C63.0412 149.221 64.1875 146.562 64.1875 143.432C64.1837 141.602 63.8147 139.791 63.1023 138.105C62.3898 136.419 61.3482 134.893 60.0383 133.615C58.7285 132.337 57.1768 131.333 55.4742 130.662C53.7715 129.991 51.9521 129.667 50.1225 129.708V129.708ZM50.451 153.465C48.4054 153.465 46.4057 152.859 44.7049 151.722C43.0041 150.586 41.6784 148.97 40.8956 147.081C40.1128 145.191 39.908 143.111 40.3071 141.105C40.7061 139.099 41.6912 137.256 43.1376 135.809C44.5841 134.363 46.4269 133.378 48.4332 132.979C50.4395 132.58 52.5191 132.784 54.4089 133.567C56.2988 134.35 57.9141 135.676 59.0506 137.376C60.187 139.077 60.7936 141.077 60.7936 143.123C60.7936 145.866 59.7039 148.496 57.7643 150.436C55.8247 152.376 53.194 153.465 50.451 153.465V153.465Z" fill="black"/>
</g>
<path d="M49.3111 129.708C45.7818 129.802 42.4229 131.245 39.9253 133.741C37.4276 136.236 35.9813 139.593 35.8837 143.123C35.7986 146.121 36.7039 149.063 38.4597 151.495V151.495L38.5949 151.681L48.3322 164.928C48.5298 165.204 48.7914 165.427 49.0944 165.579C49.3975 165.731 49.7329 165.807 50.0718 165.801C50.4107 165.794 50.7431 165.706 51.0402 165.543C51.3373 165.38 51.5904 165.147 51.7776 164.864L60.5811 151.771C62.249 149.234 63.3889 146.574 63.3889 143.445C63.3868 141.612 63.0188 139.799 62.3063 138.111C61.5938 136.423 60.5512 134.894 59.2398 133.615C57.9285 132.335 56.3747 131.33 54.6697 130.659C52.9646 129.989 51.1428 129.665 49.3111 129.708ZM49.6331 151.604C48.0845 151.603 46.5711 151.142 45.2841 150.281C43.9972 149.42 42.9945 148.196 42.4027 146.765C41.811 145.334 41.6568 143.76 41.9597 142.241C42.2626 140.723 43.009 139.328 44.1044 138.233C45.1999 137.139 46.5952 136.394 48.1141 136.092C49.633 135.79 51.2072 135.946 52.6378 136.539C54.0684 137.132 55.291 138.135 56.1512 139.423C57.0114 140.711 57.4705 142.224 57.4705 143.773C57.4697 144.801 57.2663 145.82 56.872 146.769C56.4777 147.719 55.9001 148.582 55.1723 149.308C54.4446 150.035 53.5808 150.611 52.6304 151.004C51.6799 151.397 50.6615 151.598 49.6331 151.598V151.604Z" fill="#FF6F03"/>
<path d="M265.882 116.667C263.973 116.709 262.111 117.272 260.498 118.294C258.886 119.317 257.583 120.76 256.73 122.469C255.878 124.178 255.509 126.087 255.662 127.99C255.815 129.894 256.485 131.719 257.6 133.269V133.269L257.703 133.411L265.128 143.503C265.28 143.703 265.477 143.865 265.703 143.975C265.929 144.085 266.178 144.139 266.429 144.134C266.681 144.129 266.927 144.065 267.149 143.946C267.371 143.827 267.561 143.658 267.704 143.451L274.415 133.475C275.75 131.624 276.497 129.414 276.559 127.132C276.556 125.741 276.276 124.364 275.736 123.082C275.195 121.8 274.405 120.638 273.412 119.664C272.418 118.69 271.241 117.923 269.948 117.409C268.655 116.894 267.273 116.642 265.882 116.667V116.667ZM266.133 134.776C264.575 134.776 263.052 134.315 261.756 133.45C260.461 132.585 259.45 131.355 258.853 129.916C258.256 128.477 258.098 126.894 258.4 125.365C258.702 123.837 259.45 122.432 260.55 121.329C261.65 120.226 263.052 119.473 264.579 119.166C266.107 118.859 267.691 119.011 269.132 119.604C270.572 120.197 271.805 121.203 272.675 122.496C273.544 123.789 274.01 125.31 274.015 126.868C274.019 127.905 273.817 128.933 273.423 129.892C273.028 130.852 272.448 131.724 271.716 132.458C270.984 133.193 270.113 133.776 269.155 134.174C268.197 134.572 267.17 134.776 266.133 134.776V134.776Z" fill="#FF6F03"/>
<g opacity="0.3">
<path opacity="0.3" d="M265.882 116.667C263.973 116.709 262.111 117.272 260.498 118.294C258.886 119.317 257.583 120.76 256.73 122.469C255.878 124.178 255.509 126.087 255.662 127.99C255.815 129.894 256.485 131.719 257.6 133.269V133.269L257.703 133.411L265.128 143.503C265.28 143.703 265.477 143.865 265.703 143.975C265.929 144.085 266.178 144.139 266.429 144.134C266.681 144.129 266.927 144.065 267.149 143.946C267.371 143.827 267.561 143.658 267.704 143.451L274.415 133.475C275.75 131.624 276.497 129.414 276.559 127.132C276.556 125.741 276.276 124.364 275.736 123.082C275.195 121.8 274.405 120.638 273.412 119.664C272.418 118.69 271.241 117.923 269.948 117.409C268.655 116.894 267.273 116.642 265.882 116.667V116.667ZM266.133 134.776C264.575 134.776 263.052 134.315 261.756 133.45C260.461 132.585 259.45 131.355 258.853 129.916C258.256 128.477 258.098 126.894 258.4 125.365C258.702 123.837 259.45 122.432 260.55 121.329C261.65 120.226 263.052 119.473 264.579 119.166C266.107 118.859 267.691 119.011 269.132 119.604C270.572 120.197 271.805 121.203 272.675 122.496C273.544 123.789 274.01 125.31 274.015 126.868C274.019 127.905 273.817 128.933 273.423 129.892C273.028 130.852 272.448 131.724 271.716 132.458C270.984 133.193 270.113 133.776 269.155 134.174C268.197 134.572 267.17 134.776 266.133 134.776V134.776Z" fill="black"/>
</g>
<path d="M265.264 116.667C263.356 116.712 261.497 117.278 259.887 118.301C258.277 119.325 256.977 120.769 256.127 122.477C255.277 124.185 254.909 126.093 255.063 127.995C255.217 129.897 255.887 131.72 257.001 133.269V133.269L257.098 133.411L264.517 143.503C264.668 143.708 264.867 143.875 265.096 143.988C265.325 144.101 265.578 144.157 265.834 144.152C266.09 144.147 266.34 144.081 266.565 143.959C266.789 143.837 266.981 143.663 267.125 143.451L273.835 133.475C275.169 131.624 275.914 129.413 275.973 127.132C275.971 125.738 275.691 124.358 275.149 123.073C274.607 121.788 273.814 120.625 272.816 119.65C271.819 118.676 270.637 117.91 269.341 117.398C268.044 116.885 266.658 116.637 265.264 116.667V116.667ZM265.508 133.353C264.328 133.353 263.173 133.003 262.192 132.347C261.21 131.691 260.445 130.759 259.993 129.668C259.541 128.577 259.423 127.377 259.653 126.219C259.884 125.06 260.452 123.997 261.287 123.162C262.122 122.327 263.186 121.758 264.344 121.528C265.502 121.298 266.702 121.416 267.793 121.868C268.884 122.32 269.816 123.085 270.472 124.067C271.128 125.048 271.478 126.202 271.478 127.383C271.479 128.167 271.325 128.944 271.026 129.669C270.726 130.393 270.286 131.052 269.732 131.606C269.177 132.161 268.519 132.601 267.794 132.9C267.069 133.2 266.293 133.354 265.508 133.353V133.353Z" fill="#FF6F03"/>
<path d="M57.6444 179.154L11.6499 293.374L97.8879 279.193L161.135 293.374L225.909 279.193L312.533 295.718L266.159 179.154L214.413 166.12L162.095 176.089L108.623 166.12L57.6444 179.154Z" fill="white"/>
<path d="M57.6443 179.154L58.488 178.929L61.006 178.285L70.8721 175.741L108.604 166.081H108.636L162.088 176.018H162.043L214.362 166.036H214.452L266.191 179.032H266.268V179.103L312.636 295.667L312.752 295.95L312.449 295.892L267.891 287.391L225.825 279.367H225.896L161.116 293.535H161.077L97.8364 279.367H97.8879L11.6434 293.535L11.4309 293.567L11.5146 293.368C25.7406 258.102 37.2746 229.547 45.2216 209.809L54.405 187.095L56.7943 181.196C57.3352 179.869 57.6186 179.193 57.6186 179.193C57.6186 179.193 57.3545 179.882 56.82 181.222L54.4501 187.146L45.3504 209.86L11.7658 293.419L11.6305 293.252L97.8879 279.045H97.9459L161.187 293.213H161.122L225.896 279.045H225.928L267.994 287.069L312.552 295.57L312.366 295.796L265.998 179.232L266.101 179.322L214.362 166.274H214.452L162.114 176.198H162.069L108.617 166.204L70.9236 175.812L61.0382 178.317L58.5073 178.961L57.6443 179.154Z" fill="#263238"/>
<path d="M60.3299 182.22L19.7 287.623L97.508 274.975L162.095 289.922L225.909 274.595L305.25 289.922L263.473 182.22L215.18 170.338L162.095 180.307L107.857 170.338L60.3299 182.22Z" fill="white"/>
<path d="M24.2144 275.915L86.0577 261.586L83.7779 248.268L88.917 245.029L80.9186 213.917L56.189 192.955L24.2144 275.915Z" fill="#455A64"/>
<path d="M19.7 287.623L22.7139 279.805L126.411 255.713L132.039 271.214L130.217 274.344L110.742 278.041L97.508 274.975L19.7 287.623Z" fill="#EBEBEB"/>
<path d="M132.039 254.213L136.154 269.546L148.101 274.737L165.089 267.189L200.735 256.808L189.613 240.051L132.039 254.213Z" fill="#EBEBEB"/>
<path d="M90.6235 259.893L109.892 255.713L106.047 243.194L92.0081 246.581L88.2729 249.222L90.6235 259.893Z" fill="#E0E0E0"/>
<path d="M86.6887 218.4L93.6826 241.358L104.618 238.95L102.647 230.133L126.7 224.743L86.6887 218.4Z" fill="#455A64"/>
<path d="M58.0115 188.241L88.273 212.533L128.446 220.151L171.297 209.5L151.739 178.401L107.857 170.338L60.3299 182.22L58.0115 188.241Z" fill="#EBEBEB"/>
<path d="M157.593 179.476L220.415 275.915L225.909 274.595L165.102 179.74L162.095 180.307L157.593 179.476Z" fill="#EBEBEB"/>
<path d="M106.691 232.561L114.651 255.713L185.324 237.655L172.244 215.392L106.691 232.561Z" fill="#E0E0E0"/>
<path d="M146.008 286.2L146.697 285.176L151.34 278.279L162.475 274.737L170.138 268.967L203.349 259.893L213.666 277.532L162.095 289.922" fill="#E0E0E0"/>
<path d="M204.843 172.276L221.484 190.791L263.473 182.22L215.179 170.338L204.843 172.276Z" fill="#E0E0E0"/>
<path d="M272.309 204.998L241.474 213.57L225.909 192.955L264.523 184.938L272.309 204.998Z" fill="#E0E0E0"/>
<path d="M168.399 179.116L200.735 225.561L238.048 214.851L200.735 173.049L168.399 179.116Z" fill="#EBEBEB"/>
<path d="M258.791 280.945L296.098 266.333L305.249 289.922L258.791 280.945Z" fill="#E0E0E0"/>
<path d="M219.771 222.785L240.045 217.498L261.458 243.194L240.618 250.11L219.771 222.785Z" fill="#455A64"/>
<path d="M244.61 215.392L267.17 241.255L284.158 235.549L272.985 206.75L244.61 215.392Z" fill="#E0E0E0"/>
<path d="M261.457 274.911L244.61 251.54L285.33 238.563L293.599 259.893L288.293 265.231L261.457 274.911Z" fill="#455A64"/>
<path d="M202.712 228.974L233.662 275.915L252.725 279.773L256.318 278.131L217.099 224.64L202.712 228.974Z" fill="#E0E0E0"/>
<path d="M75.8696 263.95L68.1609 227.693L40.9712 232.445L24.2144 275.915L75.8696 263.95Z" fill="#E0E0E0"/>
<path d="M100.87 172.083V188.686L106.691 189.42L122.946 208.353L136.921 206.75L143.573 216.39L128.446 220.151L88.273 212.533L58.0115 188.241L60.3299 182.22L100.87 172.083Z" fill="#455A64"/>
<path d="M185.852 175.986L208.682 209.3L228.349 203.987L200.735 173.049L185.852 175.986Z" fill="#E0E0E0"/>
<path d="M252.873 210.401L244.61 197.489L266.944 191.178L272.309 204.998L252.873 210.401Z" fill="#EBEBEB"/>
<path d="M219.771 254.85L230.584 251.108L251.553 279.535L233.663 275.915L219.771 254.85Z" fill="#EBEBEB"/>
<path d="M120.048 280.192L130.101 278.968L133.45 274.067L146.008 278.015L142.723 285.44L120.048 280.192Z" fill="#455A64"/>
<path d="M60.3299 182.252L63.4597 181.447L72.6561 179.129L107.838 170.286H107.87L162.114 180.223H162.069L215.154 170.235H215.212L263.512 182.104H263.583V182.181C276.405 215.096 290.528 251.521 305.404 289.864L305.514 290.148L305.217 290.09L265.412 282.4L225.877 274.756H225.947L162.133 290.083H162.056L97.4758 275.123H97.5338L19.7193 287.746L19.5132 287.778L19.584 287.578C32.1613 255.024 42.343 228.672 49.3755 210.459C52.8981 201.366 55.6287 194.301 57.4834 189.51L59.6022 184.068C60.0787 182.838 60.3299 182.22 60.3299 182.22C60.3299 182.22 60.0916 182.864 59.6215 184.094L57.5349 189.555L49.4785 210.549L19.8159 287.668L19.6806 287.507L97.4823 274.833H97.5402L162.127 289.8H162.056L225.87 274.466H225.909L265.476 282.072L305.256 289.761L305.069 289.987C290.199 251.637 276.089 215.238 263.306 182.278L263.409 182.368L215.109 170.473H215.167L162.075 180.417H162.03L107.806 170.422L72.7076 179.167L63.4919 181.453L60.3299 182.252Z" fill="#263238"/>
<g opacity="0.2">
<path opacity="0.2" d="M161.135 293.374L162.095 176.089L108.623 166.12L97.8879 279.193L161.135 293.374Z" fill="black"/>
</g>
<g opacity="0.2">
<path opacity="0.2" d="M214.413 166.12L225.909 279.193L312.533 295.718L266.159 179.154L214.413 166.12Z" fill="black"/>
</g>
<path d="M162.507 65.102C125.155 65.9714 94.6871 96.4197 93.7984 133.772C93.4052 149.105 98.0545 164.143 107.033 176.578L107.722 177.512L107.818 177.647L157.664 245.448C158.681 246.831 160.016 247.949 161.555 248.708C163.095 249.466 164.795 249.844 166.511 249.808C168.227 249.772 169.91 249.323 171.416 248.501C172.923 247.678 174.21 246.505 175.168 245.081L220.248 178.105C228.774 165.096 234.622 151.507 234.622 135.485C234.622 126.095 232.744 116.8 229.098 108.147C225.452 99.4944 220.112 91.6582 213.393 85.0999C206.673 78.5416 198.709 73.3938 189.97 69.9594C181.231 66.525 171.894 64.8735 162.507 65.102V65.102ZM164.181 186.683C153.712 186.684 143.478 183.581 134.773 177.765C126.068 171.95 119.282 163.684 115.275 154.012C111.268 144.341 110.219 133.698 112.261 123.43C114.302 113.162 119.343 103.73 126.745 96.3272C134.147 88.9241 143.579 83.8824 153.846 81.8395C164.114 79.7967 174.757 80.8445 184.429 84.8505C194.101 88.8564 202.368 95.6407 208.184 104.345C214.001 113.05 217.105 123.283 217.105 133.752C217.105 147.789 211.529 161.251 201.604 171.177C191.679 181.104 178.218 186.681 164.181 186.683V186.683Z" fill="#FF6F03"/>
<g opacity="0.3">
<path opacity="0.3" d="M162.507 65.102C125.155 65.9714 94.6871 96.4197 93.7984 133.772C93.4052 149.105 98.0545 164.143 107.033 176.578L107.722 177.512L107.818 177.647L157.664 245.448C158.681 246.831 160.016 247.949 161.555 248.708C163.095 249.466 164.795 249.844 166.511 249.808C168.227 249.772 169.91 249.323 171.416 248.501C172.923 247.678 174.21 246.505 175.168 245.081L220.248 178.105C228.774 165.096 234.622 151.507 234.622 135.485C234.622 126.095 232.744 116.8 229.098 108.147C225.452 99.4944 220.112 91.6582 213.393 85.0999C206.673 78.5416 198.709 73.3938 189.97 69.9594C181.231 66.525 171.894 64.8735 162.507 65.102V65.102ZM164.181 186.683C153.712 186.684 143.478 183.581 134.773 177.765C126.068 171.95 119.282 163.684 115.275 154.012C111.268 144.341 110.219 133.698 112.261 123.43C114.302 113.162 119.343 103.73 126.745 96.3272C134.147 88.9241 143.579 83.8824 153.846 81.8395C164.114 79.7967 174.757 80.8445 184.429 84.8505C194.101 88.8564 202.368 95.6407 208.184 104.345C214.001 113.05 217.105 123.283 217.105 133.752C217.105 147.789 211.529 161.251 201.604 171.177C191.679 181.104 178.218 186.681 164.181 186.683V186.683Z" fill="black"/>
</g>
<path d="M158.334 65.102C120.982 65.9714 90.5141 96.4197 89.6253 133.772C89.2321 149.105 93.8814 164.143 102.86 176.578V176.578L103.549 177.512L103.645 177.647L153.491 245.448C154.508 246.831 155.842 247.949 157.382 248.708C158.922 249.466 160.622 249.844 162.338 249.808C164.054 249.772 165.737 249.323 167.243 248.501C168.75 247.678 170.037 246.505 170.995 245.081L216.075 178.105C224.601 165.096 230.449 151.507 230.449 135.485C230.449 126.095 228.571 116.8 224.925 108.147C221.279 99.4944 215.939 91.6582 209.22 85.0999C202.5 78.5416 194.536 73.3938 185.797 69.9594C177.058 66.525 167.721 64.8735 158.334 65.102V65.102ZM160.008 186.683C149.539 186.684 139.305 183.581 130.6 177.765C121.895 171.95 115.109 163.684 111.102 154.012C107.095 144.341 106.046 133.698 108.088 123.43C110.129 113.162 115.17 103.73 122.572 96.3272C129.974 88.9241 139.405 83.8824 149.673 81.8395C159.941 79.7967 170.584 80.8445 180.256 84.8505C189.928 88.8564 198.195 95.6407 204.011 104.345C209.828 113.05 212.932 123.283 212.932 133.752C212.932 147.789 207.356 161.251 197.431 171.177C187.506 181.104 174.045 186.681 160.008 186.683V186.683Z" fill="#FF6F03"/>
<g opacity="0.3">
<path opacity="0.3" d="M190.457 173.674C189.606 174.633 133.636 189.413 132.793 190.373C143.522 193.644 156.621 196.491 167.839 195.84C174.157 195.48 180.719 194.353 185.742 190.463C190.766 186.573 193.496 179.225 190.457 173.674Z" fill="black"/>
</g>
<path d="M137.004 66.8601C135.389 68.5771 134.213 70.6591 133.576 72.9286C132.94 75.1982 132.861 77.588 133.347 79.8946C133.836 82.1229 134.815 84.6087 133.591 86.5343C132.368 88.4598 129.521 88.7883 128.381 90.7396C127.029 93.0258 128.832 95.8916 128.607 98.5577C128.461 99.8009 127.877 100.952 126.96 101.804C126.044 102.656 124.853 103.153 123.603 103.207C126.83 105.161 130.534 106.186 134.306 106.17C135.079 104.83 135.85 103.491 136.618 102.151C135.729 103.575 136.296 105.552 137.513 106.704C138.73 107.857 140.431 108.34 142.086 108.636C146.056 109.274 150.12 108.985 153.96 107.79C157.8 106.596 161.312 104.529 164.22 101.752" fill="#263238"/>
<path d="M182.162 80.8349C181.357 79.1862 180.185 77.7179 179.586 75.992C178.233 72.289 179.489 67.723 177.151 64.5481C175.49 62.2812 172.515 61.4762 169.739 61.0319C166.963 60.5875 164.02 60.2913 161.766 58.6233C160.111 57.3933 159.01 55.5386 157.361 54.3085C155.011 52.5504 151.861 52.2864 148.938 52.5118C146.014 52.7372 142.871 53.452 140.392 55.1586C137.912 56.8652 136.019 59.628 135.955 62.6419C135.922 64.1102 136.309 65.5914 136.051 67.034C135.768 68.6246 134.763 69.977 134.203 71.4969C133.676 73.1283 133.706 74.8888 134.289 76.5012C134.872 78.1136 135.974 79.4864 137.423 80.4034L161.573 103.954C166.081 104.972 176.23 101.552 179.103 97.9138C181.975 94.2752 184.184 85.008 182.162 80.8349Z" fill="#263238"/>
<path d="M137.449 76.9709C137.449 70.8593 141.023 63.1313 147.109 63.3953L166.364 66.9953C167.26 67.0348 168.108 67.4086 168.741 68.043C169.374 68.6773 169.746 69.526 169.784 70.4214L170.621 116.248H170.75C170.75 116.248 167.272 129.412 154.495 126.288C151.958 125.644 150.631 123.03 149.987 120.267H149.865C149.833 119.932 149.814 119.623 149.788 119.307C149.406 117.242 149.245 115.141 149.305 113.041V113.041C149.028 109.351 148.938 107.838 148.938 107.889C148.938 107.941 141.074 107.091 138.827 97.0379C137.713 92.092 137.449 83.7651 137.449 76.9709Z" fill="#FFBE9D"/>
<path d="M155.088 83.237C155.095 83.4062 155.134 83.5724 155.205 83.7261C155.276 83.8799 155.377 84.0181 155.501 84.133C155.626 84.2478 155.772 84.337 155.93 84.3954C156.089 84.4539 156.258 84.4804 156.427 84.4735C156.595 84.4787 156.762 84.45 156.919 84.3891C157.075 84.3283 157.218 84.2365 157.338 84.1193C157.459 84.002 157.554 83.8618 157.619 83.7069C157.683 83.552 157.716 83.3856 157.715 83.2177C157.709 83.0485 157.669 82.8823 157.598 82.7285C157.527 82.5748 157.426 82.4365 157.302 82.3217C157.178 82.2069 157.032 82.1177 156.873 82.0592C156.714 82.0008 156.545 81.9743 156.376 81.9812C156.208 81.976 156.041 82.0047 155.884 82.0656C155.728 82.1264 155.585 82.2182 155.465 82.3354C155.345 82.4526 155.249 82.5929 155.185 82.7478C155.12 82.9027 155.087 83.0691 155.088 83.237Z" fill="#263238"/>
<path d="M141.789 84.2545C141.796 84.4237 141.836 84.5899 141.907 84.7437C141.978 84.8974 142.078 85.0356 142.203 85.1505C142.327 85.2653 142.473 85.3545 142.632 85.413C142.791 85.4714 142.96 85.4979 143.129 85.491C143.299 85.4964 143.469 85.4667 143.628 85.4039C143.787 85.3411 143.931 85.2464 144.051 85.1257C144.172 85.005 144.267 84.8609 144.33 84.7022C144.392 84.5435 144.422 84.3736 144.417 84.203C144.402 83.8624 144.252 83.5417 144.001 83.3112C143.75 83.0806 143.418 82.959 143.077 82.973C142.907 82.9667 142.737 82.9955 142.579 83.0576C142.42 83.1197 142.276 83.2138 142.155 83.334C142.034 83.4541 141.939 83.5979 141.876 83.7563C141.813 83.9146 141.784 84.0842 141.789 84.2545V84.2545Z" fill="#263238"/>
<path d="M138.994 81.3758C139.168 81.5884 140.282 80.6674 141.796 80.6739C143.309 80.6803 144.43 81.5755 144.604 81.3565C144.687 81.2599 144.513 80.8735 144.03 80.4549C143.399 79.9295 142.604 79.6403 141.783 79.637C140.961 79.6519 140.172 79.9577 139.555 80.5C139.104 80.8864 138.911 81.2792 138.994 81.3758Z" fill="#263238"/>
<path d="M153.15 81.0281C153.356 81.2213 154.438 80.1973 156.041 80.0428C157.645 79.8882 158.933 80.6352 159.087 80.4098C159.165 80.3068 158.946 79.9397 158.385 79.5855C157.645 79.1382 156.779 78.9459 155.919 79.0381C155.063 79.1246 154.261 79.494 153.639 80.0878C153.182 80.5451 153.047 80.9444 153.15 81.0281Z" fill="#263238"/>
<path d="M148.873 91.2741C148.118 91.0928 147.344 91.0041 146.568 91.0101C146.214 91.0101 145.866 90.9457 145.795 90.701C145.738 90.3338 145.797 89.958 145.963 89.6255C146.246 88.7432 146.542 87.8094 146.851 86.837C148.081 82.8635 148.944 79.6113 148.783 79.5598C148.622 79.5082 147.495 82.696 146.272 86.6438C145.975 87.6226 145.698 88.5758 145.428 89.4516C145.229 89.8975 145.195 90.3996 145.331 90.8684C145.394 90.9933 145.485 91.1019 145.596 91.1858C145.708 91.2696 145.838 91.3263 145.975 91.3514C146.187 91.3955 146.404 91.4106 146.619 91.3965C147.373 91.4513 148.13 91.4102 148.873 91.2741V91.2741Z" fill="#263238"/>
<path d="M148.944 107.915C153.72 107.684 158.339 106.135 162.288 103.439C162.288 103.439 159.428 110.62 149.202 110.304L148.944 107.915Z" fill="#EB996E"/>
<path d="M149.678 94.6165C149.923 94.2641 150.254 93.98 150.64 93.7907C151.025 93.6015 151.452 93.5133 151.881 93.5345C152.192 93.5451 152.497 93.6171 152.78 93.7465C153.063 93.8758 153.318 94.0598 153.529 94.288C153.731 94.5108 153.86 94.7903 153.898 95.0886C153.936 95.3869 153.882 95.6897 153.742 95.956C153.532 96.2211 153.247 96.4177 152.925 96.5209C152.603 96.6241 152.257 96.6292 151.932 96.5356C151.257 96.3416 150.626 96.0154 150.078 95.576C149.911 95.477 149.767 95.3456 149.652 95.1896C149.599 95.113 149.571 95.022 149.571 94.9288C149.571 94.8356 149.599 94.7446 149.652 94.668" fill="#FF6F03"/>
<path d="M153.059 91.989C152.827 91.989 152.918 93.5088 151.688 94.668C150.458 95.8272 148.822 95.7628 148.822 95.956C148.822 96.0526 149.202 96.2265 149.891 96.2007C150.782 96.1556 151.63 95.8002 152.286 95.1961C152.911 94.6117 153.287 93.8091 153.336 92.955C153.356 92.3367 153.162 91.9696 153.059 91.989Z" fill="#263238"/>
<path d="M152.628 76.2882C152.795 76.6618 154.18 76.3913 155.848 76.4879C157.516 76.5845 158.862 76.9451 159.068 76.5909C159.152 76.4235 158.901 76.0757 158.34 75.7408C157.596 75.3359 156.769 75.1047 155.923 75.0645C155.076 75.0244 154.232 75.1763 153.452 75.509C152.834 75.7924 152.551 76.1079 152.628 76.2882Z" fill="#263238"/>
<path d="M139.786 77.0804C140.083 77.383 141.165 76.9838 142.491 76.8807C143.818 76.7777 144.958 76.9451 145.196 76.5909C145.299 76.4235 145.099 76.1144 144.591 75.8439C143.895 75.5144 143.122 75.383 142.356 75.4639C141.589 75.519 140.854 75.7866 140.231 76.2367C139.78 76.5974 139.651 76.9322 139.786 77.0804Z" fill="#263238"/>
<path d="M170.66 67.8712C169.533 66.5832 167.762 66.0744 166.087 65.6816C158.858 63.9982 151.453 63.1789 144.03 63.2408C143.335 64.8637 144.456 66.7828 145.962 67.678C147.469 68.5731 149.305 68.7599 151.024 69.1398C152.744 69.5198 154.56 70.2282 155.461 71.7158C156.421 73.3323 156.105 75.4446 156.975 77.1061C158.482 79.9655 162.816 80.3261 164.304 83.2112C165.431 85.3815 164.452 87.9897 164.458 90.4369C164.46 91.6786 164.726 92.9057 165.239 94.0363C165.752 95.167 166.501 96.1752 167.434 96.9937C168.368 97.8122 169.465 98.4222 170.654 98.783C171.842 99.1437 173.093 99.247 174.324 99.0858C173.607 90.379 172.895 81.6742 172.186 72.9716C172.044 71.1942 171.845 69.2429 170.66 67.8712Z" fill="#263238"/>
<path d="M191.107 87.2491C189.568 86.2187 187.713 85.4008 186.921 83.7264C185.774 81.2921 187.397 78.0077 185.755 75.8761C184.261 73.9441 180.732 74.5301 179.315 72.5273C178.207 70.9624 179 69.3073 178.459 67.8905C177.918 66.4737 175.631 65.4497 174.15 65.8361L164.754 84.583C164.465 90.4691 163.788 93.6762 165.488 96.8576C166.422 98.6028 167.556 100.271 168.064 102.177C168.573 104.083 168.412 106.35 166.989 107.722C174.112 107.284 180.204 102.666 185.813 98.2422L191.744 93.5603C192.402 93.1248 192.94 92.5314 193.309 91.8344C194.063 90.16 192.64 88.2795 191.107 87.2491Z" fill="#263238"/>
<path d="M185.768 96.4905C185.536 96.6013 185.292 96.6856 185.04 96.7417C184.314 96.9219 183.563 96.9742 182.819 96.8963C181.634 96.7823 180.499 96.3605 179.528 95.6726C178.237 94.7315 177.324 93.3617 176.952 91.8086C176.72 90.9153 176.67 89.9847 176.804 89.0716C176.994 88.1093 177.31 87.1761 177.744 86.296C178.208 85.3783 178.536 84.3977 178.716 83.3851C178.81 82.8671 178.787 82.3345 178.649 81.8265C178.511 81.3184 178.261 80.8476 177.918 80.4485C177.158 79.6821 175.934 79.637 174.769 79.3472C174.137 79.2197 173.558 78.9056 173.107 78.4456C172.683 77.9408 172.425 77.3182 172.366 76.6618C172.199 75.3738 172.585 74.0858 172.65 72.8815C172.709 72.2701 172.627 71.6534 172.412 71.0783C172.171 70.5185 171.74 70.0622 171.194 69.7903C170.074 69.2042 168.76 69.2686 167.491 69.3395C166.204 69.4721 164.904 69.2795 163.711 68.7792C162.559 68.2718 161.568 67.4589 160.845 66.4286C160.214 65.4243 159.744 64.3268 159.454 63.1764C159.181 62.116 158.799 61.0866 158.314 60.1045C157.813 59.2147 157.128 58.4419 156.305 57.8376C154.938 56.8366 153.288 56.297 151.594 56.297C149.9 56.297 148.25 56.8366 146.883 57.8376C145.935 58.5026 145.113 59.3313 144.455 60.2848C143.907 61.1093 143.457 61.9956 143.116 62.9252C143.12 62.8594 143.133 62.7945 143.155 62.732C143.193 62.6097 143.238 62.4165 143.328 62.1846C143.58 61.4847 143.913 60.8168 144.32 60.1947C144.967 59.1962 145.79 58.3234 146.748 57.6187C148.015 56.6927 149.517 56.1415 151.082 56.028C153.008 55.9139 154.915 56.4566 156.492 57.5672C157.362 58.1956 158.087 59.0038 158.617 59.9371C159.118 60.9385 159.513 61.9897 159.796 63.0734C160.083 64.1818 160.539 65.2395 161.148 66.2096C161.834 67.175 162.768 67.9362 163.853 68.4121C164.988 68.8743 166.221 69.0448 167.44 68.908C168.728 68.8436 170.1 68.7534 171.349 69.4039C171.983 69.7168 172.483 70.247 172.759 70.898C173 71.5296 173.093 72.2083 173.03 72.8815C172.952 74.1695 172.579 75.406 172.734 76.5974C172.783 77.1708 173.008 77.715 173.378 78.1558C173.778 78.5552 174.286 78.8303 174.839 78.948C175.4 79.0961 175.986 79.1669 176.565 79.3215C177.163 79.4526 177.715 79.7417 178.162 80.1587C178.543 80.6003 178.821 81.1216 178.975 81.6842C179.129 82.2469 179.155 82.8368 179.051 83.4109C178.862 84.458 178.519 85.4714 178.034 86.4184C177.6 87.2758 177.284 88.1877 177.093 89.1296C176.959 90.0003 176.999 90.8889 177.209 91.7443C177.565 93.2331 178.431 94.5502 179.657 95.4666C180.592 96.1458 181.684 96.5757 182.831 96.7159C183.816 96.8322 184.813 96.7556 185.768 96.4905V96.4905Z" fill="#455A64"/>
<path d="M193.47 83.0245C193.612 83.1808 193.72 83.3651 193.786 83.5654C193.981 84.1499 193.961 84.7851 193.728 85.3558C193.566 85.7723 193.302 86.1419 192.962 86.4312C192.545 86.7699 192.04 86.9822 191.506 87.043C190.86 87.1216 190.204 87.0207 189.611 86.7515C189.018 86.4823 188.511 86.0551 188.144 85.5168C187.717 84.8961 187.441 84.1836 187.339 83.4366C187.253 82.6341 187.312 81.8226 187.513 81.041C187.855 79.4374 188.666 77.821 188.434 76.0178C188.409 75.5753 188.294 75.1426 188.096 74.7462C187.897 74.3498 187.62 73.9979 187.281 73.7122C186.48 73.2233 185.519 73.064 184.602 73.2679C183.585 73.4888 182.536 73.528 181.505 73.3838C180.957 73.2423 180.466 72.934 180.101 72.5015C179.751 72.0646 179.501 71.5571 179.367 71.0139C179.174 69.9694 179.113 68.9049 179.186 67.8454C179.201 66.854 179.006 65.8707 178.613 64.9603C177.865 63.2264 176.483 61.8441 174.749 61.0963C173.094 60.3879 171.31 60.536 169.707 60.6648C168.19 60.8797 166.649 60.8536 165.141 60.5875C163.901 60.311 162.731 59.7851 161.702 59.0419C160.926 58.4885 160.238 57.8221 159.66 57.0648C159.155 56.4316 158.765 55.7144 158.508 54.9461C158.878 55.654 159.309 56.3284 159.796 56.9618C161.165 58.6628 163.077 59.8425 165.212 60.3042C166.693 60.534 168.2 60.534 169.681 60.3042C171.285 60.1625 173.133 59.9886 174.904 60.7228C176.738 61.4956 178.208 62.94 179.013 64.7606C179.429 65.7215 179.637 66.7596 179.624 67.8068C179.552 68.8318 179.61 69.8619 179.798 70.8722C179.884 71.3533 180.1 71.8016 180.424 72.1675C180.748 72.5334 181.166 72.8028 181.634 72.9459C182.616 73.0768 183.614 73.0376 184.583 72.83C185.602 72.6101 186.666 72.7998 187.546 73.358C187.924 73.6774 188.233 74.0705 188.455 74.5134C188.676 74.9563 188.805 75.4397 188.834 75.934C188.923 76.8493 188.829 77.7733 188.557 78.6517C188.331 79.5018 188.054 80.2939 187.868 81.0796C187.664 81.8213 187.601 82.5944 187.681 83.3594C187.768 84.0516 188.018 84.7134 188.408 85.2914C188.742 85.794 189.205 86.1963 189.75 86.455C190.295 86.7137 190.9 86.8191 191.5 86.7597C191.992 86.7104 192.461 86.5229 192.852 86.2187C193.178 85.9591 193.435 85.6228 193.599 85.2398C193.835 84.7023 193.881 84.1002 193.728 83.5332C193.651 83.3593 193.565 83.1895 193.47 83.0245V83.0245Z" fill="#263238"/>
<path d="M119.784 97.6497C119.664 98.2773 119.761 98.927 120.061 99.4916C120.227 99.8168 120.463 100.101 120.753 100.324C121.043 100.547 121.378 100.702 121.735 100.78C122.209 100.851 122.693 100.788 123.133 100.6C123.574 100.411 123.952 100.103 124.227 99.7105C124.535 99.2495 124.675 98.6975 124.627 98.1456C124.562 97.5367 124.385 96.9451 124.105 96.4004C123.564 95.2605 122.617 94.0691 122.514 92.4913C122.459 91.6928 122.571 90.8915 122.842 90.1386C123.114 89.3857 123.54 88.6977 124.092 88.1185C124.671 87.5061 125.362 87.0099 126.127 86.6566C126.912 86.3102 127.739 86.0698 128.587 85.9418C129.405 85.8168 130.209 85.6163 130.989 85.3429C131.719 85.081 132.332 84.5701 132.722 83.9003C133.053 83.2233 133.189 82.4673 133.115 81.7172C133.05 80.9812 132.886 80.2575 132.625 79.5662C132.142 78.2009 131.524 76.8872 131.414 75.5283C131.311 74.2776 131.582 73.0244 132.194 71.9284C132.721 71.0533 133.409 70.2862 134.222 69.6679C134.812 69.1977 135.368 68.6855 135.884 68.1352C136.309 67.6563 136.631 67.0951 136.83 66.4866C136.83 66.4866 136.83 66.5316 136.83 66.6154C136.814 66.7406 136.784 66.8637 136.74 66.9824C136.583 67.4423 136.341 67.8683 136.025 68.2382C135.523 68.813 134.976 69.347 134.39 69.8354C133.614 70.4528 132.959 71.2082 132.458 72.0636C131.896 73.1133 131.655 74.3042 131.762 75.4897C131.878 76.7777 132.483 78.0657 132.992 79.431C133.271 80.1542 133.446 80.9129 133.514 81.685C133.6 82.5103 133.45 83.3432 133.082 84.0871C132.65 84.8417 131.966 85.4205 131.15 85.7228C130.345 86.013 129.515 86.2286 128.671 86.3668C127.857 86.4896 127.062 86.7191 126.307 87.0495C125.582 87.3764 124.926 87.8399 124.375 88.4147C123.858 88.9525 123.458 89.5921 123.201 90.2928C122.943 90.9934 122.835 91.7399 122.881 92.4848C122.959 93.9274 123.841 95.0608 124.401 96.2716C124.693 96.8576 124.872 97.4933 124.929 98.1456C124.982 98.7674 124.813 99.3878 124.453 99.8973C124.143 100.327 123.718 100.66 123.227 100.86C122.736 101.059 122.199 101.116 121.677 101.024C121.054 100.865 120.507 100.491 120.134 99.9677C119.76 99.4444 119.584 98.8058 119.636 98.1649C119.652 97.9854 119.702 97.8106 119.784 97.6497V97.6497Z" fill="#263238"/>
<path d="M122.134 136.921C122.134 136.921 123.216 128.259 127.389 123.931C131.563 119.604 149.028 114.181 149.028 114.181C149.028 114.181 149.749 120.357 153.935 121.845C158.372 123.429 163.383 122.837 166.628 119.063C168.591 116.644 169.971 113.806 170.66 110.768C170.66 110.768 191.519 112.7 194.919 118.406C198.32 124.112 202.718 146.285 202.718 146.285L183.218 150.426L185.871 188.589H134.081L135.092 152.77L120.988 154.785L122.134 136.921Z" fill="#455A64"/>
<path d="M179.373 151.649C179.312 151.368 179.288 151.08 179.302 150.793C179.302 150.239 179.302 149.434 179.302 148.448C179.302 146.465 179.335 143.734 179.399 140.72C179.463 137.707 179.541 134.97 179.624 132.992C179.663 132.001 179.702 131.202 179.74 130.648C179.736 130.359 179.772 130.071 179.85 129.792C179.906 130.074 179.928 130.361 179.914 130.648C179.914 131.202 179.914 132.007 179.914 132.992C179.914 134.976 179.882 137.707 179.818 140.72C179.753 143.734 179.676 146.471 179.592 148.448C179.554 149.434 179.508 150.232 179.476 150.786C179.484 151.077 179.449 151.368 179.373 151.649V151.649Z" fill="#263238"/>
<path d="M130.288 135.936C130.41 135.903 131.627 139.8 133.005 144.584C134.383 149.369 135.414 153.317 135.291 153.349C135.169 153.381 133.958 149.485 132.574 144.707C131.189 139.928 130.172 135.974 130.288 135.936Z" fill="#263238"/>
<path d="M192.768 117.002C192.768 117.079 191.841 117.253 190.418 117.794C186.685 119.223 183.578 121.926 181.647 125.425C180.912 126.759 180.61 127.667 180.532 127.641C180.548 127.42 180.598 127.202 180.681 126.997C180.861 126.41 181.09 125.84 181.363 125.29C182.27 123.468 183.527 121.843 185.063 120.508C186.599 119.173 188.384 118.154 190.315 117.511C190.896 117.313 191.493 117.165 192.099 117.066C192.316 117.004 192.543 116.982 192.768 117.002V117.002Z" fill="#263238"/>
<path d="M127.08 125.677C127.196 125.677 127.609 126.855 127.995 128.369C128.381 129.882 128.594 131.138 128.472 131.17C128.349 131.202 127.943 129.991 127.557 128.478C127.171 126.965 126.958 125.709 127.08 125.677Z" fill="#263238"/>
<path d="M199.279 146.987C199.279 146.987 193.438 176.649 192.768 179.187C192.099 181.724 191.023 188.557 183.946 189.974C174.395 191.906 136.895 190.547 136.895 190.547L143.979 181.595L176.791 172.392L181.299 150.812L199.279 146.987Z" fill="#FFBE9D"/>
<path d="M143.354 176.585C143.484 176.795 143.578 177.026 143.631 177.267C143.823 177.914 143.949 178.579 144.005 179.251C144.202 181.483 143.736 183.723 142.665 185.691C142.095 186.787 141.373 187.798 140.521 188.692C139.812 189.418 138.959 189.986 138.015 190.36C137.382 190.599 136.719 190.748 136.045 190.804C135.8 190.844 135.549 190.844 135.304 190.804C136.182 190.642 137.044 190.403 137.88 190.089C138.759 189.695 139.552 189.13 140.211 188.428C141.015 187.551 141.703 186.575 142.259 185.524C143.291 183.618 143.781 181.467 143.676 179.302C143.612 177.602 143.27 176.611 143.354 176.585Z" fill="#EB996E"/>
<path d="M111.953 141.48C111.953 141.48 117.24 159.274 119.43 166.963C121.761 175.129 126.855 193.677 137.713 190.386C145.975 187.874 143.548 177.171 143.548 177.171L135.092 152.737L128.517 153.839L122.135 137.359L111.953 141.48Z" fill="#FFBE9D"/>
<path d="M140.656 177.944C140.951 176.618 140.951 175.244 140.656 173.919C140.307 172.492 139.709 171.139 138.891 169.919C137.86 168.431 136.715 167.025 135.465 165.714C134.21 164.38 133.061 162.95 132.026 161.438C131.2 160.19 130.478 158.876 129.869 157.51C129.457 156.591 129.104 155.646 128.813 154.682C128.679 154.335 128.592 153.971 128.555 153.6C128.721 153.93 128.861 154.273 128.974 154.624C129.231 155.268 129.618 156.234 130.159 157.374C130.798 158.707 131.538 159.988 132.374 161.206C133.413 162.689 134.558 164.094 135.8 165.411C137.066 166.739 138.216 168.172 139.239 169.694C140.072 170.969 140.66 172.389 140.971 173.88C141.173 174.883 141.173 175.916 140.971 176.92C140.92 177.19 140.845 177.455 140.746 177.712C140.728 177.793 140.697 177.871 140.656 177.944Z" fill="#EB996E"/>
<path d="M122.134 137.359C122.134 137.359 122.173 130.275 121.548 128.253L116.525 117.034C116.525 117.034 115.237 116.242 114.593 118.477C113.949 120.711 115.933 123.017 115.933 123.017L116.087 125.954L114.078 124.292L110.169 116.963C110.169 116.963 107.47 111.625 106.775 112.455C106.079 113.286 106.305 115.031 107.464 117.317L110.104 122.547C110.104 122.547 110.504 123.474 109.119 122.128C107.735 120.782 104.727 114.265 104.102 113.447C103.478 112.629 102.628 110.227 101.282 110.787C99.9357 111.348 101.662 114.194 101.662 114.194L105.97 123.854C105.97 123.854 103.471 120.196 103.02 119.578C102.57 118.96 101.526 116.867 100.708 115.798C99.8906 114.729 98.9955 114.316 98.403 114.574C98.1138 114.678 97.8753 114.889 97.7364 115.163C97.5975 115.437 97.5687 115.754 97.6559 116.049L102.261 124.034C102.261 124.034 104.56 127.621 104.56 127.898C104.56 128.175 102.55 126.713 102.55 126.713L100.618 124.253C100.618 124.253 98.5318 120.57 97.437 120.769C96.3422 120.969 96.5354 121.787 96.5354 121.787L100.399 128.497L106.028 135.736L112.043 141.712L115.52 140.592L122.134 137.359Z" fill="#FFBE9D"/>
<path d="M111.064 136.161C111.239 135.435 111.355 134.696 111.412 133.952C111.637 132.625 112.094 130.635 113.724 129.354C114.382 128.804 115.205 128.489 116.062 128.459H116.351V128.15C116.261 126.771 116.313 125.458 116.261 124.588C116.303 124.11 116.237 123.628 116.068 123.178C115.978 123.641 115.933 124.111 115.933 124.582C115.834 125.796 115.797 127.015 115.823 128.233L116.087 127.924C115.1 127.922 114.145 128.268 113.389 128.903C112.564 129.569 111.934 130.446 111.566 131.44C111.278 132.233 111.096 133.06 111.025 133.9C110.914 134.651 110.927 135.415 111.064 136.161V136.161Z" fill="#EB996E"/>
<path d="M203.472 199.402H120.26C118.532 199.402 117.131 200.803 117.131 202.532V225.22C117.131 226.948 118.532 228.35 120.26 228.35H203.472C205.2 228.35 206.602 226.948 206.602 225.22V202.532C206.602 200.803 205.2 199.402 203.472 199.402Z" fill="white"/>
<path d="M203.504 228.356C203.504 228.356 203.71 228.356 204.096 228.279C204.668 228.161 205.195 227.884 205.616 227.48C205.961 227.152 206.227 226.749 206.395 226.303C206.562 225.857 206.626 225.379 206.582 224.904C206.582 223.771 206.582 222.47 206.582 221.04C206.582 218.11 206.582 214.529 206.582 210.369C206.582 208.287 206.582 206.067 206.582 203.71C206.605 203.119 206.585 202.527 206.524 201.939C206.404 201.356 206.115 200.82 205.693 200.4C205.259 199.966 204.701 199.676 204.096 199.569C203.454 199.514 202.809 199.499 202.164 199.524L120.338 199.569C119.624 199.568 118.934 199.825 118.394 200.292C117.854 200.76 117.502 201.406 117.401 202.113C117.343 202.57 117.401 203.085 117.369 203.575V223.758C117.369 224.221 117.369 224.692 117.369 225.155C117.361 225.599 117.451 226.039 117.633 226.443C117.813 226.844 118.08 227.2 118.414 227.485C118.748 227.77 119.141 227.977 119.565 228.092C119.987 228.188 120.42 228.225 120.853 228.201H132.793H169.578L194.378 228.259H201.121H202.879H203.472H202.879H201.121L194.378 228.292L169.578 228.343L132.793 228.382H120.795C120.323 228.407 119.851 228.366 119.391 228.259C118.688 228.067 118.068 227.646 117.63 227.063C117.192 226.48 116.959 225.768 116.969 225.039V220.828C116.969 217.062 116.969 213.231 116.969 209.332V203.459C116.957 202.956 116.97 202.453 117.008 201.952C117.079 201.432 117.275 200.936 117.581 200.509C117.888 200.081 118.292 199.732 118.76 199.491C119.228 199.249 119.747 199.121 120.273 199.118L202.1 199.17C202.744 199.149 203.39 199.168 204.032 199.228C204.671 199.347 205.259 199.657 205.719 200.116C206.179 200.576 206.489 201.165 206.608 201.804C206.675 202.405 206.694 203.01 206.666 203.613C206.666 205.971 206.666 208.19 206.666 210.272C206.666 214.433 206.666 218 206.666 220.943C206.666 222.403 206.666 223.691 206.666 224.807C206.693 225.334 206.602 225.859 206.402 226.347C206.223 226.747 205.964 227.106 205.642 227.403C205.209 227.808 204.667 228.079 204.083 228.182C203.937 228.208 203.788 228.224 203.639 228.227L203.504 228.356Z" fill="#263238"/>
<path d="M126.056 211.573C126.054 211.246 126.119 210.921 126.248 210.62C126.376 210.319 126.565 210.048 126.803 209.823C127.041 209.598 127.323 209.425 127.631 209.314C127.939 209.203 128.267 209.156 128.594 209.178C128.969 209.16 129.343 209.23 129.687 209.38C130.031 209.531 130.336 209.759 130.577 210.047L129.747 210.801C129.62 210.631 129.456 210.494 129.267 210.4C129.078 210.306 128.869 210.258 128.658 210.26C128.309 210.26 127.974 210.398 127.727 210.645C127.48 210.892 127.341 211.227 127.341 211.577C127.341 211.926 127.48 212.261 127.727 212.508C127.974 212.755 128.309 212.894 128.658 212.894C128.869 212.894 129.077 212.845 129.266 212.751C129.455 212.657 129.619 212.521 129.747 212.353L130.577 213.1C130.336 213.387 130.031 213.616 129.687 213.766C129.343 213.917 128.969 213.986 128.594 213.969C128.267 213.99 127.939 213.944 127.631 213.833C127.323 213.722 127.041 213.549 126.803 213.324C126.565 213.099 126.376 212.828 126.248 212.526C126.119 212.225 126.054 211.901 126.056 211.573V211.573Z" fill="#263238"/>
<path d="M131.06 211.824V209.248H132.348V211.766C132.348 212.559 132.677 212.874 133.224 212.874C133.771 212.874 134.093 212.559 134.093 211.766V209.3H135.381V211.876C135.351 212.43 135.11 212.952 134.707 213.334C134.304 213.715 133.77 213.928 133.214 213.928C132.659 213.928 132.125 213.715 131.722 213.334C131.319 212.952 131.078 212.43 131.047 211.876L131.06 211.824Z" fill="#263238"/>
<path d="M138.292 212.655H137.578V213.879H136.29V209.3H138.395C139.683 209.3 140.443 209.944 140.443 211.007C140.456 211.312 140.377 211.613 140.216 211.873C140.055 212.132 139.82 212.337 139.542 212.462L140.534 213.911H139.104L138.292 212.655ZM138.292 210.298H137.565V211.644H138.292C138.827 211.644 139.097 211.399 139.097 211C139.097 210.601 138.84 210.298 138.305 210.298H138.292Z" fill="#263238"/>
<path d="M143.161 212.655H142.446V213.879H141.158V209.3H143.264C144.552 209.3 145.312 209.944 145.312 211.007C145.324 211.312 145.245 211.613 145.084 211.873C144.924 212.132 144.689 212.337 144.41 212.462L145.402 213.911H143.998L143.161 212.655ZM143.161 210.298H142.433V211.644H143.161C143.702 211.644 143.972 211.399 143.972 211C143.972 210.601 143.715 210.298 143.174 210.298H143.161Z" fill="#263238"/>
<path d="M149.717 212.874V213.879H146.014V209.3H149.633V210.311H147.308V211.084H149.356V212.063H147.308V212.906L149.717 212.874Z" fill="#263238"/>
<path d="M154.824 209.3V213.911H153.748L151.72 211.457V213.911H150.432V209.3H151.507L153.542 211.76V209.3H154.824Z" fill="#263238"/>
<path d="M156.724 210.305H155.313V209.3H159.441V210.337H158.031V213.911H156.743L156.724 210.305Z" fill="#263238"/>
<path d="M161.837 209.3H163.125V212.881H165.321V213.911H161.837V209.3Z" fill="#263238"/>
<path d="M165.546 211.573C165.51 211.058 165.63 210.543 165.89 210.096C166.15 209.65 166.539 209.292 167.005 209.069C167.472 208.846 167.994 208.768 168.505 208.847C169.016 208.925 169.492 209.155 169.87 209.507C170.249 209.859 170.513 210.316 170.628 210.82C170.743 211.324 170.703 211.851 170.515 212.333C170.326 212.814 169.997 213.227 169.57 213.519C169.144 213.811 168.639 213.968 168.122 213.969C167.793 213.992 167.463 213.947 167.152 213.837C166.841 213.727 166.556 213.555 166.315 213.33C166.073 213.105 165.88 212.834 165.748 212.531C165.616 212.229 165.547 211.903 165.546 211.573V211.573ZM169.352 211.573C169.339 211.33 169.254 211.095 169.108 210.9C168.963 210.704 168.763 210.555 168.534 210.471C168.305 210.387 168.056 210.372 167.819 210.428C167.581 210.484 167.365 210.608 167.198 210.785C167.03 210.963 166.918 211.185 166.875 211.425C166.832 211.666 166.861 211.913 166.957 212.137C167.053 212.361 167.213 212.552 167.417 212.687C167.621 212.821 167.859 212.893 168.103 212.893C168.275 212.898 168.447 212.867 168.606 212.802C168.766 212.737 168.91 212.639 169.03 212.514C169.149 212.39 169.241 212.242 169.3 212.08C169.359 211.918 169.383 211.745 169.372 211.573H169.352Z" fill="#263238"/>
<path d="M171.117 211.573C171.114 211.246 171.178 210.922 171.306 210.621C171.434 210.32 171.622 210.048 171.86 209.823C172.097 209.598 172.379 209.425 172.686 209.314C172.994 209.203 173.322 209.156 173.648 209.178C174.023 209.16 174.397 209.23 174.741 209.38C175.085 209.531 175.39 209.759 175.632 210.047L174.801 210.801C174.674 210.631 174.51 210.494 174.321 210.4C174.132 210.306 173.924 210.258 173.712 210.26C173.363 210.26 173.028 210.398 172.781 210.645C172.534 210.892 172.395 211.227 172.395 211.577C172.395 211.926 172.534 212.261 172.781 212.508C173.028 212.755 173.363 212.893 173.712 212.893C173.923 212.894 174.131 212.845 174.32 212.751C174.509 212.657 174.673 212.521 174.801 212.353L175.632 213.1C175.39 213.387 175.085 213.616 174.741 213.766C174.397 213.917 174.023 213.986 173.648 213.969C173.322 213.99 172.994 213.944 172.686 213.833C172.379 213.722 172.097 213.548 171.86 213.323C171.622 213.099 171.434 212.827 171.306 212.526C171.178 212.225 171.114 211.9 171.117 211.573V211.573Z" fill="#263238"/>
<path d="M179.219 212.984H177.286L176.926 213.879H175.593L177.628 209.268H178.916L180.957 213.879H179.598L179.219 212.984ZM178.832 212.024L178.246 210.549L177.654 212.024H178.832Z" fill="#263238"/>
<path d="M182.052 210.305H180.635V209.3H184.764V210.337H183.36V213.911H182.072L182.052 210.305Z" fill="#263238"/>
<path d="M185.253 209.3H186.541V213.911H185.253V209.3Z" fill="#263238"/>
<path d="M187.249 211.573C187.213 211.058 187.333 210.543 187.593 210.096C187.853 209.65 188.242 209.292 188.708 209.069C189.174 208.846 189.697 208.768 190.208 208.847C190.719 208.925 191.195 209.155 191.573 209.507C191.952 209.859 192.216 210.316 192.33 210.82C192.445 211.324 192.406 211.851 192.217 212.333C192.029 212.814 191.7 213.227 191.273 213.519C190.847 213.811 190.342 213.968 189.825 213.969C189.496 213.992 189.166 213.947 188.855 213.837C188.544 213.727 188.259 213.555 188.018 213.33C187.776 213.105 187.583 212.834 187.451 212.531C187.319 212.229 187.25 211.903 187.249 211.573V211.573ZM191.055 211.573C191.041 211.33 190.957 211.095 190.811 210.9C190.666 210.704 190.466 210.555 190.237 210.471C190.008 210.387 189.759 210.372 189.522 210.428C189.284 210.484 189.068 210.608 188.9 210.785C188.733 210.963 188.621 211.185 188.578 211.425C188.535 211.666 188.564 211.913 188.66 212.137C188.756 212.361 188.916 212.552 189.12 212.687C189.323 212.821 189.562 212.893 189.806 212.893C189.977 212.896 190.146 212.862 190.303 212.796C190.461 212.729 190.602 212.631 190.72 212.507C190.837 212.383 190.928 212.236 190.985 212.075C191.043 211.915 191.067 211.744 191.055 211.573V211.573Z" fill="#263238"/>
<path d="M197.437 209.3V213.911H196.362L194.327 211.457V213.911H193.039V209.3H194.114L196.149 211.76V209.3H197.437Z" fill="#263238"/>
<path d="M136.122 219.263C136.15 218.79 136.316 218.336 136.6 217.958C136.884 217.579 137.273 217.293 137.719 217.134C138.165 216.975 138.648 216.951 139.107 217.065C139.566 217.179 139.982 217.426 140.302 217.775L139.658 218.374C139.524 218.212 139.355 218.082 139.165 217.993C138.974 217.904 138.767 217.858 138.556 217.859C138.184 217.859 137.827 218.007 137.564 218.27C137.3 218.533 137.152 218.89 137.152 219.263C137.152 219.635 137.3 219.992 137.564 220.255C137.827 220.519 138.184 220.667 138.556 220.667C138.768 220.669 138.976 220.623 139.167 220.533C139.358 220.442 139.526 220.31 139.658 220.145L140.302 220.744C139.983 221.095 139.568 221.345 139.109 221.461C138.649 221.577 138.165 221.554 137.718 221.396C137.271 221.238 136.881 220.951 136.597 220.571C136.313 220.191 136.148 219.736 136.122 219.263V219.263Z" fill="#E0E0E0"/>
<path d="M140.978 217.073H141.995V221.452H140.978V217.073Z" fill="#E0E0E0"/>
<path d="M143.94 217.897H142.536V217.073H146.355V217.897H144.951V221.452H143.94V217.897Z" fill="#E0E0E0"/>
<path d="M148.919 219.9V221.452H147.907V219.887L146.188 217.073H147.263L148.429 219.005L149.601 217.073H150.599L148.919 219.9Z" fill="#E0E0E0"/>
<path d="M151.72 220.892C151.713 221.117 151.654 221.338 151.546 221.536L151.192 222.438H150.548L150.818 221.439C150.714 221.398 150.626 221.324 150.566 221.229C150.505 221.135 150.477 221.023 150.483 220.911C150.483 220.751 150.547 220.597 150.661 220.483C150.774 220.37 150.928 220.306 151.089 220.306C151.249 220.306 151.403 220.37 151.517 220.483C151.63 220.597 151.694 220.751 151.694 220.911L151.72 220.892Z" fill="#E0E0E0"/>
<path d="M153.916 219.263C153.945 218.79 154.112 218.337 154.397 217.959C154.682 217.581 155.071 217.295 155.517 217.136C155.963 216.978 156.446 216.954 156.906 217.067C157.365 217.181 157.781 217.427 158.102 217.775L157.458 218.374C157.324 218.212 157.156 218.081 156.965 217.992C156.775 217.903 156.567 217.858 156.357 217.859C155.984 217.859 155.627 218.007 155.364 218.27C155.101 218.533 154.953 218.89 154.953 219.263C154.953 219.635 155.101 219.992 155.364 220.255C155.627 220.519 155.984 220.667 156.357 220.667C156.568 220.67 156.777 220.625 156.968 220.534C157.159 220.444 157.326 220.31 157.458 220.145L158.102 220.744C157.783 221.095 157.367 221.343 156.907 221.459C156.448 221.574 155.964 221.552 155.517 221.394C155.07 221.235 154.68 220.949 154.395 220.57C154.11 220.191 153.943 219.736 153.916 219.263V219.263Z" fill="#E0E0E0"/>
<path d="M158.424 219.263C158.397 218.782 158.515 218.305 158.762 217.893C159.009 217.48 159.374 217.151 159.811 216.949C160.247 216.746 160.734 216.679 161.209 216.757C161.683 216.834 162.124 217.052 162.473 217.383C162.823 217.713 163.065 218.141 163.168 218.611C163.272 219.08 163.232 219.57 163.054 220.017C162.875 220.464 162.567 220.847 162.169 221.117C161.771 221.386 161.301 221.53 160.82 221.53C160.511 221.547 160.203 221.501 159.913 221.395C159.622 221.289 159.357 221.125 159.133 220.913C158.908 220.701 158.73 220.445 158.608 220.161C158.486 219.877 158.423 219.572 158.424 219.263V219.263ZM162.191 219.263C162.185 218.993 162.099 218.731 161.945 218.51C161.79 218.288 161.574 218.117 161.323 218.019C161.072 217.92 160.797 217.897 160.533 217.954C160.269 218.01 160.028 218.143 159.839 218.336C159.65 218.529 159.523 218.774 159.472 219.039C159.422 219.304 159.451 219.578 159.556 219.827C159.66 220.076 159.836 220.288 160.061 220.437C160.286 220.587 160.55 220.667 160.82 220.667C161.005 220.673 161.189 220.641 161.362 220.572C161.534 220.504 161.69 220.4 161.82 220.268C161.95 220.137 162.052 219.979 162.118 219.806C162.184 219.633 162.213 219.448 162.204 219.263H162.191Z" fill="#E0E0E0"/>
<path d="M163.956 219.527V217.073H164.967V219.488C164.967 220.319 165.328 220.667 165.946 220.667C166.564 220.667 166.918 220.319 166.918 219.488V217.073H167.923V219.527C167.923 220.053 167.714 220.557 167.342 220.929C166.97 221.301 166.465 221.51 165.939 221.51C165.413 221.51 164.909 221.301 164.537 220.929C164.165 220.557 163.956 220.053 163.956 219.527V219.527Z" fill="#E0E0E0"/>
<path d="M172.94 217.073V221.452H172.109L169.926 218.793V221.452H168.921V217.073H169.758L171.948 219.733V217.073H172.94Z" fill="#E0E0E0"/>
<path d="M174.884 217.897H173.48V217.073H177.299V217.897H175.895V221.452H174.884V217.897Z" fill="#E0E0E0"/>
<path d="M180.635 221.452L179.792 220.248H178.858V221.465H177.84V217.086H179.772C180.938 217.086 181.672 217.691 181.672 218.677C181.685 218.973 181.604 219.265 181.443 219.513C181.281 219.761 181.046 219.953 180.771 220.061L181.756 221.465L180.635 221.452ZM179.676 217.897H178.851V219.424H179.676C180.32 219.424 180.61 219.14 180.61 218.664C180.61 218.187 180.32 217.897 179.676 217.897Z" fill="#E0E0E0"/>
<path d="M184.48 219.9V221.452H183.469V219.887L181.769 217.073H182.844L184.016 219.005L185.188 217.073H186.187L184.48 219.9Z" fill="#E0E0E0"/>
</svg>
