<svg width="176" height="178" viewBox="0 0 176 178" fill="none" xmlns="http://www.w3.org/2000/svg">
<path d="M146.59 145.613L144.813 144.502C126.591 132.874 112.591 118.579 103.184 102.062C95.7022 88.8047 91.1097 74.1397 89.5542 58.3638C86.9616 31.552 94.2208 10.6655 94.2949 10.5173L95.3319 10.8877C95.2578 11.1099 88.0727 31.7742 90.6653 58.3638C93.0356 82.5092 104.147 116.505 143.627 142.502C126.22 108.58 127.405 81.1019 131.554 63.9187C136.146 44.9579 145.183 33.9961 145.257 33.9221L146.072 34.6627C145.998 34.7368 137.035 45.5504 132.591 64.289C128.442 81.6204 127.331 109.469 145.553 143.91L146.59 145.613Z" fill="#FFCC01"/>
<path d="M80.8136 171.832L79.7766 171.536C92.8134 129.245 82.3691 90.8786 71.2582 66.1406C59.2584 39.3289 43.9993 22.2938 43.8512 22.1456L44.666 21.405C44.8141 21.5531 60.2213 38.6623 72.2952 65.6222C83.4802 90.5082 93.9986 129.171 80.8136 171.832Z" fill="#FFCC01"/>
<path d="M4.51849 83.6201L3.9259 82.7313C22.9626 70.0661 29.5551 55.6974 31.7033 45.9207C34.0736 35.3293 31.9255 27.6265 31.8514 27.5524L32.8884 27.2562C32.9625 27.5524 35.1847 35.2553 32.7403 46.1429C30.5922 56.1418 23.9256 70.7327 4.51849 83.6201Z" fill="#FFCC01"/>
<path d="M42.592 157.093C35.4069 109.617 9.48135 103.544 9.18506 103.47L9.40728 102.359C9.70357 102.433 16.2961 103.914 23.8515 111.395C30.8144 118.283 39.8513 131.763 43.629 156.945L42.592 157.093Z" fill="#FFCC01"/>
<path d="M73.4804 171.388L72.5175 170.795C105.035 119.468 106.665 78.7318 102.295 53.5495C97.6282 26.2933 85.0358 11.0358 84.9617 10.8876L85.8506 10.147C85.9987 10.2951 98.6652 25.7748 103.406 53.3273C106.221 69.4736 105.776 86.5087 102.073 104.062C97.5541 125.912 87.8505 148.576 73.4804 171.388Z" fill="#FFCC01"/>
<path d="M141.627 151.02L140.59 150.576C157.109 116.061 159.627 87.8419 158.812 70.2143C157.923 51.1794 153.035 40.1436 153.035 40.0695L154.072 39.6251C154.146 39.6992 159.035 50.9572 159.998 70.2143C160.812 87.8419 158.294 116.283 141.627 151.02Z" fill="#FFCC01"/>
<path d="M170.442 85.9902C128.591 84.8052 102.221 64.5853 87.4062 47.7724C71.4064 29.6263 65.1843 11.4061 65.1102 11.258L66.1473 10.8877C66.2213 11.0358 72.3694 29.0337 88.221 47.1058C102.887 63.6965 129.035 83.7683 170.442 84.8793V85.9902Z" fill="#FFCC01"/>
<path d="M22.222 134.725L21.259 134.207C21.3331 133.985 32.444 112.061 55.1844 91.1008C68.5916 78.8059 83.3322 69.2514 99.0356 62.6596C118.665 54.4383 139.924 50.9572 162.072 52.2163L161.998 53.3273C112.147 50.4387 76.8137 72.7325 55.9252 91.9155C33.2589 112.728 22.2961 134.503 22.222 134.725Z" fill="#FFCC01"/>
<path d="M145.035 146.798C117.628 141.391 93.9986 132.652 74.8137 120.801C59.4806 111.321 46.9623 99.8405 37.7031 86.7309C21.7775 64.289 20.6664 44.5135 20.5923 44.2913L21.7034 44.2172C21.7034 44.4394 22.8885 63.9187 38.592 86.0643C53.1103 106.506 83.4061 133.466 145.183 145.613L145.035 146.798Z" fill="#FFCC01"/>
<path d="M121.406 163.389L120.369 162.944C140.665 113.395 134.442 74.6582 125.628 50.9572C116.072 25.2564 101.554 11.0358 101.406 10.8877L102.147 10.0729C102.295 10.2211 117.035 24.5157 126.665 50.5128C135.479 74.436 141.85 113.469 121.406 163.389Z" fill="#FFCC01"/>
<path d="M33.2588 150.279C23.4071 128.43 19.7775 107.321 22.5923 87.6197C24.8144 71.8437 31.0366 56.9565 41.1846 43.3284C58.4436 20.1459 81.258 8.44348 81.4802 8.36942L81.9988 9.33227C81.7765 9.4804 59.1102 20.9606 42.0734 43.995C26.2959 65.1778 12.148 100.729 34.2217 149.835L33.2588 150.279Z" fill="#FFCC01"/>
<path d="M50.3696 160.648L49.4067 160.13C71.9989 119.838 67.1101 84.3608 59.1103 61.6226C50.3696 37.0328 36.0736 21.7753 35.9254 21.6272L36.7402 20.8865C36.8884 21.0346 51.2585 36.4403 60.0732 61.3264C68.2953 84.1386 73.1841 119.986 50.3696 160.648Z" fill="#FFCC01"/>
<path d="M16.222 125.986L15.8517 124.949C16.0739 124.875 36.8884 117.616 56.814 99.9886C75.2582 83.6942 96.7393 55.1049 94.369 11.1099L95.4801 11.0358C97.8504 55.4752 76.1471 84.3608 57.5548 100.803C37.4069 118.579 16.4443 125.912 16.222 125.986Z" fill="#FFCC01"/>
<path d="M167.701 87.3234C152.146 34.6627 107.036 11.8505 106.591 11.6283L107.11 10.6655C107.554 10.8877 153.183 33.9221 168.812 87.0272L167.701 87.3234Z" fill="#FFCC01"/>
<path d="M135.628 156.649C113.554 111.987 80.0729 89.4713 55.8511 78.4355C29.6292 66.585 8.37029 65.1778 8.14807 65.1778L8.22214 64.0668C8.44436 64.0668 29.9255 65.474 56.2955 77.4727C80.6655 88.5825 114.369 111.247 136.591 156.204L135.628 156.649Z" fill="#FFCC01"/>
<path d="M46.5178 162.648L45.4067 162.574C45.4067 162.426 46.7401 147.391 62.2954 132.726C76.4433 119.32 105.628 103.47 164.368 103.47C164.886 103.47 165.405 103.47 165.998 103.47V104.581C106.517 104.284 77.184 120.135 63.0361 133.54C47.7771 147.909 46.5178 162.5 46.5178 162.648Z" fill="#FFCC01"/>
<path d="M67.9249 167.24L66.8138 166.944C66.8879 166.722 72.6656 143.687 93.9986 132.133C110.443 123.245 131.48 123.245 156.516 132.207L156.146 133.244C131.331 124.43 110.665 124.356 94.5171 133.096C73.6286 144.502 67.9249 167.018 67.9249 167.24Z" fill="#FFCC01"/>
<path d="M60.2214 58.9563C36.3699 58.9563 17.185 51.6978 17.0369 51.6238L17.4072 50.5869C17.6294 50.6609 36.5181 57.8453 60.2214 57.8453C60.4436 57.8453 60.6658 57.8453 60.9621 57.8453C83.0359 57.6972 113.776 51.0312 134.591 19.7755L135.479 20.3681C114.369 51.9941 83.3321 58.8081 60.9621 58.9563C60.6658 58.9563 60.4436 58.9563 60.2214 58.9563Z" fill="#FFCC01"/>
<path d="M97.0356 170.869L95.9985 170.573C96.0726 170.277 105.184 142.65 141.405 152.131L141.109 153.242C105.924 143.91 97.1837 170.573 97.0356 170.869Z" fill="#FFCC01"/>
<path d="M85.1099 10.5173C87.4417 10.5173 89.332 8.62715 89.332 6.29555C89.332 3.96395 87.4417 2.07381 85.1099 2.07381C82.778 2.07381 80.8877 3.96395 80.8877 6.29555C80.8877 8.62715 82.778 10.5173 85.1099 10.5173Z" fill="#FFAB03"/>
<path d="M85.1099 10.8876C82.5914 10.8876 80.5173 8.81379 80.5173 6.29555C80.5173 3.77732 82.5914 1.70348 85.1099 1.70348C87.6283 1.70348 89.7024 3.77732 89.7024 6.29555C89.7024 8.81379 87.6283 10.8876 85.1099 10.8876ZM85.1099 2.44414C82.9617 2.44414 81.2581 4.14765 81.2581 6.29555C81.2581 8.44346 82.9617 10.147 85.1099 10.147C87.258 10.147 88.9616 8.44346 88.9616 6.29555C88.9616 4.14765 87.258 2.44414 85.1099 2.44414Z" fill="#FFCC01"/>
<path d="M147.627 35.8478C149.959 35.8478 151.85 33.9576 151.85 31.626C151.85 29.2944 149.959 27.4043 147.627 27.4043C145.296 27.4043 143.405 29.2944 143.405 31.626C143.405 33.9576 145.296 35.8478 147.627 35.8478Z" fill="#FFAB03"/>
<path d="M147.627 36.2181C145.109 36.2181 143.035 34.1443 143.035 31.626C143.035 29.1078 145.109 27.034 147.627 27.034C150.146 27.034 152.22 29.1078 152.22 31.626C152.22 34.1443 150.146 36.2181 147.627 36.2181ZM147.627 27.7746C145.479 27.7746 143.776 29.4781 143.776 31.626C143.776 33.7739 145.479 35.4774 147.627 35.4774C149.776 35.4774 151.479 33.7739 151.479 31.626C151.479 29.4781 149.776 27.7746 147.627 27.7746Z" fill="#FFCC01"/>
<path d="M134.665 23.9973C136.996 23.9973 138.887 22.1071 138.887 19.7755C138.887 17.4439 136.996 15.5538 134.665 15.5538C132.333 15.5538 130.443 17.4439 130.443 19.7755C130.443 22.1071 132.333 23.9973 134.665 23.9973Z" fill="#FFAB03"/>
<path d="M134.665 24.3676C132.146 24.3676 130.072 22.2938 130.072 19.7755C130.072 17.2573 132.146 15.1835 134.665 15.1835C137.183 15.1835 139.257 17.2573 139.257 19.7755C139.257 22.2938 137.183 24.3676 134.665 24.3676ZM134.665 15.9241C132.517 15.9241 130.813 17.6276 130.813 19.7755C130.813 21.9234 132.517 23.6269 134.665 23.6269C136.813 23.6269 138.516 21.9234 138.516 19.7755C138.516 17.6276 136.813 15.9241 134.665 15.9241Z" fill="#FFCC01"/>
<path d="M53.4806 18.072C56.5488 18.072 59.0361 15.585 59.0361 12.5171C59.0361 9.44918 56.5488 6.96216 53.4806 6.96216C50.4124 6.96216 47.9252 9.44918 47.9252 12.5171C47.9252 15.585 50.4124 18.072 53.4806 18.072Z" fill="#FFAB03"/>
<path d="M53.4806 18.3683C50.2214 18.3683 47.5548 15.7019 47.5548 12.443C47.5548 9.18413 50.2214 6.51777 53.4806 6.51777C56.7399 6.51777 59.4065 9.18413 59.4065 12.443C59.4065 15.7019 56.7399 18.3683 53.4806 18.3683ZM53.4806 7.33249C50.6659 7.33249 48.2955 9.62853 48.2955 12.5171C48.2955 15.4056 50.5918 17.7017 53.4806 17.7017C56.3695 17.7017 58.6657 15.4056 58.6657 12.5171C58.6657 9.62853 56.3695 7.33249 53.4806 7.33249Z" fill="#FFCC01"/>
<path d="M43.9993 21.7753C46.0039 21.7753 47.6289 20.1505 47.6289 18.1461C47.6289 16.1417 46.0039 14.5169 43.9993 14.5169C41.9948 14.5169 40.3698 16.1417 40.3698 18.1461C40.3698 20.1505 41.9948 21.7753 43.9993 21.7753Z" fill="#FFAB03"/>
<path d="M43.9993 22.1456C41.7771 22.1456 39.9994 20.368 39.9994 18.1461C39.9994 15.9241 41.7771 14.1465 43.9993 14.1465C46.2215 14.1465 47.9993 15.9241 47.9993 18.1461C47.9993 20.368 46.2215 22.1456 43.9993 22.1456ZM43.9993 14.8131C42.1475 14.8131 40.7401 16.2944 40.7401 18.072C40.7401 19.8496 42.2216 21.3309 43.9993 21.3309C45.7771 21.3309 47.2585 19.8496 47.2585 18.072C47.2585 16.2944 45.7771 14.8131 43.9993 14.8131Z" fill="#FFCC01"/>
<path d="M76.6655 7.11027C78.0564 7.11027 79.1839 5.98282 79.1839 4.59204C79.1839 3.20126 78.0564 2.07381 76.6655 2.07381C75.2745 2.07381 74.147 3.20126 74.147 4.59204C74.147 5.98282 75.2745 7.11027 76.6655 7.11027Z" fill="#FFAB03"/>
<path d="M76.6655 7.48061C75.0359 7.48061 73.7766 6.14742 73.7766 4.59204C73.7766 2.9626 75.1099 1.70348 76.6655 1.70348C78.221 1.70348 79.5543 3.03667 79.5543 4.59204C79.5543 6.22149 78.221 7.48061 76.6655 7.48061ZM76.6655 2.44414C75.4803 2.44414 74.5173 3.40699 74.5173 4.59204C74.5173 5.7771 75.4803 6.73995 76.6655 6.73995C77.8506 6.73995 78.8136 5.7771 78.8136 4.59204C78.8136 3.40699 77.8506 2.44414 76.6655 2.44414Z" fill="#FFCC01"/>
<path d="M93.5541 5.40677C94.945 5.40677 96.0726 4.27932 96.0726 2.88854C96.0726 1.49776 94.945 0.370308 93.5541 0.370308C92.1632 0.370308 91.0356 1.49776 91.0356 2.88854C91.0356 4.27932 92.1632 5.40677 93.5541 5.40677Z" fill="#FFAB03"/>
<path d="M93.5541 5.77711C91.9245 5.77711 90.6653 4.44393 90.6653 2.88855C90.6653 1.33317 91.9986 -1.52588e-05 93.5541 -1.52588e-05C95.1837 -1.52588e-05 96.443 1.33317 96.443 2.88855C96.443 4.44393 95.1837 5.77711 93.5541 5.77711ZM93.5541 0.740641C92.369 0.740641 91.406 1.7035 91.406 2.88855C91.406 4.0736 92.369 5.03645 93.5541 5.03645C94.7393 5.03645 95.7022 4.0736 95.7022 2.88855C95.7022 1.7035 94.7393 0.740641 93.5541 0.740641Z" fill="#FFCC01"/>
<path d="M101.406 10.5173C102.797 10.5173 103.924 9.38986 103.924 7.99908C103.924 6.6083 102.797 5.48085 101.406 5.48085C100.015 5.48085 98.8875 6.6083 98.8875 7.99908C98.8875 9.38986 100.015 10.5173 101.406 10.5173Z" fill="#FFAB03"/>
<path d="M101.406 10.8876C99.7763 10.8876 98.5171 9.55447 98.5171 7.99909C98.5171 6.36964 99.8504 5.11053 101.406 5.11053C102.961 5.11053 104.295 6.44371 104.295 7.99909C104.369 9.55447 103.036 10.8876 101.406 10.8876ZM101.406 5.77712C100.221 5.77712 99.2578 6.73997 99.2578 7.92502C99.2578 9.11007 100.221 10.0729 101.406 10.0729C102.591 10.0729 103.554 9.11007 103.554 7.92502C103.554 6.73997 102.665 5.77712 101.406 5.77712Z" fill="#FFCC01"/>
<path d="M141.998 27.9227C143.389 27.9227 144.516 26.7953 144.516 25.4045C144.516 24.0137 143.389 22.8863 141.998 22.8863C140.607 22.8863 139.479 24.0137 139.479 25.4045C139.479 26.7953 140.607 27.9227 141.998 27.9227Z" fill="#FFAB03"/>
<path d="M141.998 28.3671C140.368 28.3671 139.109 27.034 139.109 25.4786C139.109 23.8491 140.442 22.59 141.998 22.59C143.627 22.59 144.887 23.9232 144.887 25.4786C144.887 27.034 143.627 28.3671 141.998 28.3671ZM141.998 23.2566C140.813 23.2566 139.85 24.2195 139.85 25.4045C139.85 26.5896 140.813 27.5524 141.998 27.5524C143.183 27.5524 144.146 26.5896 144.146 25.4045C144.146 24.2195 143.183 23.2566 141.998 23.2566Z" fill="#FFCC01"/>
<path d="M94.6653 11.1098C95.7698 11.1098 96.6652 10.2145 96.6652 9.11004C96.6652 8.0056 95.7698 7.11027 94.6653 7.11027C93.5607 7.11027 92.6653 8.0056 92.6653 9.11004C92.6653 10.2145 93.5607 11.1098 94.6653 11.1098Z" fill="#FFAB03"/>
<path d="M94.6653 11.4801C93.406 11.4801 92.2949 10.4432 92.2949 9.11005C92.2949 7.77686 93.3319 6.73994 94.6653 6.73994C95.9245 6.73994 97.0356 7.77686 97.0356 9.11005C97.0356 10.4432 95.9986 11.4801 94.6653 11.4801ZM94.6653 7.4806C93.7764 7.4806 93.0357 8.22126 93.0357 9.11005C93.0357 9.99883 93.7764 10.7395 94.6653 10.7395C95.5541 10.7395 96.2949 9.99883 96.2949 9.11005C96.2949 8.22126 95.5541 7.4806 94.6653 7.4806Z" fill="#FFCC01"/>
<path d="M72.147 10.5173C72.9243 10.5173 73.5544 9.88727 73.5544 9.11007C73.5544 8.33287 72.9243 7.70282 72.147 7.70282C71.3697 7.70282 70.7396 8.33287 70.7396 9.11007C70.7396 9.88727 71.3697 10.5173 72.147 10.5173Z" fill="#FFAB03"/>
<path d="M72.147 10.8876C71.1841 10.8876 70.3693 10.0729 70.3693 9.11007C70.3693 8.14721 71.1841 7.33249 72.147 7.33249C73.11 7.33249 73.9248 8.14721 73.9248 9.11007C73.9248 10.0729 73.11 10.8876 72.147 10.8876ZM72.147 8.07315C71.5544 8.07315 71.11 8.51754 71.11 9.11007C71.11 9.70259 71.5544 10.147 72.147 10.147C72.7396 10.147 73.184 9.70259 73.184 9.11007C73.184 8.51754 72.7396 8.07315 72.147 8.07315Z" fill="#FFCC01"/>
<path d="M107.11 11.1099C107.887 11.1099 108.517 10.4798 108.517 9.70261C108.517 8.9254 107.887 8.29536 107.11 8.29536C106.332 8.29536 105.702 8.9254 105.702 9.70261C105.702 10.4798 106.332 11.1099 107.11 11.1099Z" fill="#FFAB03"/>
<path d="M107.109 11.4802C106.961 11.4802 106.739 11.4802 106.591 11.4061C105.628 11.1098 105.11 10.147 105.406 9.18413C105.554 8.73974 105.85 8.36941 106.295 8.14721C106.739 7.92501 107.184 7.85095 107.628 7.99908C108.591 8.29534 109.109 9.2582 108.813 10.221C108.665 10.6654 108.369 11.0358 107.924 11.258C107.628 11.4061 107.406 11.4802 107.109 11.4802ZM107.109 8.5916C106.665 8.5916 106.221 8.88787 106.147 9.33226C105.998 9.85072 106.295 10.4432 106.887 10.5914C107.184 10.6654 107.406 10.6654 107.702 10.5173C107.998 10.3692 108.147 10.147 108.221 9.92479C108.369 9.40633 108.072 8.8138 107.48 8.66567C107.258 8.66567 107.184 8.5916 107.109 8.5916Z" fill="#FFCC01"/>
<path d="M153.257 40.9583C154.034 40.9583 154.664 40.3282 154.664 39.551C154.664 38.7738 154.034 38.1438 153.257 38.1438C152.48 38.1438 151.85 38.7738 151.85 39.551C151.85 40.3282 152.48 40.9583 153.257 40.9583Z" fill="#FFAB03"/>
<path d="M153.257 41.3286C153.109 41.3286 152.887 41.3286 152.738 41.2546C152.294 41.1064 151.924 40.8102 151.701 40.3658C151.479 39.9214 151.405 39.477 151.553 39.0326C151.701 38.5882 151.998 38.2179 152.442 37.9957C152.887 37.7735 153.331 37.6994 153.775 37.8475C154.738 38.1438 155.257 39.1066 154.961 40.0695C154.738 40.8102 154.072 41.3286 153.257 41.3286ZM153.257 38.5141C153.109 38.5141 152.887 38.5882 152.738 38.6623C152.516 38.8104 152.294 39.0326 152.22 39.2548C152.146 39.477 152.146 39.7732 152.294 40.0695C152.442 40.3658 152.664 40.5139 152.887 40.588C153.405 40.7361 153.998 40.4398 154.146 39.9214C154.22 39.6251 154.22 39.4029 154.072 39.1066C153.924 38.8844 153.701 38.6623 153.479 38.5882C153.479 38.5141 153.405 38.5141 153.257 38.5141Z" fill="#FFCC01"/>
<path d="M166.22 65.6962C166.997 65.6962 167.627 65.0662 167.627 64.289C167.627 63.5118 166.997 62.8817 166.22 62.8817C165.442 62.8817 164.812 63.5118 164.812 64.289C164.812 65.0662 165.442 65.6962 166.22 65.6962Z" fill="#FFAB03"/>
<path d="M166.22 66.0666C166.072 66.0666 165.849 66.0666 165.701 65.9925C164.738 65.6962 164.22 64.7334 164.516 63.7705C164.664 63.3261 164.96 62.9558 165.405 62.7336C165.849 62.5114 166.294 62.4373 166.738 62.5855C167.183 62.7336 167.553 63.0299 167.775 63.4743C167.997 63.9187 168.072 64.3631 167.923 64.8074C167.701 65.6222 167.035 66.0666 166.22 66.0666ZM166.22 63.2521C166.072 63.2521 165.849 63.3261 165.701 63.4002C165.479 63.5483 165.257 63.7705 165.183 63.9927C165.109 64.2149 165.109 64.5112 165.257 64.8074C165.405 65.0296 165.627 65.2518 165.849 65.3259C166.146 65.4 166.368 65.4 166.664 65.2518C166.96 65.1037 167.109 64.8815 167.183 64.6593C167.257 64.3631 167.257 64.1409 167.109 63.8446C166.96 63.6224 166.738 63.4002 166.516 63.3261C166.442 63.3261 166.368 63.2521 166.22 63.2521Z" fill="#FFCC01"/>
<path d="M169.627 99.5442C170.404 99.5442 171.034 98.9142 171.034 98.137C171.034 97.3598 170.404 96.7298 169.627 96.7298C168.85 96.7298 168.22 97.3598 168.22 98.137C168.22 98.9142 168.85 99.5442 169.627 99.5442Z" fill="#FFAB03"/>
<path d="M169.627 99.9146C169.479 99.9146 169.257 99.9146 169.109 99.8405C168.664 99.6924 168.294 99.3961 168.072 98.9517C167.849 98.5073 167.775 98.0629 167.923 97.6185C168.072 97.1741 168.368 96.8038 168.812 96.5816C169.257 96.3594 169.701 96.2854 170.146 96.4335C171.109 96.7297 171.627 97.6926 171.331 98.6554C171.183 99.0998 170.886 99.4702 170.442 99.6924C170.22 99.8405 169.923 99.9146 169.627 99.9146ZM169.627 97.1001C169.183 97.1001 168.738 97.3963 168.664 97.8407C168.59 98.137 168.59 98.3592 168.738 98.6554C168.886 98.9517 169.109 99.0998 169.331 99.1739C169.627 99.248 169.849 99.248 170.146 99.0998C170.368 98.9517 170.59 98.7295 170.664 98.5073C170.812 97.9889 170.516 97.3963 169.997 97.2482C169.775 97.1001 169.701 97.1001 169.627 97.1001Z" fill="#FFCC01"/>
<path d="M119.998 14.4428C120.775 14.4428 121.406 13.8128 121.406 13.0356C121.406 12.2584 120.775 11.6283 119.998 11.6283C119.221 11.6283 118.591 12.2584 118.591 13.0356C118.591 13.8128 119.221 14.4428 119.998 14.4428Z" fill="#FFAB03"/>
<path d="M119.998 14.8131C119.85 14.8131 119.628 14.8131 119.48 14.7391C118.517 14.4428 117.998 13.4799 118.294 12.5171C118.591 11.5542 119.554 11.0358 120.517 11.332C121.48 11.6283 121.998 12.5912 121.702 13.554C121.554 13.9984 121.257 14.3687 120.813 14.5909C120.591 14.7391 120.294 14.8131 119.998 14.8131ZM119.998 11.9986C119.554 11.9986 119.109 12.2949 119.035 12.7393C118.887 13.2578 119.183 13.8503 119.776 13.9984C120.072 14.0725 120.294 14.0725 120.591 13.9243C120.813 13.7762 121.035 13.554 121.109 13.3318C121.257 12.8134 120.961 12.2208 120.443 12.0727C120.22 11.9986 120.146 11.9986 119.998 11.9986Z" fill="#FFCC01"/>
<path d="M112.739 12.2208C113.516 12.2208 114.146 11.5908 114.146 10.8136C114.146 10.0364 113.516 9.40632 112.739 9.40632C111.962 9.40632 111.332 10.0364 111.332 10.8136C111.332 11.5908 111.962 12.2208 112.739 12.2208Z" fill="#FFAB03"/>
<path d="M112.739 12.5911C112.591 12.5911 112.369 12.5911 112.22 12.5171C111.776 12.3689 111.406 12.0727 111.183 11.6283C110.961 11.1839 110.887 10.7395 111.035 10.2951C111.332 9.33226 112.295 8.8138 113.258 9.11006C114.22 9.40632 114.739 10.3692 114.443 11.332C114.295 11.7764 113.998 12.1468 113.554 12.369C113.332 12.5171 113.035 12.5911 112.739 12.5911ZM112.739 9.77665C112.295 9.77665 111.85 10.0729 111.776 10.5173C111.702 10.8136 111.702 11.0358 111.85 11.332C111.998 11.6283 112.22 11.7764 112.443 11.8505C112.739 11.9246 112.961 11.9246 113.258 11.7764C113.48 11.6283 113.702 11.4061 113.776 11.1839C113.924 10.6654 113.628 10.0729 113.109 9.92478C112.887 9.77665 112.813 9.77665 112.739 9.77665Z" fill="#FFCC01"/>
<path d="M125.109 16.1463C125.886 16.1463 126.517 15.5163 126.517 14.7391C126.517 13.9619 125.886 13.3318 125.109 13.3318C124.332 13.3318 123.702 13.9619 123.702 14.7391C123.702 15.5163 124.332 16.1463 125.109 16.1463Z" fill="#FFAB03"/>
<path d="M125.109 16.5166C124.961 16.5166 124.739 16.5166 124.591 16.4426C124.146 16.2944 123.776 15.9982 123.554 15.5538C123.331 15.1094 123.257 14.665 123.406 14.2206C123.554 13.7762 123.85 13.4059 124.294 13.1837C124.739 12.9615 125.183 12.8874 125.628 13.0355C126.072 13.1837 126.443 13.4799 126.665 13.9243C126.887 14.3687 126.961 14.8131 126.813 15.2575C126.665 15.7019 126.368 16.0722 125.924 16.2944C125.702 16.4426 125.406 16.5166 125.109 16.5166ZM125.109 13.7021C124.961 13.7021 124.739 13.7762 124.591 13.8503C124.369 13.9984 124.146 14.2206 124.072 14.4428C123.998 14.7391 123.998 14.9612 124.146 15.2575C124.294 15.4797 124.517 15.7019 124.739 15.776C125.035 15.85 125.257 15.85 125.554 15.7019C125.776 15.5538 125.998 15.3316 126.072 15.1094C126.146 14.8872 126.146 14.5909 125.998 14.2947C125.85 14.0725 125.628 13.8503 125.406 13.7762C125.331 13.7021 125.183 13.7021 125.109 13.7021Z" fill="#FFCC01"/>
<path d="M65.4064 11.1098C66.1837 11.1098 66.8138 10.4798 66.8138 9.70257C66.8138 8.92537 66.1837 8.29533 65.4064 8.29533C64.6291 8.29533 63.999 8.92537 63.999 9.70257C63.999 10.4798 64.6291 11.1098 65.4064 11.1098Z" fill="#FFAB03"/>
<path d="M65.4064 11.4802C64.4435 11.4802 63.6287 10.6654 63.6287 9.70258C63.6287 8.73973 64.4435 7.925 65.4064 7.925C66.3694 7.925 67.1842 8.73973 67.1842 9.70258C67.1842 10.6654 66.3694 11.4802 65.4064 11.4802ZM65.4064 8.59159C64.8138 8.59159 64.3694 9.03599 64.3694 9.62851C64.3694 10.221 64.8138 10.6654 65.4064 10.6654C65.999 10.6654 66.4434 10.221 66.4434 9.62851C66.4434 9.03599 65.9249 8.59159 65.4064 8.59159Z" fill="#FFCC01"/>
<path d="M36.0735 22.9603C37.178 22.9603 38.0734 22.065 38.0734 20.9606C38.0734 19.8561 37.178 18.9608 36.0735 18.9608C34.9689 18.9608 34.0735 19.8561 34.0735 20.9606C34.0735 22.065 34.9689 22.9603 36.0735 22.9603Z" fill="#FFAB03"/>
<path d="M36.0735 23.2566C34.8142 23.2566 33.7031 22.2197 33.7031 20.8865C33.7031 19.5533 34.7401 18.5164 36.0735 18.5164C37.3327 18.5164 38.4438 19.5533 38.4438 20.8865C38.4438 22.2197 37.4068 23.2566 36.0735 23.2566ZM36.0735 19.3311C35.1846 19.3311 34.4439 20.0718 34.4439 20.9606C34.4439 21.8494 35.1846 22.59 36.0735 22.59C36.9623 22.59 37.7031 21.8494 37.7031 20.9606C37.7031 20.0718 36.9623 19.3311 36.0735 19.3311Z" fill="#FFCC01"/>
<path d="M29.8514 29.6262C31.2423 29.6262 32.3698 28.4988 32.3698 27.108C32.3698 25.7172 31.2423 24.5898 29.8514 24.5898C28.4604 24.5898 27.3329 25.7172 27.3329 27.108C27.3329 28.4988 28.4604 29.6262 29.8514 29.6262Z" fill="#FFAB03"/>
<path d="M29.8514 30.0706C28.2218 30.0706 26.9625 28.7374 26.9625 27.1821C26.9625 25.6267 28.2958 24.2935 29.8514 24.2935C31.481 24.2935 32.7402 25.6267 32.7402 27.1821C32.7402 28.7374 31.481 30.0706 29.8514 30.0706ZM29.8514 24.9601C28.6662 24.9601 27.7033 25.923 27.7033 27.108C27.7033 28.2931 28.6662 29.2559 29.8514 29.2559C31.0365 29.2559 31.9995 28.2931 31.9995 27.108C31.9995 25.923 31.1106 24.9601 29.8514 24.9601Z" fill="#FFCC01"/>
<path d="M36.0735 28.5893C37.178 28.5893 38.0734 27.694 38.0734 26.5895C38.0734 25.4851 37.178 24.5898 36.0735 24.5898C34.9689 24.5898 34.0735 25.4851 34.0735 26.5895C34.0735 27.694 34.9689 28.5893 36.0735 28.5893Z" fill="#FFAB03"/>
<path d="M36.0735 28.8856C34.8142 28.8856 33.7031 27.8487 33.7031 26.5155C33.7031 25.1823 34.7401 24.1454 36.0735 24.1454C37.3327 24.1454 38.4438 25.1823 38.4438 26.5155C38.4438 27.8487 37.4068 28.8856 36.0735 28.8856ZM36.0735 24.9601C35.1846 24.9601 34.4439 25.7008 34.4439 26.5896C34.4439 27.4783 35.1846 28.219 36.0735 28.219C36.9623 28.219 37.7031 27.4783 37.7031 26.5896C37.7031 25.7008 36.9623 24.9601 36.0735 24.9601Z" fill="#FFCC01"/>
<path d="M20.8885 40.9583C21.9931 40.9583 22.8885 40.063 22.8885 38.9585C22.8885 37.8541 21.9931 36.9588 20.8885 36.9588C19.784 36.9588 18.8885 37.8541 18.8885 38.9585C18.8885 40.063 19.784 40.9583 20.8885 40.9583Z" fill="#FFAB03"/>
<path d="M20.8885 41.3286C19.6293 41.3286 18.5182 40.2917 18.5182 38.9585C18.5182 37.6253 19.5552 36.5884 20.8885 36.5884C22.2218 36.5884 23.2589 37.6253 23.2589 38.9585C23.2589 40.2917 22.1478 41.3286 20.8885 41.3286ZM20.8885 37.3291C19.9996 37.3291 19.2589 38.0697 19.2589 38.9585C19.2589 39.8473 19.9996 40.588 20.8885 40.588C21.7774 40.588 22.5181 39.8473 22.5181 38.9585C22.5181 38.0697 21.7774 37.3291 20.8885 37.3291Z" fill="#FFCC01"/>
<path d="M10.148 61.7707C11.2526 61.7707 12.148 60.8754 12.148 59.771C12.148 58.6665 11.2526 57.7712 10.148 57.7712C9.04349 57.7712 8.14807 58.6665 8.14807 59.771C8.14807 60.8754 9.04349 61.7707 10.148 61.7707Z" fill="#FFAB03"/>
<path d="M10.148 62.1411C8.8888 62.1411 7.77771 61.1042 7.77771 59.771C7.77771 58.4378 8.81473 57.4009 10.148 57.4009C11.4073 57.4009 12.5184 58.4378 12.5184 59.771C12.5184 61.1042 11.4814 62.1411 10.148 62.1411ZM10.148 58.2156C9.25917 58.2156 8.51844 58.9563 8.51844 59.845C8.51844 60.7338 9.25917 61.4745 10.148 61.4745C11.0369 61.4745 11.7776 60.7338 11.7776 59.845C11.7776 58.9563 11.0369 58.2156 10.148 58.2156Z" fill="#FFCC01"/>
<path d="M5.62949 111.395C6.73404 111.395 7.62946 110.499 7.62946 109.395C7.62946 108.291 6.73404 107.395 5.62949 107.395C4.52493 107.395 3.62952 108.291 3.62952 109.395C3.62952 110.499 4.52493 111.395 5.62949 111.395Z" fill="#FFAB03"/>
<path d="M5.62949 111.765C4.37025 111.765 3.25916 110.728 3.25916 109.395C3.25916 108.062 4.29618 107.025 5.62949 107.025C6.9628 107.025 7.99982 108.062 7.99982 109.395C7.99982 110.728 6.9628 111.765 5.62949 111.765ZM5.62949 107.766C4.74061 107.766 3.99988 108.506 3.99988 109.395C3.99988 110.284 4.74061 111.024 5.62949 111.024C6.51837 111.024 7.2591 110.284 7.2591 109.395C7.2591 108.506 6.51837 107.766 5.62949 107.766Z" fill="#FFCC01"/>
<path d="M7.33318 71.9178C8.7241 71.9178 9.85166 70.7903 9.85166 69.3995C9.85166 68.0087 8.7241 66.8813 7.33318 66.8813C5.94226 66.8813 4.8147 68.0087 4.8147 69.3995C4.8147 70.7903 5.94226 71.9178 7.33318 71.9178Z" fill="#FFAB03"/>
<path d="M7.33318 72.2881C5.70358 72.2881 4.44434 70.9549 4.44434 69.3995C4.44434 67.8441 5.77765 66.511 7.33318 66.511C8.88871 66.511 10.222 67.8441 10.222 69.3995C10.222 70.9549 8.96279 72.2881 7.33318 72.2881ZM7.33318 67.2516C6.14801 67.2516 5.18507 68.2145 5.18507 69.3995C5.18507 70.5846 6.14801 71.5474 7.33318 71.5474C8.51835 71.5474 9.4813 70.5846 9.4813 69.3995C9.4813 68.2145 8.51835 67.2516 7.33318 67.2516Z" fill="#FFCC01"/>
<path d="M5.62954 104.433C8.53411 104.433 10.8887 102.078 10.8887 99.1739C10.8887 96.2696 8.53411 93.9153 5.62954 93.9153C2.72498 93.9153 0.370361 96.2696 0.370361 99.1739C0.370361 102.078 2.72498 104.433 5.62954 104.433Z" fill="#FFAB03"/>
<path d="M5.62954 104.803C2.51848 104.803 0 102.285 0 99.1739C0 96.0631 2.51848 93.5449 5.62954 93.5449C8.74061 93.5449 11.2591 96.0631 11.2591 99.1739C11.2591 102.285 8.74061 104.803 5.62954 104.803ZM5.62954 94.2856C2.88884 94.2856 0.74073 96.5075 0.74073 99.1739C0.74073 101.84 2.96292 104.062 5.62954 104.062C8.29617 104.062 10.5184 101.84 10.5184 99.1739C10.5184 96.5075 8.37024 94.2856 5.62954 94.2856Z" fill="#FFCC01"/>
<path d="M57.7028 173.98C60.3619 173.98 62.5175 171.825 62.5175 169.166C62.5175 166.507 60.3619 164.352 57.7028 164.352C55.0437 164.352 52.8881 166.507 52.8881 169.166C52.8881 171.825 55.0437 173.98 57.7028 173.98Z" fill="#FFAB03"/>
<path d="M57.7028 174.351C54.814 174.351 52.5177 172.055 52.5177 169.166C52.5177 166.277 54.814 163.981 57.7028 163.981C60.5916 163.981 62.8879 166.277 62.8879 169.166C62.8879 172.055 60.5916 174.351 57.7028 174.351ZM57.7028 164.648C55.2584 164.648 53.2584 166.648 53.2584 169.092C53.2584 171.536 55.2584 173.536 57.7028 173.536C60.1472 173.536 62.1472 171.536 62.1472 169.092C62.1472 166.648 60.1472 164.648 57.7028 164.648Z" fill="#FFCC01"/>
<path d="M19.1849 136.725C20.5758 136.725 21.7033 135.598 21.7033 134.207C21.7033 132.816 20.5758 131.689 19.1849 131.689C17.7939 131.689 16.6664 132.816 16.6664 134.207C16.6664 135.598 17.7939 136.725 19.1849 136.725Z" fill="#FFAB03"/>
<path d="M19.1849 137.096C17.5553 137.096 16.296 135.762 16.296 134.207C16.296 132.578 17.6293 131.318 19.1849 131.318C20.7404 131.318 22.0737 132.652 22.0737 134.207C22.0737 135.762 20.8145 137.096 19.1849 137.096ZM19.1849 131.985C17.9997 131.985 17.0367 132.948 17.0367 134.133C17.0367 135.318 17.9997 136.281 19.1849 136.281C20.37 136.281 21.333 135.318 21.333 134.133C21.333 132.948 20.37 131.985 19.1849 131.985Z" fill="#FFCC01"/>
<path d="M14.0738 53.9198C15.792 53.9198 17.1849 52.5271 17.1849 50.8091C17.1849 49.091 15.792 47.6983 14.0738 47.6983C12.3556 47.6983 10.9628 49.091 10.9628 50.8091C10.9628 52.5271 12.3556 53.9198 14.0738 53.9198Z" fill="#FFAB03"/>
<path d="M14.0738 54.2901C12.1479 54.2901 10.5924 52.7347 10.5924 50.809C10.5924 48.8833 12.1479 47.328 14.0738 47.328C15.9997 47.328 17.5553 48.8833 17.5553 50.809C17.5553 52.7347 15.9997 54.2901 14.0738 54.2901ZM14.0738 48.0686C12.5924 48.0686 11.3331 49.3277 11.3331 50.809C11.3331 52.2904 12.5924 53.5495 14.0738 53.5495C15.5553 53.5495 16.8145 52.2904 16.8145 50.809C16.8145 49.3277 15.6294 48.0686 14.0738 48.0686Z" fill="#FFCC01"/>
<path d="M19.7034 45.4763C20.4807 45.4763 21.1108 44.8463 21.1108 44.0691C21.1108 43.2919 20.4807 42.6618 19.7034 42.6618C18.9261 42.6618 18.296 43.2919 18.296 44.0691C18.296 44.8463 18.9261 45.4763 19.7034 45.4763Z" fill="#FFAB03"/>
<path d="M19.7034 45.8466C18.7405 45.8466 17.9257 45.0319 17.9257 44.0691C17.9257 43.1062 18.7405 42.2915 19.7034 42.2915C20.6664 42.2915 21.4812 43.1062 21.4812 44.0691C21.4812 45.0319 20.7404 45.8466 19.7034 45.8466ZM19.7034 42.9581C19.1108 42.9581 18.6664 43.4025 18.6664 43.995C18.6664 44.5875 19.1108 45.0319 19.7034 45.0319C20.296 45.0319 20.7404 44.5875 20.7404 43.995C20.7404 43.4025 20.296 42.9581 19.7034 42.9581Z" fill="#FFCC01"/>
<path d="M7.92582 65.6962C8.7031 65.6962 9.3332 65.0662 9.3332 64.289C9.3332 63.5118 8.7031 62.8817 7.92582 62.8817C7.14854 62.8817 6.51843 63.5118 6.51843 64.289C6.51843 65.0662 7.14854 65.6962 7.92582 65.6962Z" fill="#FFAB03"/>
<path d="M7.92582 66.0665C6.96287 66.0665 6.14807 65.2518 6.14807 64.289C6.14807 63.3261 6.96287 62.5114 7.92582 62.5114C8.88877 62.5114 9.70357 63.3261 9.70357 64.289C9.70357 65.2518 8.88877 66.0665 7.92582 66.0665ZM7.92582 63.2521C7.33324 63.2521 6.8888 63.6965 6.8888 64.289C6.8888 64.8815 7.33324 65.3259 7.92582 65.3259C8.51841 65.3259 8.96284 64.8815 8.96284 64.289C8.96284 63.6965 8.44433 63.2521 7.92582 63.2521Z" fill="#FFCC01"/>
<path d="M15.7775 45.9948C16.5548 45.9948 17.1849 45.3647 17.1849 44.5875C17.1849 43.8103 16.5548 43.1803 15.7775 43.1803C15.0002 43.1803 14.3701 43.8103 14.3701 44.5875C14.3701 45.3647 15.0002 45.9948 15.7775 45.9948Z" fill="#FFAB03"/>
<path d="M15.7775 46.3651C14.8146 46.3651 13.9998 45.5504 13.9998 44.5875C13.9998 43.6247 14.8146 42.8099 15.7775 42.8099C16.7405 42.8099 17.5553 43.6247 17.5553 44.5875C17.5553 45.5504 16.7405 46.3651 15.7775 46.3651ZM15.7775 43.5506C15.1849 43.5506 14.7405 43.995 14.7405 44.5875C14.7405 45.18 15.1849 45.6244 15.7775 45.6244C16.3701 45.6244 16.8145 45.18 16.8145 44.5875C16.8145 43.995 16.3701 43.5506 15.7775 43.5506Z" fill="#FFCC01"/>
<path d="M5.62955 79.8428C6.40683 79.8428 7.03694 79.2127 7.03694 78.4355C7.03694 77.6583 6.40683 77.0283 5.62955 77.0283C4.85228 77.0283 4.22217 77.6583 4.22217 78.4355C4.22217 79.2127 4.85228 79.8428 5.62955 79.8428Z" fill="#FFAB03"/>
<path d="M5.62956 80.2131C4.66661 80.2131 3.85181 79.3984 3.85181 78.4355C3.85181 77.4727 4.66661 76.6579 5.62956 76.6579C6.59251 76.6579 7.40731 77.4727 7.40731 78.4355C7.40731 79.3984 6.66658 80.2131 5.62956 80.2131ZM5.62956 77.3986C5.03697 77.3986 4.59254 77.843 4.59254 78.4355C4.59254 79.028 5.03697 79.4724 5.62956 79.4724C6.22214 79.4724 6.66658 79.028 6.66658 78.4355C6.66658 77.843 6.22214 77.3986 5.62956 77.3986Z" fill="#FFCC01"/>
<path d="M14.0738 127.171C15.1784 127.171 16.0738 126.275 16.0738 125.171C16.0738 124.067 15.1784 123.171 14.0738 123.171C12.9693 123.171 12.0739 124.067 12.0739 125.171C12.0739 126.275 12.9693 127.171 14.0738 127.171Z" fill="#FFAB03"/>
<path d="M14.0738 127.467C12.8146 127.467 11.7035 126.43 11.7035 125.097C11.7035 123.764 12.7405 122.727 14.0738 122.727C15.4071 122.727 16.4442 123.764 16.4442 125.097C16.4442 126.43 15.4071 127.467 14.0738 127.467ZM14.0738 123.542C13.1849 123.542 12.4442 124.282 12.4442 125.171C12.4442 126.06 13.1849 126.8 14.0738 126.8C14.9627 126.8 15.7034 126.06 15.7034 125.171C15.7034 124.282 14.9627 123.542 14.0738 123.542Z" fill="#FFCC01"/>
<path d="M52.9621 163.167C54.6803 163.167 56.0732 161.774 56.0732 160.056C56.0732 158.338 54.6803 156.945 52.9621 156.945C51.2439 156.945 49.8511 158.338 49.8511 160.056C49.8511 161.774 51.2439 163.167 52.9621 163.167Z" fill="#FFAB03"/>
<path d="M52.9621 163.537C51.0362 163.537 49.4807 161.982 49.4807 160.056C49.4807 158.13 51.0362 156.575 52.9621 156.575C54.888 156.575 56.4436 158.13 56.4436 160.056C56.4436 161.982 54.888 163.537 52.9621 163.537ZM52.9621 157.39C51.4807 157.39 50.2214 158.649 50.2214 160.13C50.2214 161.611 51.4807 162.87 52.9621 162.87C54.4436 162.87 55.7028 161.611 55.7028 160.13C55.7028 158.649 54.5177 157.39 52.9621 157.39Z" fill="#FFCC01"/>
<path d="M72.7396 173.906C74.4578 173.906 75.8507 172.513 75.8507 170.795C75.8507 169.077 74.4578 167.685 72.7396 167.685C71.0214 167.685 69.6285 169.077 69.6285 170.795C69.6285 172.513 71.0214 173.906 72.7396 173.906Z" fill="#FFAB03"/>
<path d="M72.7396 174.277C70.8137 174.277 69.2582 172.721 69.2582 170.795C69.2582 168.87 70.8137 167.314 72.7396 167.314C74.6655 167.314 76.221 168.87 76.221 170.795C76.221 172.721 74.5914 174.277 72.7396 174.277ZM72.7396 168.055C71.2581 168.055 69.9989 169.314 69.9989 170.795C69.9989 172.277 71.2581 173.536 72.7396 173.536C74.2211 173.536 75.4803 172.277 75.4803 170.795C75.4803 169.314 74.2211 168.055 72.7396 168.055Z" fill="#FFCC01"/>
<path d="M135.776 159.241C137.494 159.241 138.887 157.848 138.887 156.13C138.887 154.412 137.494 153.02 135.776 153.02C134.058 153.02 132.665 154.412 132.665 156.13C132.665 157.848 134.058 159.241 135.776 159.241Z" fill="#FFAB03"/>
<path d="M135.776 159.611C133.85 159.611 132.294 158.056 132.294 156.13C132.294 154.205 133.85 152.649 135.776 152.649C137.702 152.649 139.257 154.205 139.257 156.13C139.257 158.056 137.702 159.611 135.776 159.611ZM135.776 153.39C134.294 153.39 133.035 154.649 133.035 156.13C133.035 157.612 134.294 158.871 135.776 158.871C137.257 158.871 138.516 157.612 138.516 156.13C138.516 154.649 137.331 153.39 135.776 153.39Z" fill="#FFCC01"/>
<path d="M45.629 164.87C47.0199 164.87 48.1474 163.743 48.1474 162.352C48.1474 160.961 47.0199 159.834 45.629 159.834C44.238 159.834 43.1105 160.961 43.1105 162.352C43.1105 163.743 44.238 164.87 45.629 164.87Z" fill="#FFAB03"/>
<path d="M45.629 165.241C43.9994 165.241 42.7401 163.907 42.7401 162.352C42.7401 160.722 44.0734 159.463 45.629 159.463C47.1845 159.463 48.5178 160.797 48.5178 162.352C48.5919 163.981 47.2586 165.241 45.629 165.241ZM45.629 160.204C44.4438 160.204 43.4808 161.167 43.4808 162.352C43.4808 163.537 44.4438 164.5 45.629 164.5C46.8141 164.5 47.7771 163.537 47.7771 162.352C47.7771 161.167 46.8882 160.204 45.629 160.204Z" fill="#FFCC01"/>
<path d="M79.9987 176.721C81.3896 176.721 82.5172 175.593 82.5172 174.202C82.5172 172.812 81.3896 171.684 79.9987 171.684C78.6078 171.684 77.4802 172.812 77.4802 174.202C77.4802 175.593 78.6078 176.721 79.9987 176.721Z" fill="#FFAB03"/>
<path d="M79.9987 177.091C78.3691 177.091 77.1099 175.758 77.1099 174.202C77.1099 172.647 78.4432 171.314 79.9987 171.314C81.6283 171.314 82.8876 172.647 82.8876 174.202C82.8876 175.758 81.6283 177.091 79.9987 177.091ZM79.9987 171.98C78.8135 171.98 77.8506 172.943 77.8506 174.128C77.8506 175.313 78.8135 176.276 79.9987 176.276C81.1839 176.276 82.1468 175.313 82.1468 174.128C82.1468 172.943 81.258 171.98 79.9987 171.98Z" fill="#FFCC01"/>
<path d="M127.924 163.759C129.315 163.759 130.442 162.632 130.442 161.241C130.442 159.85 129.315 158.723 127.924 158.723C126.533 158.723 125.406 159.85 125.406 161.241C125.406 162.632 126.533 163.759 127.924 163.759Z" fill="#FFAB03"/>
<path d="M127.924 164.13C126.294 164.13 125.035 162.796 125.035 161.241C125.035 159.611 126.368 158.352 127.924 158.352C129.554 158.352 130.813 159.686 130.813 161.241C130.813 162.796 129.554 164.13 127.924 164.13ZM127.924 159.019C126.739 159.019 125.776 159.982 125.776 161.167C125.776 162.352 126.739 163.315 127.924 163.315C129.109 163.315 130.072 162.352 130.072 161.167C130.072 159.982 129.109 159.019 127.924 159.019Z" fill="#FFCC01"/>
<path d="M96.9615 173.314C98.3524 173.314 99.48 172.186 99.48 170.795C99.48 169.405 98.3524 168.277 96.9615 168.277C95.5706 168.277 94.443 169.405 94.443 170.795C94.443 172.186 95.5706 173.314 96.9615 173.314Z" fill="#FFAB03"/>
<path d="M96.9615 173.684C95.3319 173.684 94.0726 172.351 94.0726 170.795C94.0726 169.24 95.4059 167.907 96.9615 167.907C98.517 167.907 99.8503 169.24 99.8503 170.795C99.8503 172.351 98.517 173.684 96.9615 173.684ZM96.9615 168.648C95.7763 168.648 94.8134 169.61 94.8134 170.795C94.8134 171.98 95.7763 172.943 96.9615 172.943C98.1466 172.943 99.1096 171.98 99.1096 170.795C99.1096 169.61 98.1466 168.648 96.9615 168.648Z" fill="#FFCC01"/>
<path d="M168.516 106.284C169.907 106.284 171.034 105.157 171.034 103.766C171.034 102.375 169.907 101.248 168.516 101.248C167.125 101.248 165.997 102.375 165.997 103.766C165.997 105.157 167.125 106.284 168.516 106.284Z" fill="#FFAB03"/>
<path d="M168.516 106.655C166.886 106.655 165.627 105.321 165.627 103.766C165.627 102.211 166.96 100.877 168.516 100.877C170.071 100.877 171.405 102.211 171.405 103.766C171.405 105.321 170.071 106.655 168.516 106.655ZM168.516 101.618C167.331 101.618 166.368 102.581 166.368 103.766C166.368 104.951 167.331 105.914 168.516 105.914C169.701 105.914 170.664 104.951 170.664 103.766C170.664 102.581 169.701 101.618 168.516 101.618Z" fill="#FFCC01"/>
<path d="M161.701 55.0308C163.092 55.0308 164.22 53.9033 164.22 52.5126C164.22 51.1218 163.092 49.9943 161.701 49.9943C160.31 49.9943 159.183 51.1218 159.183 52.5126C159.183 53.9033 160.31 55.0308 161.701 55.0308Z" fill="#FFAB03"/>
<path d="M161.701 55.4011C160.072 55.4011 158.812 54.0679 158.812 52.5126C158.812 50.8831 160.146 49.624 161.701 49.624C163.257 49.624 164.59 50.9572 164.59 52.5126C164.664 54.0679 163.331 55.4011 161.701 55.4011ZM161.701 50.2906C160.516 50.2906 159.553 51.2534 159.553 52.4385C159.553 53.6235 160.516 54.5864 161.701 54.5864C162.886 54.5864 163.849 53.6235 163.849 52.4385C163.849 51.2534 162.886 50.2906 161.701 50.2906Z" fill="#FFCC01"/>
<path d="M147.627 148.502C149.018 148.502 150.146 147.374 150.146 145.983C150.146 144.593 149.018 143.465 147.627 143.465C146.236 143.465 145.109 144.593 145.109 145.983C145.109 147.374 146.236 148.502 147.627 148.502Z" fill="#FFAB03"/>
<path d="M147.627 148.946C145.998 148.946 144.739 147.613 144.739 146.057C144.739 144.502 146.072 143.169 147.627 143.169C149.183 143.169 150.516 144.502 150.516 146.057C150.516 147.613 149.257 148.946 147.627 148.946ZM147.627 143.836C146.442 143.836 145.479 144.798 145.479 145.983C145.479 147.168 146.442 148.131 147.627 148.131C148.813 148.131 149.776 147.168 149.776 145.983C149.776 144.798 148.813 143.836 147.627 143.836Z" fill="#FFCC01"/>
<path d="M13.5553 132.207C14.3326 132.207 14.9627 131.577 14.9627 130.8C14.9627 130.023 14.3326 129.393 13.5553 129.393C12.7781 129.393 12.1479 130.023 12.1479 130.8C12.1479 131.577 12.7781 132.207 13.5553 132.207Z" fill="#FFAB03"/>
<path d="M13.5553 132.578C12.5924 132.578 11.7776 131.763 11.7776 130.8C11.7776 129.837 12.5924 129.022 13.5553 129.022C14.5183 129.022 15.3331 129.837 15.3331 130.8C15.3331 131.763 14.5183 132.578 13.5553 132.578ZM13.5553 129.763C12.9628 129.763 12.5183 130.207 12.5183 130.8C12.5183 131.392 12.9628 131.837 13.5553 131.837C14.1479 131.837 14.5924 131.392 14.5924 130.8C14.5924 130.207 14.1479 129.763 13.5553 129.763Z" fill="#FFCC01"/>
<path d="M3.92582 89.2491C4.7031 89.2491 5.3332 88.6191 5.3332 87.8419C5.3332 87.0647 4.7031 86.4346 3.92582 86.4346C3.14854 86.4346 2.51843 87.0647 2.51843 87.8419C2.51843 88.6191 3.14854 89.2491 3.92582 89.2491Z" fill="#FFAB03"/>
<path d="M3.92582 89.6194C2.96287 89.6194 2.14807 88.8047 2.14807 87.8419C2.14807 86.879 2.96287 86.0643 3.92582 86.0643C4.88877 86.0643 5.70357 86.879 5.70357 87.8419C5.70357 88.8047 4.96284 89.6194 3.92582 89.6194ZM3.92582 86.8049C3.33324 86.8049 2.8888 87.2493 2.8888 87.8419C2.8888 88.4344 3.33324 88.8788 3.92582 88.8788C4.51841 88.8788 4.96284 88.4344 4.96284 87.8419C4.96284 87.2493 4.51841 86.8049 3.92582 86.8049Z" fill="#FFCC01"/>
<path d="M24.8144 140.651C25.5916 140.651 26.2218 140.021 26.2218 139.243C26.2218 138.466 25.5916 137.836 24.8144 137.836C24.0371 137.836 23.407 138.466 23.407 139.243C23.407 140.021 24.0371 140.651 24.8144 140.651Z" fill="#FFAB03"/>
<path d="M24.8144 141.021C23.8514 141.021 23.0366 140.206 23.0366 139.243C23.0366 138.281 23.8514 137.466 24.8144 137.466C25.7773 137.466 26.5921 138.281 26.5921 139.243C26.5921 140.206 25.7773 141.021 24.8144 141.021ZM24.8144 138.207C24.2218 138.207 23.7773 138.651 23.7773 139.243C23.7773 139.836 24.2218 140.28 24.8144 140.28C25.407 140.28 25.8514 139.836 25.8514 139.243C25.8514 138.651 25.407 138.207 24.8144 138.207Z" fill="#FFCC01"/>
<path d="M68.7397 165.981C69.5169 165.981 70.147 165.351 70.147 164.574C70.147 163.797 69.5169 163.167 68.7397 163.167C67.9624 163.167 67.3323 163.797 67.3323 164.574C67.3323 165.351 67.9624 165.981 68.7397 165.981Z" fill="#FFAB03"/>
<path d="M68.7397 166.351C67.7767 166.351 66.9619 165.537 66.9619 164.574C66.9619 163.611 67.7767 162.796 68.7397 162.796C69.7026 162.796 70.5174 163.611 70.5174 164.574C70.5174 165.537 69.7767 166.351 68.7397 166.351ZM68.7397 163.537C68.1471 163.537 67.7026 163.981 67.7026 164.574C67.7026 165.166 68.1471 165.611 68.7397 165.611C69.3322 165.611 69.7767 165.166 69.7767 164.574C69.7767 163.981 69.3322 163.537 68.7397 163.537Z" fill="#FFCC01"/>
<path d="M152.146 141.243C152.923 141.243 153.553 140.613 153.553 139.836C153.553 139.059 152.923 138.429 152.146 138.429C151.369 138.429 150.738 139.059 150.738 139.836C150.738 140.613 151.369 141.243 152.146 141.243Z" fill="#FFAB03"/>
<path d="M152.146 141.614C151.183 141.614 150.368 140.799 150.368 139.836C150.368 138.873 151.183 138.058 152.146 138.058C153.109 138.058 153.924 138.873 153.924 139.836C153.924 140.799 153.109 141.614 152.146 141.614ZM152.146 138.799C151.553 138.799 151.109 139.243 151.109 139.836C151.109 140.429 151.553 140.873 152.146 140.873C152.738 140.873 153.183 140.429 153.183 139.836C153.183 139.243 152.738 138.799 152.146 138.799Z" fill="#FFCC01"/>
<path d="M67.036 169.981C67.8133 169.981 68.4434 169.351 68.4434 168.573C68.4434 167.796 67.8133 167.166 67.036 167.166C66.2588 167.166 65.6287 167.796 65.6287 168.573C65.6287 169.351 66.2588 169.981 67.036 169.981Z" fill="#FFAB03"/>
<path d="M67.0361 170.351C66.0731 170.351 65.2583 169.536 65.2583 168.573C65.2583 167.611 66.0731 166.796 67.0361 166.796C67.999 166.796 68.8138 167.611 68.8138 168.573C68.8138 169.536 68.0731 170.351 67.0361 170.351ZM67.0361 167.536C66.4435 167.536 65.999 167.981 65.999 168.573C65.999 169.166 66.4435 169.61 67.0361 169.61C67.6286 169.61 68.0731 169.166 68.0731 168.573C68.0731 167.981 67.6286 167.536 67.0361 167.536Z" fill="#FFCC01"/>
<path d="M120.591 165.981C121.368 165.981 121.998 165.351 121.998 164.574C121.998 163.797 121.368 163.167 120.591 163.167C119.813 163.167 119.183 163.797 119.183 164.574C119.183 165.351 119.813 165.981 120.591 165.981Z" fill="#FFAB03"/>
<path d="M120.591 166.351C119.628 166.351 118.813 165.537 118.813 164.574C118.813 163.611 119.628 162.796 120.591 162.796C121.554 162.796 122.368 163.611 122.368 164.574C122.368 165.537 121.554 166.351 120.591 166.351ZM120.591 163.537C119.998 163.537 119.554 163.981 119.554 164.574C119.554 165.166 119.998 165.611 120.591 165.611C121.183 165.611 121.628 165.166 121.628 164.574C121.628 163.981 121.183 163.537 120.591 163.537Z" fill="#FFCC01"/>
<path d="M163.997 121.468C164.775 121.468 165.405 120.838 165.405 120.06C165.405 119.283 164.775 118.653 163.997 118.653C163.22 118.653 162.59 119.283 162.59 120.06C162.59 120.838 163.22 121.468 163.997 121.468Z" fill="#FFAB03"/>
<path d="M163.997 121.838C163.035 121.838 162.22 121.023 162.22 120.06C162.22 119.098 163.035 118.283 163.997 118.283C164.96 118.283 165.775 119.098 165.775 120.06C165.775 121.023 164.96 121.838 163.997 121.838ZM163.997 119.024C163.405 119.024 162.96 119.468 162.96 120.06C162.96 120.653 163.405 121.097 163.997 121.097C164.59 121.097 165.035 120.653 165.035 120.06C165.035 119.468 164.59 119.024 163.997 119.024Z" fill="#FFCC01"/>
<path d="M107.628 169.981C108.405 169.981 109.035 169.351 109.035 168.573C109.035 167.796 108.405 167.166 107.628 167.166C106.851 167.166 106.221 167.796 106.221 168.573C106.221 169.351 106.851 169.981 107.628 169.981Z" fill="#FFAB03"/>
<path d="M107.628 170.351C106.665 170.351 105.85 169.536 105.85 168.573C105.85 167.611 106.665 166.796 107.628 166.796C108.591 166.796 109.406 167.611 109.406 168.573C109.406 169.536 108.591 170.351 107.628 170.351ZM107.628 167.536C107.035 167.536 106.591 167.981 106.591 168.573C106.591 169.166 107.035 169.61 107.628 169.61C108.221 169.61 108.665 169.166 108.665 168.573C108.665 167.981 108.221 167.536 107.628 167.536Z" fill="#FFCC01"/>
<path d="M156.072 135.614C156.849 135.614 157.479 134.984 157.479 134.207C157.479 133.43 156.849 132.8 156.072 132.8C155.294 132.8 154.664 133.43 154.664 134.207C154.664 134.984 155.294 135.614 156.072 135.614Z" fill="#FFAB03"/>
<path d="M156.072 135.985C155.109 135.985 154.294 135.17 154.294 134.207C154.294 133.244 155.109 132.429 156.072 132.429C157.035 132.429 157.849 133.244 157.849 134.207C157.849 135.17 157.109 135.985 156.072 135.985ZM156.072 133.17C155.479 133.17 155.035 133.614 155.035 134.207C155.035 134.799 155.479 135.244 156.072 135.244C156.664 135.244 157.109 134.799 157.109 134.207C157.109 133.614 156.664 133.17 156.072 133.17Z" fill="#FFCC01"/>
<path d="M166.812 110.802C167.59 110.802 168.22 110.172 168.22 109.395C168.22 108.618 167.59 107.988 166.812 107.988C166.035 107.988 165.405 108.618 165.405 109.395C165.405 110.172 166.035 110.802 166.812 110.802Z" fill="#FFAB03"/>
<path d="M166.812 111.173C165.849 111.173 165.035 110.358 165.035 109.395C165.035 108.432 165.849 107.617 166.812 107.617C167.775 107.617 168.59 108.432 168.59 109.395C168.59 110.358 167.775 111.173 166.812 111.173ZM166.812 108.358C166.22 108.358 165.775 108.802 165.775 109.395C165.775 109.987 166.22 110.432 166.812 110.432C167.405 110.432 167.849 109.987 167.849 109.395C167.849 108.802 167.405 108.358 166.812 108.358Z" fill="#FFCC01"/>
<path d="M102.591 172.203C103.368 172.203 103.998 171.573 103.998 170.795C103.998 170.018 103.368 169.388 102.591 169.388C101.814 169.388 101.184 170.018 101.184 170.795C101.184 171.573 101.814 172.203 102.591 172.203Z" fill="#FFAB03"/>
<path d="M102.591 172.573C101.628 172.573 100.813 171.758 100.813 170.795C100.813 169.833 101.628 169.018 102.591 169.018C103.554 169.018 104.369 169.833 104.369 170.795C104.369 171.758 103.554 172.573 102.591 172.573ZM102.591 169.758C101.998 169.758 101.554 170.203 101.554 170.795C101.554 171.388 101.998 171.832 102.591 171.832C103.184 171.832 103.628 171.388 103.628 170.795C103.628 170.203 103.109 169.758 102.591 169.758Z" fill="#FFCC01"/>
<path d="M85.1098 172.795C85.8871 172.795 86.5172 172.165 86.5172 171.388C86.5172 170.611 85.8871 169.981 85.1098 169.981C84.3325 169.981 83.7024 170.611 83.7024 171.388C83.7024 172.165 84.3325 172.795 85.1098 172.795Z" fill="#FFAB03"/>
<path d="M85.1098 173.166C84.1468 173.166 83.332 172.351 83.332 171.388C83.332 170.425 84.1468 169.61 85.1098 169.61C86.0727 169.61 86.8875 170.425 86.8875 171.388C86.8875 172.351 86.0727 173.166 85.1098 173.166ZM85.1098 170.351C84.5172 170.351 84.0728 170.795 84.0728 171.388C84.0728 171.98 84.5172 172.425 85.1098 172.425C85.7024 172.425 86.1468 171.98 86.1468 171.388C86.1468 170.795 85.7024 170.351 85.1098 170.351Z" fill="#FFCC01"/>
<path d="M65.4064 174.425C66.1837 174.425 66.8138 173.795 66.8138 173.017C66.8138 172.24 66.1837 171.61 65.4064 171.61C64.6291 171.61 63.999 172.24 63.999 173.017C63.999 173.795 64.6291 174.425 65.4064 174.425Z" fill="#FFAB03"/>
<path d="M65.4064 174.795C64.4435 174.795 63.6287 173.98 63.6287 173.017C63.6287 172.055 64.4435 171.24 65.4064 171.24C66.3694 171.24 67.1842 172.055 67.1842 173.017C67.1842 173.98 66.3694 174.795 65.4064 174.795ZM65.4064 171.98C64.8138 171.98 64.3694 172.425 64.3694 173.017C64.3694 173.61 64.8138 174.054 65.4064 174.054C65.999 174.054 66.4434 173.61 66.4434 173.017C66.4434 172.425 65.9249 171.98 65.4064 171.98Z" fill="#FFCC01"/>
<path d="M32.1476 151.39C32.9249 151.39 33.555 150.76 33.555 149.983C33.555 149.206 32.9249 148.576 32.1476 148.576C31.3703 148.576 30.7402 149.206 30.7402 149.983C30.7402 150.76 31.3703 151.39 32.1476 151.39Z" fill="#FFAB03"/>
<path d="M32.1476 151.761C31.1847 151.761 30.3699 150.946 30.3699 149.983C30.3699 149.02 31.1847 148.205 32.1476 148.205C33.1106 148.205 33.9254 149.02 33.9254 149.983C33.9254 150.946 33.1106 151.761 32.1476 151.761ZM32.1476 148.946C31.555 148.946 31.1106 149.39 31.1106 149.983C31.1106 150.575 31.555 151.02 32.1476 151.02C32.7402 151.02 33.1846 150.575 33.1846 149.983C33.1846 149.39 32.7402 148.946 32.1476 148.946Z" fill="#FFCC01"/>
<path d="M42.8141 159.834C43.5914 159.834 44.2215 159.204 44.2215 158.426C44.2215 157.649 43.5914 157.019 42.8141 157.019C42.0368 157.019 41.4067 157.649 41.4067 158.426C41.4067 159.204 42.0368 159.834 42.8141 159.834Z" fill="#FFAB03"/>
<path d="M42.8141 160.204C41.8512 160.204 41.0364 159.389 41.0364 158.426C41.0364 157.464 41.8512 156.649 42.8141 156.649C43.7771 156.649 44.5919 157.464 44.5919 158.426C44.5919 159.389 43.8511 160.204 42.8141 160.204ZM42.8141 157.39C42.2215 157.39 41.7771 157.834 41.7771 158.426C41.7771 159.019 42.2215 159.463 42.8141 159.463C43.4067 159.463 43.8511 159.019 43.8511 158.426C43.8511 157.834 43.4067 157.39 42.8141 157.39Z" fill="#FFCC01"/>
<path d="M20.2959 141.243C21.0732 141.243 21.7033 140.613 21.7033 139.836C21.7033 139.059 21.0732 138.429 20.2959 138.429C19.5187 138.429 18.8885 139.059 18.8885 139.836C18.8885 140.613 19.5187 141.243 20.2959 141.243Z" fill="#FFAB03"/>
<path d="M20.2959 141.614C19.333 141.614 18.5182 140.799 18.5182 139.836C18.5182 138.873 19.333 138.058 20.2959 138.058C21.2589 138.058 22.0737 138.873 22.0737 139.836C22.0737 140.799 21.2589 141.614 20.2959 141.614ZM20.2959 138.799C19.7034 138.799 19.2589 139.243 19.2589 139.836C19.2589 140.429 19.7034 140.873 20.2959 140.873C20.8885 140.873 21.333 140.429 21.333 139.836C21.333 139.243 20.8885 138.799 20.2959 138.799Z" fill="#FFCC01"/>
<path d="M28.2218 147.983C29.3263 147.983 30.2217 147.088 30.2217 145.983C30.2217 144.879 29.3263 143.984 28.2218 143.984C27.1172 143.984 26.2218 144.879 26.2218 145.983C26.2218 147.088 27.1172 147.983 28.2218 147.983Z" fill="#FFAB03"/>
<path d="M28.2218 148.354C26.9625 148.354 25.8514 147.317 25.8514 145.983C25.8514 144.65 26.8885 143.613 28.2218 143.613C29.5551 143.613 30.5921 144.65 30.5921 145.983C30.5921 147.317 29.481 148.354 28.2218 148.354ZM28.2218 144.428C27.3329 144.428 26.5922 145.169 26.5922 146.057C26.5922 146.946 27.3329 147.687 28.2218 147.687C29.1106 147.687 29.8514 146.946 29.8514 146.057C29.8514 145.169 29.1106 144.428 28.2218 144.428Z" fill="#FFCC01"/>
<path d="M140.887 154.797C141.991 154.797 142.887 153.902 142.887 152.797C142.887 151.693 141.991 150.798 140.887 150.798C139.782 150.798 138.887 151.693 138.887 152.797C138.887 153.902 139.782 154.797 140.887 154.797Z" fill="#FFAB03"/>
<path d="M140.887 155.093C139.627 155.093 138.516 154.057 138.516 152.723C138.516 151.39 139.553 150.353 140.887 150.353C142.146 150.353 143.257 151.39 143.257 152.723C143.257 154.057 142.146 155.093 140.887 155.093ZM140.887 151.168C139.998 151.168 139.257 151.909 139.257 152.797C139.257 153.686 139.998 154.427 140.887 154.427C141.776 154.427 142.516 153.686 142.516 152.797C142.516 151.909 141.776 151.168 140.887 151.168Z" fill="#FFCC01"/>
<path d="M166.22 115.32C167.324 115.32 168.22 114.425 168.22 113.32C168.22 112.216 167.324 111.321 166.22 111.321C165.115 111.321 164.22 112.216 164.22 113.32C164.22 114.425 165.115 115.32 166.22 115.32Z" fill="#FFAB03"/>
<path d="M166.22 115.691C164.96 115.691 163.849 114.654 163.849 113.32C163.849 111.987 164.886 110.95 166.22 110.95C167.553 110.95 168.59 111.987 168.59 113.32C168.59 114.654 167.553 115.691 166.22 115.691ZM166.22 111.765C165.331 111.765 164.59 112.506 164.59 113.395C164.59 114.283 165.331 115.024 166.22 115.024C167.109 115.024 167.849 114.283 167.849 113.395C167.849 112.506 167.109 111.765 166.22 111.765Z" fill="#FFCC01"/>
<path d="M169.331 89.3972C172.604 89.3972 175.257 86.7444 175.257 83.472C175.257 80.1996 172.604 77.5467 169.331 77.5467C166.058 77.5467 163.405 80.1996 163.405 83.472C163.405 86.7444 166.058 89.3972 169.331 89.3972Z" fill="#FFAB03"/>
<path d="M169.331 89.7676C165.849 89.7676 163.035 86.9531 163.035 83.472C163.035 79.9909 165.849 77.1764 169.331 77.1764C172.812 77.1764 175.627 79.9909 175.627 83.472C175.627 86.9531 172.812 89.7676 169.331 89.7676ZM169.331 77.843C166.294 77.843 163.775 80.3612 163.775 83.3979C163.775 86.4346 166.294 88.9528 169.331 88.9528C172.368 88.9528 174.886 86.4346 174.886 83.3979C174.886 80.3612 172.368 77.843 169.331 77.843Z" fill="#FFCC01"/>
<path d="M169.627 95.1003C170.732 95.1003 171.627 94.205 171.627 93.1005C171.627 91.9961 170.732 91.1008 169.627 91.1008C168.522 91.1008 167.627 91.9961 167.627 93.1005C167.627 94.205 168.522 95.1003 169.627 95.1003Z" fill="#FFAB03"/>
<path d="M169.627 95.3966C168.368 95.3966 167.257 94.3596 167.257 93.0265C167.257 91.6933 168.294 90.6564 169.627 90.6564C170.886 90.6564 171.997 91.6933 171.997 93.0265C171.997 94.3596 170.886 95.3966 169.627 95.3966ZM169.627 91.4711C168.738 91.4711 167.997 92.2117 167.997 93.1005C167.997 93.9893 168.738 94.73 169.627 94.73C170.516 94.73 171.257 93.9893 171.257 93.1005C171.257 92.2117 170.516 91.4711 169.627 91.4711Z" fill="#FFCC01"/>
<path d="M158.886 48.2908C159.991 48.2908 160.886 47.3955 160.886 46.291C160.886 45.1866 159.991 44.2913 158.886 44.2913C157.782 44.2913 156.886 45.1866 156.886 46.291C156.886 47.3955 157.782 48.2908 158.886 48.2908Z" fill="#FFAB03"/>
<path d="M158.886 48.6611C157.627 48.6611 156.516 47.6242 156.516 46.291C156.516 44.9578 157.553 43.9209 158.886 43.9209C160.22 43.9209 161.257 44.9578 161.257 46.291C161.257 47.6242 160.22 48.6611 158.886 48.6611ZM158.886 44.6616C157.998 44.6616 157.257 45.4022 157.257 46.291C157.257 47.1798 157.998 47.9205 158.886 47.9205C159.775 47.9205 160.516 47.1798 160.516 46.291C160.516 45.4022 159.775 44.6616 158.886 44.6616Z" fill="#FFCC01"/>
<path d="M10.7406 120.357C11.5179 120.357 12.148 119.727 12.148 118.949C12.148 118.172 11.5179 117.542 10.7406 117.542C9.96336 117.542 9.33325 118.172 9.33325 118.949C9.33325 119.727 9.96336 120.357 10.7406 120.357Z" fill="#FFAB03"/>
<path d="M10.7406 120.727C9.77769 120.727 8.96289 119.912 8.96289 118.949C8.96289 117.987 9.77769 117.172 10.7406 117.172C11.7036 117.172 12.5184 117.987 12.5184 118.949C12.5184 119.912 11.7036 120.727 10.7406 120.727ZM10.7406 117.913C10.1481 117.913 9.70362 118.357 9.70362 118.949C9.70362 119.542 10.1481 119.986 10.7406 119.986C11.3332 119.986 11.7777 119.542 11.7777 118.949C11.7777 118.357 11.3332 117.913 10.7406 117.913Z" fill="#FFCC01"/>
<path d="M27.0367 33.6258C27.8139 33.6258 28.444 32.9958 28.444 32.2186C28.444 31.4414 27.8139 30.8113 27.0367 30.8113C26.2594 30.8113 25.6293 31.4414 25.6293 32.2186C25.6293 32.9958 26.2594 33.6258 27.0367 33.6258Z" fill="#FFAB03"/>
<path d="M27.0367 33.9961C26.0737 33.9961 25.2589 33.1814 25.2589 32.2186C25.2589 31.2557 26.0737 30.441 27.0367 30.441C27.9996 30.441 28.8144 31.2557 28.8144 32.2186C28.8144 33.1814 28.0737 33.9961 27.0367 33.9961ZM27.0367 31.1816C26.4441 31.1816 25.9996 31.626 25.9996 32.2186C25.9996 32.8111 26.4441 33.2555 27.0367 33.2555C27.6292 33.2555 28.0737 32.8111 28.0737 32.2186C28.0737 31.626 27.6292 31.1816 27.0367 31.1816Z" fill="#FFCC01"/>
<path d="M24.8144 35.8478C25.2644 35.8478 25.6292 35.483 25.6292 35.0331C25.6292 34.5831 25.2644 34.2184 24.8144 34.2184C24.3644 34.2184 23.9996 34.5831 23.9996 35.0331C23.9996 35.483 24.3644 35.8478 24.8144 35.8478Z" fill="#FFAB03"/>
<path d="M24.8144 36.2181C24.1478 36.2181 23.6293 35.6996 23.6293 35.0331C23.6293 34.3665 24.1478 33.848 24.8144 33.848C25.4811 33.848 25.9996 34.3665 25.9996 35.0331C25.9996 35.6996 25.4811 36.2181 24.8144 36.2181ZM24.8144 34.5146C24.5181 34.5146 24.37 34.7368 24.37 34.959C24.37 35.1812 24.5922 35.4034 24.8144 35.4034C25.0367 35.4034 25.2589 35.1812 25.2589 34.959C25.2589 34.7368 25.0367 34.5146 24.8144 34.5146Z" fill="#FFCC01"/>
<path d="M10.1481 56.1417C10.5981 56.1417 10.9629 55.777 10.9629 55.327C10.9629 54.8771 10.5981 54.5123 10.1481 54.5123C9.69805 54.5123 9.33325 54.8771 9.33325 55.327C9.33325 55.777 9.69805 56.1417 10.1481 56.1417Z" fill="#FFAB03"/>
<path d="M10.1481 56.5121C9.4814 56.5121 8.96289 55.9936 8.96289 55.327C8.96289 54.6605 9.4814 54.142 10.1481 54.142C10.8147 54.142 11.3332 54.6605 11.3332 55.327C11.3332 55.9936 10.8147 56.5121 10.1481 56.5121ZM10.1481 54.8086C9.85177 54.8086 9.70362 55.0308 9.70362 55.253C9.70362 55.4752 9.92584 55.6974 10.1481 55.6974C10.3703 55.6974 10.5925 55.4752 10.5925 55.253C10.5925 55.0308 10.4443 54.8086 10.1481 54.8086Z" fill="#FFCC01"/>
<path d="M5.11107 74.1397C5.56107 74.1397 5.92587 73.775 5.92587 73.325C5.92587 72.875 5.56107 72.5103 5.11107 72.5103C4.66106 72.5103 4.29626 72.875 4.29626 73.325C4.29626 73.775 4.66106 74.1397 5.11107 74.1397Z" fill="#FFAB03"/>
<path d="M5.11107 74.5101C4.44441 74.5101 3.9259 73.9916 3.9259 73.325C3.9259 72.6584 4.44441 72.14 5.11107 72.14C5.77773 72.14 6.29624 72.6584 6.29624 73.325C6.29624 73.9916 5.77773 74.5101 5.11107 74.5101ZM5.11107 72.8806C4.81478 72.8806 4.66663 73.1028 4.66663 73.325C4.66663 73.5472 4.88885 73.7694 5.11107 73.7694C5.33329 73.7694 5.55551 73.5472 5.55551 73.325C5.55551 73.1028 5.33329 72.8806 5.11107 72.8806Z" fill="#FFCC01"/>
<path d="M7.33324 75.2507C7.78324 75.2507 8.14804 74.8859 8.14804 74.436C8.14804 73.986 7.78324 73.6213 7.33324 73.6213C6.88323 73.6213 6.51843 73.986 6.51843 74.436C6.51843 74.8859 6.88323 75.2507 7.33324 75.2507Z" fill="#FFAB03"/>
<path d="M7.33324 75.6951C6.66658 75.6951 6.14807 75.1767 6.14807 74.5101C6.14807 73.8435 6.66658 73.325 7.33324 73.325C7.99989 73.325 8.51841 73.8435 8.51841 74.5101C8.51841 75.1767 7.99989 75.6951 7.33324 75.6951ZM7.33324 73.9916C7.03695 73.9916 6.8888 74.2138 6.8888 74.436C6.8888 74.7323 7.11102 74.8804 7.33324 74.8804C7.55546 74.8804 7.77768 74.6582 7.77768 74.436C7.85175 74.2138 7.62953 73.9916 7.33324 73.9916Z" fill="#FFCC01"/>
<path d="M4.81468 83.9905C5.26468 83.9905 5.62948 83.6257 5.62948 83.1757C5.62948 82.7258 5.26468 82.361 4.81468 82.361C4.36468 82.361 3.99988 82.7258 3.99988 83.1757C3.99988 83.6257 4.36468 83.9905 4.81468 83.9905Z" fill="#FFAB03"/>
<path d="M4.81468 84.4348C4.14803 84.4348 3.62952 83.9164 3.62952 83.2498C3.62952 82.5832 4.14803 82.0647 4.81468 82.0647C5.48134 82.0647 5.99985 82.5832 5.99985 83.2498C5.99985 83.9164 5.48134 84.4348 4.81468 84.4348ZM4.81468 82.7313C4.51839 82.7313 4.37025 82.9535 4.37025 83.1757C4.37025 83.472 4.59246 83.6201 4.81468 83.6201C5.0369 83.6201 5.25912 83.3979 5.25912 83.1757C5.33319 82.9535 5.11098 82.7313 4.81468 82.7313Z" fill="#FFCC01"/>
<path d="M6.81468 91.5452C7.26468 91.5452 7.62948 91.1804 7.62948 90.7304C7.62948 90.2805 7.26468 89.9157 6.81468 89.9157C6.36468 89.9157 5.99988 90.2805 5.99988 90.7304C5.99988 91.1804 6.36468 91.5452 6.81468 91.5452Z" fill="#FFAB03"/>
<path d="M6.81468 91.9155C6.14803 91.9155 5.62952 91.397 5.62952 90.7304C5.62952 90.0638 6.14803 89.5454 6.81468 89.5454C7.48134 89.5454 7.99985 90.0638 7.99985 90.7304C7.99985 91.397 7.48134 91.9155 6.81468 91.9155ZM6.81468 90.212C6.51839 90.212 6.37025 90.4342 6.37025 90.6564C6.37025 90.8786 6.59246 91.1008 6.81468 91.1008C7.0369 91.1008 7.25912 90.8786 7.25912 90.6564C7.25912 90.4342 7.0369 90.212 6.81468 90.212Z" fill="#FFCC01"/>
<path d="M10.1481 111.321C10.5981 111.321 10.9629 110.956 10.9629 110.506C10.9629 110.056 10.5981 109.691 10.1481 109.691C9.69805 109.691 9.33325 110.056 9.33325 110.506C9.33325 110.956 9.69805 111.321 10.1481 111.321Z" fill="#FFAB03"/>
<path d="M10.1481 111.765C9.4814 111.765 8.96289 111.247 8.96289 110.58C8.96289 109.913 9.4814 109.395 10.1481 109.395C10.8147 109.395 11.3332 109.913 11.3332 110.58C11.3332 111.247 10.8147 111.765 10.1481 111.765ZM10.1481 110.062C9.85177 110.062 9.70362 110.284 9.70362 110.506C9.70362 110.728 9.92584 110.95 10.1481 110.95C10.3703 110.95 10.5925 110.728 10.5925 110.506C10.5925 110.284 10.4443 110.062 10.1481 110.062Z" fill="#FFCC01"/>
<path d="M7.92576 114.135C8.37577 114.135 8.74057 113.77 8.74057 113.32C8.74057 112.871 8.37577 112.506 7.92576 112.506C7.47576 112.506 7.11096 112.871 7.11096 113.32C7.11096 113.77 7.47576 114.135 7.92576 114.135Z" fill="#FFAB03"/>
<path d="M7.92577 114.58C7.25911 114.58 6.7406 114.061 6.7406 113.395C6.7406 112.728 7.25911 112.209 7.92577 112.209C8.59242 112.209 9.11093 112.728 9.11093 113.395C9.11093 114.061 8.59242 114.58 7.92577 114.58ZM7.92577 112.876C7.62948 112.876 7.48133 113.098 7.48133 113.32C7.48133 113.617 7.70355 113.765 7.92577 113.765C8.14799 113.765 8.37021 113.543 8.37021 113.32C8.37021 113.098 8.14799 112.876 7.92577 112.876Z" fill="#FFCC01"/>
<path d="M12.4442 122.579C12.8942 122.579 13.259 122.214 13.259 121.764C13.259 121.314 12.8942 120.949 12.4442 120.949C11.9942 120.949 11.6294 121.314 11.6294 121.764C11.6294 122.214 11.9942 122.579 12.4442 122.579Z" fill="#FFAB03"/>
<path d="M12.4442 123.023C11.7775 123.023 11.259 122.505 11.259 121.838C11.259 121.171 11.7775 120.653 12.4442 120.653C13.1109 120.653 13.6294 121.171 13.6294 121.838C13.6294 122.505 13.1109 123.023 12.4442 123.023ZM12.4442 121.32C12.1479 121.32 11.9998 121.542 11.9998 121.764C11.9998 121.986 12.222 122.208 12.4442 122.208C12.6664 122.208 12.8886 121.986 12.8886 121.764C12.8886 121.542 12.6664 121.32 12.4442 121.32Z" fill="#FFCC01"/>
<path d="M37.7772 154.723C38.2272 154.723 38.592 154.358 38.592 153.908C38.592 153.458 38.2272 153.094 37.7772 153.094C37.3272 153.094 36.9624 153.458 36.9624 153.908C36.9624 154.358 37.3272 154.723 37.7772 154.723Z" fill="#FFAB03"/>
<path d="M37.7772 155.093C37.1106 155.093 36.592 154.575 36.592 153.908C36.592 153.242 37.1106 152.723 37.7772 152.723C38.4439 152.723 38.9624 153.242 38.9624 153.908C38.9624 154.575 38.4439 155.093 37.7772 155.093ZM37.7772 153.39C37.4809 153.39 37.3328 153.612 37.3328 153.834C37.3328 154.131 37.555 154.279 37.7772 154.279C37.9994 154.279 38.2216 154.057 38.2216 153.834C38.2216 153.612 37.9994 153.39 37.7772 153.39Z" fill="#FFCC01"/>
<path d="M38.8883 158.649C39.3383 158.649 39.7031 158.284 39.7031 157.834C39.7031 157.384 39.3383 157.019 38.8883 157.019C38.4383 157.019 38.0735 157.384 38.0735 157.834C38.0735 158.284 38.4383 158.649 38.8883 158.649Z" fill="#FFAB03"/>
<path d="M38.8883 159.019C38.2216 159.019 37.7031 158.501 37.7031 157.834C37.7031 157.167 38.2216 156.649 38.8883 156.649C39.5549 156.649 40.0735 157.167 40.0735 157.834C40.0735 158.501 39.5549 159.019 38.8883 159.019ZM38.8883 157.39C38.592 157.39 38.4439 157.612 38.4439 157.834C38.4439 158.13 38.6661 158.278 38.8883 158.278C39.1105 158.278 39.3327 158.056 39.3327 157.834C39.4068 157.612 39.1846 157.39 38.8883 157.39Z" fill="#FFCC01"/>
<path d="M45.1105 156.427C45.5605 156.427 45.9253 156.062 45.9253 155.612C45.9253 155.162 45.5605 154.797 45.1105 154.797C44.6605 154.797 44.2957 155.162 44.2957 155.612C44.2957 156.062 44.6605 156.427 45.1105 156.427Z" fill="#FFAB03"/>
<path d="M45.1105 156.797C44.4438 156.797 43.9253 156.279 43.9253 155.612C43.9253 154.945 44.4438 154.427 45.1105 154.427C45.7771 154.427 46.2956 154.945 46.2956 155.612C46.2956 156.279 45.7771 156.797 45.1105 156.797ZM45.1105 155.093C44.8142 155.093 44.666 155.316 44.666 155.538C44.666 155.76 44.8882 155.982 45.1105 155.982C45.3327 155.982 45.5549 155.76 45.5549 155.538C45.5549 155.316 45.3327 155.093 45.1105 155.093Z" fill="#FFCC01"/>
<path d="M88.4431 173.832C88.8931 173.832 89.2579 173.467 89.2579 173.017C89.2579 172.567 88.8931 172.203 88.4431 172.203C87.9931 172.203 87.6283 172.567 87.6283 173.017C87.6283 173.467 87.9931 173.832 88.4431 173.832Z" fill="#FFAB03"/>
<path d="M88.4431 174.277C87.7764 174.277 87.2579 173.758 87.2579 173.091C87.2579 172.425 87.7764 171.906 88.4431 171.906C89.1098 171.906 89.6283 172.425 89.6283 173.091C89.6283 173.758 89.1838 174.277 88.4431 174.277ZM88.4431 172.573C88.1468 172.573 87.9987 172.795 87.9987 173.017C87.9987 173.24 88.2209 173.462 88.4431 173.462C88.6653 173.462 88.8875 173.24 88.8875 173.017C88.8875 172.795 88.7394 172.573 88.4431 172.573Z" fill="#FFCC01"/>
<path d="M91.8504 170.499C92.3004 170.499 92.6652 170.134 92.6652 169.684C92.6652 169.234 92.3004 168.87 91.8504 168.87C91.4004 168.87 91.0356 169.234 91.0356 169.684C91.0356 170.134 91.4004 170.499 91.8504 170.499Z" fill="#FFAB03"/>
<path d="M91.8504 170.869C91.1838 170.869 90.6653 170.351 90.6653 169.684C90.6653 169.018 91.1838 168.499 91.8504 168.499C92.5171 168.499 93.0356 169.018 93.0356 169.684C93.0356 170.351 92.5171 170.869 91.8504 170.869ZM91.8504 169.166C91.5542 169.166 91.406 169.388 91.406 169.61C91.406 169.833 91.6282 170.055 91.8504 170.055C92.0727 170.055 92.2949 169.833 92.2949 169.61C92.2949 169.388 92.1467 169.166 91.8504 169.166Z" fill="#FFCC01"/>
<path d="M144.813 151.316C145.263 151.316 145.627 150.951 145.627 150.501C145.627 150.051 145.263 149.687 144.813 149.687C144.363 149.687 143.998 150.051 143.998 150.501C143.998 150.951 144.363 151.316 144.813 151.316Z" fill="#FFAB03"/>
<path d="M144.813 151.761C144.146 151.761 143.627 151.242 143.627 150.575C143.627 149.909 144.146 149.39 144.813 149.39C145.479 149.39 145.998 149.909 145.998 150.575C145.998 151.242 145.479 151.761 144.813 151.761ZM144.813 150.057C144.516 150.057 144.368 150.279 144.368 150.501C144.368 150.798 144.59 150.946 144.813 150.946C145.035 150.946 145.257 150.724 145.257 150.501C145.331 150.279 145.109 150.057 144.813 150.057Z" fill="#FFCC01"/>
<path d="M111.035 168.203C111.485 168.203 111.85 167.838 111.85 167.388C111.85 166.938 111.485 166.574 111.035 166.574C110.585 166.574 110.221 166.938 110.221 167.388C110.221 167.838 110.585 168.203 111.035 168.203Z" fill="#FFAB03"/>
<path d="M111.035 168.647C110.369 168.647 109.85 168.129 109.85 167.462C109.85 166.796 110.369 166.277 111.035 166.277C111.702 166.277 112.221 166.796 112.221 167.462C112.221 168.129 111.702 168.647 111.035 168.647ZM111.035 166.944C110.739 166.944 110.591 167.166 110.591 167.388C110.591 167.611 110.813 167.833 111.035 167.833C111.258 167.833 111.48 167.611 111.48 167.388C111.48 167.166 111.258 166.944 111.035 166.944Z" fill="#FFCC01"/>
<path d="M114.369 167.092C114.819 167.092 115.183 166.727 115.183 166.277C115.183 165.827 114.819 165.463 114.369 165.463C113.919 165.463 113.554 165.827 113.554 166.277C113.554 166.727 113.919 167.092 114.369 167.092Z" fill="#FFAB03"/>
<path d="M114.369 167.537C113.702 167.537 113.183 167.018 113.183 166.352C113.183 165.685 113.702 165.166 114.369 165.166C115.035 165.166 115.554 165.685 115.554 166.352C115.554 167.018 115.035 167.537 114.369 167.537ZM114.369 165.833C114.072 165.833 113.924 166.055 113.924 166.277C113.924 166.5 114.146 166.722 114.369 166.722C114.591 166.722 114.813 166.5 114.813 166.277C114.813 166.055 114.665 165.833 114.369 165.833Z" fill="#FFCC01"/>
<path d="M117.183 165.981C117.633 165.981 117.998 165.616 117.998 165.166C117.998 164.716 117.633 164.352 117.183 164.352C116.733 164.352 116.369 164.716 116.369 165.166C116.369 165.616 116.733 165.981 117.183 165.981Z" fill="#FFAB03"/>
<path d="M117.183 166.351C116.517 166.351 115.998 165.833 115.998 165.166C115.998 164.5 116.517 163.981 117.183 163.981C117.85 163.981 118.369 164.5 118.369 165.166C118.369 165.833 117.85 166.351 117.183 166.351ZM117.183 164.722C116.887 164.722 116.739 164.944 116.739 165.166C116.739 165.463 116.961 165.611 117.183 165.611C117.406 165.611 117.628 165.389 117.628 165.166C117.702 164.87 117.48 164.722 117.183 164.722Z" fill="#FFCC01"/>
<path d="M130.739 158.649C131.189 158.649 131.554 158.284 131.554 157.834C131.554 157.384 131.189 157.019 130.739 157.019C130.289 157.019 129.924 157.384 129.924 157.834C129.924 158.284 130.289 158.649 130.739 158.649Z" fill="#FFAB03"/>
<path d="M130.739 159.019C130.072 159.019 129.554 158.501 129.554 157.834C129.554 157.167 130.072 156.649 130.739 156.649C131.405 156.649 131.924 157.167 131.924 157.834C131.924 158.501 131.405 159.019 130.739 159.019ZM130.739 157.39C130.442 157.39 130.294 157.612 130.294 157.834C130.294 158.13 130.517 158.278 130.739 158.278C130.961 158.278 131.183 158.056 131.183 157.834C131.183 157.612 131.035 157.39 130.739 157.39Z" fill="#FFCC01"/>
<path d="M153.849 137.836C154.299 137.836 154.664 137.471 154.664 137.021C154.664 136.572 154.299 136.207 153.849 136.207C153.399 136.207 153.035 136.572 153.035 137.021C153.035 137.471 153.399 137.836 153.849 137.836Z" fill="#FFAB03"/>
<path d="M153.849 138.207C153.183 138.207 152.664 137.688 152.664 137.021C152.664 136.355 153.183 135.836 153.849 135.836C154.516 135.836 155.035 136.355 155.035 137.021C155.035 137.688 154.516 138.207 153.849 138.207ZM153.849 136.503C153.553 136.503 153.405 136.725 153.405 136.947C153.405 137.244 153.627 137.392 153.849 137.392C154.072 137.392 154.294 137.17 154.294 136.947C154.294 136.725 154.072 136.503 153.849 136.503Z" fill="#FFCC01"/>
<path d="M160.072 128.8C160.522 128.8 160.886 128.435 160.886 127.985C160.886 127.536 160.522 127.171 160.072 127.171C159.622 127.171 159.257 127.536 159.257 127.985C159.257 128.435 159.622 128.8 160.072 128.8Z" fill="#FFAB03"/>
<path d="M160.072 129.171C159.405 129.171 158.886 128.652 158.886 127.985C158.886 127.319 159.405 126.8 160.072 126.8C160.738 126.8 161.257 127.319 161.257 127.985C161.257 128.652 160.738 129.171 160.072 129.171ZM160.072 127.467C159.775 127.467 159.627 127.689 159.627 127.911C159.627 128.134 159.849 128.356 160.072 128.356C160.294 128.356 160.516 128.134 160.516 127.911C160.516 127.689 160.294 127.467 160.072 127.467Z" fill="#FFCC01"/>
<path d="M161.701 124.875C162.151 124.875 162.516 124.51 162.516 124.06C162.516 123.61 162.151 123.245 161.701 123.245C161.251 123.245 160.886 123.61 160.886 124.06C160.886 124.51 161.251 124.875 161.701 124.875Z" fill="#FFAB03"/>
<path d="M161.701 125.245C161.035 125.245 160.516 124.727 160.516 124.06C160.516 123.393 161.035 122.875 161.701 122.875C162.368 122.875 162.886 123.393 162.886 124.06C162.886 124.727 162.368 125.245 161.701 125.245ZM161.701 123.542C161.405 123.542 161.257 123.764 161.257 123.986C161.257 124.208 161.479 124.43 161.701 124.43C161.923 124.43 162.146 124.208 162.146 123.986C162.146 123.764 161.998 123.542 161.701 123.542Z" fill="#FFCC01"/>
<path d="M12.9628 57.2528C13.4128 57.2528 13.7776 56.888 13.7776 56.438C13.7776 55.9881 13.4128 55.6233 12.9628 55.6233C12.5127 55.6233 12.1479 55.9881 12.1479 56.438C12.1479 56.888 12.5127 57.2528 12.9628 57.2528Z" fill="#FFAB03"/>
<path d="M12.9628 57.6231C12.2961 57.6231 11.7776 57.1046 11.7776 56.438C11.7776 55.7714 12.2961 55.253 12.9628 55.253C13.6294 55.253 14.1479 55.7714 14.1479 56.438C14.1479 57.1046 13.6294 57.6231 12.9628 57.6231ZM12.9628 55.9196C12.6665 55.9196 12.5183 56.1418 12.5183 56.364C12.5183 56.6602 12.7405 56.8084 12.9628 56.8084C13.185 56.8084 13.4072 56.5862 13.4072 56.364C13.4813 56.1418 13.259 55.9196 12.9628 55.9196Z" fill="#FFCC01"/>
<path d="M60.2954 10.5173C60.7454 10.5173 61.1102 10.1526 61.1102 9.7026C61.1102 9.25264 60.7454 8.88788 60.2954 8.88788C59.8454 8.88788 59.4806 9.25264 59.4806 9.7026C59.4806 10.1526 59.8454 10.5173 60.2954 10.5173Z" fill="#FFAB03"/>
<path d="M60.2954 10.8876C59.6287 10.8876 59.1102 10.3692 59.1102 9.7026C59.1102 9.03601 59.6287 8.51755 60.2954 8.51755C60.9621 8.51755 61.4806 9.03601 61.4806 9.7026C61.4806 10.3692 60.9621 10.8876 60.2954 10.8876ZM60.2954 9.18414C59.9991 9.18414 59.851 9.40634 59.851 9.62853C59.851 9.85073 60.0732 10.0729 60.2954 10.0729C60.5176 10.0729 60.7398 9.85073 60.7398 9.62853C60.7398 9.40634 60.5917 9.18414 60.2954 9.18414Z" fill="#FFCC01"/>
<path d="M62.5917 12.1468C63.0417 12.1468 63.4065 11.782 63.4065 11.332C63.4065 10.8821 63.0417 10.5173 62.5917 10.5173C62.1417 10.5173 61.7769 10.8821 61.7769 11.332C61.7769 11.782 62.1417 12.1468 62.5917 12.1468Z" fill="#FFAB03"/>
<path d="M62.5917 12.5911C61.925 12.5911 61.4065 12.0727 61.4065 11.4061C61.4065 10.7395 61.925 10.221 62.5917 10.221C63.2583 10.221 63.7768 10.7395 63.7768 11.4061C63.7768 12.0727 63.2583 12.5911 62.5917 12.5911ZM62.5917 10.8876C62.2954 10.8876 62.1472 11.1098 62.1472 11.332C62.1472 11.6283 62.3694 11.7764 62.5917 11.7764C62.8139 11.7764 63.0361 11.5542 63.0361 11.332C63.0361 11.1098 62.8139 10.8876 62.5917 10.8876Z" fill="#FFCC01"/>
<path d="M68.7397 9.33223C69.1897 9.33223 69.5545 8.96746 69.5545 8.5175C69.5545 8.06755 69.1897 7.70278 68.7397 7.70278C68.2897 7.70278 67.9249 8.06755 67.9249 8.5175C67.9249 8.96746 68.2897 9.33223 68.7397 9.33223Z" fill="#FFAB03"/>
<path d="M68.7397 9.77664C68.0731 9.77664 67.5546 9.25818 67.5546 8.59159C67.5546 7.925 68.0731 7.40654 68.7397 7.40654C69.4064 7.40654 69.9249 7.925 69.9249 8.59159C69.9249 9.25818 69.4064 9.77664 68.7397 9.77664ZM68.7397 8.07313C68.4434 8.07313 68.2953 8.29533 68.2953 8.51752C68.2953 8.81379 68.5175 8.96192 68.7397 8.96192C68.962 8.96192 69.1842 8.73972 69.1842 8.51752C69.2582 8.29533 69.036 8.07313 68.7397 8.07313Z" fill="#FFCC01"/>
<path d="M69.8508 7.1103C70.3008 7.1103 70.6656 6.74553 70.6656 6.29557C70.6656 5.84561 70.3008 5.48085 69.8508 5.48085C69.4008 5.48085 69.036 5.84561 69.036 6.29557C69.036 6.74553 69.4008 7.1103 69.8508 7.1103Z" fill="#FFAB03"/>
<path d="M69.8508 7.48063C69.1842 7.48063 68.6656 6.96217 68.6656 6.29558C68.6656 5.62899 69.1842 5.11053 69.8508 5.11053C70.5175 5.11053 71.036 5.62899 71.036 6.29558C71.036 6.96217 70.5916 7.48063 69.8508 7.48063ZM69.8508 5.77712C69.5545 5.77712 69.4064 5.99931 69.4064 6.22151C69.4064 6.44371 69.6286 6.66591 69.8508 6.66591C70.073 6.66591 70.3693 6.51777 70.3693 6.29558C70.3693 6.07338 70.1471 5.77712 69.8508 5.77712Z" fill="#FFCC01"/>
<path d="M105.924 7.62876C106.374 7.62876 106.739 7.26399 106.739 6.81404C106.739 6.36408 106.374 5.99931 105.924 5.99931C105.474 5.99931 105.109 6.36408 105.109 6.81404C105.109 7.26399 105.474 7.62876 105.924 7.62876Z" fill="#FFAB03"/>
<path d="M105.924 8.07314C105.258 8.07314 104.739 7.55468 104.739 6.88809C104.739 6.2215 105.258 5.70304 105.924 5.70304C106.591 5.70304 107.109 6.2215 107.109 6.88809C107.109 7.55468 106.591 8.07314 105.924 8.07314ZM105.924 6.36963C105.628 6.36963 105.48 6.59183 105.48 6.81403C105.48 7.03622 105.702 7.25842 105.924 7.25842C106.147 7.25842 106.369 7.03622 106.369 6.81403C106.369 6.59183 106.221 6.36963 105.924 6.36963Z" fill="#FFCC01"/>
<path d="M110.443 9.92477C110.893 9.92477 111.258 9.56001 111.258 9.11005C111.258 8.66009 110.893 8.29533 110.443 8.29533C109.993 8.29533 109.628 8.66009 109.628 9.11005C109.628 9.56001 109.993 9.92477 110.443 9.92477Z" fill="#FFAB03"/>
<path d="M110.443 10.2951C109.776 10.2951 109.258 9.77665 109.258 9.11005C109.258 8.44346 109.776 7.925 110.443 7.925C111.109 7.925 111.628 8.44346 111.628 9.11005C111.628 9.77665 111.109 10.2951 110.443 10.2951ZM110.443 8.59159C110.146 8.59159 109.998 8.81379 109.998 9.03599C109.998 9.25819 110.221 9.48038 110.443 9.48038C110.665 9.48038 110.887 9.25819 110.887 9.03599C110.887 8.81379 110.739 8.59159 110.443 8.59159Z" fill="#FFCC01"/>
<path d="M115.554 12.1468C116.004 12.1468 116.369 11.782 116.369 11.332C116.369 10.8821 116.004 10.5173 115.554 10.5173C115.104 10.5173 114.739 10.8821 114.739 11.332C114.739 11.782 115.104 12.1468 115.554 12.1468Z" fill="#FFAB03"/>
<path d="M115.554 12.5911C114.887 12.5911 114.369 12.0727 114.369 11.4061C114.369 10.7395 114.887 10.221 115.554 10.221C116.22 10.221 116.739 10.7395 116.739 11.4061C116.739 12.0727 116.22 12.5911 115.554 12.5911ZM115.554 10.8876C115.258 10.8876 115.109 11.1098 115.109 11.332C115.109 11.6283 115.332 11.7764 115.554 11.7764C115.776 11.7764 115.998 11.5542 115.998 11.332C115.998 11.1098 115.776 10.8876 115.554 10.8876Z" fill="#FFCC01"/>
<path d="M156.072 42.5878C156.522 42.5878 156.886 42.223 156.886 41.773C156.886 41.3231 156.522 40.9583 156.072 40.9583C155.622 40.9583 155.257 41.3231 155.257 41.773C155.257 42.223 155.622 42.5878 156.072 42.5878Z" fill="#FFAB03"/>
<path d="M156.072 42.9581C155.405 42.9581 154.886 42.4396 154.886 41.773C154.886 41.1064 155.405 40.588 156.072 40.588C156.738 40.588 157.257 41.1064 157.257 41.773C157.257 42.4396 156.738 42.9581 156.072 42.9581ZM156.072 41.3286C155.775 41.3286 155.627 41.5508 155.627 41.773C155.627 41.9952 155.849 42.2174 156.072 42.2174C156.294 42.2174 156.516 41.9952 156.516 41.773C156.516 41.5508 156.368 41.3286 156.072 41.3286Z" fill="#FFCC01"/>
<path d="M166.812 68.5107C167.262 68.5107 167.627 68.146 167.627 67.696C167.627 67.2461 167.262 66.8813 166.812 66.8813C166.362 66.8813 165.997 67.2461 165.997 67.696C165.997 68.146 166.362 68.5107 166.812 68.5107Z" fill="#FFAB03"/>
<path d="M166.812 68.881C166.146 68.881 165.627 68.3626 165.627 67.696C165.627 67.0294 166.146 66.511 166.812 66.511C167.479 66.511 167.997 67.0294 167.997 67.696C167.997 68.3626 167.479 68.881 166.812 68.881ZM166.812 67.2516C166.516 67.2516 166.368 67.4738 166.368 67.696C166.368 67.9923 166.59 68.1404 166.812 68.1404C167.034 68.1404 167.257 67.9182 167.257 67.696C167.257 67.3997 167.034 67.2516 166.812 67.2516Z" fill="#FFCC01"/>
<path d="M168.516 74.7322C168.966 74.7322 169.331 74.3675 169.331 73.9175C169.331 73.4676 168.966 73.1028 168.516 73.1028C168.066 73.1028 167.701 73.4676 167.701 73.9175C167.701 74.3675 168.066 74.7322 168.516 74.7322Z" fill="#FFAB03"/>
<path d="M168.516 75.1026C167.849 75.1026 167.331 74.5841 167.331 73.9175C167.331 73.2509 167.849 72.7325 168.516 72.7325C169.183 72.7325 169.701 73.2509 169.701 73.9175C169.701 74.5841 169.183 75.1026 168.516 75.1026ZM168.516 73.399C168.22 73.399 168.072 73.6212 168.072 73.8434C168.072 74.1397 168.294 74.2878 168.516 74.2878C168.738 74.2878 168.96 74.0656 168.96 73.8434C168.96 73.6212 168.738 73.399 168.516 73.399Z" fill="#FFCC01"/>
<path d="M163.998 59.4747C164.448 59.4747 164.812 59.11 164.812 58.66C164.812 58.21 164.448 57.8453 163.998 57.8453C163.548 57.8453 163.183 58.21 163.183 58.66C163.183 59.11 163.548 59.4747 163.998 59.4747Z" fill="#FFAB03"/>
<path d="M163.998 59.9191C163.331 59.9191 162.812 59.4007 162.812 58.7341C162.812 58.0675 163.331 57.549 163.998 57.549C164.664 57.549 165.183 58.0675 165.183 58.7341C165.183 59.4007 164.664 59.9191 163.998 59.9191ZM163.998 58.2156C163.701 58.2156 163.553 58.4378 163.553 58.66C163.553 58.8822 163.775 59.1044 163.998 59.1044C164.22 59.1044 164.442 58.8822 164.442 58.66C164.442 58.4378 164.22 58.2156 163.998 58.2156Z" fill="#FFCC01"/>
<path d="M129.035 17.2573C129.485 17.2573 129.85 16.8925 129.85 16.4426C129.85 15.9926 129.485 15.6278 129.035 15.6278C128.585 15.6278 128.22 15.9926 128.22 16.4426C128.22 16.8925 128.585 17.2573 129.035 17.2573Z" fill="#FFAB03"/>
<path d="M129.035 17.6276C128.368 17.6276 127.85 17.1092 127.85 16.4426C127.85 15.776 128.368 15.2575 129.035 15.2575C129.702 15.2575 130.22 15.776 130.22 16.4426C130.22 17.1092 129.702 17.6276 129.035 17.6276ZM129.035 15.9241C128.739 15.9241 128.591 16.1463 128.591 16.3685C128.591 16.5907 128.813 16.8129 129.035 16.8129C129.257 16.8129 129.479 16.5907 129.479 16.3685C129.479 16.1463 129.331 15.9241 129.035 15.9241Z" fill="#FFCC01"/>
<path d="M152.146 37.5513C152.596 37.5513 152.961 37.1865 152.961 36.7365C152.961 36.2866 152.596 35.9218 152.146 35.9218C151.696 35.9218 151.331 36.2866 151.331 36.7365C151.331 37.1865 151.696 37.5513 152.146 37.5513Z" fill="#FFAB03"/>
<path d="M152.146 37.9216C151.479 37.9216 150.961 37.4031 150.961 36.7365C150.961 36.07 151.479 35.5515 152.146 35.5515C152.813 35.5515 153.331 36.07 153.331 36.7365C153.331 37.4031 152.813 37.9216 152.146 37.9216ZM152.146 36.2181C151.85 36.2181 151.701 36.4403 151.701 36.6625C151.701 36.9587 151.924 37.1069 152.146 37.1069C152.368 37.1069 152.59 36.8847 152.59 36.6625C152.59 36.4403 152.442 36.2181 152.146 36.2181Z" fill="#FFCC01"/>
</svg>
