<svg width="18" height="18" viewBox="0 0 18 18" fill="none" xmlns="http://www.w3.org/2000/svg">
<g clip-path="url(#clip0_40:2237)">
<path d="M17.9989 6.15309C17.8911 6.43426 17.7271 6.65452 17.4178 6.7295C17.0148 6.82791 16.593 6.55611 16.5227 6.1484C16.504 6.04999 16.4993 5.95158 16.4993 5.85316C16.4993 4.84093 16.4993 3.82869 16.4993 2.81177C16.4993 2.75085 16.4993 2.68524 16.4993 2.62432C16.4805 2.61026 16.4618 2.5962 16.4431 2.58214C14.9856 4.07238 13.5235 5.56261 12.0567 7.06222C13.4298 8.89456 13.8609 10.9471 13.2142 13.1825C12.769 14.7196 11.8505 15.9474 10.5196 16.8425C7.67503 18.7498 3.86508 18.2765 1.58755 15.5772C-0.530645 13.0653 -0.535331 9.45691 1.57818 6.92163C3.82759 4.22234 7.94215 3.60375 10.9742 5.97969C12.4457 4.50351 13.9218 3.02734 15.398 1.54647C15.3933 1.53241 15.3886 1.51367 15.3793 1.49961C15.3183 1.49961 15.2574 1.49961 15.2012 1.49961C14.1702 1.49961 13.1392 1.5043 12.1082 1.49492C11.9302 1.49492 11.7333 1.44337 11.5787 1.35902C11.3303 1.21843 11.2272 0.97006 11.2507 0.684197C11.2741 0.398334 11.4241 0.192137 11.6865 0.0702942C11.738 0.0468628 11.7896 0.0234314 11.8458 0C13.6875 0 15.5245 0 17.3663 0C17.699 0.0890393 17.9099 0.299922 17.9989 0.632648C17.9989 2.47436 17.9989 4.31138 17.9989 6.15309ZM1.50789 11.2471C1.50789 14.1338 3.84634 16.477 6.74246 16.491C9.62921 16.5051 11.9958 14.1385 11.9958 11.2424C11.9958 8.34626 9.6667 6.0125 6.7612 5.99844C3.87446 5.98907 1.50789 8.35095 1.50789 11.2471Z" fill="#FF6F03"/>
</g>
<defs>
<clipPath id="clip0_40:2237">
<rect width="18" height="18" fill="white"/>
</clipPath>
</defs>
</svg>
