<svg width="161" height="89" viewBox="0 0 161 89" fill="none" xmlns="http://www.w3.org/2000/svg">
<path fill-rule="evenodd" clip-rule="evenodd" d="M34.224 77.16H101.928C102.311 77.16 102.684 77.1189 103.044 77.0408C103.404 77.1189 103.777 77.16 104.16 77.16H142.848C145.724 77.16 148.056 74.8408 148.056 71.98C148.056 69.1192 145.724 66.8 142.848 66.8H138.384C135.508 66.8 133.176 64.4808 133.176 61.62C133.176 58.7592 135.508 56.44 138.384 56.44H152.52C155.396 56.44 157.728 54.1208 157.728 51.26C157.728 48.3992 155.396 46.08 152.52 46.08H136.152C139.028 46.08 141.36 43.7608 141.36 40.9C141.36 38.0392 139.028 35.72 136.152 35.72H88.536C91.4123 35.72 93.744 33.4008 93.744 30.54C93.744 27.6792 91.4123 25.36 88.536 25.36H46.128C43.2517 25.36 40.92 27.6792 40.92 30.54C40.92 33.4008 43.2517 35.72 46.128 35.72H16.368C13.4917 35.72 11.16 38.0392 11.16 40.9C11.16 43.7608 13.4917 46.08 16.368 46.08H34.968C37.8443 46.08 40.176 48.3992 40.176 51.26C40.176 54.1208 37.8443 56.44 34.968 56.44H5.208C2.3317 56.44 0 58.7592 0 61.62C0 64.4808 2.3317 66.8 5.208 66.8H34.224C31.3477 66.8 29.016 69.1192 29.016 71.98C29.016 74.8408 31.3477 77.16 34.224 77.16ZM155.496 77.16C158.372 77.16 160.704 74.8409 160.704 71.98C160.704 69.1192 158.372 66.8 155.496 66.8C152.62 66.8 150.288 69.1192 150.288 71.98C150.288 74.8409 152.62 77.16 155.496 77.16Z" fill="#FDF9D6"/>
<path fill-rule="evenodd" clip-rule="evenodd" d="M112.773 71.2953C110.962 72.7453 108.987 74.0592 106.871 75.2165L106.993 85.6382C107.003 86.4555 106.345 87.1259 105.523 87.1354C105.189 87.1393 104.863 87.0312 104.598 86.8285L95.1771 79.6191C91.6457 80.4275 87.9209 80.86 84.0719 80.86C61.4724 80.86 43.1519 65.9511 43.1519 47.56C43.1519 29.1689 61.4724 14.26 84.0719 14.26C106.671 14.26 124.992 29.1689 124.992 47.56C124.992 52.6503 123.588 57.4738 121.079 61.7883C120.616 62.584 120.116 63.3624 119.58 64.122M117.695 66.544C117.016 67.34 116.294 68.1107 115.534 68.854Z" fill="#FDF9D6"/>
<path d="M113.554 72.271C114.093 71.8395 114.18 71.0528 113.749 70.514C113.317 69.9751 112.53 69.8881 111.992 70.3197L113.554 72.271ZM106.871 75.2165L106.271 74.1199L105.612 74.4803L105.621 75.2312L106.871 75.2165ZM106.993 85.6382L105.744 85.6529L105.744 85.6529L106.993 85.6382ZM105.523 87.1354L105.508 85.8855L105.523 87.1354ZM104.598 86.8285L105.358 85.8358L105.358 85.8358L104.598 86.8285ZM95.1771 79.6191L95.9368 78.6264L95.4705 78.2696L94.8982 78.4006L95.1771 79.6191ZM121.079 61.7883L122.16 62.4167L122.16 62.4167L121.079 61.7883ZM118.559 63.4011C118.161 63.9651 118.295 64.7451 118.859 65.1432C119.423 65.5413 120.203 65.4068 120.601 64.8428L118.559 63.4011ZM118.646 67.3559C119.094 66.8309 119.032 66.0419 118.507 65.5935C117.982 65.1452 117.193 65.2072 116.745 65.7321L118.646 67.3559ZM114.66 67.96C114.166 68.4426 114.157 69.234 114.64 69.7277C115.122 70.2214 115.914 70.2304 116.407 69.7479L114.66 67.96ZM111.992 70.3197C110.24 71.7227 108.325 72.9964 106.271 74.1199L107.471 76.3132C109.649 75.122 111.685 73.768 113.554 72.271L111.992 70.3197ZM105.621 75.2312L105.744 85.6529L108.243 85.6235L108.121 75.2018L105.621 75.2312ZM105.744 85.6529C105.745 85.7735 105.646 85.8839 105.508 85.8855L105.537 88.3853C107.043 88.3678 108.261 87.1376 108.243 85.6235L105.744 85.6529ZM105.508 85.8855C105.453 85.8861 105.4 85.8682 105.358 85.8358L103.839 87.8212C104.326 88.1941 104.924 88.3924 105.537 88.3853L105.508 85.8855ZM105.358 85.8358L95.9368 78.6264L94.4175 80.6118L103.839 87.8212L105.358 85.8358ZM94.8982 78.4006C91.4586 79.1881 87.8273 79.61 84.0719 79.61V82.11C88.0144 82.11 91.8329 81.667 95.4561 80.8376L94.8982 78.4006ZM84.0719 79.61C61.9097 79.61 44.4019 65.0323 44.4019 47.56H41.9019C41.9019 66.8698 61.0351 82.11 84.0719 82.11V79.61ZM44.4019 47.56C44.4019 30.0877 61.9097 15.51 84.0719 15.51V13.01C61.0351 13.01 41.9019 28.2502 41.9019 47.56H44.4019ZM84.0719 15.51C106.234 15.51 123.742 30.0877 123.742 47.56H126.242C126.242 28.2502 107.109 13.01 84.0719 13.01V15.51ZM123.742 47.56C123.742 52.4147 122.405 57.023 119.999 61.1598L122.16 62.4167C124.772 57.9246 126.242 52.8859 126.242 47.56H123.742ZM119.999 61.1598C119.555 61.9233 119.074 62.6709 118.559 63.4011L120.601 64.8428C121.158 64.0539 121.678 63.2447 122.16 62.4167L119.999 61.1598ZM116.745 65.7321C116.09 66.499 115.394 67.2424 114.66 67.96L116.407 69.7479C117.194 68.9789 117.941 68.1809 118.646 67.3559L116.745 65.7321Z" fill="#FF6F03"/>
<path fill-rule="evenodd" clip-rule="evenodd" d="M73.656 47.56C73.656 50.0122 71.6574 52 69.192 52C66.7266 52 64.728 50.0122 64.728 47.56C64.728 45.1079 66.7266 43.12 69.192 43.12C71.6574 43.12 73.656 45.1079 73.656 47.56ZM87.7921 47.56C87.7921 50.0122 85.7935 52 83.3281 52C80.8627 52 78.8641 50.0122 78.8641 47.56C78.8641 45.1079 80.8627 43.12 83.3281 43.12C85.7935 43.12 87.7921 45.1079 87.7921 47.56ZM97.464 52C99.9294 52 101.928 50.0122 101.928 47.56C101.928 45.1079 99.9294 43.12 97.464 43.12C94.9986 43.12 93 45.1079 93 47.56C93 50.0122 94.9986 52 97.464 52Z" fill="#FDF9D6"/>
<path d="M69.192 53.25C72.3414 53.25 74.906 50.7089 74.906 47.56H72.406C72.406 49.3155 70.9734 50.75 69.192 50.75V53.25ZM63.478 47.56C63.478 50.7089 66.0426 53.25 69.192 53.25V50.75C67.4106 50.75 65.978 49.3155 65.978 47.56H63.478ZM69.192 41.87C66.0426 41.87 63.478 44.4112 63.478 47.56H65.978C65.978 45.8046 67.4106 44.37 69.192 44.37V41.87ZM74.906 47.56C74.906 44.4112 72.3414 41.87 69.192 41.87V44.37C70.9734 44.37 72.406 45.8046 72.406 47.56H74.906ZM83.3281 53.25C86.4775 53.25 89.0421 50.7089 89.0421 47.56H86.5421C86.5421 49.3155 85.1095 50.75 83.3281 50.75V53.25ZM77.6141 47.56C77.6141 50.7089 80.1787 53.25 83.3281 53.25V50.75C81.5467 50.75 80.1141 49.3155 80.1141 47.56H77.6141ZM83.3281 41.87C80.1787 41.87 77.6141 44.4112 77.6141 47.56H80.1141C80.1141 45.8046 81.5467 44.37 83.3281 44.37V41.87ZM89.0421 47.56C89.0421 44.4112 86.4775 41.87 83.3281 41.87V44.37C85.1095 44.37 86.5421 45.8046 86.5421 47.56H89.0421ZM100.678 47.56C100.678 49.3155 99.2454 50.75 97.464 50.75V53.25C100.613 53.25 103.178 50.7089 103.178 47.56H100.678ZM97.464 44.37C99.2454 44.37 100.678 45.8046 100.678 47.56H103.178C103.178 44.4112 100.613 41.87 97.464 41.87V44.37ZM94.25 47.56C94.25 45.8046 95.6826 44.37 97.464 44.37V41.87C94.3146 41.87 91.75 44.4112 91.75 47.56H94.25ZM97.464 50.75C95.6826 50.75 94.25 49.3155 94.25 47.56H91.75C91.75 50.7089 94.3146 53.25 97.464 53.25V50.75Z" fill="#FF6F03"/>
<ellipse cx="53.1863" cy="38.4518" rx="0.874329" ry="1.76157" stroke="#FF6F03" stroke-width="2.5" stroke-linecap="round"/>
<ellipse cx="61.7377" cy="29.4275" rx="5.98278" ry="4.7534" stroke="#FF6F03" stroke-width="2.5" stroke-linecap="round"/>
<circle cx="60.8521" cy="4.5" r="4.5" fill="#FF6F03"/>
<circle cx="131.852" cy="59.5" r="4" fill="#FF6F03" stroke="#FF6F03"/>
<path d="M35.8521 48C35.8521 49.8793 34.1182 51.5 31.8521 51.5C29.5859 51.5 27.8521 49.8793 27.8521 48C27.8521 46.1207 29.5859 44.5 31.8521 44.5C34.1182 44.5 35.8521 46.1207 35.8521 48Z" stroke="#FF6F03"/>
</svg>
