<svg width="28" height="28" viewBox="0 0 28 28" fill="none" xmlns="http://www.w3.org/2000/svg">
<path d="M14.69 2C21.3167 2 26.3333 7.43315 26.3333 13.6491C26.3333 20.8583 20.4533 25.3333 14.6667 25.3333C12.7533 25.3333 10.63 24.8192 8.92667 23.8144C8.33167 23.4522 7.83 23.1834 7.18833 23.3938L4.83167 24.0948C4.23667 24.2818 3.7 23.8144 3.875 23.1834L4.65667 20.5662C4.785 20.204 4.76167 19.8184 4.575 19.5146C3.57167 17.6685 3 15.6471 3 13.6842C3 7.53831 7.91167 2 14.69 2ZM20.0217 12.2003C19.1933 12.2003 18.5283 12.8663 18.5283 13.6959C18.5283 14.5138 19.1933 15.1915 20.0217 15.1915C20.85 15.1915 21.515 14.5138 21.515 13.6959C21.515 12.8663 20.85 12.2003 20.0217 12.2003ZM14.6433 12.2003C13.8267 12.1886 13.15 12.8663 13.15 13.6842C13.15 14.5138 13.815 15.1798 14.6433 15.1915C15.4717 15.1915 16.1367 14.5138 16.1367 13.6959C16.1367 12.8663 15.4717 12.2003 14.6433 12.2003ZM9.265 12.2003C8.43667 12.2003 7.77167 12.8663 7.77167 13.6959C7.77167 14.5138 8.44833 15.1915 9.265 15.1915C10.0933 15.1798 10.7583 14.5138 10.7583 13.6959C10.7583 12.8663 10.0933 12.2003 9.265 12.2003Z" fill="white"/>
</svg>
