<svg width="162" height="116" viewBox="0 0 162 116" fill="none" xmlns="http://www.w3.org/2000/svg">
<path fill-rule="evenodd" clip-rule="evenodd" d="M34.872 89.8H102.576C102.959 89.8 103.332 89.7589 103.692 89.6808C104.051 89.7589 104.425 89.8 104.808 89.8H143.496C146.372 89.8 148.704 87.4808 148.704 84.62C148.704 81.7592 146.372 79.44 143.496 79.44H139.032C136.156 79.44 133.824 77.1208 133.824 74.26C133.824 71.3992 136.156 69.08 139.032 69.08H153.168C156.044 69.08 158.376 66.7608 158.376 63.9C158.376 61.0392 156.044 58.72 153.168 58.72H136.8C139.676 58.72 142.008 56.4008 142.008 53.54C142.008 50.6792 139.676 48.36 136.8 48.36H89.184C92.0603 48.36 94.392 46.0408 94.392 43.18C94.392 40.3192 92.0603 38 89.184 38H46.776C43.8997 38 41.568 40.3192 41.568 43.18C41.568 46.0408 43.8997 48.36 46.776 48.36H17.016C14.1397 48.36 11.808 50.6792 11.808 53.54C11.808 56.4008 14.1397 58.72 17.016 58.72H35.616C38.4923 58.72 40.824 61.0392 40.824 63.9C40.824 66.7608 38.4923 69.08 35.616 69.08H5.85595C2.97965 69.08 0.647949 71.3992 0.647949 74.26C0.647949 77.1208 2.97965 79.44 5.85595 79.44H34.872C31.9957 79.44 29.664 81.7592 29.664 84.62C29.664 87.4808 31.9957 89.8 34.872 89.8ZM156.144 89.8C159.02 89.8 161.352 87.4809 161.352 84.62C161.352 81.7592 159.02 79.44 156.144 79.44C153.268 79.44 150.936 81.7592 150.936 84.62C150.936 87.4809 153.268 89.8 156.144 89.8Z" fill="#FDF9D6"/>
<path d="M94.1608 110.745L26.2322 71.5266C25.7539 71.2505 25.5901 70.6389 25.8662 70.1606L29.9792 63.0367C30.0941 62.8378 30.3484 62.7696 30.5473 62.8844L31.1126 63.2108C34.6648 65.2617 39.207 64.0446 41.2578 60.4924L54.7206 37.1741C61.9168 24.71 77.8545 20.4396 90.3186 27.6357L90.8186 26.7697L91.6846 27.2697L93.1792 24.681C94.9449 21.6227 98.8555 20.5749 101.914 22.3406C104.972 24.1063 106.02 28.0169 104.254 31.0752L102.76 33.6638L103.626 34.1638L103.126 35.0299C114.386 41.5309 118.244 55.9292 111.743 67.1893L96.9544 92.8035C94.9405 96.2916 96.1357 100.752 99.6238 102.766C99.7475 102.837 99.7899 102.995 99.7185 103.119L95.5268 110.379C95.2507 110.857 94.6391 111.021 94.1608 110.745Z" fill="#FDF9D6" stroke="#FF6F03" stroke-width="2"/>
<mask id="path-3-inside-1_40:4352" fill="white">
<path d="M64.4745 96.9406C63.1393 99.2532 62.7775 102.002 63.4686 104.581C64.1597 107.16 65.8472 109.359 68.1598 110.695C70.4725 112.03 73.2207 112.392 75.8001 111.701C78.3795 111.009 80.5787 109.322 81.9139 107.009L73.1942 101.975L64.4745 96.9406Z"/>
</mask>
<path d="M64.4745 96.9406C63.1393 99.2532 62.7775 102.002 63.4686 104.581C64.1597 107.16 65.8472 109.359 68.1598 110.695C70.4725 112.03 73.2207 112.392 75.8001 111.701C78.3795 111.009 80.5787 109.322 81.9139 107.009L73.1942 101.975L64.4745 96.9406Z" fill="#FF6F03" stroke="#FF6F03" stroke-width="2" mask="url(#path-3-inside-1_40:4352)"/>
<circle cx="62.2134" cy="8.30784" r="4.09039" fill="#FF6F03"/>
<circle cx="128.289" cy="59.2804" r="3.59039" fill="#FF6F03" stroke="#FF6F03"/>
<circle cx="35.1539" cy="49.2118" r="3.59039" stroke="#FF6F03"/>
</svg>
