<svg width="17" height="18" viewBox="0 0 17 18" fill="none" xmlns="http://www.w3.org/2000/svg">
<g clip-path="url(#clip0_40:2242)">
<path d="M8.10578 18C7.788 17.8594 7.68045 17.6203 7.7 17.2922C7.71956 16.95 7.70489 16.6031 7.70489 16.2422C7.18178 16.2422 6.67822 16.2422 6.16978 16.2422C6.09645 16.2422 6.02311 16.2469 5.94978 16.2328C5.67111 16.1812 5.48045 15.9328 5.50489 15.6703C5.52933 15.4078 5.75911 15.1969 6.04756 15.1922C6.51689 15.1875 6.98622 15.1922 7.46045 15.1922C7.53378 15.1922 7.60711 15.1922 7.69511 15.1922C7.69511 14.7516 7.69511 14.3156 7.69511 13.8797C5.42178 13.5469 3.75956 12.4219 2.948 10.3359C2.13645 8.25469 2.62045 6.37031 4.092 4.71094C3.89156 4.51406 3.68622 4.31719 3.46622 4.10625C3.18756 4.37344 2.904 4.65469 2.61067 4.92656C2.27822 5.23125 1.77956 5.1 1.672 4.6875C1.61822 4.48125 1.69645 4.30781 1.85289 4.1625C2.13645 3.89531 2.41511 3.62813 2.67911 3.375C2.14622 2.86875 1.628 2.36719 1.11467 1.875C1.11467 1.88906 1.10489 1.94063 1.10489 1.9875C1.10489 2.53125 1.10489 3.075 1.10489 3.62344C1.10489 3.97969 0.88 4.21875 0.552445 4.21875C0.22 4.21875 0 3.97969 0 3.61875C0 2.61094 0 1.60312 0 0.595312C0 0.210938 0.22 0 0.625778 0C1.67689 0 2.728 0 3.77911 0C4.15067 0 4.4 0.215625 4.4 0.529688C4.4 0.84375 4.15067 1.05469 3.77911 1.05469C3.16311 1.05469 2.54711 1.05469 1.94578 1.05469C2.464 1.55156 2.98222 2.04844 3.52 2.56406C3.77911 2.31563 4.06267 2.04375 4.34133 1.77187C4.49289 1.62656 4.67378 1.55156 4.88889 1.60313C5.31422 1.70625 5.456 2.17969 5.14311 2.48906C4.85956 2.775 4.56133 3.04219 4.28756 3.3C4.52711 3.52969 4.752 3.74531 4.98178 3.96562C7.02045 2.58281 9.724 2.7375 11.5182 3.975C12.5302 3.00469 13.5422 2.03438 14.5542 1.06406C14.5249 1.06406 14.476 1.05469 14.4271 1.05469C13.86 1.05469 13.2929 1.05469 12.7209 1.05469C12.3493 1.05469 12.0951 0.84375 12.0951 0.529688C12.1 0.220313 12.3493 0 12.7209 0C13.7769 0 14.8329 0 15.8938 0C16.2849 0 16.5049 0.215625 16.5049 0.590625C16.5049 1.60313 16.5049 2.61562 16.5049 3.63281C16.5049 3.975 16.28 4.21406 15.9622 4.21875C15.6347 4.22344 15.4049 3.97969 15.4049 3.62813C15.4049 3.0375 15.4049 2.44687 15.4049 1.88906C14.4271 2.82656 13.4347 3.77813 12.4373 4.73438C13.8893 6.37031 14.3733 8.25469 13.5618 10.3359C12.7502 12.4125 11.0978 13.5422 8.81467 13.8797C8.81467 14.2969 8.81467 14.7328 8.81467 15.1875C9.00534 15.1875 9.20089 15.1875 9.39156 15.1875C9.73867 15.1875 10.0858 15.1828 10.4378 15.1875C10.7604 15.1922 11 15.4266 11 15.7219C10.9951 16.0078 10.7604 16.2375 10.4427 16.2422C9.96845 16.2469 9.48934 16.2422 9.01511 16.2422C8.95156 16.2422 8.88311 16.2422 8.8 16.2422C8.8 16.6031 8.78534 16.95 8.80489 17.2922C8.82445 17.6203 8.712 17.8594 8.39911 18C8.30134 18 8.20356 18 8.10578 18ZM8.25245 4.04531C5.72489 4.04531 3.66667 6.01406 3.66667 8.4375C3.66667 10.8562 5.72489 12.8344 8.24756 12.8344C10.7702 12.8344 12.8333 10.8609 12.8333 8.44219C12.8333 6.01875 10.7751 4.04531 8.25245 4.04531Z" fill="white"/>
</g>
<defs>
<clipPath id="clip0_40:2242">
<rect width="16.5" height="18" fill="white"/>
</clipPath>
</defs>
</svg>
