<svg width="42" height="44" viewBox="0 0 42 44" fill="none" xmlns="http://www.w3.org/2000/svg">
<rect width="42" height="44" rx="12" fill="url(#paint0_linear_40:3678)"/>
<g clip-path="url(#clip0_40:3678)">
<path d="M13.9046 13.0658C13.8 13.0135 13.6827 12.9916 13.5663 13.0026C13.4498 13.0136 13.3388 13.057 13.2458 13.128C13.1528 13.199 13.0816 13.2946 13.0403 13.4041C12.999 13.5135 12.9892 13.6324 13.0121 13.7471L14.7658 19.8096C14.7985 19.9226 14.8624 20.024 14.9502 20.1023C15.038 20.1806 15.1461 20.2325 15.2621 20.2521L22.3746 21.4433C22.7096 21.5096 22.7096 21.9896 22.3746 22.0558L15.2621 23.2471C15.1461 23.2667 15.038 23.3186 14.9502 23.3969C14.8624 23.4751 14.7985 23.5766 14.7658 23.6896L13.0121 29.7521C12.9892 29.8668 12.999 29.9856 13.0403 30.0951C13.0816 30.2045 13.1528 30.3002 13.2458 30.3712C13.3388 30.4421 13.4498 30.4856 13.5663 30.4966C13.6827 30.5076 13.8 30.4857 13.9046 30.4333L30.1546 22.3083C30.2583 22.2564 30.3454 22.1766 30.4063 22.0779C30.4673 21.9792 30.4995 21.8656 30.4995 21.7496C30.4995 21.6336 30.4673 21.5199 30.4063 21.4213C30.3454 21.3226 30.2583 21.2428 30.1546 21.1908L13.9046 13.0658V13.0658Z" fill="white"/>
</g>
<defs>
<linearGradient id="paint0_linear_40:3678" x1="41.5702" y1="4.12499" x2="-0.555761" y2="4.78356" gradientUnits="userSpaceOnUse">
<stop stop-color="#FF9802"/>
<stop offset="1" stop-color="#FF6F03"/>
</linearGradient>
<clipPath id="clip0_40:3678">
<rect x="10" y="11" width="20" height="20" rx="10" fill="white"/>
</clipPath>
</defs>
</svg>
