<svg width="28" height="28" viewBox="0 0 28 28" fill="none" xmlns="http://www.w3.org/2000/svg">
<g opacity="0.6">
<path d="M14.8366 2.33344C15.7189 2.33344 16.5177 2.82344 16.9589 3.54677C17.1735 3.89677 17.3166 4.32844 17.2808 4.78344C17.2569 5.13344 17.3642 5.48344 17.555 5.8101C18.1631 6.80177 19.5104 7.1751 20.5596 6.6151C21.7399 5.93844 23.2303 6.34677 23.9099 7.50177L24.7087 8.87844C25.4002 10.0334 25.0187 11.5151 23.8264 12.1801C22.813 12.7751 22.4553 14.0934 23.0634 15.0968C23.2541 15.4118 23.4687 15.6801 23.8026 15.8434C24.2199 16.0651 24.5418 16.4151 24.7683 16.7651C25.2095 17.4884 25.1737 18.3751 24.7445 19.1568L23.9099 20.5568C23.4687 21.3034 22.6461 21.7701 21.7995 21.7701C21.3822 21.7701 20.9172 21.6534 20.5357 21.4201C20.2257 21.2218 19.868 21.1518 19.4865 21.1518C18.3061 21.1518 17.3166 22.1201 17.2808 23.2751C17.2808 24.6168 16.1839 25.6668 14.8128 25.6668H13.1912C11.8082 25.6668 10.7113 24.6168 10.7113 23.2751C10.6875 22.1201 9.69786 21.1518 8.5175 21.1518C8.12404 21.1518 7.76636 21.2218 7.46829 21.4201C7.08676 21.6534 6.60984 21.7701 6.20447 21.7701C5.34602 21.7701 4.52335 21.3034 4.0822 20.5568L3.25953 19.1568C2.81838 18.3984 2.79454 17.4884 3.23568 16.7651C3.42645 16.4151 3.78413 16.0651 4.18951 15.8434C4.52335 15.6801 4.73796 15.4118 4.94065 15.0968C5.53679 14.0934 5.1791 12.7751 4.16566 12.1801C2.9853 11.5151 2.60377 10.0334 3.28337 8.87844L4.0822 7.50177C4.77373 6.34677 6.25216 5.93844 7.44444 6.6151C8.48173 7.1751 9.82901 6.80177 10.4371 5.8101C10.6278 5.48344 10.7351 5.13344 10.7113 4.78344C10.6875 4.32844 10.8186 3.89677 11.0451 3.54677C11.4863 2.82344 12.2851 2.35677 13.1555 2.33344H14.8366ZM14.0139 10.7101C12.142 10.7101 10.6278 12.1801 10.6278 14.0118C10.6278 15.8434 12.142 17.3018 14.0139 17.3018C15.8858 17.3018 17.3642 15.8434 17.3642 14.0118C17.3642 12.1801 15.8858 10.7101 14.0139 10.7101Z" fill="white"/>
</g>
</svg>
