<svg width="23" height="22" viewBox="0 0 23 22" fill="none" xmlns="http://www.w3.org/2000/svg">
<path d="M8.83502 11C8.83502 11.6382 9.09829 12.2502 9.5669 12.7015C10.0355 13.1527 10.6711 13.4062 11.3338 13.4062C11.9965 13.4062 12.6321 13.1527 13.1007 12.7015C13.5694 12.2502 13.8326 11.6382 13.8326 11C13.8326 10.3618 13.5694 9.74978 13.1007 9.29852C12.6321 8.84727 11.9965 8.59375 11.3338 8.59375C10.6711 8.59375 10.0355 8.84727 9.5669 9.29852C9.09829 9.74978 8.83502 10.3618 8.83502 11V11ZM21.0211 10.4457C18.9061 6.15527 15.7089 3.99609 11.4231 3.99609C7.13495 3.99609 3.94005 6.15527 1.825 10.4479C1.74017 10.6208 1.69617 10.8098 1.69617 11.0011C1.69617 11.1924 1.74017 11.3813 1.825 11.5543C3.94005 15.8447 7.13718 18.0039 11.4231 18.0039C15.7112 18.0039 18.9061 15.8447 21.0211 11.5521C21.1929 11.2041 21.1929 10.8002 21.0211 10.4457V10.4457ZM11.3338 14.7812C9.16522 14.7812 7.40714 13.0883 7.40714 11C7.40714 8.91172 9.16522 7.21875 11.3338 7.21875C13.5024 7.21875 15.2605 8.91172 15.2605 11C15.2605 13.0883 13.5024 14.7812 11.3338 14.7812Z" fill="#A1A1A1"/>
</svg>
