<svg width="375" height="812" viewBox="0 0 375 812" fill="none" xmlns="http://www.w3.org/2000/svg">
<g clip-path="url(#clip0_40:3)">
<rect width="375" height="812" fill="white"/>
<path d="M304.026 165C316.049 165 325.797 155.223 325.797 143.162C325.797 131.1 316.049 121.323 304.026 121.323C292.002 121.323 282.255 131.1 282.255 143.162C282.255 155.223 292.002 165 304.026 165Z" fill="#FF9802"/>
<path d="M91.7494 647C103.4 647 112.845 637.526 112.845 625.839C112.845 614.151 103.4 604.677 91.7494 604.677C80.0983 604.677 70.6533 614.151 70.6533 625.839C70.6533 637.526 80.0983 647 91.7494 647Z" fill="#FF9802"/>
<path d="M377.098 673.266C384.664 665.676 384.664 653.371 377.098 645.782C369.532 638.193 357.265 638.193 349.699 645.782C342.133 653.371 342.133 665.676 349.699 673.266C357.265 680.855 369.532 680.855 377.098 673.266Z" fill="#FFCC01"/>
<path d="M21.0912 227.262C29.2056 219.122 29.2056 205.926 21.0912 197.786C12.9767 189.646 -0.179359 189.646 -8.29379 197.786C-16.4082 205.925 -16.4082 219.122 -8.29379 227.262C-0.179359 235.402 12.9767 235.402 21.0912 227.262Z" fill="#FFCC01"/>
<path d="M130.081 527.347C130.081 528.506 129.888 529.568 129.501 530.63C129.115 531.693 128.536 532.562 127.763 533.334C126.99 534.107 126.024 534.686 124.962 535.169C123.9 535.652 122.644 535.845 121.195 535.845H114.048V543.764C114.048 544.44 113.855 545.02 113.372 545.503C112.889 545.986 112.31 546.179 111.633 546.179C110.957 546.179 110.378 545.986 109.992 545.503C109.509 545.02 109.315 544.44 109.315 543.764V521.649C109.315 520.876 109.605 520.104 110.185 519.524C110.764 518.945 111.44 518.655 112.31 518.655H121.388C122.837 518.655 124.093 518.848 125.155 519.331C126.314 519.814 127.183 520.393 127.956 521.166C128.729 521.939 129.308 522.904 129.695 523.87C129.888 525.125 130.081 526.188 130.081 527.347ZM125.059 527.347C125.059 525.995 124.672 525.029 123.803 524.256C122.934 523.484 121.871 523.097 120.519 523.097H113.951V531.596H120.519C121.871 531.596 122.934 531.21 123.803 530.437C124.672 529.664 125.059 528.602 125.059 527.347Z" fill="black"/>
<path d="M137.615 545.598C137.132 545.984 136.649 546.274 136.069 546.274C135.49 546.274 135.007 546.081 134.524 545.598C134.137 545.212 133.848 544.632 133.848 544.053V520.682C133.848 520.102 134.041 519.62 134.524 519.233C134.91 518.847 135.49 518.557 136.166 518.557C136.745 518.557 137.228 518.75 137.615 519.233C138.001 519.62 138.291 520.102 138.291 520.682V544.053C138.194 544.632 138.001 545.212 137.615 545.598Z" fill="black"/>
<path d="M160.118 544.053C160.118 544.632 159.925 545.115 159.539 545.598C159.153 545.984 158.573 546.274 157.994 546.274C157.511 546.274 157.221 546.178 156.835 545.984C156.545 545.791 156.255 545.501 156.062 545.115C155.869 544.729 155.772 544.246 155.772 543.956C155 544.825 154.13 545.405 153.068 545.888C152.005 546.371 150.75 546.564 149.494 546.564C148.722 546.564 147.852 546.467 147.08 546.177C146.307 545.888 145.534 545.501 144.858 544.922C144.182 544.343 143.699 543.667 143.216 542.894C142.83 542.121 142.54 541.156 142.54 539.997C142.54 538.838 142.733 537.969 143.216 537.1C143.603 536.327 144.182 535.651 144.858 535.071C145.534 534.589 146.21 534.202 147.08 533.913C147.852 533.623 148.722 533.526 149.494 533.526C150.846 533.526 152.005 533.719 153.068 534.202C154.13 534.589 155.096 535.265 155.772 536.134V533.14C155.772 531.981 155.386 531.112 154.517 530.436C153.647 529.76 152.585 529.47 151.233 529.47C150.364 529.47 149.494 529.567 148.722 529.856C147.949 530.05 147.176 530.436 146.5 531.015C146.21 531.209 145.921 531.305 145.631 531.305C145.245 531.305 144.858 531.112 144.472 530.822C144.086 530.532 143.892 530.146 143.892 529.567C143.892 529.18 143.989 528.891 144.182 528.601C144.569 528.118 145.051 527.732 145.728 527.346C146.307 526.959 146.983 526.67 147.756 526.476C148.432 526.283 149.205 526.09 149.881 525.993C150.653 525.897 151.233 525.8 151.909 525.8C152.971 525.8 154.034 525.897 155 526.187C155.965 526.476 156.835 526.863 157.607 527.346C158.38 527.925 158.959 528.601 159.442 529.567C159.925 530.532 160.118 531.595 160.118 532.947V544.053V544.053ZM155.676 541.445V538.452C155.193 537.776 154.517 537.293 153.744 537.003C152.875 536.713 152.005 536.52 151.04 536.52C149.881 536.52 148.915 536.81 148.142 537.486C147.369 538.162 146.983 538.934 146.983 539.997C146.983 541.059 147.369 541.928 148.142 542.508C148.915 543.087 149.881 543.473 151.04 543.473C152.005 543.473 152.875 543.28 153.744 542.991C154.517 542.701 155.193 542.121 155.676 541.445Z" fill="black"/>
<path d="M180.594 540.286C180.594 541.156 180.401 541.928 180.111 542.701C179.725 543.473 179.242 544.149 178.566 544.632C177.89 545.212 177.021 545.598 175.958 545.888C174.896 546.177 173.737 546.371 172.481 546.371C171.805 546.371 171.129 546.274 170.356 546.177C169.584 546.081 168.908 545.888 168.232 545.695C167.555 545.501 166.879 545.212 166.3 544.922C165.72 544.632 165.237 544.246 164.851 543.763C164.561 543.473 164.465 543.087 164.465 542.701C164.465 542.218 164.658 541.735 165.044 541.349C165.431 540.962 165.817 540.866 166.396 540.866C166.783 540.866 167.073 540.962 167.362 541.156C168.135 541.639 169.004 542.121 169.97 542.411C170.936 542.701 171.902 542.894 172.868 542.894C174.123 542.894 175.089 542.604 175.765 542.121C176.345 541.639 176.731 540.962 176.731 540.286C176.731 539.707 176.441 539.224 175.862 538.838C175.282 538.548 174.509 538.258 173.64 538.065C172.771 537.872 171.805 537.679 170.743 537.389C169.68 537.196 168.714 536.81 167.845 536.423C166.976 536.037 166.203 535.361 165.624 534.685C165.044 533.913 164.755 532.947 164.755 531.691C164.755 530.919 164.948 530.146 165.237 529.374C165.624 528.601 166.107 528.022 166.783 527.442C167.459 526.863 168.232 526.476 169.197 526.09C170.163 525.8 171.226 525.607 172.578 525.607C173.254 525.607 173.93 525.607 174.606 525.704C175.282 525.8 175.958 525.993 176.538 526.187C177.117 526.38 177.697 526.669 178.276 526.959C178.759 527.249 179.242 527.635 179.532 528.022C179.822 528.311 179.918 528.601 179.918 528.987C179.918 529.47 179.725 529.856 179.435 530.146C179.049 530.436 178.663 530.629 178.18 530.629C177.793 530.629 177.504 530.532 177.31 530.339C176.731 529.953 175.958 529.567 175.186 529.277C174.413 528.987 173.544 528.891 172.674 528.891C171.515 528.891 170.646 529.084 170.067 529.567C169.391 530.05 169.101 530.629 169.101 531.305C169.101 531.884 169.391 532.367 169.97 532.657C170.55 532.947 171.322 533.237 172.191 533.43C173.061 533.623 174.027 533.816 175.089 534.106C176.151 534.299 177.021 534.685 177.987 535.168C178.952 535.651 179.628 536.23 180.208 537.003C180.305 537.969 180.594 539.031 180.594 540.286Z" fill="black"/>
<path d="M194.792 544.343C194.792 544.632 194.695 544.922 194.599 545.212C194.406 545.501 194.213 545.695 193.923 545.888C193.633 546.081 193.15 546.177 192.667 546.274C192.184 546.371 191.605 546.371 190.929 546.371C189.287 546.371 187.935 545.888 187.162 545.019C186.389 544.149 185.906 542.894 185.906 541.252V530.05H184.071C183.492 530.05 183.105 529.856 182.719 529.47C182.333 529.084 182.236 528.601 182.236 528.022C182.236 527.539 182.429 527.056 182.719 526.67C183.009 526.283 183.492 526.09 184.071 526.09H185.713V522.613C185.713 522.034 185.906 521.551 186.389 521.068C186.776 520.682 187.355 520.392 188.031 520.392C188.611 520.392 189.094 520.585 189.48 521.068C189.866 521.454 190.156 522.034 190.156 522.613V526.09H192.571C193.054 526.09 193.536 526.283 193.923 526.67C194.309 527.056 194.406 527.539 194.406 528.022C194.406 528.504 194.213 528.987 193.923 529.374C193.536 529.76 193.15 529.953 192.571 529.953H190.156V540.093C190.156 540.866 190.349 541.445 190.736 541.832C191.122 542.218 191.508 542.411 192.088 542.411C192.184 542.411 192.377 542.411 192.571 542.315C192.764 542.315 192.86 542.218 192.957 542.218C193.536 542.218 194.019 542.411 194.406 542.797C194.599 543.377 194.792 543.86 194.792 544.343Z" fill="black"/>
<path d="M200.104 518.557C200.877 518.557 201.456 518.847 202.036 519.33C202.519 519.813 202.809 520.489 202.809 521.165C202.809 521.937 202.519 522.517 202.036 523.096C201.553 523.579 200.877 523.869 200.104 523.869C199.332 523.869 198.752 523.579 198.173 523.096C197.69 522.613 197.4 521.937 197.4 521.165C197.4 520.392 197.69 519.813 198.173 519.33C198.752 518.847 199.332 518.557 200.104 518.557ZM202.326 544.053C202.326 544.632 202.132 545.115 201.65 545.598C201.167 545.984 200.684 546.274 200.104 546.274C199.525 546.274 199.042 546.081 198.559 545.598C198.173 545.212 197.883 544.632 197.883 544.053V528.118C197.883 527.539 198.076 527.056 198.559 526.67C198.945 526.283 199.525 525.993 200.201 525.993C200.78 525.993 201.263 526.187 201.65 526.67C202.036 527.056 202.326 527.539 202.326 528.118V544.053Z" fill="black"/>
<path d="M223.767 542.894C223.767 543.184 223.671 543.377 223.574 543.57C223.477 543.763 223.284 544.053 223.091 544.246C222.415 544.922 221.546 545.405 220.483 545.791C219.421 546.177 218.262 546.371 216.813 546.371C215.364 546.371 213.916 546.081 212.66 545.598C211.404 545.115 210.342 544.343 209.473 543.473C208.604 542.508 207.831 541.445 207.348 540.19C206.865 538.934 206.575 537.582 206.575 536.037C206.575 534.589 206.865 533.14 207.348 531.885C207.831 530.629 208.507 529.567 209.473 528.601C210.342 527.635 211.404 526.959 212.66 526.476C213.916 525.993 215.268 525.704 216.813 525.704C217.586 525.704 218.262 525.8 218.938 525.897C219.614 525.993 220.194 526.187 220.773 526.476C221.353 526.669 221.836 526.959 222.318 527.249C222.801 527.539 223.091 527.925 223.381 528.311C223.574 528.601 223.671 528.891 223.671 529.18C223.671 529.76 223.477 530.243 222.995 530.532C222.512 530.919 222.125 531.015 221.642 531.015C221.159 531.015 220.773 530.919 220.387 530.629C219.904 530.243 219.324 529.953 218.745 529.76C218.165 529.567 217.586 529.47 216.91 529.47C216.04 529.47 215.171 529.663 214.495 529.953C213.819 530.243 213.143 530.726 212.66 531.305C212.177 531.885 211.791 532.561 211.501 533.333C211.211 534.106 211.115 534.975 211.115 535.941C211.115 536.906 211.211 537.776 211.501 538.548C211.791 539.321 212.177 539.997 212.66 540.576C213.143 541.156 213.819 541.638 214.495 541.928C215.171 542.218 216.04 542.411 216.91 542.411C218.165 542.411 219.324 542.025 220.29 541.252C220.676 540.962 221.063 540.866 221.546 540.866C222.029 540.866 222.512 541.059 222.995 541.349C223.477 541.928 223.767 542.315 223.767 542.894Z" fill="black"/>
<path d="M230.238 518.557C231.011 518.557 231.59 518.847 232.17 519.33C232.653 519.813 232.943 520.489 232.943 521.165C232.943 521.937 232.653 522.517 232.17 523.096C231.687 523.579 231.011 523.869 230.238 523.869C229.466 523.869 228.886 523.579 228.307 523.096C227.824 522.613 227.534 521.937 227.534 521.165C227.534 520.392 227.824 519.813 228.307 519.33C228.79 518.847 229.466 518.557 230.238 518.557ZM232.363 544.053C232.363 544.632 232.17 545.115 231.687 545.598C231.204 545.984 230.721 546.274 230.142 546.274C229.562 546.274 229.079 546.081 228.596 545.598C228.21 545.212 227.92 544.632 227.92 544.053V528.118C227.92 527.539 228.113 527.056 228.596 526.67C228.983 526.283 229.562 525.993 230.238 525.993C230.818 525.993 231.301 526.187 231.687 526.67C232.073 527.056 232.363 527.539 232.363 528.118V544.053Z" fill="black"/>
<path d="M247.817 544.343C247.817 544.632 247.72 544.922 247.623 545.212C247.43 545.501 247.237 545.695 246.947 545.888C246.658 546.081 246.175 546.177 245.692 546.274C245.209 546.371 244.629 546.371 243.953 546.371C242.311 546.371 240.959 545.888 240.186 545.019C239.414 544.149 238.931 542.894 238.931 541.252V530.05H237.289C236.709 530.05 236.323 529.856 235.937 529.47C235.55 529.084 235.454 528.601 235.454 528.022C235.454 527.539 235.647 527.056 235.937 526.67C236.226 526.283 236.709 526.09 237.289 526.09H238.931V522.613C238.931 522.034 239.124 521.551 239.607 521.068C239.993 520.682 240.573 520.392 241.249 520.392C241.828 520.392 242.311 520.585 242.698 521.068C243.084 521.454 243.374 522.034 243.374 522.613V526.09H245.788C246.271 526.09 246.754 526.283 247.14 526.67C247.527 527.056 247.623 527.539 247.623 528.022C247.623 528.504 247.43 528.987 247.14 529.374C246.754 529.76 246.368 529.953 245.788 529.953H243.374V540.093C243.374 540.866 243.567 541.445 243.953 541.832C244.34 542.218 244.726 542.411 245.305 542.411C245.402 542.411 245.595 542.411 245.788 542.315C245.981 542.315 246.078 542.218 246.175 542.218C246.754 542.218 247.237 542.411 247.623 542.797C247.623 543.377 247.817 543.86 247.817 544.343Z" fill="black"/>
<path d="M267.906 528.215C267.906 528.504 267.809 528.794 267.713 528.987L259.31 549.461C258.634 551.103 257.765 552.165 256.606 552.938C255.543 553.614 254.288 554 252.839 554C252.453 554 252.066 554 251.776 553.903C251.39 553.807 251.1 553.71 250.907 553.517C250.617 553.324 250.424 553.131 250.231 552.938C250.038 552.648 249.941 552.358 249.941 552.069C249.941 551.489 250.135 551.103 250.521 550.716C250.907 550.33 251.39 550.137 251.97 550.137C252.066 550.137 252.259 550.137 252.356 550.137C252.453 550.137 252.646 550.137 252.742 550.137C253.225 550.137 253.708 549.944 254.094 549.751C254.481 549.461 254.771 549.075 255.06 548.592L256.026 546.371L248.975 529.084C248.879 528.891 248.879 528.601 248.879 528.311C248.879 527.732 249.072 527.249 249.458 526.863C249.845 526.38 250.424 526.187 251.1 526.187C251.487 526.187 251.97 526.283 252.259 526.573C252.646 526.863 252.935 527.152 253.129 527.635L258.441 540.962L263.656 527.539C263.849 527.152 264.043 526.766 264.429 526.476C264.815 526.187 265.202 526.09 265.685 526.09C266.361 526.09 266.844 526.283 267.23 526.766C267.713 527.152 267.906 527.635 267.906 528.215Z" fill="black"/>
<path d="M264.139 447.865L261.821 446.416C238.062 431.254 219.807 412.615 207.541 391.079C197.786 373.793 191.798 354.671 189.77 334.1C186.389 299.141 195.854 271.907 195.951 271.714L197.303 272.196C197.207 272.486 187.838 299.43 191.218 334.1C194.309 365.584 208.797 409.911 260.276 443.809C237.579 399.578 239.124 363.749 244.533 341.344C250.521 316.621 262.304 302.328 262.401 302.231L263.463 303.197C263.366 303.293 251.68 317.393 245.885 341.826C240.476 364.425 239.027 400.737 262.787 445.644L264.139 447.865Z" fill="#FFCC01"/>
<path d="M178.373 482.052L177.021 481.666C194.019 426.522 180.401 376.497 165.914 344.241C150.267 309.281 130.371 287.069 130.178 286.876L131.24 285.91C131.433 286.103 151.523 308.412 167.266 343.565C181.85 376.014 195.565 426.425 178.373 482.052Z" fill="#FFCC01"/>
<path d="M78.8916 367.032L78.1189 365.873C102.941 349.359 111.537 330.624 114.338 317.876C117.429 304.066 114.628 294.022 114.531 293.926L115.883 293.539C115.98 293.926 118.877 303.969 115.69 318.166C112.889 331.203 104.197 350.228 78.8916 367.032Z" fill="#FFCC01"/>
<path d="M128.536 462.834C119.167 400.93 85.3627 393.011 84.9764 392.914L85.2661 391.466C85.6525 391.562 94.2484 393.494 104.1 403.248C113.179 412.229 124.962 429.806 129.888 462.641L128.536 462.834Z" fill="#FFCC01"/>
<path d="M168.811 481.473L167.555 480.7C209.956 413.774 212.081 360.658 206.382 327.823C200.297 292.284 183.878 272.39 183.782 272.196L184.941 271.231C185.134 271.424 201.65 291.608 207.831 327.533C211.501 348.587 210.922 370.799 206.092 393.687C200.201 422.176 187.548 451.728 168.811 481.473Z" fill="#FFCC01"/>
<path d="M257.668 454.915L256.316 454.335C277.854 409.332 281.138 372.537 280.075 349.552C278.916 324.733 272.542 310.343 272.542 310.247L273.894 309.667C273.991 309.764 280.365 324.443 281.621 349.552C282.683 372.537 279.399 409.622 257.668 454.915Z" fill="#FFCC01"/>
<path d="M295.239 370.123C240.669 368.577 206.286 342.213 186.969 320.29C166.107 296.63 157.994 272.872 157.897 272.679L159.249 272.196C159.346 272.39 167.362 295.857 188.031 319.421C207.155 341.054 241.249 367.225 295.239 368.674V370.123Z" fill="#FFCC01"/>
<path d="M101.975 433.669L100.72 432.993C100.816 432.703 115.304 404.117 144.955 376.786C162.437 360.755 181.657 348.297 202.132 339.702C227.727 328.982 255.447 324.443 284.325 326.085L284.229 327.533C219.228 323.767 173.157 352.836 145.921 377.849C116.366 404.986 102.072 433.379 101.975 433.669Z" fill="#FFCC01"/>
<path d="M262.111 449.41C226.375 442.36 195.565 430.964 170.55 415.513C150.557 403.151 134.234 388.182 122.161 371.088C101.396 341.826 99.9469 316.041 99.8503 315.751L101.299 315.655C101.299 315.945 102.844 341.344 123.32 370.219C142.251 396.874 181.753 432.027 262.304 447.865L262.111 449.41Z" fill="#FFCC01"/>
<path d="M231.301 471.043L229.949 470.463C256.412 405.855 248.299 355.347 236.806 324.443C224.347 290.932 205.416 272.39 205.223 272.196L206.189 271.134C206.382 271.327 225.602 289.966 238.158 323.864C249.652 355.057 257.958 405.952 231.301 471.043Z" fill="#FFCC01"/>
<path d="M116.366 453.949C103.52 425.46 98.7879 397.936 102.458 372.247C105.356 351.677 113.469 332.266 126.701 314.496C149.205 284.268 178.952 269.009 179.242 268.913L179.918 270.168C179.628 270.362 150.074 285.331 127.86 315.365C107.287 342.985 88.8397 389.341 117.622 453.37L116.366 453.949Z" fill="#FFCC01"/>
<path d="M138.677 467.469L137.421 466.793C166.879 414.257 160.505 367.998 150.074 338.35C138.677 306.287 120.036 286.393 119.843 286.2L120.906 285.234C121.099 285.427 139.836 305.515 151.329 337.963C162.05 367.708 168.425 414.45 138.677 467.469Z" fill="#FFCC01"/>
<path d="M94.1518 422.273L93.6689 420.921C93.9587 420.824 121.099 411.36 147.08 388.375C171.129 367.129 199.138 329.851 196.048 272.486L197.496 272.39C200.587 330.334 172.288 367.998 148.046 389.437C121.775 412.615 94.4416 422.176 94.1518 422.273Z" fill="#FFCC01"/>
<path d="M291.666 371.861C271.383 303.197 212.563 273.452 211.984 273.162L212.66 271.907C213.24 272.196 272.735 302.231 293.114 371.475L291.666 371.861Z" fill="#FFCC01"/>
<path d="M249.845 462.254C221.063 404.02 177.407 374.662 145.824 360.272C111.633 344.82 83.914 342.985 83.6242 342.985L83.7208 341.537C84.0105 341.537 112.02 343.372 146.404 359.017C178.18 373.503 222.125 403.054 251.1 461.675L249.845 462.254Z" fill="#FFCC01"/>
<path d="M133.655 470.077L132.206 469.98C132.206 469.787 133.944 450.183 154.227 431.061C172.674 413.581 210.728 392.914 287.319 392.914C287.995 392.914 288.671 392.914 289.444 392.914V394.363C211.887 393.977 173.64 414.643 155.193 432.123C135.296 450.859 133.655 469.884 133.655 470.077Z" fill="#FFCC01"/>
<path d="M161.567 476.065L160.119 475.678C160.215 475.389 167.749 445.354 195.565 430.288C217.006 418.7 244.436 418.7 277.081 430.385L276.598 431.737C244.243 420.245 217.296 420.148 196.241 431.544C169.004 446.416 161.567 475.775 161.567 476.065Z" fill="#FFCC01"/>
<path d="M151.523 334.873C120.423 334.873 95.4074 325.409 95.2143 325.312L95.6972 323.96C95.9869 324.057 120.616 333.424 151.523 333.424C151.812 333.424 152.102 333.424 152.488 333.424C181.27 333.231 221.353 324.54 248.493 283.785L249.652 284.558C222.125 325.795 181.657 334.68 152.488 334.873C152.102 334.873 151.812 334.873 151.523 334.873Z" fill="#FFCC01"/>
<path d="M199.525 480.797L198.173 480.41C198.269 480.024 210.149 444.002 257.378 456.363L256.992 457.812C211.115 445.644 199.718 480.41 199.525 480.797Z" fill="#FFCC01"/>
<path d="M183.975 271.714C187.015 271.714 189.48 269.249 189.48 266.209C189.48 263.169 187.015 260.704 183.975 260.704C180.934 260.704 178.469 263.169 178.469 266.209C178.469 269.249 180.934 271.714 183.975 271.714Z" fill="#FFAB03"/>
<path d="M183.975 272.196C180.691 272.196 177.987 269.492 177.987 266.209C177.987 262.925 180.691 260.221 183.975 260.221C187.259 260.221 189.963 262.925 189.963 266.209C189.963 269.492 187.259 272.196 183.975 272.196ZM183.975 261.187C181.174 261.187 178.952 263.408 178.952 266.209C178.952 269.009 181.174 271.231 183.975 271.231C186.776 271.231 188.997 269.009 188.997 266.209C188.997 263.408 186.776 261.187 183.975 261.187Z" fill="#FFCC01"/>
<path d="M265.491 304.742C268.532 304.742 270.997 302.277 270.997 299.237C270.997 296.197 268.532 293.732 265.491 293.732C262.451 293.732 259.986 296.197 259.986 299.237C259.986 302.277 262.451 304.742 265.491 304.742Z" fill="#FFAB03"/>
<path d="M265.491 305.225C262.208 305.225 259.503 302.521 259.503 299.237C259.503 295.954 262.208 293.25 265.491 293.25C268.775 293.25 271.48 295.954 271.48 299.237C271.48 302.521 268.775 305.225 265.491 305.225ZM265.491 294.215C262.69 294.215 260.469 296.437 260.469 299.237C260.469 302.038 262.69 304.259 265.491 304.259C268.292 304.259 270.514 302.038 270.514 299.237C270.514 296.437 268.292 294.215 265.491 294.215Z" fill="#FFCC01"/>
<path d="M248.589 289.29C251.63 289.29 254.094 286.825 254.094 283.785C254.094 280.745 251.63 278.281 248.589 278.281C245.549 278.281 243.084 280.745 243.084 283.785C243.084 286.825 245.549 289.29 248.589 289.29Z" fill="#FFAB03"/>
<path d="M248.589 289.773C245.305 289.773 242.601 287.069 242.601 283.785C242.601 280.502 245.305 277.798 248.589 277.798C251.873 277.798 254.577 280.502 254.577 283.785C254.577 287.069 251.873 289.773 248.589 289.773ZM248.589 278.763C245.788 278.763 243.567 280.985 243.567 283.785C243.567 286.586 245.788 288.807 248.589 288.807C251.39 288.807 253.612 286.586 253.612 283.785C253.612 280.985 251.39 278.763 248.589 278.763Z" fill="#FFCC01"/>
<path d="M142.733 281.564C146.734 281.564 149.977 278.321 149.977 274.321C149.977 270.321 146.734 267.078 142.733 267.078C138.733 267.078 135.49 270.321 135.49 274.321C135.49 278.321 138.733 281.564 142.733 281.564Z" fill="#FFAB03"/>
<path d="M142.733 281.95C138.484 281.95 135.007 278.474 135.007 274.224C135.007 269.975 138.484 266.499 142.733 266.499C146.983 266.499 150.46 269.975 150.46 274.224C150.46 278.474 146.983 281.95 142.733 281.95ZM142.733 267.561C139.063 267.561 135.973 270.555 135.973 274.321C135.973 278.087 138.967 281.081 142.733 281.081C146.5 281.081 149.494 278.087 149.494 274.321C149.494 270.555 146.5 267.561 142.733 267.561Z" fill="#FFCC01"/>
<path d="M130.371 286.393C132.984 286.393 135.103 284.274 135.103 281.661C135.103 279.047 132.984 276.929 130.371 276.929C127.757 276.929 125.638 279.047 125.638 281.661C125.638 284.274 127.757 286.393 130.371 286.393Z" fill="#FFAB03"/>
<path d="M130.371 286.876C127.473 286.876 125.155 284.558 125.155 281.661C125.155 278.763 127.473 276.446 130.371 276.446C133.268 276.446 135.586 278.763 135.586 281.661C135.586 284.558 133.268 286.876 130.371 286.876ZM130.371 277.315C127.956 277.315 126.121 279.246 126.121 281.564C126.121 283.882 128.053 285.813 130.371 285.813C132.689 285.813 134.62 283.882 134.62 281.564C134.62 279.246 132.689 277.315 130.371 277.315Z" fill="#FFCC01"/>
<path d="M172.964 267.271C174.778 267.271 176.248 265.801 176.248 263.988C176.248 262.174 174.778 260.704 172.964 260.704C171.151 260.704 169.68 262.174 169.68 263.988C169.68 265.801 171.151 267.271 172.964 267.271Z" fill="#FFAB03"/>
<path d="M172.964 267.754C170.839 267.754 169.197 266.016 169.197 263.988C169.197 261.863 170.936 260.221 172.964 260.221C174.992 260.221 176.731 261.96 176.731 263.988C176.731 266.112 174.992 267.754 172.964 267.754ZM172.964 261.187C171.419 261.187 170.163 262.442 170.163 263.988C170.163 265.533 171.419 266.788 172.964 266.788C174.509 266.788 175.765 265.533 175.765 263.988C175.765 262.442 174.509 261.187 172.964 261.187Z" fill="#FFCC01"/>
<path d="M194.985 265.05C196.799 265.05 198.269 263.58 198.269 261.766C198.269 259.953 196.799 258.483 194.985 258.483C193.172 258.483 191.701 259.953 191.701 261.766C191.701 263.58 193.172 265.05 194.985 265.05Z" fill="#FFAB03"/>
<path d="M194.985 265.533C192.86 265.533 191.218 263.794 191.218 261.766C191.218 259.738 192.957 258 194.985 258C197.11 258 198.752 259.738 198.752 261.766C198.752 263.794 197.11 265.533 194.985 265.533ZM194.985 258.966C193.44 258.966 192.184 260.221 192.184 261.766C192.184 263.312 193.44 264.567 194.985 264.567C196.531 264.567 197.786 263.312 197.786 261.766C197.786 260.221 196.531 258.966 194.985 258.966Z" fill="#FFCC01"/>
<path d="M205.223 271.714C207.037 271.714 208.507 270.243 208.507 268.43C208.507 266.617 207.037 265.146 205.223 265.146C203.409 265.146 201.939 266.617 201.939 268.43C201.939 270.243 203.409 271.714 205.223 271.714Z" fill="#FFAB03"/>
<path d="M205.223 272.196C203.098 272.196 201.456 270.458 201.456 268.43C201.456 266.305 203.195 264.664 205.223 264.664C207.251 264.664 208.99 266.402 208.99 268.43C209.086 270.458 207.348 272.196 205.223 272.196ZM205.223 265.533C203.678 265.533 202.422 266.788 202.422 268.333C202.422 269.879 203.678 271.134 205.223 271.134C206.768 271.134 208.024 269.879 208.024 268.333C208.024 266.788 206.865 265.533 205.223 265.533Z" fill="#FFCC01"/>
<path d="M258.151 294.408C259.965 294.408 261.435 292.938 261.435 291.125C261.435 289.312 259.965 287.841 258.151 287.841C256.337 287.841 254.867 289.312 254.867 291.125C254.867 292.938 256.337 294.408 258.151 294.408Z" fill="#FFAB03"/>
<path d="M258.151 294.988C256.026 294.988 254.384 293.25 254.384 291.222C254.384 289.097 256.123 287.455 258.151 287.455C260.276 287.455 261.918 289.193 261.918 291.222C261.918 293.25 260.276 294.988 258.151 294.988ZM258.151 288.324C256.606 288.324 255.35 289.58 255.35 291.125C255.35 292.67 256.606 293.926 258.151 293.926C259.696 293.926 260.952 292.67 260.952 291.125C260.952 289.58 259.696 288.324 258.151 288.324Z" fill="#FFCC01"/>
<path d="M196.434 272.486C197.874 272.486 199.042 271.319 199.042 269.879C199.042 268.439 197.874 267.271 196.434 267.271C194.994 267.271 193.826 268.439 193.826 269.879C193.826 271.319 194.994 272.486 196.434 272.486Z" fill="#FFAB03"/>
<path d="M196.434 272.969C194.792 272.969 193.343 271.617 193.343 269.879C193.343 268.14 194.695 266.788 196.434 266.788C198.076 266.788 199.525 268.14 199.525 269.879C199.525 271.617 198.173 272.969 196.434 272.969ZM196.434 267.754C195.275 267.754 194.309 268.72 194.309 269.879C194.309 271.038 195.275 272.003 196.434 272.003C197.593 272.003 198.559 271.038 198.559 269.879C198.559 268.72 197.593 267.754 196.434 267.754Z" fill="#FFCC01"/>
<path d="M167.073 271.714C168.086 271.714 168.908 270.892 168.908 269.879C168.908 268.865 168.086 268.044 167.073 268.044C166.059 268.044 165.237 268.865 165.237 269.879C165.237 270.892 166.059 271.714 167.073 271.714Z" fill="#FFAB03"/>
<path d="M167.073 272.196C165.817 272.196 164.755 271.134 164.755 269.879C164.755 268.623 165.817 267.561 167.073 267.561C168.328 267.561 169.391 268.623 169.391 269.879C169.391 271.134 168.328 272.196 167.073 272.196ZM167.073 268.527C166.3 268.527 165.72 269.106 165.72 269.879C165.72 270.651 166.3 271.231 167.073 271.231C167.845 271.231 168.425 270.651 168.425 269.879C168.425 269.106 167.845 268.527 167.073 268.527Z" fill="#FFCC01"/>
<path d="M212.66 272.486C213.674 272.486 214.495 271.665 214.495 270.651C214.495 269.638 213.674 268.816 212.66 268.816C211.647 268.816 210.825 269.638 210.825 270.651C210.825 271.665 211.647 272.486 212.66 272.486Z" fill="#FFAB03"/>
<path d="M212.66 272.969C212.467 272.969 212.177 272.969 211.984 272.872C210.728 272.486 210.052 271.231 210.439 269.975C210.632 269.396 211.018 268.913 211.598 268.623C212.177 268.333 212.757 268.237 213.336 268.43C214.592 268.816 215.268 270.072 214.881 271.327C214.688 271.907 214.302 272.39 213.722 272.679C213.336 272.872 213.046 272.969 212.66 272.969ZM212.66 269.203C212.081 269.203 211.501 269.589 211.404 270.168C211.211 270.844 211.598 271.617 212.37 271.81C212.757 271.907 213.046 271.907 213.433 271.714C213.819 271.52 214.012 271.231 214.109 270.941C214.302 270.265 213.916 269.492 213.143 269.299C212.853 269.299 212.757 269.203 212.66 269.203Z" fill="#FFCC01"/>
<path d="M272.832 311.406C273.845 311.406 274.667 310.584 274.667 309.571C274.667 308.557 273.845 307.736 272.832 307.736C271.818 307.736 270.997 308.557 270.997 309.571C270.997 310.584 271.818 311.406 272.832 311.406Z" fill="#FFAB03"/>
<path d="M272.832 311.888C272.639 311.888 272.349 311.888 272.156 311.792C271.576 311.599 271.093 311.212 270.803 310.633C270.514 310.054 270.417 309.474 270.61 308.895C270.803 308.315 271.19 307.832 271.769 307.543C272.349 307.253 272.928 307.156 273.508 307.349C274.763 307.736 275.439 308.991 275.053 310.247C274.763 311.212 273.894 311.888 272.832 311.888ZM272.832 308.219C272.639 308.219 272.349 308.315 272.156 308.412C271.866 308.605 271.576 308.895 271.48 309.184C271.383 309.474 271.383 309.86 271.576 310.247C271.769 310.633 272.059 310.826 272.349 310.923C273.025 311.116 273.798 310.73 273.991 310.054C274.087 309.667 274.087 309.377 273.894 308.991C273.701 308.701 273.411 308.412 273.121 308.315C273.121 308.219 273.025 308.219 272.832 308.219Z" fill="#FFCC01"/>
<path d="M289.734 343.661C290.747 343.661 291.569 342.84 291.569 341.826C291.569 340.813 290.747 339.992 289.734 339.992C288.72 339.992 287.899 340.813 287.899 341.826C287.899 342.84 288.72 343.661 289.734 343.661Z" fill="#FFAB03"/>
<path d="M289.734 344.144C289.541 344.144 289.251 344.144 289.058 344.048C287.802 343.661 287.126 342.406 287.512 341.15C287.706 340.571 288.092 340.088 288.671 339.798C289.251 339.509 289.83 339.412 290.41 339.605C290.989 339.798 291.472 340.185 291.762 340.764C292.052 341.344 292.148 341.923 291.955 342.502C291.666 343.565 290.796 344.144 289.734 344.144ZM289.734 340.474C289.541 340.474 289.251 340.571 289.058 340.668C288.768 340.861 288.478 341.15 288.382 341.44C288.285 341.73 288.285 342.116 288.478 342.502C288.671 342.792 288.961 343.082 289.251 343.178C289.637 343.275 289.927 343.275 290.313 343.082C290.7 342.889 290.893 342.599 290.989 342.309C291.086 341.923 291.086 341.633 290.893 341.247C290.7 340.957 290.41 340.668 290.12 340.571C290.024 340.571 289.927 340.474 289.734 340.474Z" fill="#FFCC01"/>
<path d="M294.177 387.796C295.19 387.796 296.012 386.974 296.012 385.961C296.012 384.947 295.19 384.126 294.177 384.126C293.163 384.126 292.342 384.947 292.342 385.961C292.342 386.974 293.163 387.796 294.177 387.796Z" fill="#FFAB03"/>
<path d="M294.177 388.279C293.984 388.279 293.694 388.279 293.501 388.182C292.921 387.989 292.438 387.603 292.148 387.023C291.859 386.444 291.762 385.864 291.955 385.285C292.148 384.705 292.535 384.223 293.114 383.933C293.694 383.643 294.273 383.546 294.853 383.74C296.108 384.126 296.784 385.381 296.398 386.637C296.205 387.216 295.819 387.699 295.239 387.989C294.949 388.182 294.563 388.279 294.177 388.279ZM294.177 384.609C293.597 384.609 293.018 384.995 292.921 385.575C292.825 385.961 292.825 386.251 293.018 386.637C293.211 387.023 293.501 387.216 293.79 387.313C294.177 387.409 294.466 387.409 294.853 387.216C295.143 387.023 295.432 386.733 295.529 386.444C295.722 385.768 295.336 384.995 294.66 384.802C294.37 384.609 294.273 384.609 294.177 384.609Z" fill="#FFCC01"/>
<path d="M229.466 276.832C230.479 276.832 231.301 276.01 231.301 274.997C231.301 273.984 230.479 273.162 229.466 273.162C228.452 273.162 227.631 273.984 227.631 274.997C227.631 276.01 228.452 276.832 229.466 276.832Z" fill="#FFAB03"/>
<path d="M229.466 277.315C229.272 277.315 228.983 277.315 228.79 277.218C227.534 276.832 226.858 275.577 227.244 274.321C227.631 273.066 228.886 272.39 230.142 272.776C231.397 273.162 232.073 274.418 231.687 275.673C231.494 276.253 231.108 276.735 230.528 277.025C230.238 277.218 229.852 277.315 229.466 277.315ZM229.466 273.645C228.886 273.645 228.307 274.031 228.21 274.611C228.017 275.287 228.403 276.059 229.176 276.253C229.562 276.349 229.852 276.349 230.238 276.156C230.528 275.963 230.818 275.673 230.914 275.383C231.108 274.707 230.721 273.935 230.045 273.742C229.755 273.645 229.659 273.645 229.466 273.645Z" fill="#FFCC01"/>
<path d="M220 273.935C221.014 273.935 221.836 273.113 221.836 272.1C221.836 271.086 221.014 270.265 220 270.265C218.987 270.265 218.165 271.086 218.165 272.1C218.165 273.113 218.987 273.935 220 273.935Z" fill="#FFAB03"/>
<path d="M220 274.418C219.807 274.418 219.517 274.418 219.324 274.321C218.745 274.128 218.262 273.742 217.972 273.162C217.682 272.583 217.586 272.003 217.779 271.424C218.165 270.168 219.421 269.492 220.676 269.879C221.932 270.265 222.608 271.52 222.222 272.776C222.029 273.355 221.642 273.838 221.063 274.128C220.773 274.321 220.387 274.418 220 274.418ZM220 270.748C219.421 270.748 218.841 271.134 218.745 271.714C218.648 272.1 218.648 272.39 218.841 272.776C219.035 273.162 219.324 273.355 219.614 273.452C220 273.548 220.29 273.548 220.676 273.355C220.966 273.162 221.256 272.872 221.353 272.583C221.546 271.907 221.159 271.134 220.483 270.941C220.194 270.748 220.097 270.748 220 270.748Z" fill="#FFCC01"/>
<path d="M236.13 279.053C237.143 279.053 237.965 278.232 237.965 277.218C237.965 276.205 237.143 275.383 236.13 275.383C235.116 275.383 234.295 276.205 234.295 277.218C234.295 278.232 235.116 279.053 236.13 279.053Z" fill="#FFAB03"/>
<path d="M236.13 279.536C235.937 279.536 235.647 279.536 235.454 279.439C234.874 279.246 234.391 278.86 234.102 278.281C233.812 277.701 233.715 277.122 233.908 276.542C234.102 275.963 234.488 275.48 235.067 275.19C235.647 274.9 236.226 274.804 236.806 274.997C237.386 275.19 237.868 275.577 238.158 276.156C238.448 276.735 238.544 277.315 238.351 277.894C238.158 278.474 237.772 278.957 237.192 279.246C236.903 279.439 236.516 279.536 236.13 279.536ZM236.13 275.866C235.937 275.866 235.647 275.963 235.454 276.059C235.164 276.253 234.874 276.542 234.778 276.832C234.681 277.218 234.681 277.508 234.874 277.894C235.067 278.184 235.357 278.474 235.647 278.57C236.033 278.667 236.323 278.667 236.709 278.474C236.999 278.281 237.289 277.991 237.385 277.701C237.482 277.411 237.482 277.025 237.289 276.639C237.096 276.349 236.806 276.059 236.516 275.963C236.42 275.866 236.226 275.866 236.13 275.866Z" fill="#FFCC01"/>
<path d="M158.283 272.486C159.297 272.486 160.119 271.665 160.119 270.651C160.119 269.638 159.297 268.816 158.283 268.816C157.27 268.816 156.448 269.638 156.448 270.651C156.448 271.665 157.27 272.486 158.283 272.486Z" fill="#FFAB03"/>
<path d="M158.283 272.969C157.028 272.969 155.965 271.907 155.965 270.651C155.965 269.396 157.028 268.333 158.283 268.333C159.539 268.333 160.601 269.396 160.601 270.651C160.601 271.907 159.539 272.969 158.283 272.969ZM158.283 269.203C157.511 269.203 156.931 269.782 156.931 270.555C156.931 271.327 157.511 271.907 158.283 271.907C159.056 271.907 159.636 271.327 159.636 270.555C159.636 269.782 158.96 269.203 158.283 269.203Z" fill="#FFCC01"/>
<path d="M120.036 287.938C121.476 287.938 122.644 286.771 122.644 285.331C122.644 283.89 121.476 282.723 120.036 282.723C118.596 282.723 117.429 283.89 117.429 285.331C117.429 286.771 118.596 287.938 120.036 287.938Z" fill="#FFAB03"/>
<path d="M120.036 288.324C118.394 288.324 116.946 286.972 116.946 285.234C116.946 283.496 118.298 282.144 120.036 282.144C121.678 282.144 123.127 283.496 123.127 285.234C123.127 286.972 121.775 288.324 120.036 288.324ZM120.036 283.206C118.877 283.206 117.911 284.172 117.911 285.331C117.911 286.489 118.877 287.455 120.036 287.455C121.195 287.455 122.161 286.489 122.161 285.331C122.161 284.172 121.195 283.206 120.036 283.206Z" fill="#FFCC01"/>
<path d="M111.923 296.63C113.737 296.63 115.207 295.16 115.207 293.346C115.207 291.533 113.737 290.063 111.923 290.063C110.11 290.063 108.639 291.533 108.639 293.346C108.639 295.16 110.11 296.63 111.923 296.63Z" fill="#FFAB03"/>
<path d="M111.923 297.209C109.798 297.209 108.156 295.471 108.156 293.443C108.156 291.415 109.895 289.676 111.923 289.676C114.048 289.676 115.69 291.415 115.69 293.443C115.69 295.471 114.048 297.209 111.923 297.209ZM111.923 290.546C110.378 290.546 109.122 291.801 109.122 293.346C109.122 294.891 110.378 296.147 111.923 296.147C113.469 296.147 114.724 294.891 114.724 293.346C114.724 291.801 113.565 290.546 111.923 290.546Z" fill="#FFCC01"/>
<path d="M120.036 295.278C121.476 295.278 122.644 294.11 122.644 292.67C122.644 291.23 121.476 290.063 120.036 290.063C118.596 290.063 117.429 291.23 117.429 292.67C117.429 294.11 118.596 295.278 120.036 295.278Z" fill="#FFAB03"/>
<path d="M120.036 295.664C118.394 295.664 116.946 294.312 116.946 292.574C116.946 290.835 118.298 289.483 120.036 289.483C121.678 289.483 123.127 290.835 123.127 292.574C123.127 294.312 121.775 295.664 120.036 295.664ZM120.036 290.546C118.877 290.546 117.911 291.511 117.911 292.67C117.911 293.829 118.877 294.795 120.036 294.795C121.195 294.795 122.161 293.829 122.161 292.67C122.161 291.511 121.195 290.546 120.036 290.546Z" fill="#FFCC01"/>
<path d="M100.237 311.406C101.677 311.406 102.844 310.238 102.844 308.798C102.844 307.358 101.677 306.191 100.237 306.191C98.7964 306.191 97.6289 307.358 97.6289 308.798C97.6289 310.238 98.7964 311.406 100.237 311.406Z" fill="#FFAB03"/>
<path d="M100.237 311.888C98.5947 311.888 97.1459 310.536 97.1459 308.798C97.1459 307.06 98.4981 305.708 100.237 305.708C101.975 305.708 103.327 307.06 103.327 308.798C103.327 310.536 101.879 311.888 100.237 311.888ZM100.237 306.673C99.0776 306.673 98.1118 307.639 98.1118 308.798C98.1118 309.957 99.0776 310.923 100.237 310.923C101.396 310.923 102.361 309.957 102.361 308.798C102.361 307.639 101.396 306.673 100.237 306.673Z" fill="#FFCC01"/>
<path d="M86.232 338.543C87.6722 338.543 88.8397 337.375 88.8397 335.935C88.8397 334.495 87.6722 333.328 86.232 333.328C84.7917 333.328 83.6242 334.495 83.6242 335.935C83.6242 337.375 84.7917 338.543 86.232 338.543Z" fill="#FFAB03"/>
<path d="M86.232 339.026C84.59 339.026 83.1413 337.674 83.1413 335.935C83.1413 334.197 84.4935 332.845 86.232 332.845C87.8739 332.845 89.3226 334.197 89.3226 335.935C89.3226 337.674 87.9705 339.026 86.232 339.026ZM86.232 333.907C85.073 333.907 84.1071 334.873 84.1071 336.032C84.1071 337.191 85.073 338.157 86.232 338.157C87.391 338.157 88.3568 337.191 88.3568 336.032C88.3568 334.873 87.391 333.907 86.232 333.907Z" fill="#FFCC01"/>
<path d="M80.3404 403.248C81.7806 403.248 82.9481 402.08 82.9481 400.64C82.9481 399.2 81.7806 398.033 80.3404 398.033C78.9001 398.033 77.7326 399.2 77.7326 400.64C77.7326 402.08 78.9001 403.248 80.3404 403.248Z" fill="#FFAB03"/>
<path d="M80.3404 403.73C78.6984 403.73 77.2497 402.378 77.2497 400.64C77.2497 398.902 78.6019 397.55 80.3404 397.55C82.0789 397.55 83.431 398.902 83.431 400.64C83.431 402.378 82.0789 403.73 80.3404 403.73ZM80.3404 398.516C79.1814 398.516 78.2155 399.481 78.2155 400.64C78.2155 401.799 79.1814 402.765 80.3404 402.765C81.4994 402.765 82.4652 401.799 82.4652 400.64C82.4652 399.481 81.4994 398.516 80.3404 398.516Z" fill="#FFCC01"/>
<path d="M82.5618 351.774C84.3754 351.774 85.8456 350.303 85.8456 348.49C85.8456 346.677 84.3754 345.207 82.5618 345.207C80.7482 345.207 79.2779 346.677 79.2779 348.49C79.2779 350.303 80.7482 351.774 82.5618 351.774Z" fill="#FFAB03"/>
<path d="M82.5618 352.256C80.4369 352.256 78.795 350.518 78.795 348.49C78.795 346.462 80.5335 344.724 82.5618 344.724C84.59 344.724 86.3286 346.462 86.3286 348.49C86.3286 350.518 84.6866 352.256 82.5618 352.256ZM82.5618 345.689C81.0164 345.689 79.7609 346.945 79.7609 348.49C79.7609 350.035 81.0164 351.291 82.5618 351.291C84.1071 351.291 85.3627 350.035 85.3627 348.49C85.3627 346.945 84.1071 345.689 82.5618 345.689Z" fill="#FFCC01"/>
<path d="M80.3404 394.17C84.1276 394.17 87.1978 391.1 87.1978 387.313C87.1978 383.526 84.1276 380.456 80.3404 380.456C76.5531 380.456 73.4829 383.526 73.4829 387.313C73.4829 391.1 76.5531 394.17 80.3404 394.17Z" fill="#FFAB03"/>
<path d="M80.3404 394.653C76.2838 394.653 73 391.369 73 387.313C73 383.257 76.2838 379.973 80.3404 379.973C84.3969 379.973 87.6807 383.257 87.6807 387.313C87.6807 391.369 84.3969 394.653 80.3404 394.653ZM80.3404 380.939C76.7668 380.939 73.9658 383.836 73.9658 387.313C73.9658 390.79 76.8633 393.687 80.3404 393.687C83.8174 393.687 86.7149 390.79 86.7149 387.313C86.7149 383.836 83.914 380.939 80.3404 380.939Z" fill="#FFCC01"/>
<path d="M148.239 484.853C151.706 484.853 154.517 482.042 154.517 478.576C154.517 475.109 151.706 472.298 148.239 472.298C144.772 472.298 141.961 475.109 141.961 478.576C141.961 482.042 144.772 484.853 148.239 484.853Z" fill="#FFAB03"/>
<path d="M148.239 485.336C144.472 485.336 141.478 482.342 141.478 478.576C141.478 474.809 144.472 471.815 148.239 471.815C152.005 471.815 155 474.809 155 478.576C155 482.342 152.005 485.336 148.239 485.336ZM148.239 472.685C145.051 472.685 142.444 475.292 142.444 478.479C142.444 481.666 145.051 484.273 148.239 484.273C151.426 484.273 154.034 481.666 154.034 478.479C154.034 475.292 151.426 472.685 148.239 472.685Z" fill="#FFCC01"/>
<path d="M98.0152 436.276C99.8288 436.276 101.299 434.806 101.299 432.992C101.299 431.179 99.8288 429.709 98.0152 429.709C96.2016 429.709 94.7313 431.179 94.7313 432.992C94.7313 434.806 96.2016 436.276 98.0152 436.276Z" fill="#FFAB03"/>
<path d="M98.0152 436.759C95.8903 436.759 94.2484 435.021 94.2484 432.992C94.2484 430.868 95.9869 429.226 98.0152 429.226C100.043 429.226 101.782 430.964 101.782 432.992C101.782 435.021 100.14 436.759 98.0152 436.759ZM98.0152 430.095C96.4698 430.095 95.2143 431.351 95.2143 432.896C95.2143 434.441 96.4698 435.697 98.0152 435.697C99.5605 435.697 100.816 434.441 100.816 432.896C100.816 431.351 99.5605 430.095 98.0152 430.095Z" fill="#FFCC01"/>
<path d="M91.3509 328.306C93.5913 328.306 95.4074 326.49 95.4074 324.25C95.4074 322.01 93.5913 320.194 91.3509 320.194C89.1106 320.194 87.2944 322.01 87.2944 324.25C87.2944 326.49 89.1106 328.306 91.3509 328.306Z" fill="#FFAB03"/>
<path d="M91.3509 328.789C88.8397 328.789 86.8115 326.761 86.8115 324.25C86.8115 321.739 88.8397 319.711 91.3509 319.711C93.8621 319.711 95.8903 321.739 95.8903 324.25C95.8903 326.761 93.8621 328.789 91.3509 328.789ZM91.3509 320.677C89.4192 320.677 87.7773 322.318 87.7773 324.25C87.7773 326.181 89.4192 327.823 91.3509 327.823C93.2826 327.823 94.9245 326.181 94.9245 324.25C94.9245 322.318 93.3792 320.677 91.3509 320.677Z" fill="#FFCC01"/>
<path d="M98.6913 317.297C99.7048 317.297 100.526 316.475 100.526 315.462C100.526 314.448 99.7048 313.627 98.6913 313.627C97.6778 313.627 96.8562 314.448 96.8562 315.462C96.8562 316.475 97.6778 317.297 98.6913 317.297Z" fill="#FFAB03"/>
<path d="M98.6913 317.779C97.4357 317.779 96.3733 316.717 96.3733 315.462C96.3733 314.206 97.4357 313.144 98.6913 313.144C99.9469 313.144 101.009 314.206 101.009 315.462C101.009 316.717 100.043 317.779 98.6913 317.779ZM98.6913 314.013C97.9186 314.013 97.3391 314.592 97.3391 315.365C97.3391 316.138 97.9186 316.717 98.6913 316.717C99.4639 316.717 100.043 316.138 100.043 315.365C100.043 314.592 99.4639 314.013 98.6913 314.013Z" fill="#FFCC01"/>
<path d="M83.3345 343.661C84.3479 343.661 85.1695 342.84 85.1695 341.826C85.1695 340.813 84.3479 339.992 83.3345 339.992C82.321 339.992 81.4994 340.813 81.4994 341.826C81.4994 342.84 82.321 343.661 83.3345 343.661Z" fill="#FFAB03"/>
<path d="M83.3345 344.144C82.0789 344.144 81.0164 343.082 81.0164 341.826C81.0164 340.571 82.0789 339.509 83.3345 339.509C84.59 339.509 85.6525 340.571 85.6525 341.826C85.6525 343.082 84.59 344.144 83.3345 344.144ZM83.3345 340.474C82.5618 340.474 81.9823 341.054 81.9823 341.826C81.9823 342.599 82.5618 343.178 83.3345 343.178C84.1071 343.178 84.6866 342.599 84.6866 341.826C84.6866 341.054 84.0105 340.474 83.3345 340.474Z" fill="#FFCC01"/>
<path d="M93.5723 317.973C94.5858 317.973 95.4074 317.151 95.4074 316.138C95.4074 315.124 94.5858 314.303 93.5723 314.303C92.5588 314.303 91.7372 315.124 91.7372 316.138C91.7372 317.151 92.5588 317.973 93.5723 317.973Z" fill="#FFAB03"/>
<path d="M93.5723 318.455C92.3167 318.455 91.2543 317.393 91.2543 316.138C91.2543 314.882 92.3167 313.82 93.5723 313.82C94.8279 313.82 95.8903 314.882 95.8903 316.138C95.8903 317.393 94.8279 318.455 93.5723 318.455ZM93.5723 314.786C92.7997 314.786 92.2202 315.365 92.2202 316.138C92.2202 316.91 92.7997 317.49 93.5723 317.49C94.345 317.49 94.9245 316.91 94.9245 316.138C94.9245 315.365 94.345 314.786 93.5723 314.786Z" fill="#FFCC01"/>
<path d="M80.3404 362.107C81.3539 362.107 82.1755 361.286 82.1755 360.272C82.1755 359.259 81.3539 358.437 80.3404 358.437C79.3269 358.437 78.5053 359.259 78.5053 360.272C78.5053 361.286 79.3269 362.107 80.3404 362.107Z" fill="#FFAB03"/>
<path d="M80.3404 362.59C79.0848 362.59 78.0224 361.528 78.0224 360.272C78.0224 359.017 79.0848 357.954 80.3404 357.954C81.596 357.954 82.6584 359.017 82.6584 360.272C82.6584 361.528 81.6925 362.59 80.3404 362.59ZM80.3404 358.92C79.5677 358.92 78.9882 359.5 78.9882 360.272C78.9882 361.045 79.5677 361.624 80.3404 361.624C81.113 361.624 81.6925 361.045 81.6925 360.272C81.6925 359.5 81.113 358.92 80.3404 358.92Z" fill="#FFCC01"/>
<path d="M91.3509 423.818C92.7911 423.818 93.9587 422.651 93.9587 421.21C93.9587 419.77 92.7911 418.603 91.3509 418.603C89.9107 418.603 88.7431 419.77 88.7431 421.21C88.7431 422.651 89.9107 423.818 91.3509 423.818Z" fill="#FFAB03"/>
<path d="M91.3509 424.204C89.709 424.204 88.2602 422.852 88.2602 421.114C88.2602 419.376 89.6124 418.023 91.3509 418.023C93.0894 418.023 94.4416 419.376 94.4416 421.114C94.4416 422.852 93.0894 424.204 91.3509 424.204ZM91.3509 419.086C90.1919 419.086 89.2261 420.052 89.2261 421.21C89.2261 422.369 90.1919 423.335 91.3509 423.335C92.5099 423.335 93.4757 422.369 93.4757 421.21C93.4757 420.052 92.5099 419.086 91.3509 419.086Z" fill="#FFCC01"/>
<path d="M142.057 470.753C144.298 470.753 146.114 468.937 146.114 466.697C146.114 464.457 144.298 462.641 142.057 462.641C139.817 462.641 138.001 464.457 138.001 466.697C138.001 468.937 139.817 470.753 142.057 470.753Z" fill="#FFAB03"/>
<path d="M142.057 471.236C139.546 471.236 137.518 469.208 137.518 466.697C137.518 464.186 139.546 462.158 142.057 462.158C144.569 462.158 146.597 464.186 146.597 466.697C146.597 469.208 144.569 471.236 142.057 471.236ZM142.057 463.22C140.126 463.22 138.484 464.862 138.484 466.793C138.484 468.725 140.126 470.367 142.057 470.367C143.989 470.367 145.631 468.725 145.631 466.793C145.631 464.862 144.086 463.22 142.057 463.22Z" fill="#FFCC01"/>
<path d="M167.845 484.756C170.086 484.756 171.902 482.94 171.902 480.7C171.902 478.46 170.086 476.644 167.845 476.644C165.605 476.644 163.789 478.46 163.789 480.7C163.789 482.94 165.605 484.756 167.845 484.756Z" fill="#FFAB03"/>
<path d="M167.845 485.239C165.334 485.239 163.306 483.211 163.306 480.7C163.306 478.189 165.334 476.161 167.845 476.161C170.356 476.161 172.385 478.189 172.385 480.7C172.385 483.211 170.26 485.239 167.845 485.239ZM167.845 477.127C165.914 477.127 164.272 478.769 164.272 480.7C164.272 482.632 165.914 484.273 167.845 484.273C169.777 484.273 171.419 482.632 171.419 480.7C171.419 478.769 169.777 477.127 167.845 477.127Z" fill="#FFCC01"/>
<path d="M250.038 465.635C252.278 465.635 254.094 463.819 254.094 461.578C254.094 459.338 252.278 457.522 250.038 457.522C247.798 457.522 245.981 459.338 245.981 461.578C245.981 463.819 247.798 465.635 250.038 465.635Z" fill="#FFAB03"/>
<path d="M250.038 466.117C247.527 466.117 245.499 464.089 245.499 461.578C245.499 459.068 247.527 457.039 250.038 457.039C252.549 457.039 254.577 459.068 254.577 461.578C254.577 464.089 252.549 466.117 250.038 466.117ZM250.038 458.005C248.106 458.005 246.464 459.647 246.464 461.578C246.464 463.51 248.106 465.152 250.038 465.152C251.97 465.152 253.612 463.51 253.612 461.578C253.612 459.647 252.066 458.005 250.038 458.005Z" fill="#FFCC01"/>
<path d="M132.496 472.974C134.309 472.974 135.779 471.504 135.779 469.691C135.779 467.877 134.309 466.407 132.496 466.407C130.682 466.407 129.212 467.877 129.212 469.691C129.212 471.504 130.682 472.974 132.496 472.974Z" fill="#FFAB03"/>
<path d="M132.496 473.457C130.371 473.457 128.729 471.719 128.729 469.691C128.729 467.566 130.467 465.924 132.496 465.924C134.524 465.924 136.262 467.663 136.262 469.691C136.359 471.815 134.62 473.457 132.496 473.457ZM132.496 466.89C130.95 466.89 129.695 468.146 129.695 469.691C129.695 471.236 130.95 472.491 132.496 472.491C134.041 472.491 135.296 471.236 135.296 469.691C135.296 468.146 134.137 466.89 132.496 466.89Z" fill="#FFCC01"/>
<path d="M177.31 488.426C179.124 488.426 180.594 486.956 180.594 485.143C180.594 483.329 179.124 481.859 177.31 481.859C175.497 481.859 174.027 483.329 174.027 485.143C174.027 486.956 175.497 488.426 177.31 488.426Z" fill="#FFAB03"/>
<path d="M177.31 488.909C175.186 488.909 173.544 487.171 173.544 485.143C173.544 483.115 175.282 481.376 177.31 481.376C179.435 481.376 181.077 483.115 181.077 485.143C181.077 487.171 179.435 488.909 177.31 488.909ZM177.31 482.245C175.765 482.245 174.509 483.501 174.509 485.046C174.509 486.591 175.765 487.847 177.31 487.847C178.856 487.847 180.111 486.591 180.111 485.046C180.111 483.501 178.952 482.245 177.31 482.245Z" fill="#FFCC01"/>
<path d="M239.8 471.526C241.614 471.526 243.084 470.056 243.084 468.242C243.084 466.429 241.614 464.959 239.8 464.959C237.986 464.959 236.516 466.429 236.516 468.242C236.516 470.056 237.986 471.526 239.8 471.526Z" fill="#FFAB03"/>
<path d="M239.8 472.008C237.675 472.008 236.033 470.27 236.033 468.242C236.033 466.117 237.772 464.476 239.8 464.476C241.925 464.476 243.567 466.214 243.567 468.242C243.567 470.27 241.925 472.008 239.8 472.008ZM239.8 465.345C238.255 465.345 236.999 466.6 236.999 468.146C236.999 469.691 238.255 470.946 239.8 470.946C241.345 470.946 242.601 469.691 242.601 468.146C242.601 466.6 241.345 465.345 239.8 465.345Z" fill="#FFCC01"/>
<path d="M199.428 483.984C201.242 483.984 202.712 482.514 202.712 480.7C202.712 478.887 201.242 477.417 199.428 477.417C197.614 477.417 196.144 478.887 196.144 480.7C196.144 482.514 197.614 483.984 199.428 483.984Z" fill="#FFAB03"/>
<path d="M199.428 484.467C197.303 484.467 195.661 482.728 195.661 480.7C195.661 478.672 197.4 476.934 199.428 476.934C201.456 476.934 203.195 478.672 203.195 480.7C203.195 482.728 201.456 484.467 199.428 484.467ZM199.428 477.9C197.883 477.9 196.627 479.155 196.627 480.7C196.627 482.245 197.883 483.501 199.428 483.501C200.973 483.501 202.229 482.245 202.229 480.7C202.229 479.155 200.973 477.9 199.428 477.9Z" fill="#FFCC01"/>
<path d="M292.728 396.584C294.542 396.584 296.012 395.114 296.012 393.3C296.012 391.487 294.542 390.017 292.728 390.017C290.914 390.017 289.444 391.487 289.444 393.3C289.444 395.114 290.914 396.584 292.728 396.584Z" fill="#FFAB03"/>
<path d="M292.728 397.067C290.603 397.067 288.961 395.329 288.961 393.3C288.961 391.272 290.7 389.534 292.728 389.534C294.756 389.534 296.495 391.272 296.495 393.3C296.495 395.329 294.756 397.067 292.728 397.067ZM292.728 390.5C291.183 390.5 289.927 391.755 289.927 393.3C289.927 394.846 291.183 396.101 292.728 396.101C294.273 396.101 295.529 394.846 295.529 393.3C295.529 391.755 294.273 390.5 292.728 390.5Z" fill="#FFCC01"/>
<path d="M283.842 329.755C285.656 329.755 287.126 328.285 287.126 326.471C287.126 324.658 285.656 323.188 283.842 323.188C282.029 323.188 280.558 324.658 280.558 326.471C280.558 328.285 282.029 329.755 283.842 329.755Z" fill="#FFAB03"/>
<path d="M283.842 330.238C281.717 330.238 280.075 328.499 280.075 326.471C280.075 324.346 281.814 322.705 283.842 322.705C285.871 322.705 287.609 324.443 287.609 326.471C287.706 328.499 285.967 330.238 283.842 330.238ZM283.842 323.574C282.297 323.574 281.041 324.829 281.041 326.375C281.041 327.92 282.297 329.175 283.842 329.175C285.388 329.175 286.643 327.92 286.643 326.375C286.643 324.829 285.388 323.574 283.842 323.574Z" fill="#FFCC01"/>
<path d="M265.491 451.631C267.305 451.631 268.775 450.161 268.775 448.348C268.775 446.534 267.305 445.064 265.491 445.064C263.678 445.064 262.208 446.534 262.208 448.348C262.208 450.161 263.678 451.631 265.491 451.631Z" fill="#FFAB03"/>
<path d="M265.491 452.211C263.367 452.211 261.725 450.472 261.725 448.444C261.725 446.416 263.463 444.678 265.491 444.678C267.52 444.678 269.258 446.416 269.258 448.444C269.258 450.472 267.616 452.211 265.491 452.211ZM265.491 445.547C263.946 445.547 262.69 446.803 262.69 448.348C262.69 449.893 263.946 451.148 265.491 451.148C267.037 451.148 268.292 449.893 268.292 448.348C268.292 446.803 267.037 445.547 265.491 445.547Z" fill="#FFCC01"/>
<path d="M90.6748 430.385C91.6883 430.385 92.5099 429.563 92.5099 428.55C92.5099 427.537 91.6883 426.715 90.6748 426.715C89.6613 426.715 88.8397 427.537 88.8397 428.55C88.8397 429.563 89.6613 430.385 90.6748 430.385Z" fill="#FFAB03"/>
<path d="M90.6748 430.868C89.4192 430.868 88.3568 429.806 88.3568 428.55C88.3568 427.295 89.4192 426.232 90.6748 426.232C91.9304 426.232 92.9928 427.295 92.9928 428.55C92.9928 429.806 91.9304 430.868 90.6748 430.868ZM90.6748 427.198C89.9021 427.198 89.3226 427.777 89.3226 428.55C89.3226 429.323 89.9021 429.902 90.6748 429.902C91.4475 429.902 92.027 429.323 92.027 428.55C92.027 427.777 91.4475 427.198 90.6748 427.198Z" fill="#FFCC01"/>
<path d="M78.1189 374.372C79.1324 374.372 79.954 373.55 79.954 372.537C79.954 371.524 79.1324 370.702 78.1189 370.702C77.1054 370.702 76.2838 371.524 76.2838 372.537C76.2838 373.55 77.1054 374.372 78.1189 374.372Z" fill="#FFAB03"/>
<path d="M78.1189 374.855C76.8633 374.855 75.8009 373.792 75.8009 372.537C75.8009 371.282 76.8633 370.219 78.1189 370.219C79.3745 370.219 80.4369 371.282 80.4369 372.537C80.4369 373.792 79.4711 374.855 78.1189 374.855ZM78.1189 371.185C77.3463 371.185 76.7668 371.764 76.7668 372.537C76.7668 373.31 77.3463 373.889 78.1189 373.889C78.8916 373.889 79.4711 373.31 79.4711 372.537C79.4711 371.764 78.8916 371.185 78.1189 371.185Z" fill="#FFCC01"/>
<path d="M105.356 441.394C106.369 441.394 107.191 440.573 107.191 439.56C107.191 438.546 106.369 437.725 105.356 437.725C104.342 437.725 103.52 438.546 103.52 439.56C103.52 440.573 104.342 441.394 105.356 441.394Z" fill="#FFAB03"/>
<path d="M105.356 441.877C104.1 441.877 103.038 440.815 103.038 439.56C103.038 438.304 104.1 437.242 105.356 437.242C106.611 437.242 107.674 438.304 107.674 439.56C107.674 440.815 106.611 441.877 105.356 441.877ZM105.356 438.208C104.583 438.208 104.003 438.787 104.003 439.56C104.003 440.332 104.583 440.912 105.356 440.912C106.128 440.912 106.708 440.332 106.708 439.56C106.708 438.787 106.128 438.208 105.356 438.208Z" fill="#FFCC01"/>
<path d="M162.63 474.423C163.643 474.423 164.465 473.601 164.465 472.588C164.465 471.575 163.643 470.753 162.63 470.753C161.616 470.753 160.795 471.575 160.795 472.588C160.795 473.601 161.616 474.423 162.63 474.423Z" fill="#FFAB03"/>
<path d="M162.63 474.906C161.374 474.906 160.312 473.843 160.312 472.588C160.312 471.332 161.374 470.27 162.63 470.27C163.885 470.27 164.948 471.332 164.948 472.588C164.948 473.843 163.982 474.906 162.63 474.906ZM162.63 471.236C161.857 471.236 161.278 471.815 161.278 472.588C161.278 473.361 161.857 473.94 162.63 473.94C163.402 473.94 163.982 473.361 163.982 472.588C163.982 471.815 163.402 471.236 162.63 471.236Z" fill="#FFCC01"/>
<path d="M271.383 442.167C272.396 442.167 273.218 441.346 273.218 440.332C273.218 439.319 272.396 438.497 271.383 438.497C270.369 438.497 269.548 439.319 269.548 440.332C269.548 441.346 270.369 442.167 271.383 442.167Z" fill="#FFAB03"/>
<path d="M271.383 442.65C270.127 442.65 269.065 441.588 269.065 440.332C269.065 439.077 270.127 438.014 271.383 438.014C272.639 438.014 273.701 439.077 273.701 440.332C273.701 441.588 272.639 442.65 271.383 442.65ZM271.383 438.98C270.61 438.98 270.031 439.56 270.031 440.332C270.031 441.105 270.61 441.684 271.383 441.684C272.156 441.684 272.735 441.105 272.735 440.332C272.735 439.56 272.156 438.98 271.383 438.98Z" fill="#FFCC01"/>
<path d="M160.408 479.638C161.422 479.638 162.243 478.816 162.243 477.803C162.243 476.79 161.422 475.968 160.408 475.968C159.395 475.968 158.573 476.79 158.573 477.803C158.573 478.816 159.395 479.638 160.408 479.638Z" fill="#FFAB03"/>
<path d="M160.408 480.121C159.153 480.121 158.09 479.058 158.09 477.803C158.09 476.547 159.153 475.485 160.408 475.485C161.664 475.485 162.726 476.547 162.726 477.803C162.726 479.058 161.76 480.121 160.408 480.121ZM160.408 476.451C159.636 476.451 159.056 477.03 159.056 477.803C159.056 478.576 159.636 479.155 160.408 479.155C161.181 479.155 161.76 478.576 161.76 477.803C161.76 477.03 161.181 476.451 160.408 476.451Z" fill="#FFCC01"/>
<path d="M230.238 474.423C231.252 474.423 232.073 473.601 232.073 472.588C232.073 471.575 231.252 470.753 230.238 470.753C229.225 470.753 228.403 471.575 228.403 472.588C228.403 473.601 229.225 474.423 230.238 474.423Z" fill="#FFAB03"/>
<path d="M230.238 474.906C228.983 474.906 227.92 473.843 227.92 472.588C227.92 471.332 228.983 470.27 230.238 470.27C231.494 470.27 232.556 471.332 232.556 472.588C232.556 473.843 231.494 474.906 230.238 474.906ZM230.238 471.236C229.466 471.236 228.886 471.815 228.886 472.588C228.886 473.361 229.466 473.94 230.238 473.94C231.011 473.94 231.59 473.361 231.59 472.588C231.59 471.815 231.011 471.236 230.238 471.236Z" fill="#FFCC01"/>
<path d="M286.836 416.382C287.85 416.382 288.671 415.56 288.671 414.547C288.671 413.533 287.85 412.712 286.836 412.712C285.823 412.712 285.001 413.533 285.001 414.547C285.001 415.56 285.823 416.382 286.836 416.382Z" fill="#FFAB03"/>
<path d="M286.836 416.865C285.581 416.865 284.518 415.802 284.518 414.547C284.518 413.291 285.581 412.229 286.836 412.229C288.092 412.229 289.154 413.291 289.154 414.547C289.154 415.802 288.092 416.865 286.836 416.865ZM286.836 413.195C286.064 413.195 285.484 413.774 285.484 414.547C285.484 415.319 286.064 415.899 286.836 415.899C287.609 415.899 288.189 415.319 288.189 414.547C288.189 413.774 287.609 413.195 286.836 413.195Z" fill="#FFCC01"/>
<path d="M213.336 479.638C214.35 479.638 215.171 478.816 215.171 477.803C215.171 476.79 214.35 475.968 213.336 475.968C212.323 475.968 211.501 476.79 211.501 477.803C211.501 478.816 212.323 479.638 213.336 479.638Z" fill="#FFAB03"/>
<path d="M213.336 480.121C212.081 480.121 211.018 479.058 211.018 477.803C211.018 476.547 212.081 475.485 213.336 475.485C214.592 475.485 215.654 476.547 215.654 477.803C215.654 479.058 214.592 480.121 213.336 480.121ZM213.336 476.451C212.563 476.451 211.984 477.03 211.984 477.803C211.984 478.576 212.563 479.155 213.336 479.155C214.109 479.155 214.688 478.576 214.688 477.803C214.688 477.03 214.109 476.451 213.336 476.451Z" fill="#FFCC01"/>
<path d="M276.502 434.827C277.515 434.827 278.337 434.006 278.337 432.993C278.337 431.979 277.515 431.158 276.502 431.158C275.488 431.158 274.667 431.979 274.667 432.993C274.667 434.006 275.488 434.827 276.502 434.827Z" fill="#FFAB03"/>
<path d="M276.502 435.31C275.246 435.31 274.184 434.248 274.184 432.992C274.184 431.737 275.246 430.675 276.502 430.675C277.757 430.675 278.82 431.737 278.82 432.992C278.82 434.248 277.854 435.31 276.502 435.31ZM276.502 431.64C275.729 431.64 275.15 432.22 275.15 432.992C275.15 433.765 275.729 434.345 276.502 434.345C277.275 434.345 277.854 433.765 277.854 432.992C277.854 432.22 277.275 431.64 276.502 431.64Z" fill="#FFCC01"/>
<path d="M290.507 402.475C291.52 402.475 292.342 401.654 292.342 400.64C292.342 399.627 291.52 398.805 290.507 398.805C289.493 398.805 288.671 399.627 288.671 400.64C288.671 401.654 289.493 402.475 290.507 402.475Z" fill="#FFAB03"/>
<path d="M290.507 402.958C289.251 402.958 288.189 401.896 288.189 400.64C288.189 399.385 289.251 398.322 290.507 398.322C291.762 398.322 292.825 399.385 292.825 400.64C292.825 401.896 291.762 402.958 290.507 402.958ZM290.507 399.288C289.734 399.288 289.154 399.868 289.154 400.64C289.154 401.413 289.734 401.992 290.507 401.992C291.279 401.992 291.859 401.413 291.859 400.64C291.859 399.868 291.279 399.288 290.507 399.288Z" fill="#FFCC01"/>
<path d="M206.768 482.535C207.782 482.535 208.604 481.714 208.604 480.7C208.604 479.687 207.782 478.865 206.768 478.865C205.755 478.865 204.933 479.687 204.933 480.7C204.933 481.714 205.755 482.535 206.768 482.535Z" fill="#FFAB03"/>
<path d="M206.768 483.018C205.513 483.018 204.45 481.956 204.45 480.7C204.45 479.445 205.513 478.382 206.768 478.382C208.024 478.382 209.086 479.445 209.086 480.7C209.086 481.956 208.024 483.018 206.768 483.018ZM206.768 479.348C205.996 479.348 205.416 479.928 205.416 480.7C205.416 481.473 205.996 482.052 206.768 482.052C207.541 482.052 208.121 481.473 208.121 480.7C208.121 479.928 207.445 479.348 206.768 479.348Z" fill="#FFCC01"/>
<path d="M183.975 483.308C184.988 483.308 185.81 482.486 185.81 481.473C185.81 480.459 184.988 479.638 183.975 479.638C182.961 479.638 182.14 480.459 182.14 481.473C182.14 482.486 182.961 483.308 183.975 483.308Z" fill="#FFAB03"/>
<path d="M183.975 483.791C182.719 483.791 181.657 482.728 181.657 481.473C181.657 480.217 182.719 479.155 183.975 479.155C185.23 479.155 186.293 480.217 186.293 481.473C186.293 482.728 185.23 483.791 183.975 483.791ZM183.975 480.121C183.202 480.121 182.623 480.7 182.623 481.473C182.623 482.245 183.202 482.825 183.975 482.825C184.747 482.825 185.327 482.245 185.327 481.473C185.327 480.7 184.747 480.121 183.975 480.121Z" fill="#FFCC01"/>
<path d="M158.283 485.432C159.297 485.432 160.119 484.611 160.119 483.597C160.119 482.584 159.297 481.762 158.283 481.762C157.27 481.762 156.448 482.584 156.448 483.597C156.448 484.611 157.27 485.432 158.283 485.432Z" fill="#FFAB03"/>
<path d="M158.283 485.915C157.028 485.915 155.965 484.853 155.965 483.597C155.965 482.342 157.028 481.28 158.283 481.28C159.539 481.28 160.601 482.342 160.601 483.597C160.601 484.853 159.539 485.915 158.283 485.915ZM158.283 482.245C157.511 482.245 156.931 482.825 156.931 483.597C156.931 484.37 157.511 484.949 158.283 484.949C159.056 484.949 159.636 484.37 159.636 483.597C159.636 482.825 158.96 482.245 158.283 482.245Z" fill="#FFCC01"/>
<path d="M114.917 455.398C115.931 455.398 116.752 454.576 116.752 453.563C116.752 452.549 115.931 451.728 114.917 451.728C113.904 451.728 113.082 452.549 113.082 453.563C113.082 454.576 113.904 455.398 114.917 455.398Z" fill="#FFAB03"/>
<path d="M114.917 455.881C113.662 455.881 112.599 454.818 112.599 453.563C112.599 452.307 113.662 451.245 114.917 451.245C116.173 451.245 117.235 452.307 117.235 453.563C117.235 454.818 116.173 455.881 114.917 455.881ZM114.917 452.211C114.145 452.211 113.565 452.79 113.565 453.563C113.565 454.335 114.145 454.915 114.917 454.915C115.69 454.915 116.27 454.335 116.27 453.563C116.27 452.79 115.69 452.211 114.917 452.211Z" fill="#FFCC01"/>
<path d="M128.825 466.407C129.839 466.407 130.66 465.586 130.66 464.572C130.66 463.559 129.839 462.737 128.825 462.737C127.812 462.737 126.99 463.559 126.99 464.572C126.99 465.586 127.812 466.407 128.825 466.407Z" fill="#FFAB03"/>
<path d="M128.825 466.89C127.57 466.89 126.507 465.828 126.507 464.572C126.507 463.317 127.57 462.254 128.825 462.254C130.081 462.254 131.143 463.317 131.143 464.572C131.143 465.828 130.178 466.89 128.825 466.89ZM128.825 463.22C128.053 463.22 127.473 463.8 127.473 464.572C127.473 465.345 128.053 465.924 128.825 465.924C129.598 465.924 130.178 465.345 130.178 464.572C130.178 463.8 129.598 463.22 128.825 463.22Z" fill="#FFCC01"/>
<path d="M99.4639 442.167C100.477 442.167 101.299 441.346 101.299 440.332C101.299 439.319 100.477 438.497 99.4639 438.497C98.4505 438.497 97.6289 439.319 97.6289 440.332C97.6289 441.346 98.4505 442.167 99.4639 442.167Z" fill="#FFAB03"/>
<path d="M99.4639 442.65C98.2084 442.65 97.1459 441.588 97.1459 440.332C97.1459 439.077 98.2084 438.014 99.4639 438.014C100.72 438.014 101.782 439.077 101.782 440.332C101.782 441.588 100.72 442.65 99.4639 442.65ZM99.4639 438.98C98.6913 438.98 98.1118 439.56 98.1118 440.332C98.1118 441.105 98.6913 441.684 99.4639 441.684C100.237 441.684 100.816 441.105 100.816 440.332C100.816 439.56 100.237 438.98 99.4639 438.98Z" fill="#FFCC01"/>
<path d="M109.798 450.955C111.239 450.955 112.406 449.788 112.406 448.348C112.406 446.908 111.239 445.74 109.798 445.74C108.358 445.74 107.191 446.908 107.191 448.348C107.191 449.788 108.358 450.955 109.798 450.955Z" fill="#FFAB03"/>
<path d="M109.798 451.438C108.156 451.438 106.708 450.086 106.708 448.348C106.708 446.609 108.06 445.257 109.798 445.257C111.537 445.257 112.889 446.609 112.889 448.348C112.889 450.086 111.44 451.438 109.798 451.438ZM109.798 446.32C108.639 446.32 107.674 447.285 107.674 448.444C107.674 449.603 108.639 450.569 109.798 450.569C110.957 450.569 111.923 449.603 111.923 448.444C111.923 447.285 110.957 446.32 109.798 446.32Z" fill="#FFCC01"/>
<path d="M256.702 459.84C258.142 459.84 259.31 458.673 259.31 457.233C259.31 455.793 258.142 454.625 256.702 454.625C255.262 454.625 254.094 455.793 254.094 457.233C254.094 458.673 255.262 459.84 256.702 459.84Z" fill="#FFAB03"/>
<path d="M256.702 460.226C255.06 460.226 253.612 458.874 253.612 457.136C253.612 455.398 254.964 454.046 256.702 454.046C258.344 454.046 259.793 455.398 259.793 457.136C259.793 458.874 258.344 460.226 256.702 460.226ZM256.702 455.108C255.543 455.108 254.577 456.074 254.577 457.233C254.577 458.392 255.543 459.357 256.702 459.357C257.861 459.357 258.827 458.392 258.827 457.233C258.827 456.074 257.861 455.108 256.702 455.108Z" fill="#FFCC01"/>
<path d="M289.734 408.366C291.174 408.366 292.342 407.199 292.342 405.759C292.342 404.318 291.174 403.151 289.734 403.151C288.294 403.151 287.126 404.318 287.126 405.759C287.126 407.199 288.294 408.366 289.734 408.366Z" fill="#FFAB03"/>
<path d="M289.734 408.849C288.092 408.849 286.643 407.497 286.643 405.759C286.643 404.02 287.995 402.668 289.734 402.668C291.472 402.668 292.825 404.02 292.825 405.759C292.825 407.497 291.472 408.849 289.734 408.849ZM289.734 403.731C288.575 403.731 287.609 404.696 287.609 405.855C287.609 407.014 288.575 407.98 289.734 407.98C290.893 407.98 291.859 407.014 291.859 405.855C291.859 404.696 290.893 403.731 289.734 403.731Z" fill="#FFCC01"/>
<path d="M293.79 374.565C298.058 374.565 301.517 371.106 301.517 366.839C301.517 362.572 298.058 359.113 293.79 359.113C289.523 359.113 286.064 362.572 286.064 366.839C286.064 371.106 289.523 374.565 293.79 374.565Z" fill="#FFAB03"/>
<path d="M293.79 375.048C289.251 375.048 285.581 371.378 285.581 366.839C285.581 362.3 289.251 358.63 293.79 358.63C298.33 358.63 302 362.3 302 366.839C302 371.378 298.33 375.048 293.79 375.048ZM293.79 359.5C289.83 359.5 286.547 362.783 286.547 366.743C286.547 370.702 289.83 373.986 293.79 373.986C297.75 373.986 301.034 370.702 301.034 366.743C301.034 362.783 297.75 359.5 293.79 359.5Z" fill="#FFCC01"/>
<path d="M294.177 382.001C295.617 382.001 296.784 380.834 296.784 379.394C296.784 377.954 295.617 376.786 294.177 376.786C292.736 376.786 291.569 377.954 291.569 379.394C291.569 380.834 292.736 382.001 294.177 382.001Z" fill="#FFAB03"/>
<path d="M294.177 382.388C292.535 382.388 291.086 381.036 291.086 379.297C291.086 377.559 292.438 376.207 294.177 376.207C295.819 376.207 297.267 377.559 297.267 379.297C297.267 381.036 295.819 382.388 294.177 382.388ZM294.177 377.269C293.018 377.269 292.052 378.235 292.052 379.394C292.052 380.553 293.018 381.518 294.177 381.518C295.336 381.518 296.302 380.553 296.302 379.394C296.302 378.235 295.336 377.269 294.177 377.269Z" fill="#FFCC01"/>
<path d="M280.172 320.966C281.612 320.966 282.78 319.799 282.78 318.359C282.78 316.919 281.612 315.751 280.172 315.751C278.732 315.751 277.564 316.919 277.564 318.359C277.564 319.799 278.732 320.966 280.172 320.966Z" fill="#FFAB03"/>
<path d="M280.172 321.449C278.53 321.449 277.081 320.097 277.081 318.359C277.081 316.621 278.434 315.269 280.172 315.269C281.911 315.269 283.263 316.621 283.263 318.359C283.263 320.097 281.911 321.449 280.172 321.449ZM280.172 316.234C279.013 316.234 278.047 317.2 278.047 318.359C278.047 319.518 279.013 320.484 280.172 320.484C281.331 320.484 282.297 319.518 282.297 318.359C282.297 317.2 281.331 316.234 280.172 316.234Z" fill="#FFCC01"/>
<path d="M87.0046 414.933C88.0181 414.933 88.8397 414.112 88.8397 413.098C88.8397 412.085 88.0181 411.263 87.0046 411.263C85.9911 411.263 85.1695 412.085 85.1695 413.098C85.1695 414.112 85.9911 414.933 87.0046 414.933Z" fill="#FFAB03"/>
<path d="M87.0046 415.416C85.7491 415.416 84.6866 414.354 84.6866 413.098C84.6866 411.843 85.7491 410.78 87.0046 410.78C88.2602 410.78 89.3226 411.843 89.3226 413.098C89.3226 414.354 88.2602 415.416 87.0046 415.416ZM87.0046 411.746C86.232 411.746 85.6525 412.326 85.6525 413.098C85.6525 413.871 86.232 414.45 87.0046 414.45C87.7773 414.45 88.3568 413.871 88.3568 413.098C88.3568 412.326 87.7773 411.746 87.0046 411.746Z" fill="#FFCC01"/>
<path d="M108.253 301.845C109.267 301.845 110.088 301.023 110.088 300.01C110.088 298.996 109.267 298.175 108.253 298.175C107.24 298.175 106.418 298.996 106.418 300.01C106.418 301.023 107.24 301.845 108.253 301.845Z" fill="#FFAB03"/>
<path d="M108.253 302.328C106.997 302.328 105.935 301.265 105.935 300.01C105.935 298.754 106.997 297.692 108.253 297.692C109.509 297.692 110.571 298.754 110.571 300.01C110.571 301.265 109.605 302.328 108.253 302.328ZM108.253 298.658C107.48 298.658 106.901 299.237 106.901 300.01C106.901 300.782 107.48 301.362 108.253 301.362C109.026 301.362 109.605 300.782 109.605 300.01C109.605 299.237 109.026 298.658 108.253 298.658Z" fill="#FFCC01"/>
<path d="M105.356 304.742C105.942 304.742 106.418 304.266 106.418 303.68C106.418 303.093 105.942 302.617 105.356 302.617C104.769 302.617 104.293 303.093 104.293 303.68C104.293 304.266 104.769 304.742 105.356 304.742Z" fill="#FFAB03"/>
<path d="M105.356 305.225C104.486 305.225 103.81 304.549 103.81 303.68C103.81 302.81 104.486 302.134 105.356 302.134C106.225 302.134 106.901 302.81 106.901 303.68C106.901 304.549 106.225 305.225 105.356 305.225ZM105.356 303.004C104.969 303.004 104.776 303.293 104.776 303.583C104.776 303.873 105.066 304.162 105.356 304.162C105.645 304.162 105.935 303.873 105.935 303.583C105.935 303.293 105.645 303.004 105.356 303.004Z" fill="#FFCC01"/>
<path d="M86.232 331.203C86.8187 331.203 87.2944 330.728 87.2944 330.141C87.2944 329.554 86.8187 329.079 86.232 329.079C85.6452 329.079 85.1695 329.554 85.1695 330.141C85.1695 330.728 85.6452 331.203 86.232 331.203Z" fill="#FFAB03"/>
<path d="M86.232 331.686C85.3627 331.686 84.6866 331.01 84.6866 330.141C84.6866 329.272 85.3627 328.596 86.232 328.596C87.1012 328.596 87.7773 329.272 87.7773 330.141C87.7773 331.01 87.1012 331.686 86.232 331.686ZM86.232 329.465C85.8456 329.465 85.6525 329.755 85.6525 330.044C85.6525 330.334 85.9422 330.624 86.232 330.624C86.5217 330.624 86.8115 330.334 86.8115 330.044C86.8115 329.755 86.6183 329.465 86.232 329.465Z" fill="#FFCC01"/>
<path d="M79.6643 354.671C80.251 354.671 80.7267 354.195 80.7267 353.608C80.7267 353.022 80.251 352.546 79.6643 352.546C79.0775 352.546 78.6019 353.022 78.6019 353.608C78.6019 354.195 79.0775 354.671 79.6643 354.671Z" fill="#FFAB03"/>
<path d="M79.6643 355.154C78.795 355.154 78.1189 354.478 78.1189 353.608C78.1189 352.739 78.795 352.063 79.6643 352.063C80.5335 352.063 81.2096 352.739 81.2096 353.608C81.2096 354.478 80.5335 355.154 79.6643 355.154ZM79.6643 353.029C79.2779 353.029 79.0848 353.319 79.0848 353.608C79.0848 353.898 79.3745 354.188 79.6643 354.188C79.954 354.188 80.2438 353.898 80.2438 353.608C80.2438 353.319 79.954 353.029 79.6643 353.029Z" fill="#FFCC01"/>
<path d="M82.5618 356.119C83.1485 356.119 83.6242 355.644 83.6242 355.057C83.6242 354.47 83.1485 353.995 82.5618 353.995C81.975 353.995 81.4994 354.47 81.4994 355.057C81.4994 355.644 81.975 356.119 82.5618 356.119Z" fill="#FFAB03"/>
<path d="M82.5618 356.699C81.6925 356.699 81.0164 356.023 81.0164 355.154C81.0164 354.285 81.6925 353.608 82.5618 353.608C83.431 353.608 84.1071 354.285 84.1071 355.154C84.1071 356.023 83.431 356.699 82.5618 356.699ZM82.5618 354.478C82.1755 354.478 81.9823 354.767 81.9823 355.057C81.9823 355.443 82.272 355.637 82.5618 355.637C82.8515 355.637 83.1413 355.347 83.1413 355.057C83.2379 354.767 82.9481 354.478 82.5618 354.478Z" fill="#FFCC01"/>
<path d="M79.2779 367.515C79.8647 367.515 80.3404 367.04 80.3404 366.453C80.3404 365.866 79.8647 365.391 79.2779 365.391C78.6912 365.391 78.2155 365.866 78.2155 366.453C78.2155 367.04 78.6912 367.515 79.2779 367.515Z" fill="#FFAB03"/>
<path d="M79.2779 368.095C78.4087 368.095 77.7326 367.419 77.7326 366.549C77.7326 365.68 78.4087 365.004 79.2779 365.004C80.1472 365.004 80.8233 365.68 80.8233 366.549C80.8233 367.419 80.1472 368.095 79.2779 368.095ZM79.2779 365.873C78.8916 365.873 78.6984 366.163 78.6984 366.453C78.6984 366.839 78.9882 367.032 79.2779 367.032C79.5677 367.032 79.8574 366.743 79.8574 366.453C79.954 366.163 79.6643 365.873 79.2779 365.873Z" fill="#FFCC01"/>
<path d="M81.8857 377.366C82.4725 377.366 82.9481 376.89 82.9481 376.303C82.9481 375.717 82.4725 375.241 81.8857 375.241C81.2989 375.241 80.8233 375.717 80.8233 376.303C80.8233 376.89 81.2989 377.366 81.8857 377.366Z" fill="#FFAB03"/>
<path d="M81.8857 377.849C81.0164 377.849 80.3404 377.173 80.3404 376.303C80.3404 375.434 81.0164 374.758 81.8857 374.758C82.755 374.758 83.431 375.434 83.431 376.303C83.431 377.173 82.755 377.849 81.8857 377.849ZM81.8857 375.627C81.4994 375.627 81.3062 375.917 81.3062 376.207C81.3062 376.497 81.596 376.786 81.8857 376.786C82.1755 376.786 82.4652 376.497 82.4652 376.207C82.4652 375.917 82.1755 375.627 81.8857 375.627Z" fill="#FFCC01"/>
<path d="M86.232 403.151C86.8187 403.151 87.2944 402.675 87.2944 402.089C87.2944 401.502 86.8187 401.026 86.232 401.026C85.6452 401.026 85.1695 401.502 85.1695 402.089C85.1695 402.675 85.6452 403.151 86.232 403.151Z" fill="#FFAB03"/>
<path d="M86.232 403.73C85.3627 403.73 84.6866 403.054 84.6866 402.185C84.6866 401.316 85.3627 400.64 86.232 400.64C87.1012 400.64 87.7773 401.316 87.7773 402.185C87.7773 403.054 87.1012 403.73 86.232 403.73ZM86.232 401.509C85.8456 401.509 85.6525 401.799 85.6525 402.089C85.6525 402.378 85.9422 402.668 86.232 402.668C86.5217 402.668 86.8115 402.378 86.8115 402.089C86.8115 401.799 86.6183 401.509 86.232 401.509Z" fill="#FFCC01"/>
<path d="M83.3345 406.821C83.9212 406.821 84.3969 406.345 84.3969 405.759C84.3969 405.172 83.9212 404.696 83.3345 404.696C82.7477 404.696 82.272 405.172 82.272 405.759C82.272 406.345 82.7477 406.821 83.3345 406.821Z" fill="#FFAB03"/>
<path d="M83.3345 407.4C82.4652 407.4 81.7891 406.724 81.7891 405.855C81.7891 404.986 82.4652 404.31 83.3345 404.31C84.2037 404.31 84.8798 404.986 84.8798 405.855C84.8798 406.724 84.2037 407.4 83.3345 407.4ZM83.3345 405.179C82.9481 405.179 82.755 405.469 82.755 405.759C82.755 406.145 83.0447 406.338 83.3345 406.338C83.6242 406.338 83.914 406.048 83.914 405.759C83.914 405.469 83.6242 405.179 83.3345 405.179Z" fill="#FFCC01"/>
<path d="M89.2261 417.83C89.8128 417.83 90.2885 417.355 90.2885 416.768C90.2885 416.181 89.8128 415.706 89.2261 415.706C88.6393 415.706 88.1636 416.181 88.1636 416.768C88.1636 417.355 88.6393 417.83 89.2261 417.83Z" fill="#FFAB03"/>
<path d="M89.2261 418.41C88.3568 418.41 87.6807 417.734 87.6807 416.865C87.6807 415.995 88.3568 415.319 89.2261 415.319C90.0953 415.319 90.7714 415.995 90.7714 416.865C90.7714 417.734 90.0953 418.41 89.2261 418.41ZM89.2261 416.189C88.8397 416.189 88.6466 416.478 88.6466 416.768C88.6466 417.058 88.9363 417.347 89.2261 417.347C89.5158 417.347 89.8056 417.058 89.8056 416.768C89.8056 416.478 89.5158 416.189 89.2261 416.189Z" fill="#FFCC01"/>
<path d="M122.258 459.744C122.844 459.744 123.32 459.268 123.32 458.681C123.32 458.095 122.844 457.619 122.258 457.619C121.671 457.619 121.195 458.095 121.195 458.681C121.195 459.268 121.671 459.744 122.258 459.744Z" fill="#FFAB03"/>
<path d="M122.258 460.226C121.388 460.226 120.712 459.55 120.712 458.681C120.712 457.812 121.388 457.136 122.258 457.136C123.127 457.136 123.803 457.812 123.803 458.681C123.803 459.55 123.127 460.226 122.258 460.226ZM122.258 458.005C121.871 458.005 121.678 458.295 121.678 458.585C121.678 458.971 121.968 459.164 122.258 459.164C122.547 459.164 122.837 458.874 122.837 458.585C122.837 458.295 122.547 458.005 122.258 458.005Z" fill="#FFCC01"/>
<path d="M123.706 464.862C124.293 464.862 124.769 464.386 124.769 463.8C124.769 463.213 124.293 462.737 123.706 462.737C123.12 462.737 122.644 463.213 122.644 463.8C122.644 464.386 123.12 464.862 123.706 464.862Z" fill="#FFAB03"/>
<path d="M123.706 465.345C122.837 465.345 122.161 464.669 122.161 463.8C122.161 462.931 122.837 462.254 123.706 462.254C124.576 462.254 125.252 462.931 125.252 463.8C125.252 464.669 124.576 465.345 123.706 465.345ZM123.706 463.22C123.32 463.22 123.127 463.51 123.127 463.8C123.127 464.186 123.417 464.379 123.706 464.379C123.996 464.379 124.286 464.089 124.286 463.8C124.383 463.51 124.093 463.22 123.706 463.22Z" fill="#FFCC01"/>
<path d="M131.819 461.965C132.406 461.965 132.882 461.489 132.882 460.902C132.882 460.316 132.406 459.84 131.819 459.84C131.233 459.84 130.757 460.316 130.757 460.902C130.757 461.489 131.233 461.965 131.819 461.965Z" fill="#FFAB03"/>
<path d="M131.819 462.448C130.95 462.448 130.274 461.772 130.274 460.902C130.274 460.033 130.95 459.357 131.819 459.357C132.689 459.357 133.365 460.033 133.365 460.902C133.365 461.772 132.689 462.448 131.819 462.448ZM131.819 460.226C131.433 460.226 131.24 460.516 131.24 460.806C131.24 461.096 131.53 461.385 131.819 461.385C132.109 461.385 132.399 461.096 132.399 460.806C132.399 460.516 132.109 460.226 131.819 460.226Z" fill="#FFCC01"/>
<path d="M188.321 484.66C188.908 484.66 189.383 484.184 189.383 483.597C189.383 483.011 188.908 482.535 188.321 482.535C187.734 482.535 187.259 483.011 187.259 483.597C187.259 484.184 187.734 484.66 188.321 484.66Z" fill="#FFAB03"/>
<path d="M188.321 485.239C187.452 485.239 186.776 484.563 186.776 483.694C186.776 482.825 187.452 482.149 188.321 482.149C189.19 482.149 189.866 482.825 189.866 483.694C189.866 484.563 189.287 485.239 188.321 485.239ZM188.321 483.018C187.935 483.018 187.741 483.308 187.741 483.597C187.741 483.887 188.031 484.177 188.321 484.177C188.611 484.177 188.9 483.887 188.9 483.597C188.9 483.308 188.707 483.018 188.321 483.018Z" fill="#FFCC01"/>
<path d="M192.764 480.314C193.351 480.314 193.826 479.838 193.826 479.252C193.826 478.665 193.351 478.189 192.764 478.189C192.177 478.189 191.701 478.665 191.701 479.252C191.701 479.838 192.177 480.314 192.764 480.314Z" fill="#FFAB03"/>
<path d="M192.764 480.797C191.895 480.797 191.218 480.121 191.218 479.252C191.218 478.382 191.895 477.706 192.764 477.706C193.633 477.706 194.309 478.382 194.309 479.252C194.309 480.121 193.633 480.797 192.764 480.797ZM192.764 478.576C192.377 478.576 192.184 478.865 192.184 479.155C192.184 479.445 192.474 479.734 192.764 479.734C193.054 479.734 193.343 479.445 193.343 479.155C193.343 478.865 193.15 478.576 192.764 478.576Z" fill="#FFCC01"/>
<path d="M261.821 455.301C262.408 455.301 262.884 454.826 262.884 454.239C262.884 453.652 262.408 453.177 261.821 453.177C261.234 453.177 260.759 453.652 260.759 454.239C260.759 454.826 261.234 455.301 261.821 455.301Z" fill="#FFAB03"/>
<path d="M261.821 455.881C260.952 455.881 260.276 455.205 260.276 454.335C260.276 453.466 260.952 452.79 261.821 452.79C262.69 452.79 263.367 453.466 263.367 454.335C263.367 455.205 262.69 455.881 261.821 455.881ZM261.821 453.659C261.435 453.659 261.242 453.949 261.242 454.239C261.242 454.625 261.531 454.818 261.821 454.818C262.111 454.818 262.401 454.529 262.401 454.239C262.497 453.949 262.208 453.659 261.821 453.659Z" fill="#FFCC01"/>
<path d="M217.779 477.32C218.366 477.32 218.841 476.844 218.841 476.258C218.841 475.671 218.366 475.195 217.779 475.195C217.192 475.195 216.717 475.671 216.717 476.258C216.717 476.844 217.192 477.32 217.779 477.32Z" fill="#FFAB03"/>
<path d="M217.779 477.9C216.91 477.9 216.234 477.223 216.234 476.354C216.234 475.485 216.91 474.809 217.779 474.809C218.648 474.809 219.324 475.485 219.324 476.354C219.324 477.223 218.648 477.9 217.779 477.9ZM217.779 475.678C217.393 475.678 217.199 475.968 217.199 476.258C217.199 476.547 217.489 476.837 217.779 476.837C218.069 476.837 218.358 476.547 218.358 476.258C218.358 475.968 218.069 475.678 217.779 475.678Z" fill="#FFCC01"/>
<path d="M222.125 475.871C222.712 475.871 223.188 475.396 223.188 474.809C223.188 474.222 222.712 473.747 222.125 473.747C221.539 473.747 221.063 474.222 221.063 474.809C221.063 475.396 221.539 475.871 222.125 475.871Z" fill="#FFAB03"/>
<path d="M222.125 476.451C221.256 476.451 220.58 475.775 220.58 474.906C220.58 474.037 221.256 473.361 222.125 473.361C222.995 473.361 223.671 474.037 223.671 474.906C223.671 475.775 222.995 476.451 222.125 476.451ZM222.125 474.23C221.739 474.23 221.546 474.519 221.546 474.809C221.546 475.099 221.836 475.389 222.125 475.389C222.415 475.389 222.705 475.099 222.705 474.809C222.705 474.519 222.512 474.23 222.125 474.23Z" fill="#FFCC01"/>
<path d="M225.795 474.423C226.382 474.423 226.858 473.947 226.858 473.361C226.858 472.774 226.382 472.298 225.795 472.298C225.209 472.298 224.733 472.774 224.733 473.361C224.733 473.947 225.209 474.423 225.795 474.423Z" fill="#FFAB03"/>
<path d="M225.795 474.906C224.926 474.906 224.25 474.23 224.25 473.361C224.25 472.491 224.926 471.815 225.795 471.815C226.665 471.815 227.341 472.491 227.341 473.361C227.341 474.23 226.665 474.906 225.795 474.906ZM225.795 472.781C225.409 472.781 225.216 473.071 225.216 473.361C225.216 473.747 225.506 473.94 225.795 473.94C226.085 473.94 226.375 473.65 226.375 473.361C226.472 472.974 226.182 472.781 225.795 472.781Z" fill="#FFCC01"/>
<path d="M243.47 464.862C244.057 464.862 244.533 464.386 244.533 463.8C244.533 463.213 244.057 462.737 243.47 462.737C242.884 462.737 242.408 463.213 242.408 463.8C242.408 464.386 242.884 464.862 243.47 464.862Z" fill="#FFAB03"/>
<path d="M243.47 465.345C242.601 465.345 241.925 464.669 241.925 463.8C241.925 462.931 242.601 462.254 243.47 462.254C244.34 462.254 245.016 462.931 245.016 463.8C245.016 464.669 244.34 465.345 243.47 465.345ZM243.47 463.22C243.084 463.22 242.891 463.51 242.891 463.8C242.891 464.186 243.181 464.379 243.47 464.379C243.76 464.379 244.05 464.089 244.05 463.8C244.05 463.51 243.857 463.22 243.47 463.22Z" fill="#FFCC01"/>
<path d="M273.604 437.725C274.191 437.725 274.667 437.249 274.667 436.662C274.667 436.076 274.191 435.6 273.604 435.6C273.018 435.6 272.542 436.076 272.542 436.662C272.542 437.249 273.018 437.725 273.604 437.725Z" fill="#FFAB03"/>
<path d="M273.604 438.208C272.735 438.208 272.059 437.531 272.059 436.662C272.059 435.793 272.735 435.117 273.604 435.117C274.474 435.117 275.15 435.793 275.15 436.662C275.15 437.531 274.474 438.208 273.604 438.208ZM273.604 435.986C273.218 435.986 273.025 436.276 273.025 436.566C273.025 436.952 273.315 437.145 273.604 437.145C273.894 437.145 274.184 436.855 274.184 436.566C274.184 436.276 273.894 435.986 273.604 435.986Z" fill="#FFCC01"/>
<path d="M281.717 425.943C282.304 425.943 282.78 425.467 282.78 424.88C282.78 424.294 282.304 423.818 281.717 423.818C281.131 423.818 280.655 424.294 280.655 424.88C280.655 425.467 281.131 425.943 281.717 425.943Z" fill="#FFAB03"/>
<path d="M281.717 426.425C280.848 426.425 280.172 425.749 280.172 424.88C280.172 424.011 280.848 423.335 281.717 423.335C282.587 423.335 283.263 424.011 283.263 424.88C283.263 425.749 282.587 426.425 281.717 426.425ZM281.717 424.204C281.331 424.204 281.138 424.494 281.138 424.784C281.138 425.073 281.428 425.363 281.717 425.363C282.007 425.363 282.297 425.073 282.297 424.784C282.297 424.494 282.007 424.204 281.717 424.204Z" fill="#FFCC01"/>
<path d="M283.842 420.824C284.429 420.824 284.905 420.349 284.905 419.762C284.905 419.175 284.429 418.7 283.842 418.7C283.256 418.7 282.78 419.175 282.78 419.762C282.78 420.349 283.256 420.824 283.842 420.824Z" fill="#FFAB03"/>
<path d="M283.842 421.307C282.973 421.307 282.297 420.631 282.297 419.762C282.297 418.893 282.973 418.217 283.842 418.217C284.712 418.217 285.388 418.893 285.388 419.762C285.388 420.631 284.712 421.307 283.842 421.307ZM283.842 419.086C283.456 419.086 283.263 419.376 283.263 419.665C283.263 419.955 283.553 420.245 283.842 420.245C284.132 420.245 284.422 419.955 284.422 419.665C284.422 419.376 284.229 419.086 283.842 419.086Z" fill="#FFCC01"/>
<path d="M89.9022 332.652C90.4889 332.652 90.9646 332.176 90.9646 331.59C90.9646 331.003 90.4889 330.527 89.9022 330.527C89.3154 330.527 88.8397 331.003 88.8397 331.59C88.8397 332.176 89.3154 332.652 89.9022 332.652Z" fill="#FFAB03"/>
<path d="M89.9022 333.135C89.0329 333.135 88.3568 332.459 88.3568 331.59C88.3568 330.72 89.0329 330.044 89.9022 330.044C90.7714 330.044 91.4475 330.72 91.4475 331.59C91.4475 332.459 90.7714 333.135 89.9022 333.135ZM89.9022 330.914C89.5158 330.914 89.3226 331.203 89.3226 331.493C89.3226 331.879 89.6124 332.072 89.9022 332.072C90.1919 332.072 90.4817 331.783 90.4817 331.493C90.5782 331.203 90.2885 330.914 89.9022 330.914Z" fill="#FFCC01"/>
<path d="M151.619 271.714C152.206 271.714 152.682 271.238 152.682 270.651C152.682 270.065 152.206 269.589 151.619 269.589C151.032 269.589 150.557 270.065 150.557 270.651C150.557 271.238 151.032 271.714 151.619 271.714Z" fill="#FFAB03"/>
<path d="M151.619 272.196C150.75 272.196 150.074 271.52 150.074 270.651C150.074 269.782 150.75 269.106 151.619 269.106C152.488 269.106 153.164 269.782 153.164 270.651C153.164 271.52 152.488 272.196 151.619 272.196ZM151.619 269.975C151.233 269.975 151.04 270.265 151.04 270.555C151.04 270.844 151.329 271.134 151.619 271.134C151.909 271.134 152.199 270.844 152.199 270.555C152.199 270.265 152.005 269.975 151.619 269.975Z" fill="#FFCC01"/>
<path d="M154.613 273.838C155.2 273.838 155.676 273.363 155.676 272.776C155.676 272.189 155.2 271.714 154.613 271.714C154.026 271.714 153.551 272.189 153.551 272.776C153.551 273.363 154.026 273.838 154.613 273.838Z" fill="#FFAB03"/>
<path d="M154.613 274.418C153.744 274.418 153.068 273.742 153.068 272.872C153.068 272.003 153.744 271.327 154.613 271.327C155.482 271.327 156.159 272.003 156.159 272.872C156.159 273.742 155.482 274.418 154.613 274.418ZM154.613 272.196C154.227 272.196 154.034 272.486 154.034 272.776C154.034 273.162 154.323 273.355 154.613 273.355C154.903 273.355 155.193 273.066 155.193 272.776C155.193 272.486 154.903 272.196 154.613 272.196Z" fill="#FFCC01"/>
<path d="M162.63 270.168C163.216 270.168 163.692 269.693 163.692 269.106C163.692 268.519 163.216 268.044 162.63 268.044C162.043 268.044 161.567 268.519 161.567 269.106C161.567 269.693 162.043 270.168 162.63 270.168Z" fill="#FFAB03"/>
<path d="M162.63 270.748C161.76 270.748 161.084 270.072 161.084 269.203C161.084 268.333 161.76 267.657 162.63 267.657C163.499 267.657 164.175 268.333 164.175 269.203C164.175 270.072 163.499 270.748 162.63 270.748ZM162.63 268.527C162.243 268.527 162.05 268.816 162.05 269.106C162.05 269.492 162.34 269.685 162.63 269.685C162.919 269.685 163.209 269.396 163.209 269.106C163.306 268.816 163.016 268.527 162.63 268.527Z" fill="#FFCC01"/>
<path d="M164.078 267.271C164.665 267.271 165.141 266.796 165.141 266.209C165.141 265.622 164.665 265.146 164.078 265.146C163.492 265.146 163.016 265.622 163.016 266.209C163.016 266.796 163.492 267.271 164.078 267.271Z" fill="#FFAB03"/>
<path d="M164.078 267.754C163.209 267.754 162.533 267.078 162.533 266.209C162.533 265.34 163.209 264.664 164.078 264.664C164.948 264.664 165.624 265.34 165.624 266.209C165.624 267.078 165.044 267.754 164.078 267.754ZM164.078 265.533C163.692 265.533 163.499 265.823 163.499 266.112C163.499 266.402 163.789 266.692 164.078 266.692C164.368 266.692 164.755 266.499 164.755 266.209C164.755 265.919 164.465 265.533 164.078 265.533Z" fill="#FFCC01"/>
<path d="M211.115 267.947C211.701 267.947 212.177 267.472 212.177 266.885C212.177 266.298 211.701 265.823 211.115 265.823C210.528 265.823 210.052 266.298 210.052 266.885C210.052 267.472 210.528 267.947 211.115 267.947Z" fill="#FFAB03"/>
<path d="M211.115 268.527C210.245 268.527 209.569 267.851 209.569 266.981C209.569 266.112 210.245 265.436 211.115 265.436C211.984 265.436 212.66 266.112 212.66 266.981C212.66 267.851 211.984 268.527 211.115 268.527ZM211.115 266.305C210.728 266.305 210.535 266.595 210.535 266.885C210.535 267.175 210.825 267.464 211.115 267.464C211.404 267.464 211.694 267.175 211.694 266.885C211.694 266.595 211.501 266.305 211.115 266.305Z" fill="#FFCC01"/>
<path d="M217.006 270.941C217.593 270.941 218.069 270.465 218.069 269.879C218.069 269.292 217.593 268.816 217.006 268.816C216.42 268.816 215.944 269.292 215.944 269.879C215.944 270.465 216.42 270.941 217.006 270.941Z" fill="#FFAB03"/>
<path d="M217.006 271.424C216.137 271.424 215.461 270.748 215.461 269.879C215.461 269.009 216.137 268.333 217.006 268.333C217.876 268.333 218.552 269.009 218.552 269.879C218.552 270.748 217.876 271.424 217.006 271.424ZM217.006 269.203C216.62 269.203 216.427 269.492 216.427 269.782C216.427 270.072 216.717 270.361 217.006 270.361C217.296 270.361 217.586 270.072 217.586 269.782C217.586 269.492 217.393 269.203 217.006 269.203Z" fill="#FFCC01"/>
<path d="M223.671 273.838C224.257 273.838 224.733 273.363 224.733 272.776C224.733 272.189 224.257 271.714 223.671 271.714C223.084 271.714 222.608 272.189 222.608 272.776C222.608 273.363 223.084 273.838 223.671 273.838Z" fill="#FFAB03"/>
<path d="M223.671 274.418C222.801 274.418 222.125 273.742 222.125 272.872C222.125 272.003 222.801 271.327 223.671 271.327C224.54 271.327 225.216 272.003 225.216 272.872C225.216 273.742 224.54 274.418 223.671 274.418ZM223.671 272.196C223.284 272.196 223.091 272.486 223.091 272.776C223.091 273.162 223.381 273.355 223.671 273.355C223.96 273.355 224.25 273.066 224.25 272.776C224.25 272.486 223.96 272.196 223.671 272.196Z" fill="#FFCC01"/>
<path d="M276.502 313.53C277.089 313.53 277.564 313.055 277.564 312.468C277.564 311.881 277.089 311.406 276.502 311.406C275.915 311.406 275.439 311.881 275.439 312.468C275.439 313.055 275.915 313.53 276.502 313.53Z" fill="#FFAB03"/>
<path d="M276.502 314.013C275.633 314.013 274.957 313.337 274.957 312.468C274.957 311.599 275.633 310.923 276.502 310.923C277.371 310.923 278.047 311.599 278.047 312.468C278.047 313.337 277.371 314.013 276.502 314.013ZM276.502 311.888C276.116 311.888 275.922 312.178 275.922 312.468C275.922 312.758 276.212 313.047 276.502 313.047C276.792 313.047 277.081 312.758 277.081 312.468C277.081 312.178 276.888 311.888 276.502 311.888Z" fill="#FFCC01"/>
<path d="M290.507 347.331C291.093 347.331 291.569 346.856 291.569 346.269C291.569 345.682 291.093 345.207 290.507 345.207C289.92 345.207 289.444 345.682 289.444 346.269C289.444 346.856 289.92 347.331 290.507 347.331Z" fill="#FFAB03"/>
<path d="M290.507 347.814C289.637 347.814 288.961 347.138 288.961 346.269C288.961 345.4 289.637 344.724 290.507 344.724C291.376 344.724 292.052 345.4 292.052 346.269C292.052 347.138 291.376 347.814 290.507 347.814ZM290.507 345.689C290.12 345.689 289.927 345.979 289.927 346.269C289.927 346.655 290.217 346.848 290.507 346.848C290.796 346.848 291.086 346.559 291.086 346.269C291.086 345.883 290.796 345.689 290.507 345.689Z" fill="#FFCC01"/>
<path d="M292.728 355.443C293.315 355.443 293.79 354.968 293.79 354.381C293.79 353.794 293.315 353.319 292.728 353.319C292.141 353.319 291.666 353.794 291.666 354.381C291.666 354.968 292.141 355.443 292.728 355.443Z" fill="#FFAB03"/>
<path d="M292.728 355.926C291.859 355.926 291.183 355.25 291.183 354.381C291.183 353.512 291.859 352.836 292.728 352.836C293.597 352.836 294.273 353.512 294.273 354.381C294.273 355.25 293.597 355.926 292.728 355.926ZM292.728 353.705C292.342 353.705 292.148 353.995 292.148 354.284C292.148 354.671 292.438 354.864 292.728 354.864C293.018 354.864 293.307 354.574 293.307 354.284C293.307 353.995 293.018 353.705 292.728 353.705Z" fill="#FFCC01"/>
<path d="M286.836 335.549C287.423 335.549 287.899 335.073 287.899 334.487C287.899 333.9 287.423 333.424 286.836 333.424C286.25 333.424 285.774 333.9 285.774 334.487C285.774 335.073 286.25 335.549 286.836 335.549Z" fill="#FFAB03"/>
<path d="M286.836 336.129C285.967 336.129 285.291 335.453 285.291 334.583C285.291 333.714 285.967 333.038 286.836 333.038C287.706 333.038 288.382 333.714 288.382 334.583C288.382 335.453 287.706 336.129 286.836 336.129ZM286.836 333.907C286.45 333.907 286.257 334.197 286.257 334.487C286.257 334.777 286.547 335.066 286.836 335.066C287.126 335.066 287.416 334.777 287.416 334.487C287.416 334.197 287.126 333.907 286.836 333.907Z" fill="#FFCC01"/>
<path d="M241.249 280.502C241.836 280.502 242.311 280.026 242.311 279.439C242.311 278.853 241.836 278.377 241.249 278.377C240.662 278.377 240.186 278.853 240.186 279.439C240.186 280.026 240.662 280.502 241.249 280.502Z" fill="#FFAB03"/>
<path d="M241.249 280.985C240.38 280.985 239.704 280.309 239.704 279.439C239.704 278.57 240.38 277.894 241.249 277.894C242.118 277.894 242.794 278.57 242.794 279.439C242.794 280.309 242.118 280.985 241.249 280.985ZM241.249 278.763C240.862 278.763 240.669 279.053 240.669 279.343C240.669 279.633 240.959 279.922 241.249 279.922C241.539 279.922 241.828 279.633 241.828 279.343C241.828 279.053 241.635 278.763 241.249 278.763Z" fill="#FFCC01"/>
<path d="M271.383 306.963C271.97 306.963 272.445 306.488 272.445 305.901C272.445 305.314 271.97 304.838 271.383 304.838C270.796 304.838 270.321 305.314 270.321 305.901C270.321 306.488 270.796 306.963 271.383 306.963Z" fill="#FFAB03"/>
<path d="M271.383 307.446C270.514 307.446 269.838 306.77 269.838 305.901C269.838 305.032 270.514 304.356 271.383 304.356C272.252 304.356 272.928 305.032 272.928 305.901C272.928 306.77 272.252 307.446 271.383 307.446ZM271.383 305.225C270.997 305.225 270.803 305.515 270.803 305.804C270.803 306.191 271.093 306.384 271.383 306.384C271.673 306.384 271.962 306.094 271.962 305.804C271.962 305.515 271.769 305.225 271.383 305.225Z" fill="#FFCC01"/>
</g>
<defs>
<clipPath id="clip0_40:3">
<rect width="375" height="812" fill="white"/>
</clipPath>
</defs>
</svg>
