<svg width="87" height="87" viewBox="0 0 87 87" fill="none" xmlns="http://www.w3.org/2000/svg">
<g filter="url(#filter0_d_40:3547)">
<path d="M43.377 68.754C57.3923 68.754 68.754 57.3923 68.754 43.377C68.754 29.3617 57.3923 18 43.377 18C29.3617 18 18 29.3617 18 43.377C18 57.3923 29.3617 68.754 43.377 68.754Z" fill="#FFAB03"/>
</g>
<path d="M54.4355 39.2008C54.0952 38.4127 53.6045 37.6986 52.9908 37.0984C52.3767 36.4964 51.6526 36.018 50.858 35.6892C50.034 35.347 49.1503 35.1718 48.258 35.1738C47.0063 35.1738 45.785 35.5166 44.7236 36.164C44.4697 36.3189 44.2285 36.489 44 36.6744C43.7715 36.489 43.5303 36.3189 43.2764 36.164C42.215 35.5166 40.9938 35.1738 39.742 35.1738C38.8406 35.1738 37.9672 35.3465 37.142 35.6892C36.3447 36.0193 35.6262 36.4941 35.0092 37.0984C34.3947 37.698 33.9039 38.4122 33.5645 39.2008C33.2115 40.0209 33.0312 40.8918 33.0312 41.7881C33.0312 42.6336 33.2039 43.5146 33.5467 44.4109C33.8336 45.1599 34.2449 45.9369 34.7705 46.7215C35.6033 47.9631 36.7484 49.258 38.1703 50.5707C40.5266 52.7467 42.86 54.2498 42.959 54.3107L43.5607 54.6967C43.8273 54.8668 44.1701 54.8668 44.4367 54.6967L45.0385 54.3107C45.1375 54.2472 47.4684 52.7467 49.8271 50.5707C51.249 49.258 52.3941 47.9631 53.227 46.7215C53.7525 45.9369 54.1664 45.1599 54.4508 44.4109C54.7936 43.5146 54.9662 42.6336 54.9662 41.7881C54.9688 40.8918 54.7885 40.0209 54.4355 39.2008V39.2008Z" fill="white"/>
<defs>
<filter id="filter0_d_40:3547" x="0" y="0" width="86.7539" height="86.754" filterUnits="userSpaceOnUse" color-interpolation-filters="sRGB">
<feFlood flood-opacity="0" result="BackgroundImageFix"/>
<feColorMatrix in="SourceAlpha" type="matrix" values="0 0 0 0 0 0 0 0 0 0 0 0 0 0 0 0 0 0 127 0" result="hardAlpha"/>
<feOffset/>
<feGaussianBlur stdDeviation="9"/>
<feColorMatrix type="matrix" values="0 0 0 0 1 0 0 0 0 1 0 0 0 0 1 0 0 0 0.08 0"/>
<feBlend mode="normal" in2="BackgroundImageFix" result="effect1_dropShadow_40:3547"/>
<feBlend mode="normal" in="SourceGraphic" in2="effect1_dropShadow_40:3547" result="shape"/>
</filter>
</defs>
</svg>
